<svg width="1782" height="1839" viewBox="0 0 1782 1839" fill="none" xmlns="http://www.w3.org/2000/svg">
<g clip-path="url(#clip0_15_2596)">
<rect width="1782" height="1839" fill="white"/>
<rect x="-31.3489" y="121.951" width="1813.9" height="1748.78" fill="black"/>
<mask id="mask0_15_2596" style="mask-type:alpha" maskUnits="userSpaceOnUse" x="-32" y="-35" width="1815" height="1906">
<rect x="-31.3513" y="-34.668" width="1814.17" height="1905.25" fill="#090000"/>
</mask>
<g mask="url(#mask0_15_2596)">
<g clip-path="url(#clip1_15_2596)">
<path opacity="0.4" d="M3297.88 169.487C3072.77 108.004 2973.03 42.9797 2876.56 -19.8844C2778.89 -83.5631 2677.89 -149.438 2449.69 -211.735C2362.28 -235.606 2289.21 -249.949 2225.11 -258.449H1770.49C1842.79 -252.641 1904.11 -253.774 1964.45 -254.943C2089.47 -257.351 2218.7 -259.83 2443.86 -198.348C2668.97 -136.865 2768.71 -71.8403 2865.18 -8.94076C2962.85 54.7379 3063.85 120.577 3292.05 182.91C3388.43 209.224 3467.41 223.957 3536.04 232.032V217.689C3468.89 209.649 3391.75 195.164 3297.88 169.522V169.487Z" fill="#00E6EF"/>
<path opacity="0.4" d="M3232.08 225.764C3006.96 164.281 2907.58 98.5126 2811.48 34.9401C2714.11 -29.4823 2613.43 -96.1005 2385.18 -158.433C2156.97 -220.766 2025.68 -217.472 1898.78 -214.32C1781.47 -211.381 1660.39 -208.37 1460.65 -258.449H1404.26C1407.17 -257.635 1410 -256.82 1412.95 -256.041C1641.16 -193.708 1772.41 -197.002 1899.36 -200.154C2024.65 -203.27 2154.24 -206.529 2379.35 -145.046C2604.47 -83.5631 2703.85 -17.7949 2799.95 45.7776C2897.32 110.2 2998 176.818 3226.25 239.151C3354.76 274.249 3452.53 288.521 3536.08 293.763V279.526C3454.01 274.284 3357.99 260.153 3232.12 225.764H3232.08Z" fill="#00E6EF"/>
<path opacity="0.4" d="M3166.23 282.04C2941.16 220.593 2842.09 154.081 2746.3 89.7648C2649.25 24.5987 2548.89 -42.7633 2320.63 -105.096C2092.38 -167.429 1960.82 -163.392 1833.51 -159.496C1707.91 -155.635 1578 -151.669 1352.93 -213.152C1298.6 -227.991 1251.63 -243.149 1210.25 -258.449H1169.28C1218.9 -238.545 1276.95 -218.925 1347.1 -199.764C1575.36 -137.431 1706.92 -141.469 1834.23 -145.365C1959.83 -149.19 2089.73 -153.192 2314.8 -91.7088C2539.88 -30.2613 2638.94 36.2507 2734.73 100.567C2831.78 165.733 2932.15 233.095 3160.4 295.428C3323.92 340.088 3437.78 350.677 3536.04 351.669V337.467C3439.26 336.44 3327.06 325.957 3166.23 282.04Z" fill="#00E6EF"/>
<path opacity="0.4" d="M3100.42 338.317C2875.4 276.869 2776.65 209.614 2681.17 144.589C2584.43 78.6794 2484.38 10.5736 2256.08 -51.7946C2027.79 -114.127 1895.86 -109.346 1768.25 -104.707C1642.37 -100.138 1512.16 -95.4276 1287.08 -156.875C1167.58 -189.494 1083.71 -223.777 1017.01 -258.449H985.003C1056.14 -219.208 1146.29 -180.321 1281.21 -143.488C1509.51 -81.1548 1641.43 -85.936 1769.05 -90.5401C1894.97 -95.1088 2025.19 -99.8192 2250.21 -38.3718C2475.24 23.0756 2573.99 90.3313 2669.42 155.356C2766.16 221.266 2866.21 289.371 3094.51 351.74C3295.37 406.6 3421.6 409.468 3536 406.21V392.044C3423.08 395.266 3298.51 392.469 3100.38 338.352L3100.42 338.317Z" fill="#00E6EF"/>
<path opacity="0.4" d="M3516.32 445.309C3390.09 450.587 3259.6 456.076 3034.57 394.629C2809.55 333.181 2711.2 265.217 2616.03 199.484C2519.61 132.866 2419.88 63.9457 2191.53 1.61287C1963.24 -60.72 1830.95 -55.195 1702.98 -49.8472C1576.75 -44.5701 1446.26 -39.0806 1221.23 -100.528C1038.57 -150.43 939.369 -204.581 857.562 -258.379H829.725C916.059 -200.19 1017.32 -141.186 1215.36 -87.1406C1443.7 -24.7724 1575.99 -30.3327 1703.92 -35.6806C1830.1 -40.9576 1960.64 -46.4118 2185.66 15.0003C2410.69 76.4477 2509.04 144.412 2604.2 210.145C2700.62 276.763 2800.36 345.683 3028.7 408.016C3257 470.349 3389.33 464.824 3517.26 459.476C3523.49 459.228 3529.76 458.945 3536.04 458.697V444.53C3529.45 444.814 3522.86 445.062 3516.32 445.345V445.309Z" fill="#00E6EF"/>
<path opacity="0.4" d="M3451.09 500.099C3324.6 506.12 3193.75 512.318 2968.81 450.87C2743.83 389.423 2645.8 320.715 2550.95 254.274C2454.8 186.912 2355.42 117.248 2127.07 54.8796C1898.73 -7.48869 1766.09 -1.18457 1637.84 4.90705C1511.35 10.9278 1380.5 17.1257 1155.52 -44.3217C930.538 -105.769 832.459 -174.477 737.652 -240.918C729.314 -246.762 720.977 -252.606 712.505 -258.449H685.161C698.967 -249.028 712.37 -239.643 725.728 -230.293C821.88 -162.931 921.259 -93.2672 1149.65 -30.8989C1377.99 31.4693 1510.63 25.1652 1638.88 19.0736C1765.37 13.0528 1896.22 6.85495 2121.2 68.3024C2346.18 129.75 2444.22 198.458 2539.02 264.899C2635.17 332.261 2734.55 401.925 2962.9 464.293C3191.24 526.661 3323.88 520.357 3452.13 514.266C3479.56 512.955 3507.22 511.645 3535.99 511.043V496.841C3506.86 497.478 3478.84 498.789 3451.05 500.134L3451.09 500.099Z" fill="#00E6EF"/>
<path opacity="0.4" d="M3385.87 554.923C3259.06 561.653 3127.9 568.594 2902.97 507.182C2678.03 445.735 2580.31 376.319 2485.82 309.134C2389.98 241.028 2290.91 170.62 2062.53 108.252C1834.14 45.8836 1701.19 52.9315 1572.58 59.7668C1445.77 66.4959 1314.65 73.4376 1089.67 12.0255C864.735 -49.4219 767.015 -118.838 672.477 -186.023C638.723 -210 604.521 -234.295 564.447 -258.414H534.279C582.557 -230.86 621.779 -202.987 660.464 -175.504C756.301 -107.399 855.367 -36.9908 1083.75 25.3775C1312.14 87.7458 1445.1 80.6979 1573.7 73.8626C1700.51 67.1334 1831.67 60.1918 2056.61 121.604C2281.55 183.051 2379.27 252.467 2473.76 319.652C2569.6 387.758 2668.66 458.166 2897.05 520.534C3125.44 582.902 3258.39 575.855 3387 569.055C3434.47 566.54 3482.56 563.99 3536 565.017V550.815C3482.21 549.824 3433.7 552.374 3385.83 554.923H3385.87Z" fill="#00E6EF"/>
<path opacity="0.4" d="M3320.61 609.713C3193.48 617.15 3062.05 624.836 2837.12 563.423C2612.22 502.011 2514.82 431.816 2420.64 363.958C2325.11 295.109 2226.36 223.922 1997.93 161.554C1769.5 99.1855 1636.19 106.977 1507.27 114.521C1380.14 121.958 1248.71 129.644 1023.78 68.2315C798.84 6.81952 701.478 -63.3758 607.299 -131.234C548.487 -173.627 488.376 -216.906 397.604 -258.449H360.667C466.053 -213.789 531.409 -166.756 595.196 -120.75C690.72 -51.9008 789.471 19.2861 1017.9 81.6544C1246.29 144.023 1379.65 136.231 1508.57 128.687C1635.69 121.25 1767.12 113.565 1992.06 174.977C2216.99 236.389 2314.36 306.584 2408.54 374.442C2504.06 443.291 2602.81 514.478 2831.24 576.846C3059.68 639.215 3192.99 631.423 3321.91 623.879C3387.94 620.019 3455.17 616.088 3536 621.825V607.552C3454.77 601.921 3387.08 605.852 3320.56 609.748L3320.61 609.713Z" fill="#00E6EF"/>
<path opacity="0.4" d="M3255.39 664.537C3127.99 672.683 2996.2 681.147 2771.31 619.735C2546.42 558.323 2449.37 487.419 2355.55 418.818C2260.34 349.225 2161.9 277.294 1933.47 214.926C1705.04 152.557 1571.37 161.093 1442.09 169.38C1314.65 177.561 1182.91 185.991 958.017 124.579C733.125 63.1665 636.077 -7.77253 542.212 -76.3387C457.94 -137.928 371.067 -201.359 193.781 -258.379H144.159C347.892 -198.95 440.458 -131.376 530.064 -65.9262C625.274 3.66697 723.712 75.5977 952.189 138.001C1180.62 200.37 1314.29 191.834 1443.57 183.547C1570.97 175.401 1702.75 166.937 1927.64 228.349C2152.54 289.761 2249.58 360.7 2343.4 429.266C2438.61 498.859 2537.05 570.79 2765.48 633.158C2993.92 695.526 3127.59 686.991 3256.86 678.703C3339.88 673.391 3424.78 667.972 3536.08 681.82V667.441C3424.42 653.77 3338.99 659.224 3255.43 664.572L3255.39 664.537Z" fill="#00E6EF"/>
<g opacity="0.4">
<path d="M3190.12 719.327C3062.41 728.216 2930.35 737.389 2705.46 675.977C2480.62 614.565 2383.88 542.918 2290.38 473.608C2195.48 403.306 2097.36 330.597 1868.88 268.193C1640.4 205.789 1506.37 215.104 1376.82 224.135C1249.12 233.024 1117.01 242.197 892.167 180.785C667.321 119.373 570.587 47.7258 477.08 -21.5841C382.184 -91.8857 284.06 -164.596 55.5827 -226.999C5.46736 -240.705 -40.1205 -250.941 -82.1223 -258.484H-186.746C-119.507 -252.18 -42.7652 -238.864 49.7105 -213.612C274.557 -152.2 371.291 -80.5524 464.798 -11.2425C559.694 59.059 657.818 131.769 886.295 194.173C1114.77 256.576 1248.76 247.262 1378.35 238.231C1506.06 229.341 1638.16 220.168 1863.01 281.58C2087.85 342.992 2184.59 414.64 2278.09 483.949C2372.99 554.251 2471.11 626.961 2699.59 689.365C2928.07 751.768 3062.05 742.454 3191.64 733.423C3290.26 726.587 3391.48 719.575 3536 744.968V730.448C3391.16 705.373 3289.32 712.421 3190.07 719.327H3190.12Z" fill="#00E6EF"/>
</g>
<path opacity="0.4" d="M3124.9 774.152C2996.88 783.749 2864.5 793.666 2639.66 732.289C2414.81 670.877 2318.44 598.486 2225.24 528.503C2130.66 457.458 2032.85 383.969 1804.37 321.566C1575.85 259.162 1441.51 269.255 1311.6 278.995C1183.58 288.593 1051.21 298.509 826.363 237.133C601.517 175.721 505.141 103.33 411.948 33.3115C317.366 -37.7338 219.556 -111.223 -8.96632 -173.626C-237.488 -236.03 -371.832 -225.972 -501.782 -216.232C-621.87 -207.237 -745.903 -197.958 -946.544 -247.611V-232.807C-745.679 -183.791 -620.929 -193.106 -500.033 -202.172C-372.011 -211.77 -239.595 -221.687 -14.7937 -160.31C210.053 -98.8979 306.428 -26.5068 399.621 43.5114C494.204 114.557 592.014 188.046 820.536 250.449C1049.01 312.853 1183.4 302.795 1313.31 293.02C1441.33 283.422 1573.7 273.505 1798.55 334.882C2023.35 396.294 2119.72 468.685 2212.96 538.668C2307.54 609.713 2405.35 683.202 2633.88 745.606C2862.4 808.01 2996.74 797.951 3126.65 788.176C3239.56 779.712 3355.93 771.035 3536.09 811.233V796.499C3355.62 756.798 3238.58 765.581 3124.94 774.081L3124.9 774.152Z" fill="#00E6EF"/>
<path opacity="0.4" d="M3059.68 828.941C2931.34 839.247 2798.66 849.907 2573.85 788.531C2349.05 727.154 2253.04 654.019 2160.16 583.293C2065.89 511.504 1968.39 437.271 1739.87 374.867C1511.35 312.464 1376.65 323.301 1246.38 333.749C1118.09 344.055 985.362 354.715 760.56 293.339C535.759 231.962 439.742 158.827 346.863 88.1008C252.594 16.3118 155.098 -57.921 -73.4243 -120.325C-301.946 -182.728 -436.648 -171.891 -566.912 -161.443C-673.597 -152.872 -783.376 -144.089 -946.497 -176.637V-162.01C-782.972 -129.887 -672.477 -138.706 -565.074 -147.347C-436.738 -157.654 -304.008 -168.314 -79.2516 -106.937C145.55 -45.5607 241.612 27.5742 334.446 98.3008C428.715 170.09 526.211 244.323 754.733 306.726C983.255 369.13 1117.96 358.292 1248.22 347.845C1376.56 337.538 1509.24 326.878 1734.04 388.255C1958.84 449.631 2054.86 522.766 2147.74 593.493C2242.01 665.282 2339.51 739.514 2568.03 801.918C2796.55 864.322 2931.25 853.485 3061.52 843.037C3187.66 832.908 3318.1 822.46 3536.09 880.436V865.491C3317.92 808.222 3186.67 818.741 3059.72 828.941H3059.68Z" fill="#00E6EF"/>
<path opacity="0.4" d="M3488.62 923.395C3260.05 860.992 3125.03 872.573 2994.41 883.764C2865.8 894.814 2732.76 906.218 2508.01 844.842C2283.25 783.465 2187.55 709.587 2094.98 638.152C2001.03 565.619 1903.84 490.642 1675.28 428.203C1446.71 365.8 1311.69 377.381 1181.07 388.572C1052.47 399.622 919.422 411.026 694.666 349.65C469.909 288.273 374.206 214.395 281.64 142.96C187.685 70.427 90.5031 -4.54947 -138.064 -66.9886C-366.631 -129.392 -501.691 -117.811 -632.269 -106.619C-724.207 -98.7216 -818.341 -90.6821 -946.632 -109.099V-94.6842C-817.803 -76.4801 -722.951 -84.5905 -630.341 -92.5238C-501.736 -103.574 -368.693 -114.978 -143.936 -53.5658C80.8207 7.81085 176.524 81.6894 269.089 153.124C363.044 225.657 460.226 300.634 688.793 363.073C917.36 425.476 1052.38 413.895 1183 402.704C1311.65 391.654 1444.65 380.25 1669.4 441.626C1894.16 503.003 1989.86 576.881 2082.43 648.316C2176.38 720.849 2273.57 795.825 2502.13 858.264C2730.7 920.668 2865.72 909.087 2996.34 897.895C3124.99 886.846 3257.99 875.441 3482.74 936.818C3501.39 941.918 3519.1 947.089 3536.04 952.366V937.172C3520.84 932.533 3505.11 927.964 3488.62 923.466V923.395Z" fill="#00E6EF"/>
<path opacity="0.4" d="M3424.06 976.733C3195.45 914.294 3060.08 926.654 2929.19 938.589C2800.27 950.347 2666.96 962.495 2442.2 901.119C2217.49 839.742 2122.1 765.155 2029.89 693.012C1936.25 619.735 1839.38 543.98 1610.81 481.576C1382.25 419.137 1246.83 431.497 1115.94 443.433C987.018 455.191 853.706 467.339 628.95 405.962C404.193 344.586 308.849 269.999 216.597 197.82C122.956 124.544 26.0871 48.7879 -202.525 -13.6158C-431.136 -76.0548 -566.51 -63.6945 -697.447 -51.7592C-773.113 -44.853 -850.303 -37.8405 -946.544 -45.6322V-31.3593C-849.585 -23.7094 -771.723 -30.7573 -695.385 -37.6989C-566.465 -49.4571 -433.109 -61.6049 -208.397 -0.228336C16.36 61.1483 111.705 135.735 203.956 207.914C297.597 281.19 394.466 356.946 623.078 419.35C851.645 481.753 987.063 469.428 1117.95 457.493C1246.87 445.735 1380.23 433.587 1604.94 494.964C1829.65 556.34 1925.04 630.927 2017.25 703.07C2110.89 776.347 2207.76 852.102 2436.33 914.506C2664.89 976.945 2800.27 964.585 2931.2 952.649C3060.12 940.891 3193.44 928.743 3418.19 990.12C3462.12 1002.13 3501.03 1014.63 3535.99 1027.52V1011.9C3502.46 999.824 3465.44 988.066 3424.02 976.768L3424.06 976.733Z" fill="#00E6EF"/>
<path opacity="0.4" d="M3359.56 1030.03C3130.95 967.595 2995.22 980.699 2863.97 993.378C2734.73 1005.84 2601.11 1018.74 2376.4 957.395C2151.68 896.018 2056.65 820.688 1964.76 747.836C1871.43 673.851 1774.88 597.317 1546.27 534.877C1317.65 472.438 1181.92 485.542 1050.67 498.222C921.438 510.688 787.813 523.58 563.101 462.238C338.389 400.862 243.358 325.531 151.465 252.68C58.1376 178.659 -38.4172 102.16 -267.029 39.7209C-495.641 -22.7182 -631.373 -9.61413 -762.668 3.02952C-820.493 8.58989 -879.215 14.2565 -946.544 13.3003V27.5377C-878.408 28.4585 -819.014 22.7565 -760.517 17.0898C-631.284 4.62326 -497.658 -8.26831 -272.946 53.1083C-48.234 114.485 46.7967 189.816 138.69 262.667C232.017 336.652 328.572 413.187 557.184 475.626C785.795 538.065 921.528 524.961 1052.78 512.282C1182.01 499.815 1315.64 486.924 1540.35 548.265C1765.06 609.641 1860.09 684.972 1951.98 757.824C2045.31 831.809 2141.87 908.343 2370.48 970.782C2599.09 1033.22 2734.82 1020.12 2866.07 1007.44C2995.31 994.972 3128.93 982.08 3353.64 1043.42C3426.71 1063.36 3486.01 1084.82 3535.99 1107.17V1090.88C3487.04 1069.59 3429.49 1049.16 3359.52 1030.03H3359.56Z" fill="#00E6EF"/>
<path opacity="0.4" d="M3295.01 1083.37C3066.35 1020.93 2930.31 1034.78 2798.7 1048.17C2669.15 1061.34 2535.21 1074.98 2310.54 1013.64C2085.88 952.296 1991.16 876.222 1899.58 802.627C1806.57 727.898 1710.37 650.619 1481.72 588.18C1253.06 525.741 1117.01 539.589 985.404 552.976C855.857 566.151 721.917 579.787 497.25 518.445C272.583 457.104 177.866 381.03 86.287 307.435C-6.72656 232.706 -102.968 155.427 -331.624 92.9883C-560.281 30.5492 -696.372 44.397 -827.936 57.7844C-866.352 61.6802 -905.126 65.6115 -946.59 67.6656V81.903C-904.364 79.8488 -864.783 75.8468 -825.65 71.8801C-696.103 58.7053 -562.164 45.0699 -337.496 106.411C-112.829 167.752 -18.1123 243.862 73.4669 317.422C166.48 392.151 262.722 469.429 491.378 531.904C720.035 594.343 856.081 580.495 987.69 567.108C1117.19 553.933 1251.18 540.297 1475.84 601.639C1700.51 662.98 1795.23 739.054 1886.81 812.649C1979.82 887.378 2076.02 964.656 2304.67 1027.1C2533.33 1089.53 2669.38 1075.69 2800.98 1062.3C2930.53 1049.12 3064.47 1035.49 3289.14 1096.83C3396.54 1126.16 3474.18 1158.84 3535.99 1193.02V1175.77C3474.76 1143.05 3398.47 1111.74 3294.97 1083.48L3295.01 1083.37Z" fill="#00E6EF"/>
<path opacity="0.4" d="M3230.51 1136.71C3001.81 1074.27 2865.4 1088.86 2733.52 1102.99C2603.71 1116.91 2469.45 1131.29 2244.79 1069.95C2020.12 1008.61 1925.76 931.789 1834.54 857.485C1741.84 782.013 1645.96 703.955 1417.26 641.516C1188.6 579.077 1052.2 593.669 920.273 607.8C790.413 621.719 656.159 636.098 431.537 574.721C206.87 513.38 112.511 436.562 21.2461 362.258C-71.4986 286.786 -167.336 208.728 -396.038 146.289C-624.694 83.8497 -761.144 98.4413 -893.067 112.572C-910.728 114.45 -928.434 116.362 -946.454 118.062V132.335C-927.582 130.564 -909.069 128.581 -890.646 126.597C-760.83 112.679 -626.532 98.2996 -401.91 159.676C-177.243 221.017 -82.8843 297.836 8.38109 372.139C101.126 447.612 197.008 525.669 425.665 588.108C654.321 650.547 790.727 635.956 922.649 621.825C1052.51 607.906 1186.76 593.527 1411.39 654.904C1636.05 716.245 1730.41 793.063 1821.63 867.331C1914.38 942.804 2010.21 1020.86 2238.91 1083.3C2467.62 1145.74 2604.02 1131.15 2735.9 1117.02C2865.71 1103.1 2999.97 1088.72 3224.64 1150.06C3373.1 1190.61 3464.68 1237.93 3536.04 1286.8V1268.14C3465.13 1221.18 3373.95 1175.88 3230.51 1136.71Z" fill="#00E6EF"/>
<path opacity="0.4" d="M3165.96 1190.05C2937.26 1127.61 2800.49 1142.98 2668.26 1157.82C2538.13 1172.44 2403.56 1187.57 2178.94 1126.22C1954.32 1064.88 1860.27 987.322 1769.36 912.345C1676.93 836.129 1581.41 757.328 1352.66 694.889C1123.96 632.414 987.198 647.785 854.962 662.66C724.833 677.287 590.266 692.409 365.643 631.068C141.021 569.727 46.9764 492.165 -43.9753 417.189C-136.406 340.973 -231.93 262.171 -460.676 199.697C-682.564 139.064 -817.894 151.708 -946.544 166.087V180.395C-819.238 166.122 -685.792 153.16 -466.504 213.049C-241.881 274.39 -147.837 351.952 -56.8852 426.928C35.5457 503.144 131.07 581.946 359.816 644.42C588.517 706.895 725.281 691.524 857.517 676.649C987.647 662.022 1122.21 646.899 1346.84 708.241C1571.46 769.582 1665.5 847.144 1756.41 922.12C1848.84 998.336 1944.36 1077.14 2173.11 1139.58C2401.81 1202.05 2538.58 1186.68 2670.81 1171.81C2800.99 1157.18 2935.55 1142.06 3160.13 1203.4C3357.37 1257.27 3453.88 1323.6 3536.09 1389.76V1369.64C3455.09 1305.72 3356.96 1242.18 3166 1190.01L3165.96 1190.05Z" fill="#00E6EF"/>
<path opacity="0.4" d="M3517.48 1462.36C3425.36 1385.4 3330.15 1305.86 3101.41 1243.38C2872.66 1180.91 2735.58 1197.06 2602.99 1212.64C2472.55 1227.98 2337.67 1243.84 2113.09 1182.5C1888.51 1121.16 1794.83 1042.89 1704.19 967.17C1612.12 890.21 1516.86 810.665 1288.11 748.191C1059.37 685.716 922.29 701.866 789.695 717.449C659.252 732.785 524.371 748.651 299.794 687.31C75.2164 625.969 -18.5144 547.699 -109.107 471.978C-201.225 395.019 -296.435 315.473 -525.181 252.999C-710.267 202.46 -835.331 203.38 -946.544 213.793V228.066C-836.765 217.653 -713.494 216.555 -531.053 266.386C-306.476 327.727 -212.745 405.998 -122.152 481.718C-30.0347 558.678 65.1755 638.223 293.922 700.697C522.668 763.172 659.745 747.057 792.34 731.439C922.783 716.103 1057.66 700.237 1282.24 761.578C1506.82 822.919 1600.51 901.189 1691.14 976.91C1783.26 1053.87 1878.47 1133.41 2107.22 1195.89C2335.96 1258.36 2473.04 1242.21 2605.63 1226.63C2736.08 1211.3 2870.96 1195.43 3095.54 1256.77C3320.11 1318.11 3413.8 1396.38 3504.44 1472.1C3514.88 1480.81 3525.33 1489.56 3536.04 1498.31V1477.84C3529.81 1472.67 3523.62 1467.53 3517.48 1462.36Z" fill="#00E6EF"/>
<path opacity="0.4" d="M3452.35 1517.19C3360.55 1439.48 3265.65 1359.16 3036.9 1296.68C2808.16 1234.21 2670.72 1251.1 2537.81 1267.43C2407.1 1283.51 2271.86 1300.08 2047.33 1238.78C1822.75 1177.47 1729.42 1098.42 1639.1 1022C1547.3 944.292 1452.4 863.967 1223.65 801.493C994.908 739.018 857.472 755.912 724.563 772.239C593.806 788.318 458.612 804.893 234.079 743.587C9.50164 682.246 -83.8707 603.232 -174.15 526.803C-265.953 449.1 -360.849 368.775 -589.64 306.301C-739.717 265.324 -850.482 258.489 -946.454 263.234V277.472C-851.961 272.726 -743.034 279.384 -595.468 319.688C-370.89 381.029 -277.518 460.043 -187.239 536.472C-95.4357 614.14 -0.539442 694.5 228.252 756.974C456.998 819.449 594.434 802.555 727.343 786.228C858.099 770.185 993.294 753.574 1217.83 814.88C1442.4 876.221 1535.73 955.235 1626.06 1031.66C1717.86 1109.33 1812.76 1189.69 2041.5 1252.17C2270.29 1314.64 2407.73 1297.75 2540.64 1281.42C2671.39 1265.34 2806.59 1248.77 3031.12 1310.07C3255.65 1371.38 3349.03 1450.43 3439.3 1526.82C3469.65 1552.5 3500.36 1578.46 3536.08 1603.99V1584.69C3505.78 1562.31 3478.93 1539.61 3452.39 1517.15L3452.35 1517.19Z" fill="#00E6EF"/>
<path opacity="0.4" d="M3387.22 1572.01C3295.73 1493.6 3201.15 1412.5 2972.36 1350.02C2743.57 1287.55 2605.77 1305.18 2472.55 1322.22C2341.48 1339.01 2205.97 1356.33 1981.48 1295.02C1756.95 1233.71 1663.94 1153.96 1573.97 1076.82C1482.48 998.408 1387.9 917.305 1159.11 854.83C930.316 792.355 792.521 809.993 659.299 827.028C528.228 843.815 392.719 861.134 168.232 799.828C-56.3009 738.523 -149.359 658.765 -239.325 581.628C-330.814 503.216 -425.397 422.112 -654.188 359.638C-771.766 327.515 -865.273 316.607 -946.497 315.863V330.101C-866.797 330.88 -775.128 341.611 -660.06 373.025C-435.527 434.331 -342.469 514.089 -252.504 591.226C-161.014 669.638 -66.4315 750.741 162.36 813.216C391.151 875.69 528.945 858.053 662.167 841.018C793.193 824.23 928.702 806.912 1153.23 868.217C1377.77 929.523 1470.78 1009.28 1560.79 1086.42C1652.28 1164.83 1746.86 1245.93 1975.65 1308.41C2204.45 1370.88 2342.24 1353.25 2475.46 1336.21C2606.49 1319.42 2742 1302.1 2966.53 1363.41C3191.06 1424.72 3284.08 1504.47 3374.04 1581.61C3421.2 1622.06 3469.25 1663.21 3536.04 1702.13V1684.32C3475.75 1647.87 3431.1 1609.62 3387.22 1572.01Z" fill="#00E6EF"/>
<path opacity="0.4" d="M3322.09 1626.87C3230.91 1547.72 3136.69 1465.87 2907.85 1403.36C2679.01 1340.88 2540.91 1359.27 2407.33 1377.04C2275.99 1394.54 2140.16 1412.64 1915.63 1351.33C1691.14 1290.03 1598.44 1209.53 1508.79 1131.68C1417.62 1052.52 1323.35 970.677 1094.56 908.167C865.72 845.693 727.612 864.074 594.031 881.853C462.691 899.348 326.869 917.446 102.336 856.14C-122.152 794.835 -214.852 714.333 -304.503 636.488C-395.679 557.332 -489.948 475.485 -718.784 412.975C-806.418 389.034 -880.695 376.992 -946.544 372.211V386.519C-882.263 391.3 -809.87 403.094 -724.611 426.363C-500.123 487.668 -407.423 568.17 -317.772 646.015C-226.596 725.171 -132.327 807.018 96.5087 869.528C325.345 932.038 463.453 913.621 597.034 895.842C728.374 878.347 864.196 860.249 1088.73 921.554C1313.22 982.86 1405.92 1063.36 1495.57 1141.21C1586.74 1220.36 1681.01 1302.21 1909.8 1364.72C2138.64 1427.19 2276.75 1408.81 2410.33 1391.03C2541.67 1373.54 2677.49 1355.44 2901.98 1416.75C3126.47 1478.05 3219.17 1558.55 3308.82 1636.4C3369.92 1689.49 3432.54 1743.75 3536.04 1792.59V1775.94C3439.89 1729.12 3380.31 1677.41 3322.09 1626.84V1626.87Z" fill="#00E6EF"/>
<path opacity="0.4" d="M3536.04 1860.94C3399.32 1806.86 3327.15 1743.46 3256.95 1681.66C3166.09 1601.76 3072.18 1519.13 2843.3 1456.66C2614.47 1394.15 2476 1413.31 2342.1 1431.83C2210.45 1450.04 2074.31 1468.88 1849.83 1407.57C1625.34 1346.27 1533 1265.02 1443.66 1186.47C1352.8 1106.57 1258.89 1023.94 1030.01 961.468C801.171 898.958 662.704 918.118 528.809 936.641C397.156 954.845 261.019 973.687 36.5317 912.381C-187.956 851.075 -280.297 769.83 -369.635 691.276C-460.497 611.377 -554.452 528.751 -783.288 466.241C-843.444 449.807 -897.325 439.076 -946.544 432.418V446.832C-898.983 453.384 -847.03 463.797 -789.16 479.628C-564.672 540.934 -472.331 622.179 -382.993 700.732C-292.131 780.632 -198.176 863.258 30.6595 925.733C259.495 988.243 397.962 969.082 531.857 950.56C663.511 932.356 799.647 913.514 1024.13 974.82C1248.62 1036.13 1340.96 1117.37 1430.3 1195.92C1521.16 1275.82 1615.07 1358.45 1843.95 1420.92C2072.79 1483.43 2211.26 1464.27 2345.15 1445.75C2476.81 1427.55 2612.94 1408.71 2837.43 1470.01C3061.92 1531.32 3154.26 1612.53 3243.6 1691.12C3312 1751.29 3382.2 1812.98 3510.4 1866.5H3535.99V1860.9L3536.04 1860.94Z" fill="#00E6EF"/>
<path opacity="0.4" d="M3191.78 1736.52C3101.23 1655.88 3007.63 1572.51 2778.75 1510C2549.87 1447.49 2411.09 1467.39 2276.84 1486.66C2144.87 1505.57 2008.42 1525.16 1783.98 1463.85C1559.53 1402.54 1467.51 1320.59 1378.48 1241.33C1287.93 1160.69 1194.34 1077.32 965.456 1014.81C736.576 952.295 597.75 972.199 463.541 991.466C331.574 1010.38 195.124 1029.96 -29.3188 968.658C-253.762 907.352 -345.789 825.398 -434.813 746.136C-525.361 665.493 -618.958 582.123 -847.883 519.613C-882.803 510.086 -915.57 502.507 -946.59 496.486V511.113C-917.319 516.851 -886.478 524.04 -853.756 533.001C-629.313 594.306 -537.285 676.26 -448.261 755.522C-357.713 836.165 -264.117 919.535 -35.191 982.045C193.69 1044.55 332.515 1024.65 466.724 1005.38C598.691 986.472 735.141 966.887 959.584 1028.19C1184.03 1089.5 1276.05 1171.45 1365.08 1250.71C1455.63 1331.36 1549.22 1414.73 1778.1 1477.24C2006.98 1539.75 2145.77 1519.84 2280.02 1500.58C2411.99 1481.66 2548.44 1462.08 2772.88 1523.38C2997.32 1584.69 3089.35 1666.64 3178.33 1745.91C3223.83 1786.42 3270.09 1827.61 3333.87 1866.5H3364.09C3291.16 1824.96 3240.99 1780.33 3191.78 1736.49V1736.52Z" fill="#00E6EF"/>
<path opacity="0.4" d="M3126.65 1791.38C3036.41 1710.03 2943.13 1625.88 2714.25 1563.37C2485.32 1500.86 2346.18 1521.54 2211.66 1541.52C2079.42 1561.17 1942.62 1581.47 1718.22 1520.2C1493.82 1458.93 1402.11 1376.19 1313.44 1296.22C1223.21 1214.87 1129.92 1130.72 900.998 1068.21C672.072 1005.7 532.933 1026.35 398.366 1046.36C266.085 1066.02 129.321 1086.31 -95.077 1025.04C-319.52 963.771 -411.189 881.038 -499.899 801.068C-590.133 719.681 -683.416 635.567 -912.342 573.057C-923.996 569.87 -935.337 566.966 -946.544 564.203V579.043C-937.22 581.38 -927.851 583.788 -918.214 586.409C-693.816 647.68 -602.102 730.412 -513.392 810.382C-423.157 891.769 -329.875 975.883 -100.949 1038.43C127.932 1100.94 267.116 1080.26 401.683 1060.28C533.964 1040.62 670.728 1020.33 895.126 1081.6C1119.52 1142.87 1211.24 1225.6 1299.9 1305.57C1390.14 1386.93 1483.42 1471.08 1712.35 1533.58C1941.23 1596.09 2080.41 1575.45 2214.98 1555.44C2347.26 1535.78 2484.02 1515.49 2708.42 1576.76C2932.82 1638.03 3024.53 1720.73 3113.2 1800.73C3137.49 1822.62 3162.01 1844.72 3189.31 1866.57H3214.82C3182.5 1841.74 3154.44 1816.46 3126.69 1791.42L3126.65 1791.38Z" fill="#00E6EF"/>
<path opacity="0.4" d="M2649.7 1616.67C2420.78 1554.16 2281.28 1575.59 2146.4 1596.31C2013.8 1616.67 1876.72 1637.71 1652.37 1576.44C1427.97 1515.17 1336.62 1431.73 1248.27 1351.01C1158.35 1268.92 1065.38 1183.99 836.451 1121.48C607.525 1058.97 468.027 1080.4 333.146 1101.12C200.596 1121.48 63.474 1142.52 -160.879 1081.25C-385.278 1019.98 -476.633 936.535 -565.029 855.821C-650.871 777.445 -739.536 696.554 -946.497 634.965V650.123C-748.188 710.26 -662.032 788.884 -578.567 865.101C-488.646 947.196 -395.677 1032.12 -166.752 1094.63C62.174 1157.14 201.672 1135.72 336.553 1115C469.103 1094.63 606.225 1073.6 830.579 1134.87C1054.98 1196.14 1146.33 1279.58 1234.68 1360.29C1324.6 1442.39 1417.57 1527.32 1646.5 1589.83C1875.42 1652.34 2014.92 1630.91 2149.8 1610.19C2282.4 1589.83 2419.48 1568.79 2643.83 1630.06C2868.23 1691.33 2959.58 1774.77 3047.93 1855.48C3051.97 1859.17 3056 1862.85 3060.08 1866.53H3083.88C3076.35 1859.73 3068.91 1852.97 3061.52 1846.21C2971.6 1764.11 2878.63 1679.18 2649.7 1616.67Z" fill="#00E6EF"/>
<path opacity="0.4" d="M2585.2 1670.01C2356.23 1607.46 2216.41 1629.67 2081.17 1651.1C1948.31 1672.17 1810.92 1693.99 1586.57 1632.71C1362.21 1571.44 1271.17 1487.26 1183.13 1405.87C1093.53 1323.03 1000.87 1237.36 771.901 1174.82C542.931 1112.31 403.119 1134.48 267.88 1155.94C135.016 1177.01 -2.3753 1198.79 -226.729 1137.56C-451.082 1076.29 -542.123 992.103 -630.161 910.716C-706.231 840.379 -784.541 768.024 -946.497 709.516V725.17C-792.969 782.048 -717.303 851.96 -643.788 919.924C-554.181 1002.76 -461.526 1088.44 -232.556 1150.98C-3.5856 1213.49 136.226 1191.32 271.466 1169.89C404.329 1148.82 541.721 1127 766.074 1188.27C990.427 1249.54 1081.47 1333.73 1169.51 1415.12C1259.11 1497.96 1351.77 1583.63 1580.74 1646.14C1809.71 1708.68 1949.52 1686.48 2084.76 1665.05C2217.62 1643.98 2355.02 1622.16 2579.37 1683.43C2763.69 1733.76 2858.01 1799.56 2934.61 1866.57H2958.68C2878.58 1794.96 2782.52 1723.91 2585.24 1670.04L2585.2 1670.01Z" fill="#00E6EF"/>
<path opacity="0.4" d="M2015.95 1705.92C1882.77 1727.7 1745.07 1750.26 1520.72 1688.99C1296.41 1627.72 1205.68 1542.83 1117.96 1460.7C1028.66 1377.12 936.366 1290.7 707.35 1228.15C478.335 1165.61 338.165 1188.56 202.656 1210.73C69.4788 1232.51 -68.2262 1255.07 -292.58 1193.8C-516.933 1132.53 -607.616 1047.6 -695.34 965.506C-760.292 904.696 -826.904 842.399 -946.544 788.885V805.318C-834.927 856.884 -771.185 916.49 -709.056 974.679C-619.763 1058.26 -527.422 1144.68 -298.452 1207.22C-69.4813 1269.77 70.6891 1246.82 206.242 1224.65C339.42 1202.87 477.125 1180.31 701.478 1241.58C925.787 1302.85 1016.51 1387.74 1104.24 1469.87C1193.53 1553.45 1285.83 1639.87 1514.84 1702.41C1743.81 1764.96 1883.98 1742.01 2019.54 1719.84C2152.71 1698.06 2290.42 1675.5 2514.73 1736.77C2649.03 1773.46 2735.45 1818.62 2801.97 1866.57H2828.29C2758.54 1813.69 2667.81 1763.58 2520.56 1723.38C2291.59 1660.84 2151.41 1683.79 2015.86 1705.96L2015.95 1705.92Z" fill="#00E6EF"/>
<path opacity="0.4" d="M1950.73 1760.75C1817.24 1783.27 1679.22 1806.54 1454.91 1745.27C1230.6 1684 1140.23 1598.36 1052.82 1515.52C963.844 1431.2 871.861 1344 642.846 1281.45C413.831 1218.91 273.302 1242.6 137.435 1265.52C3.94334 1288.04 -134.075 1311.31 -358.384 1250.04C-582.692 1188.77 -673.061 1103.13 -760.472 1020.29C-812.514 970.995 -865.633 920.704 -946.544 874.91V892.547C-872.94 935.862 -823.093 983.036 -774.233 1029.36C-685.254 1113.69 -593.271 1200.88 -364.211 1263.43C-135.196 1325.97 5.33293 1302.28 141.2 1279.37C274.691 1256.84 412.71 1233.57 637.019 1294.84C861.327 1356.08 951.696 1441.75 1039.11 1524.59C1128.09 1608.92 1220.07 1696.11 1449.08 1758.66C1678.1 1821.2 1818.63 1797.51 1954.49 1774.59C2087.99 1752.07 2226 1728.8 2450.31 1790.07C2533.15 1812.7 2597.66 1838.63 2650.55 1866.53H2682.15C2624.37 1833.6 2552.38 1802.96 2456.14 1776.68C2227.13 1714.14 2086.6 1737.83 1950.73 1760.75Z" fill="#00E6EF"/>
<path opacity="0.4" d="M1885.46 1815.53C1751.66 1838.77 1613.33 1862.78 1389.06 1801.55C1164.8 1740.31 1074.74 1653.93 987.647 1570.38C898.982 1485.31 807.313 1397.37 578.253 1334.83C349.193 1272.28 208.35 1296.72 72.1245 1320.38C-61.6807 1343.61 -200.013 1367.62 -424.277 1306.39C-648.541 1245.15 -738.596 1158.74 -825.692 1075.19C-862.315 1040.06 -899.476 1004.43 -946.632 970.287V989.766C-905.796 1020.65 -872.446 1052.63 -839.543 1084.19C-750.878 1169.26 -659.209 1257.2 -430.149 1319.74C-201.089 1382.29 -60.2462 1357.85 75.9795 1334.19C209.74 1310.96 348.117 1286.95 572.381 1348.18C796.644 1409.41 886.699 1495.8 973.796 1579.34C1062.46 1664.41 1154.13 1752.35 1383.19 1814.9C1612.25 1877.44 1753.09 1853.01 1889.27 1829.35C2023.08 1806.11 2161.41 1782.1 2385.68 1843.34C2412.66 1850.7 2437.63 1858.42 2460.94 1866.5H2503.75C2470.35 1853.61 2433.24 1841.35 2391.5 1829.95C2162.44 1767.4 2021.6 1791.84 1885.37 1815.5L1885.46 1815.53Z" fill="#00E6EF"/>
<g opacity="0.4">
<path d="M1323.26 1857.82C1099 1796.59 1009.3 1709.46 922.561 1625.21C834.209 1539.43 742.854 1450.71 513.794 1388.13C284.734 1325.58 143.533 1350.8 6.9934 1375.17C-127.081 1399.11 -265.772 1423.86 -489.991 1362.63C-714.254 1301.39 -803.951 1214.27 -890.734 1130.01C-908.799 1112.45 -927.043 1094.78 -946.497 1077.24V1098.92C-932.108 1112.27 -918.346 1125.66 -904.63 1138.97C-816.278 1224.75 -724.923 1313.47 -495.863 1376.05C-266.758 1438.63 -125.601 1413.38 10.9381 1389.01C145.012 1365.07 283.703 1340.32 507.922 1401.55C732.186 1462.79 821.882 1549.91 908.62 1634.17C994.775 1717.86 1083.89 1804.31 1300.76 1866.53H1357.01C1345.94 1863.84 1334.73 1860.97 1323.21 1857.82H1323.26Z" fill="#00E6EF"/>
</g>
<path opacity="0.4" d="M857.429 1680.03C769.391 1593.51 678.395 1504.01 449.29 1441.47C220.185 1378.89 78.6699 1404.88 -58.2282 1429.99C-192.616 1454.64 -331.576 1480.14 -555.795 1418.94C-771.945 1359.9 -862.807 1276.14 -946.497 1194.05V1216.57C-864.78 1295.76 -770.69 1375.24 -561.667 1432.33C-332.562 1494.91 -191.047 1468.91 -54.149 1443.8C80.2388 1419.15 219.244 1393.65 443.463 1454.85C667.681 1516.09 757.064 1603.96 843.488 1688.92C905.796 1750.19 969.718 1812.91 1082.95 1866.53H1119.26C991.19 1811.43 923.413 1744.91 857.429 1680.03Z" fill="#00E6EF"/>
<path opacity="0.4" d="M792.251 1734.89C704.527 1647.63 613.844 1557.38 384.694 1494.8C155.545 1432.22 13.7156 1458.96 -123.496 1484.82C-258.198 1510.21 -397.472 1536.42 -621.691 1475.22C-784.229 1430.84 -875.719 1372.05 -946.544 1310.46V1331.36C-876.033 1390.18 -784.095 1445.86 -627.518 1488.61C-398.413 1551.19 -256.54 1524.45 -119.328 1498.59C15.3741 1473.23 154.648 1446.99 378.867 1508.19C603.041 1569.43 692.11 1658 778.22 1743.71C819.819 1785.08 862.089 1827.12 919.422 1866.53H947.438C882.575 1824.71 836.987 1779.41 792.251 1734.89Z" fill="#00E6EF"/>
<path opacity="0.4" d="M320.19 1548.14C91.0401 1485.56 -51.1923 1513.04 -188.718 1539.64C-323.733 1565.74 -463.321 1592.73 -687.495 1531.49C-804.446 1499.55 -884.505 1459.95 -946.544 1417.1V1435.87C-884.863 1476.56 -805.835 1514.18 -693.367 1544.88C-464.218 1607.46 -321.985 1579.98 -184.46 1553.38C-49.4441 1527.28 90.1436 1500.29 314.318 1561.53C538.492 1622.76 627.202 1712.08 712.999 1798.46C735.501 1821.13 758.228 1844.01 783.465 1866.53H807.671C778.265 1841.21 752.535 1815.32 727.074 1789.72C639.664 1701.71 549.295 1610.72 320.145 1548.14H320.19Z" fill="#00E6EF"/>
<path opacity="0.4" d="M255.64 1601.48C26.4459 1538.9 -116.1 1567.12 -253.94 1594.47C-389.269 1621.28 -529.17 1649.01 -753.3 1587.81C-832.865 1566.1 -895.218 1540.7 -946.544 1513.15V1530.29C-896.115 1556.36 -835.376 1580.41 -759.172 1601.2C-530.022 1663.78 -387.431 1635.55 -249.592 1608.21C-114.262 1581.4 25.639 1553.67 249.768 1614.87C473.897 1676.07 562.294 1766.13 647.777 1853.25C652.125 1857.68 656.473 1862.11 660.866 1866.54H683.638C676.331 1859.2 669.159 1851.87 661.987 1844.54C574.89 1755.79 484.835 1664.02 255.685 1601.44L255.64 1601.48Z" fill="#00E6EF"/>
<path opacity="0.4" d="M191.136 1654.78C-38.0584 1592.2 -180.963 1621.17 -319.161 1649.22C-454.759 1676.74 -595.019 1705.21 -819.149 1644.01C-867.516 1630.8 -909.518 1616.21 -946.544 1600.56V1616.6C-910.818 1631.23 -870.743 1644.9 -824.976 1657.4C-595.781 1719.98 -452.877 1690.97 -314.679 1662.92C-179.036 1635.41 -38.8204 1606.93 185.309 1668.13C374.205 1719.73 466.456 1792.34 541.764 1866.46H564.67C486.09 1787.7 392.359 1709.67 191.136 1654.71V1654.78Z" fill="#00E6EF"/>
<path opacity="0.4" d="M126.587 1708.12C-102.652 1645.5 -245.871 1675.29 -384.383 1704.04C-520.295 1732.27 -660.869 1761.49 -884.953 1700.29C-906.738 1694.34 -927.224 1688.07 -946.544 1681.59V1696.96C-928.882 1702.73 -910.414 1708.33 -890.78 1713.68C-661.541 1776.29 -518.322 1746.51 -379.811 1717.75C-243.899 1689.52 -103.325 1660.3 120.76 1721.5C263.261 1760.43 350.626 1811.64 417.148 1866.53H441.802C372.367 1806.68 281.371 1750.4 126.587 1708.12Z" fill="#00E6EF"/>
<path opacity="0.4" d="M-449.604 1758.87C-591.209 1788.97 -725.014 1817.38 -946.544 1757.7V1772.61C-723.177 1831.58 -581.751 1801.62 -444.942 1772.54C-302.441 1742.26 -167.829 1713.64 56.2104 1774.84C152.093 1801.01 222.201 1832.18 278.009 1866.53H305.98C246.003 1826.97 169.396 1790.78 62.0378 1761.45C-167.202 1698.84 -310.779 1729.37 -449.649 1758.87H-449.604Z" fill="#00E6EF"/>
<path opacity="0.4" d="M-514.826 1813.69C-642.087 1841.35 -763.161 1867.6 -946.544 1829.7V1844.26C-760.113 1881.66 -633.211 1854.14 -510.075 1827.36C-367.259 1796.34 -232.379 1767.01 -8.33906 1828.18C34.873 1839.97 72.8405 1852.83 106.639 1866.53H143.71C102.157 1847.69 54.1481 1830.23 -2.46688 1814.79C-231.751 1752.17 -375.642 1783.45 -514.826 1813.69Z" fill="#00E6EF"/>
</g>
</g>
<rect x="-40.8562" y="-13.4707" width="1831.72" height="2100.57" fill="url(#paint0_linear_15_2596)"/>
<rect x="-40.8562" y="-13.4707" width="1831.72" height="2100.57" fill="url(#paint1_linear_15_2596)"/>
</g>
<defs>
<linearGradient id="paint0_linear_15_2596" x1="724.793" y1="644.263" x2="745.691" y2="1654.88" gradientUnits="userSpaceOnUse">
<stop/>
<stop offset="1" stop-opacity="0"/>
</linearGradient>
<linearGradient id="paint1_linear_15_2596" x1="724.793" y1="644.263" x2="745.691" y2="1654.88" gradientUnits="userSpaceOnUse">
<stop/>
<stop offset="1" stop-opacity="0"/>
</linearGradient>
<clipPath id="clip0_15_2596">
<rect width="1782" height="1839" fill="white"/>
</clipPath>
<clipPath id="clip1_15_2596">
<rect width="4482.58" height="2124.98" fill="white" transform="translate(-946.544 -258.449)"/>
</clipPath>
</defs>
</svg>
