<svg width="1109" height="441" viewBox="0 0 1109 441" fill="none" xmlns="http://www.w3.org/2000/svg">
<path d="M62.6327 15.5425L66.9339 10.3941L62.6327 6.80066L58.3315 10.3941L62.6327 15.5425ZM73.0586 24.2527L68.7574 29.4011L70.625 30.9614H73.0586V24.2527ZM88.4995 24.2527V30.9614H102.278L93.7805 20.1154L88.4995 24.2527ZM72.2668 3.5329L77.5478 -0.604439L75.5333 -3.17578H72.2668V3.5329ZM53.2626 3.5329V-3.17578H49.9961L47.9816 -0.604439L53.2626 3.5329ZM37.0299 24.2527L31.7489 20.1154L23.2517 30.9614H37.0299V24.2527ZM52.2068 24.2527V30.9614H54.6404L56.508 29.4011L52.2068 24.2527ZM118.567 77.7019V77.438H105.15V77.7019H118.567ZM118.567 77.438C118.567 47.4099 95.0474 23.2189 62.8967 23.2189V36.6362C87.7584 36.6362 105.15 54.9406 105.15 77.438H118.567ZM62.8967 23.2189C30.7454 23.2189 6.96193 47.6743 6.96193 77.7019H20.3793C20.3793 55.2041 38.0354 36.6362 62.8967 36.6362V23.2189ZM6.96193 77.7019V77.9659H20.3793V77.7019H6.96193ZM6.96193 77.9659C6.96193 107.994 30.4819 132.185 62.6327 132.185V118.768C37.771 118.768 20.3793 100.463 20.3793 77.9659H6.96193ZM62.6327 132.185C94.784 132.185 118.567 107.73 118.567 77.7019H105.15C105.15 100.2 87.494 118.768 62.6327 118.768V132.185ZM83.9024 77.9659C83.9024 90.5175 75.1498 100.027 62.8967 100.027V113.445C83.3729 113.445 97.3197 97.0878 97.3197 77.9659H83.9024ZM62.8967 100.027C50.6384 100.027 41.627 90.248 41.627 77.7019H28.2096C28.2096 96.8294 42.4256 113.445 62.8967 113.445V100.027ZM41.627 77.7019V77.438H28.2096V77.7019H41.627ZM41.627 77.438C41.627 64.8863 50.3796 55.3765 62.6327 55.3765V41.9591C42.1565 41.9591 28.2096 58.316 28.2096 77.438H41.627ZM62.6327 55.3765C74.891 55.3765 83.9024 65.1558 83.9024 77.7019H97.3197C97.3197 58.5744 83.1038 41.9591 62.6327 41.9591V55.3765ZM83.9024 77.7019V77.9659H97.3197V77.7019H83.9024ZM58.3315 20.6909L68.7574 29.4011L77.3598 19.1043L66.9339 10.3941L58.3315 20.6909ZM73.0586 30.9614H88.4995V17.544H73.0586V30.9614ZM93.7805 20.1154L77.5478 -0.604439L66.9858 7.67023L83.2185 28.39L93.7805 20.1154ZM72.2668 -3.17578H53.2626V10.2416H72.2668V-3.17578ZM47.9816 -0.604439L31.7489 20.1154L42.3109 28.39L58.5436 7.67023L47.9816 -0.604439ZM37.0299 30.9614H52.2068V17.544H37.0299V30.9614ZM56.508 29.4011L66.9339 20.6909L58.3315 10.3941L47.9056 19.1043L56.508 29.4011ZM222.269 123.893V130.601H228.978V123.893H222.269ZM222.269 31.5112H228.978V24.8026H222.269V31.5112ZM200.361 31.5112V24.8026H196.632L194.664 27.9695L200.361 31.5112ZM176.078 70.5754L170.381 74.1171L176.078 83.2828L181.776 74.1171L176.078 70.5754ZM151.795 31.5112L157.493 27.9695L155.524 24.8026H151.795V31.5112ZM129.888 31.5112V24.8026H123.179V31.5112H129.888ZM129.888 123.893H123.179V130.601H129.888V123.893ZM149.816 123.893V130.601H156.524V123.893H149.816ZM149.816 63.9767L155.418 60.286L143.107 41.5986V63.9767H149.816ZM175.55 103.041L169.948 106.731L171.936 109.749H175.55V103.041ZM176.078 103.041V109.749H179.692L181.68 106.732L176.078 103.041ZM202.077 63.5808H208.786V41.205L196.475 59.8898L202.077 63.5808ZM202.077 123.893H195.368V130.601H202.077V123.893ZM228.978 123.893V31.5112H215.56V123.893H228.978ZM222.269 24.8026H200.361V38.2199H222.269V24.8026ZM194.664 27.9695L170.381 67.0336L181.776 74.1171L206.059 35.053L194.664 27.9695ZM181.776 67.0336L157.493 27.9695L146.098 35.053L170.381 74.1171L181.776 67.0336ZM151.795 24.8026H129.888V38.2199H151.795V24.8026ZM123.179 31.5112V123.893H136.596V31.5112H123.179ZM129.888 130.601H149.816V117.184H129.888V130.601ZM156.524 123.893V63.9767H143.107V123.893H156.524ZM144.213 67.6674L169.948 106.731L181.153 99.3501L155.418 60.286L144.213 67.6674ZM175.55 109.749H176.078V96.3321H175.55V109.749ZM181.68 106.732L207.679 67.2718L196.475 59.8898L170.476 99.3498L181.68 106.732ZM195.368 63.5808V123.893H208.786V63.5808H195.368ZM202.077 130.601H222.269V117.184H202.077V130.601ZM314.804 123.893V130.601H321.513V123.893H314.804ZM314.804 105.812H321.513V99.1036H314.804V105.812ZM264.654 105.812H257.945V112.521H264.654V105.812ZM264.654 86.4122V79.7035H257.945V86.4122H264.654ZM308.205 86.4122V93.1208H314.914V86.4122H308.205ZM308.205 68.3318H314.914V61.6231H308.205V68.3318ZM264.654 68.3318H257.945V75.0405H264.654V68.3318ZM264.654 49.5916V42.8829H257.945V49.5916H264.654ZM314.144 49.5916V56.3003H320.853V49.5916H314.144ZM314.144 31.5112H320.853V24.8026H314.144V31.5112ZM244.462 31.5112V24.8026H237.753V31.5112H244.462ZM244.462 123.893H237.753V130.601H244.462V123.893ZM321.513 123.893V105.812H308.095V123.893H321.513ZM314.804 99.1036H264.654V112.521H314.804V99.1036ZM271.363 105.812V86.4122H257.945V105.812H271.363ZM264.654 93.1208H308.205V79.7035H264.654V93.1208ZM314.914 86.4122V68.3318H301.497V86.4122H314.914ZM308.205 61.6231H264.654V75.0405H308.205V61.6231ZM271.363 68.3318V49.5916H257.945V68.3318H271.363ZM264.654 56.3003H314.144V42.8829H264.654V56.3003ZM320.853 49.5916V31.5112H307.435V49.5916H320.853ZM314.144 24.8026H244.462V38.2199H314.144V24.8026ZM237.753 31.5112V123.893H251.171V31.5112H237.753ZM244.462 130.601H314.804V117.184H244.462V130.601ZM412.718 123.893V130.601H425.434L418.255 120.105L412.718 123.893ZM390.15 90.8992L387.818 84.609L379.763 87.5958L384.613 94.6867L390.15 90.8992ZM332.874 31.5112V24.8026H326.165V31.5112H332.874ZM332.874 123.893H326.165V130.601H332.874V123.893ZM353.198 123.893V130.601H359.906V123.893H353.198ZM353.198 94.3306V87.6219H346.489V94.3306H353.198ZM369.167 94.3306L374.741 90.5978L372.748 87.6219H369.167V94.3306ZM388.963 123.893L383.388 127.625L385.381 130.601H388.963V123.893ZM353.198 76.3822H346.489V83.0909H353.198V76.3822ZM353.198 49.8555V43.1469H346.489V49.8555H353.198ZM418.255 120.105L395.688 87.1118L384.613 94.6867L407.18 127.68L418.255 120.105ZM392.483 97.1894C399.358 94.6402 405.474 90.4968 409.865 84.5042C414.281 78.4763 416.655 70.978 416.655 62.261H403.238C403.238 68.4571 401.587 73.1003 399.041 76.5745C396.47 80.084 392.688 82.8032 387.818 84.609L392.483 97.1894ZM416.655 62.261V61.9971H403.238V62.261H416.655ZM416.655 61.9971C416.655 50.8682 412.77 41.2901 405.112 34.5814C397.567 27.9717 387.113 24.8026 375.105 24.8026V38.2199C384.873 38.2199 391.84 40.7917 396.271 44.6738C400.59 48.457 403.238 54.1218 403.238 61.9971H416.655ZM375.105 24.8026H332.874V38.2199H375.105V24.8026ZM326.165 31.5112V123.893H339.583V31.5112H326.165ZM332.874 130.601H353.198V117.184H332.874V130.601ZM359.906 123.893V94.3306H346.489V123.893H359.906ZM353.198 101.039H369.167V87.6219H353.198V101.039ZM363.592 98.0633L383.388 127.625L394.537 120.16L374.741 90.5978L363.592 98.0633ZM388.963 130.601H412.718V117.184H388.963V130.601ZM382.65 63.3168C382.65 65.4774 381.923 66.8083 380.9 67.6914C379.774 68.6637 377.591 69.6735 373.786 69.6735V83.0909C379.879 83.0909 385.482 81.4612 389.668 77.8474C393.957 74.1445 396.067 68.9427 396.067 63.3168H382.65ZM373.786 69.6735H353.198V83.0909H373.786V69.6735ZM359.906 76.3822V49.8555H346.489V76.3822H359.906ZM353.198 56.5642H373.39V43.1469H353.198V56.5642ZM373.39 56.5642C377.445 56.5642 379.738 57.4979 380.887 58.4203C381.809 59.1603 382.65 60.3946 382.65 63.0529H396.067C396.067 57.0009 393.872 51.6366 389.284 47.9554C384.924 44.4567 379.232 43.1469 373.39 43.1469V56.5642ZM382.65 63.0529V63.3168H396.067V63.0529H382.65ZM467.811 31.5112V24.8026H461.103V31.5112H467.811ZM467.811 123.893H461.103V130.601H467.811V123.893ZM488.135 123.893V130.601H494.844V123.893H488.135ZM488.135 96.1782V89.4695H481.427V96.1782H488.135ZM488.135 78.0978H481.427V84.8065H488.135V78.0978ZM488.135 49.8555V43.1469H481.427V49.8555H488.135ZM547.633 63.7127V63.4488H534.216V63.7127H547.633ZM547.633 63.4488C547.633 52.3669 543.677 42.5164 536.058 35.4759C528.484 28.4765 517.893 24.8026 505.556 24.8026V38.2199C515.258 38.2199 522.352 41.0787 526.952 45.3299C531.508 49.5402 534.216 55.6585 534.216 63.4488H547.633ZM505.556 24.8026H467.811V38.2199H505.556V24.8026ZM461.103 31.5112V123.893H474.52V31.5112H461.103ZM467.811 130.601H488.135V117.184H467.811V130.601ZM494.844 123.893V96.1782H481.427V123.893H494.844ZM488.135 102.887H503.576V89.4695H488.135V102.887ZM503.576 102.887C515.052 102.887 526.004 99.8232 534.233 93.184C542.638 86.4024 547.633 76.3265 547.633 63.7127H534.216C534.216 72.4787 530.897 78.6355 525.808 82.7417C520.542 86.9902 512.82 89.4695 503.576 89.4695V102.887ZM513.628 64.1087C513.628 66.3194 512.839 67.9666 511.582 69.1113C510.289 70.2876 507.982 71.3892 504.236 71.3892V84.8065C510.652 84.8065 516.395 82.8726 520.613 79.034C524.865 75.1637 527.046 69.8164 527.046 64.1087H513.628ZM504.236 71.3892H488.135V84.8065H504.236V71.3892ZM494.844 78.0978V49.8555H481.427V78.0978H494.844ZM488.135 56.5642H503.84V43.1469H488.135V56.5642ZM503.84 56.5642C507.945 56.5642 510.358 57.5589 511.625 58.6062C512.706 59.4995 513.628 60.9711 513.628 63.8447H527.046C527.046 57.6122 524.801 52.0892 520.173 48.2645C515.733 44.5937 509.897 43.1469 503.84 43.1469V56.5642ZM513.628 63.8447V64.1087H527.046V63.8447H513.628ZM635.809 123.893V130.601H648.526L641.347 120.105L635.809 123.893ZM613.242 90.8992L610.91 84.609L602.854 87.5958L607.705 94.6867L613.242 90.8992ZM555.966 31.5112V24.8026H549.257V31.5112H555.966ZM555.966 123.893H549.257V130.601H555.966V123.893ZM576.289 123.893V130.601H582.998V123.893H576.289ZM576.289 94.3306V87.6219H569.581V94.3306H576.289ZM592.258 94.3306L597.832 90.5978L595.84 87.6219H592.258V94.3306ZM612.054 123.893L606.48 127.625L608.473 130.601H612.054V123.893ZM576.289 76.3822H569.581V83.0909H576.289V76.3822ZM576.289 49.8555V43.1469H569.581V49.8555H576.289ZM641.347 120.105L618.779 87.1118L607.705 94.6867L630.272 127.68L641.347 120.105ZM615.574 97.1894C622.45 94.6402 628.566 90.4968 632.956 84.5042C637.372 78.4763 639.747 70.978 639.747 62.261H626.329C626.329 68.4571 624.678 73.1003 622.133 76.5745C619.562 80.084 615.78 82.8032 610.91 84.609L615.574 97.1894ZM639.747 62.261V61.9971H626.329V62.261H639.747ZM639.747 61.9971C639.747 50.8682 635.862 41.2901 628.204 34.5814C620.659 27.9717 610.205 24.8026 598.197 24.8026V38.2199C607.964 38.2199 614.931 40.7917 619.363 44.6738C623.681 48.457 626.329 54.1218 626.329 61.9971H639.747ZM598.197 24.8026H555.966V38.2199H598.197V24.8026ZM549.257 31.5112V123.893H562.674V31.5112H549.257ZM555.966 130.601H576.289V117.184H555.966V130.601ZM582.998 123.893V94.3306H569.581V123.893H582.998ZM576.289 101.039H592.258V87.6219H576.289V101.039ZM586.684 98.0633L606.48 127.625L617.628 120.16L597.832 90.5978L586.684 98.0633ZM612.054 130.601H635.809V117.184H612.054V130.601ZM605.741 63.3168C605.741 65.4774 605.014 66.8083 603.991 67.6914C602.865 68.6637 600.682 69.6735 596.877 69.6735V83.0909C602.97 83.0909 608.574 81.4612 612.76 77.8474C617.049 74.1445 619.159 68.9427 619.159 63.3168H605.741ZM596.877 69.6735H576.289V83.0909H596.877V69.6735ZM582.998 76.3822V49.8555H569.581V76.3822H582.998ZM576.289 56.5642H596.481V43.1469H576.289V56.5642ZM596.481 56.5642C600.537 56.5642 602.829 57.4979 603.979 58.4203C604.901 59.1603 605.741 60.3946 605.741 63.0529H619.159C619.159 57.0009 616.964 51.6366 612.376 47.9554C608.016 44.4567 602.324 43.1469 596.481 43.1469V56.5642ZM605.741 63.0529V63.3168H619.159V63.0529H605.741ZM721.679 123.893V130.601H728.387V123.893H721.679ZM721.679 105.812H728.387V99.1036H721.679V105.812ZM671.529 105.812H664.82V112.521H671.529V105.812ZM671.529 86.4122V79.7035H664.82V86.4122H671.529ZM715.08 86.4122V93.1208H721.789V86.4122H715.08ZM715.08 68.3318H721.789V61.6231H715.08V68.3318ZM671.529 68.3318H664.82V75.0405H671.529V68.3318ZM671.529 49.5916V42.8829H664.82V49.5916H671.529ZM721.019 49.5916V56.3003H727.727V49.5916H721.019ZM721.019 31.5112H727.727V24.8026H721.019V31.5112ZM651.337 31.5112V24.8026H644.628V31.5112H651.337ZM651.337 123.893H644.628V130.601H651.337V123.893ZM728.387 123.893V105.812H714.97V123.893H728.387ZM721.679 99.1036H671.529V112.521H721.679V99.1036ZM678.237 105.812V86.4122H664.82V105.812H678.237ZM671.529 93.1208H715.08V79.7035H671.529V93.1208ZM721.789 86.4122V68.3318H708.371V86.4122H721.789ZM715.08 61.6231H671.529V75.0405H715.08V61.6231ZM678.237 68.3318V49.5916H664.82V68.3318H678.237ZM671.529 56.3003H721.019V42.8829H671.529V56.3003ZM727.727 49.5916V31.5112H714.31V49.5916H727.727ZM721.019 24.8026H651.337V38.2199H721.019V24.8026ZM644.628 31.5112V123.893H658.046V31.5112H644.628ZM651.337 130.601H721.679V117.184H651.337V130.601ZM832.13 123.893V130.601H838.839V123.893H832.13ZM832.13 31.5112H838.839V24.8026H832.13V31.5112ZM810.222 31.5112V24.8026H806.494L804.525 27.9695L810.222 31.5112ZM785.939 70.5754L780.242 74.1171L785.939 83.2828L791.637 74.1171L785.939 70.5754ZM761.656 31.5112L767.354 27.9695L765.385 24.8026H761.656V31.5112ZM739.749 31.5112V24.8026H733.04V31.5112H739.749ZM739.749 123.893H733.04V130.601H739.749V123.893ZM759.677 123.893V130.601H766.385V123.893H759.677ZM759.677 63.9767L765.279 60.286L752.968 41.5986V63.9767H759.677ZM785.411 103.041L779.809 106.731L781.797 109.749H785.411V103.041ZM785.939 103.041V109.749H789.553L791.541 106.732L785.939 103.041ZM811.938 63.5808H818.647V41.205L806.336 59.8898L811.938 63.5808ZM811.938 123.893H805.229V130.601H811.938V123.893ZM838.839 123.893V31.5112H825.421V123.893H838.839ZM832.13 24.8026H810.222V38.2199H832.13V24.8026ZM804.525 27.9695L780.242 67.0336L791.637 74.1171L815.92 35.053L804.525 27.9695ZM791.637 67.0336L767.354 27.9695L755.959 35.053L780.242 74.1171L791.637 67.0336ZM761.656 24.8026H739.749V38.2199H761.656V24.8026ZM733.04 31.5112V123.893H746.457V31.5112H733.04ZM739.749 130.601H759.677V117.184H739.749V130.601ZM766.385 123.893V63.9767H752.968V123.893H766.385ZM754.074 67.6674L779.809 106.731L791.014 99.3501L765.279 60.286L754.074 67.6674ZM785.411 109.749H785.939V96.3321H785.411V109.749ZM791.541 106.732L817.54 67.2718L806.336 59.8898L780.337 99.3498L791.541 106.732ZM805.229 63.5808V123.893H818.647V63.5808H805.229ZM811.938 130.601H832.13V117.184H811.938V130.601ZM875.571 123.893V130.601H882.28V123.893H875.571ZM875.571 31.5112H882.28V24.8026H875.571V31.5112ZM855.247 31.5112V24.8026H848.538V31.5112H855.247ZM855.247 123.893H848.538V130.601H855.247V123.893ZM882.28 123.893V31.5112H868.862V123.893H882.28ZM875.571 24.8026H855.247V38.2199H875.571V24.8026ZM848.538 31.5112V123.893H861.956V31.5112H848.538ZM855.247 130.601H875.571V117.184H855.247V130.601ZM977.71 31.5112H984.419V24.8026H977.71V31.5112ZM957.386 31.5112V24.8026H950.677V31.5112H957.386ZM917.53 31.5112H924.239V24.8026H917.53V31.5112ZM897.206 31.5112V24.8026H890.498V31.5112H897.206ZM984.419 83.6407V31.5112H971.001V83.6407H984.419ZM977.71 24.8026H957.386V38.2199H977.71V24.8026ZM950.677 31.5112V84.4325H964.095V31.5112H950.677ZM950.677 84.4325C950.677 90.675 949.079 94.3685 947.148 96.4577C945.287 98.4706 942.285 99.8954 937.458 99.8954V113.313C945.037 113.313 951.999 110.976 957 105.566C961.932 100.231 964.095 92.8392 964.095 84.4325H950.677ZM937.458 99.8954C932.702 99.8954 929.719 98.4503 927.837 96.3519C925.859 94.146 924.239 90.2554 924.239 83.7727H910.821C910.821 92.335 912.962 99.86 917.847 105.309C922.828 110.865 929.808 113.313 937.458 113.313V99.8954ZM924.239 83.7727V31.5112H910.821V83.7727H924.239ZM917.53 24.8026H897.206V38.2199H917.53V24.8026ZM890.498 31.5112V84.3006H903.915V31.5112H890.498ZM890.498 84.3006C890.498 99.1203 894.656 111.305 903.164 119.772C911.662 128.23 923.571 132.053 937.194 132.053V118.636C926.006 118.636 917.921 115.53 912.628 110.262C907.345 105.004 903.915 96.6674 903.915 84.3006H890.498ZM937.194 132.053C950.798 132.053 962.832 128.274 971.466 119.762C980.121 111.228 984.419 98.8683 984.419 83.6407H971.001C971.001 96.3915 967.446 104.883 962.046 110.207C956.625 115.552 948.401 118.636 937.194 118.636V132.053ZM1090.79 123.893V130.601H1097.5V123.893H1090.79ZM1090.79 31.5112H1097.5V24.8026H1090.79V31.5112ZM1068.89 31.5112V24.8026H1065.16L1063.19 27.9695L1068.89 31.5112ZM1044.6 70.5754L1038.9 74.1171L1044.6 83.2828L1050.3 74.1171L1044.6 70.5754ZM1020.32 31.5112L1026.02 27.9695L1024.05 24.8026H1020.32V31.5112ZM998.411 31.5112V24.8026H991.703V31.5112H998.411ZM998.411 123.893H991.703V130.601H998.411V123.893ZM1018.34 123.893V130.601H1025.05V123.893H1018.34ZM1018.34 63.9767L1023.94 60.286L1011.63 41.5986V63.9767H1018.34ZM1044.07 103.041L1038.47 106.731L1040.46 109.749H1044.07V103.041ZM1044.6 103.041V109.749H1048.22L1050.2 106.732L1044.6 103.041ZM1070.6 63.5808H1077.31V41.205L1065 59.8898L1070.6 63.5808ZM1070.6 123.893H1063.89V130.601H1070.6V123.893ZM1097.5 123.893V31.5112H1084.08V123.893H1097.5ZM1090.79 24.8026H1068.89V38.2199H1090.79V24.8026ZM1063.19 27.9695L1038.9 67.0336L1050.3 74.1171L1074.58 35.053L1063.19 27.9695ZM1050.3 67.0336L1026.02 27.9695L1014.62 35.053L1038.9 74.1171L1050.3 67.0336ZM1020.32 24.8026H998.411V38.2199H1020.32V24.8026ZM991.703 31.5112V123.893H1005.12V31.5112H991.703ZM998.411 130.601H1018.34V117.184H998.411V130.601ZM1025.05 123.893V63.9767H1011.63V123.893H1025.05ZM1012.74 67.6674L1038.47 106.731L1049.68 99.3501L1023.94 60.286L1012.74 67.6674ZM1044.07 109.749H1044.6V96.3321H1044.07V109.749ZM1050.2 106.732L1076.2 67.2718L1065 59.8898L1039 99.3498L1050.2 106.732ZM1063.89 63.5808V123.893H1077.31V63.5808H1063.89ZM1070.6 130.601H1090.79V117.184H1070.6V130.601Z" fill="#00E6EF"/>
<path opacity="0.6" d="M62.6327 165.113L66.9339 159.964L62.6327 156.371L58.3315 159.964L62.6327 165.113ZM73.0586 173.823L68.7574 178.971L70.625 180.532H73.0586V173.823ZM88.4995 173.823V180.532H102.278L93.7805 169.686L88.4995 173.823ZM72.2668 153.103L77.5478 148.966L75.5333 146.395H72.2668V153.103ZM53.2626 153.103V146.395H49.9961L47.9816 148.966L53.2626 153.103ZM37.0299 173.823L31.7489 169.686L23.2517 180.532H37.0299V173.823ZM52.2068 173.823V180.532H54.6404L56.508 178.971L52.2068 173.823ZM118.567 227.272V227.008H105.15V227.272H118.567ZM118.567 227.008C118.567 196.98 95.0474 172.789 62.8967 172.789V186.207C87.7584 186.207 105.15 204.511 105.15 227.008H118.567ZM62.8967 172.789C30.7454 172.789 6.96193 197.245 6.96193 227.272H20.3793C20.3793 204.774 38.0354 186.207 62.8967 186.207V172.789ZM6.96193 227.272V227.536H20.3793V227.272H6.96193ZM6.96193 227.536C6.96193 257.564 30.4819 281.755 62.6327 281.755V268.338C37.771 268.338 20.3793 250.034 20.3793 227.536H6.96193ZM62.6327 281.755C94.784 281.755 118.567 257.3 118.567 227.272H105.15C105.15 249.77 87.494 268.338 62.6327 268.338V281.755ZM83.9024 227.536C83.9024 240.088 75.1498 249.598 62.8967 249.598V263.015C83.3729 263.015 97.3197 246.658 97.3197 227.536H83.9024ZM62.8967 249.598C50.6384 249.598 41.627 239.818 41.627 227.272H28.2096C28.2096 246.4 42.4256 263.015 62.8967 263.015V249.598ZM41.627 227.272V227.008H28.2096V227.272H41.627ZM41.627 227.008C41.627 214.457 50.3796 204.947 62.6327 204.947V191.529C42.1565 191.529 28.2096 207.886 28.2096 227.008H41.627ZM62.6327 204.947C74.891 204.947 83.9024 214.726 83.9024 227.272H97.3197C97.3197 208.145 83.1038 191.529 62.6327 191.529V204.947ZM83.9024 227.272V227.536H97.3197V227.272H83.9024ZM58.3315 170.261L68.7574 178.971L77.3598 168.675L66.9339 159.964L58.3315 170.261ZM73.0586 180.532H88.4995V167.114H73.0586V180.532ZM93.7805 169.686L77.5478 148.966L66.9858 157.241L83.2185 177.96L93.7805 169.686ZM72.2668 146.395H53.2626V159.812H72.2668V146.395ZM47.9816 148.966L31.7489 169.686L42.3109 177.96L58.5436 157.241L47.9816 148.966ZM37.0299 180.532H52.2068V167.114H37.0299V180.532ZM56.508 178.971L66.9339 170.261L58.3315 159.964L47.9056 168.675L56.508 178.971ZM222.269 273.463V280.172H228.978V273.463H222.269ZM222.269 181.082H228.978V174.373H222.269V181.082ZM200.361 181.082V174.373H196.632L194.664 177.54L200.361 181.082ZM176.078 220.146L170.381 223.687L176.078 232.853L181.776 223.687L176.078 220.146ZM151.795 181.082L157.493 177.54L155.524 174.373H151.795V181.082ZM129.888 181.082V174.373H123.179V181.082H129.888ZM129.888 273.463H123.179V280.172H129.888V273.463ZM149.816 273.463V280.172H156.524V273.463H149.816ZM149.816 213.547L155.418 209.856L143.107 191.169V213.547H149.816ZM175.55 252.611L169.948 256.302L171.936 259.32H175.55V252.611ZM176.078 252.611V259.32H179.692L181.68 256.302L176.078 252.611ZM202.077 213.151H208.786V190.775L196.475 209.46L202.077 213.151ZM202.077 273.463H195.368V280.172H202.077V273.463ZM228.978 273.463V181.082H215.56V273.463H228.978ZM222.269 174.373H200.361V187.79H222.269V174.373ZM194.664 177.54L170.381 216.604L181.776 223.687L206.059 184.623L194.664 177.54ZM181.776 216.604L157.493 177.54L146.098 184.623L170.381 223.687L181.776 216.604ZM151.795 174.373H129.888V187.79H151.795V174.373ZM123.179 181.082V273.463H136.596V181.082H123.179ZM129.888 280.172H149.816V266.754H129.888V280.172ZM156.524 273.463V213.547H143.107V273.463H156.524ZM144.213 217.238L169.948 256.302L181.153 248.92L155.418 209.856L144.213 217.238ZM175.55 259.32H176.078V245.902H175.55V259.32ZM181.68 256.302L207.679 216.842L196.475 209.46L170.476 248.92L181.68 256.302ZM195.368 213.151V273.463H208.786V213.151H195.368ZM202.077 280.172H222.269V266.754H202.077V280.172ZM314.804 273.463V280.172H321.513V273.463H314.804ZM314.804 255.383H321.513V248.674H314.804V255.383ZM264.654 255.383H257.945V262.091H264.654V255.383ZM264.654 235.982V229.274H257.945V235.982H264.654ZM308.205 235.982V242.691H314.914V235.982H308.205ZM308.205 217.902H314.914V211.193H308.205V217.902ZM264.654 217.902H257.945V224.611H264.654V217.902ZM264.654 199.162V192.453H257.945V199.162H264.654ZM314.144 199.162V205.871H320.853V199.162H314.144ZM314.144 181.082H320.853V174.373H314.144V181.082ZM244.462 181.082V174.373H237.753V181.082H244.462ZM244.462 273.463H237.753V280.172H244.462V273.463ZM321.513 273.463V255.383H308.095V273.463H321.513ZM314.804 248.674H264.654V262.091H314.804V248.674ZM271.363 255.383V235.982H257.945V255.383H271.363ZM264.654 242.691H308.205V229.274H264.654V242.691ZM314.914 235.982V217.902H301.497V235.982H314.914ZM308.205 211.193H264.654V224.611H308.205V211.193ZM271.363 217.902V199.162H257.945V217.902H271.363ZM264.654 205.871H314.144V192.453H264.654V205.871ZM320.853 199.162V181.082H307.435V199.162H320.853ZM314.144 174.373H244.462V187.79H314.144V174.373ZM237.753 181.082V273.463H251.171V181.082H237.753ZM244.462 280.172H314.804V266.754H244.462V280.172ZM412.718 273.463V280.172H425.434L418.255 269.675L412.718 273.463ZM390.15 240.47L387.818 234.179L379.763 237.166L384.613 244.257L390.15 240.47ZM332.874 181.082V174.373H326.165V181.082H332.874ZM332.874 273.463H326.165V280.172H332.874V273.463ZM353.198 273.463V280.172H359.906V273.463H353.198ZM353.198 243.901V237.192H346.489V243.901H353.198ZM369.167 243.901L374.741 240.168L372.748 237.192H369.167V243.901ZM388.963 273.463L383.388 277.196L385.381 280.172H388.963V273.463ZM353.198 225.952H346.489V232.661H353.198V225.952ZM353.198 199.426V192.717H346.489V199.426H353.198ZM418.255 269.675L395.688 236.682L384.613 244.257L407.18 277.25L418.255 269.675ZM392.483 246.76C399.358 244.21 405.474 240.067 409.865 234.074C414.281 228.047 416.655 220.548 416.655 211.831H403.238C403.238 218.027 401.587 222.671 399.041 226.145C396.47 229.654 392.688 232.374 387.818 234.179L392.483 246.76ZM416.655 211.831V211.567H403.238V211.831H416.655ZM416.655 211.567C416.655 200.439 412.77 190.86 405.112 184.152C397.567 177.542 387.113 174.373 375.105 174.373V187.79C384.873 187.79 391.84 190.362 396.271 194.244C400.59 198.027 403.238 203.692 403.238 211.567H416.655ZM375.105 174.373H332.874V187.79H375.105V174.373ZM326.165 181.082V273.463H339.583V181.082H326.165ZM332.874 280.172H353.198V266.754H332.874V280.172ZM359.906 273.463V243.901H346.489V273.463H359.906ZM353.198 250.61H369.167V237.192H353.198V250.61ZM363.592 247.634L383.388 277.196L394.537 269.73L374.741 240.168L363.592 247.634ZM388.963 280.172H412.718V266.754H388.963V280.172ZM382.65 212.887C382.65 215.048 381.923 216.379 380.9 217.262C379.774 218.234 377.591 219.244 373.786 219.244V232.661C379.879 232.661 385.482 231.032 389.668 227.418C393.957 223.715 396.067 218.513 396.067 212.887H382.65ZM373.786 219.244H353.198V232.661H373.786V219.244ZM359.906 225.952V199.426H346.489V225.952H359.906ZM353.198 206.135H373.39V192.717H353.198V206.135ZM373.39 206.135C377.445 206.135 379.738 207.068 380.887 207.991C381.809 208.731 382.65 209.965 382.65 212.623H396.067C396.067 206.571 393.872 201.207 389.284 197.526C384.924 194.027 379.232 192.717 373.39 192.717V206.135ZM382.65 212.623V212.887H396.067V212.623H382.65ZM467.811 181.082V174.373H461.103V181.082H467.811ZM467.811 273.463H461.103V280.172H467.811V273.463ZM488.135 273.463V280.172H494.844V273.463H488.135ZM488.135 245.748V239.04H481.427V245.748H488.135ZM488.135 227.668H481.427V234.377H488.135V227.668ZM488.135 199.426V192.717H481.427V199.426H488.135ZM547.633 213.283V213.019H534.216V213.283H547.633ZM547.633 213.019C547.633 201.937 543.677 192.087 536.058 185.046C528.484 178.047 517.893 174.373 505.556 174.373V187.79C515.258 187.79 522.352 190.649 526.952 194.9C531.508 199.111 534.216 205.229 534.216 213.019H547.633ZM505.556 174.373H467.811V187.79H505.556V174.373ZM461.103 181.082V273.463H474.52V181.082H461.103ZM467.811 280.172H488.135V266.754H467.811V280.172ZM494.844 273.463V245.748H481.427V273.463H494.844ZM488.135 252.457H503.576V239.04H488.135V252.457ZM503.576 252.457C515.052 252.457 526.004 249.394 534.233 242.754C542.638 235.973 547.633 225.897 547.633 213.283H534.216C534.216 222.049 530.897 228.206 525.808 232.312C520.542 236.561 512.82 239.04 503.576 239.04V252.457ZM513.628 213.679C513.628 215.89 512.839 217.537 511.582 218.682C510.289 219.858 507.982 220.959 504.236 220.959V234.377C510.652 234.377 516.395 232.443 520.613 228.604C524.865 224.734 527.046 219.387 527.046 213.679H513.628ZM504.236 220.959H488.135V234.377H504.236V220.959ZM494.844 227.668V199.426H481.427V227.668H494.844ZM488.135 206.135H503.84V192.717H488.135V206.135ZM503.84 206.135C507.945 206.135 510.358 207.129 511.625 208.176C512.706 209.07 513.628 210.541 513.628 213.415H527.046C527.046 207.182 524.801 201.66 520.173 197.835C515.733 194.164 509.897 192.717 503.84 192.717V206.135ZM513.628 213.415V213.679H527.046V213.415H513.628ZM635.809 273.463V280.172H648.526L641.347 269.675L635.809 273.463ZM613.242 240.47L610.91 234.179L602.854 237.166L607.705 244.257L613.242 240.47ZM555.966 181.082V174.373H549.257V181.082H555.966ZM555.966 273.463H549.257V280.172H555.966V273.463ZM576.289 273.463V280.172H582.998V273.463H576.289ZM576.289 243.901V237.192H569.581V243.901H576.289ZM592.258 243.901L597.832 240.168L595.84 237.192H592.258V243.901ZM612.054 273.463L606.48 277.196L608.473 280.172H612.054V273.463ZM576.289 225.952H569.581V232.661H576.289V225.952ZM576.289 199.426V192.717H569.581V199.426H576.289ZM641.347 269.675L618.779 236.682L607.705 244.257L630.272 277.25L641.347 269.675ZM615.574 246.76C622.45 244.21 628.566 240.067 632.956 234.074C637.372 228.047 639.747 220.548 639.747 211.831H626.329C626.329 218.027 624.678 222.671 622.133 226.145C619.562 229.654 615.78 232.374 610.91 234.179L615.574 246.76ZM639.747 211.831V211.567H626.329V211.831H639.747ZM639.747 211.567C639.747 200.439 635.862 190.86 628.204 184.152C620.659 177.542 610.205 174.373 598.197 174.373V187.79C607.964 187.79 614.931 190.362 619.363 194.244C623.681 198.027 626.329 203.692 626.329 211.567H639.747ZM598.197 174.373H555.966V187.79H598.197V174.373ZM549.257 181.082V273.463H562.674V181.082H549.257ZM555.966 280.172H576.289V266.754H555.966V280.172ZM582.998 273.463V243.901H569.581V273.463H582.998ZM576.289 250.61H592.258V237.192H576.289V250.61ZM586.684 247.634L606.48 277.196L617.628 269.73L597.832 240.168L586.684 247.634ZM612.054 280.172H635.809V266.754H612.054V280.172ZM605.741 212.887C605.741 215.048 605.014 216.379 603.991 217.262C602.865 218.234 600.682 219.244 596.877 219.244V232.661C602.97 232.661 608.574 231.032 612.76 227.418C617.049 223.715 619.159 218.513 619.159 212.887H605.741ZM596.877 219.244H576.289V232.661H596.877V219.244ZM582.998 225.952V199.426H569.581V225.952H582.998ZM576.289 206.135H596.481V192.717H576.289V206.135ZM596.481 206.135C600.537 206.135 602.829 207.068 603.979 207.991C604.901 208.731 605.741 209.965 605.741 212.623H619.159C619.159 206.571 616.964 201.207 612.376 197.526C608.016 194.027 602.324 192.717 596.481 192.717V206.135ZM605.741 212.623V212.887H619.159V212.623H605.741ZM721.679 273.463V280.172H728.387V273.463H721.679ZM721.679 255.383H728.387V248.674H721.679V255.383ZM671.529 255.383H664.82V262.091H671.529V255.383ZM671.529 235.982V229.274H664.82V235.982H671.529ZM715.08 235.982V242.691H721.789V235.982H715.08ZM715.08 217.902H721.789V211.193H715.08V217.902ZM671.529 217.902H664.82V224.611H671.529V217.902ZM671.529 199.162V192.453H664.82V199.162H671.529ZM721.019 199.162V205.871H727.727V199.162H721.019ZM721.019 181.082H727.727V174.373H721.019V181.082ZM651.337 181.082V174.373H644.628V181.082H651.337ZM651.337 273.463H644.628V280.172H651.337V273.463ZM728.387 273.463V255.383H714.97V273.463H728.387ZM721.679 248.674H671.529V262.091H721.679V248.674ZM678.237 255.383V235.982H664.82V255.383H678.237ZM671.529 242.691H715.08V229.274H671.529V242.691ZM721.789 235.982V217.902H708.371V235.982H721.789ZM715.08 211.193H671.529V224.611H715.08V211.193ZM678.237 217.902V199.162H664.82V217.902H678.237ZM671.529 205.871H721.019V192.453H671.529V205.871ZM727.727 199.162V181.082H714.31V199.162H727.727ZM721.019 174.373H651.337V187.79H721.019V174.373ZM644.628 181.082V273.463H658.046V181.082H644.628ZM651.337 280.172H721.679V266.754H651.337V280.172ZM832.13 273.463V280.172H838.839V273.463H832.13ZM832.13 181.082H838.839V174.373H832.13V181.082ZM810.222 181.082V174.373H806.494L804.525 177.54L810.222 181.082ZM785.939 220.146L780.242 223.687L785.939 232.853L791.637 223.687L785.939 220.146ZM761.656 181.082L767.354 177.54L765.385 174.373H761.656V181.082ZM739.749 181.082V174.373H733.04V181.082H739.749ZM739.749 273.463H733.04V280.172H739.749V273.463ZM759.677 273.463V280.172H766.385V273.463H759.677ZM759.677 213.547L765.279 209.856L752.968 191.169V213.547H759.677ZM785.411 252.611L779.809 256.302L781.797 259.32H785.411V252.611ZM785.939 252.611V259.32H789.553L791.541 256.302L785.939 252.611ZM811.938 213.151H818.647V190.775L806.336 209.46L811.938 213.151ZM811.938 273.463H805.229V280.172H811.938V273.463ZM838.839 273.463V181.082H825.421V273.463H838.839ZM832.13 174.373H810.222V187.79H832.13V174.373ZM804.525 177.54L780.242 216.604L791.637 223.687L815.92 184.623L804.525 177.54ZM791.637 216.604L767.354 177.54L755.959 184.623L780.242 223.687L791.637 216.604ZM761.656 174.373H739.749V187.79H761.656V174.373ZM733.04 181.082V273.463H746.457V181.082H733.04ZM739.749 280.172H759.677V266.754H739.749V280.172ZM766.385 273.463V213.547H752.968V273.463H766.385ZM754.074 217.238L779.809 256.302L791.014 248.92L765.279 209.856L754.074 217.238ZM785.411 259.32H785.939V245.902H785.411V259.32ZM791.541 256.302L817.54 216.842L806.336 209.46L780.337 248.92L791.541 256.302ZM805.229 213.151V273.463H818.647V213.151H805.229ZM811.938 280.172H832.13V266.754H811.938V280.172ZM875.571 273.463V280.172H882.28V273.463H875.571ZM875.571 181.082H882.28V174.373H875.571V181.082ZM855.247 181.082V174.373H848.538V181.082H855.247ZM855.247 273.463H848.538V280.172H855.247V273.463ZM882.28 273.463V181.082H868.862V273.463H882.28ZM875.571 174.373H855.247V187.79H875.571V174.373ZM848.538 181.082V273.463H861.956V181.082H848.538ZM855.247 280.172H875.571V266.754H855.247V280.172ZM977.71 181.082H984.419V174.373H977.71V181.082ZM957.386 181.082V174.373H950.677V181.082H957.386ZM917.53 181.082H924.239V174.373H917.53V181.082ZM897.206 181.082V174.373H890.498V181.082H897.206ZM984.419 233.211V181.082H971.001V233.211H984.419ZM977.71 174.373H957.386V187.79H977.71V174.373ZM950.677 181.082V234.003H964.095V181.082H950.677ZM950.677 234.003C950.677 240.245 949.079 243.939 947.148 246.028C945.287 248.041 942.285 249.466 937.458 249.466V262.883C945.037 262.883 951.999 260.547 957 255.136C961.932 249.802 964.095 242.409 964.095 234.003H950.677ZM937.458 249.466C932.702 249.466 929.719 248.021 927.837 245.922C925.859 243.716 924.239 239.826 924.239 233.343H910.821C910.821 241.905 912.962 249.43 917.847 254.879C922.828 260.435 929.808 262.883 937.458 262.883V249.466ZM924.239 233.343V181.082H910.821V233.343H924.239ZM917.53 174.373H897.206V187.79H917.53V174.373ZM890.498 181.082V233.871H903.915V181.082H890.498ZM890.498 233.871C890.498 248.691 894.656 260.875 903.164 269.343C911.662 277.801 923.571 281.623 937.194 281.623V268.206C926.006 268.206 917.921 265.1 912.628 259.833C907.345 254.575 903.915 246.238 903.915 233.871H890.498ZM937.194 281.623C950.798 281.623 962.832 277.845 971.466 269.332C980.121 260.799 984.419 248.439 984.419 233.211H971.001C971.001 245.962 967.446 254.453 962.046 259.777C956.625 265.122 948.401 268.206 937.194 268.206V281.623ZM1090.79 273.463V280.172H1097.5V273.463H1090.79ZM1090.79 181.082H1097.5V174.373H1090.79V181.082ZM1068.89 181.082V174.373H1065.16L1063.19 177.54L1068.89 181.082ZM1044.6 220.146L1038.9 223.687L1044.6 232.853L1050.3 223.687L1044.6 220.146ZM1020.32 181.082L1026.02 177.54L1024.05 174.373H1020.32V181.082ZM998.411 181.082V174.373H991.703V181.082H998.411ZM998.411 273.463H991.703V280.172H998.411V273.463ZM1018.34 273.463V280.172H1025.05V273.463H1018.34ZM1018.34 213.547L1023.94 209.856L1011.63 191.169V213.547H1018.34ZM1044.07 252.611L1038.47 256.302L1040.46 259.32H1044.07V252.611ZM1044.6 252.611V259.32H1048.22L1050.2 256.302L1044.6 252.611ZM1070.6 213.151H1077.31V190.775L1065 209.46L1070.6 213.151ZM1070.6 273.463H1063.89V280.172H1070.6V273.463ZM1097.5 273.463V181.082H1084.08V273.463H1097.5ZM1090.79 174.373H1068.89V187.79H1090.79V174.373ZM1063.19 177.54L1038.9 216.604L1050.3 223.687L1074.58 184.623L1063.19 177.54ZM1050.3 216.604L1026.02 177.54L1014.62 184.623L1038.9 223.687L1050.3 216.604ZM1020.32 174.373H998.411V187.79H1020.32V174.373ZM991.703 181.082V273.463H1005.12V181.082H991.703ZM998.411 280.172H1018.34V266.754H998.411V280.172ZM1025.05 273.463V213.547H1011.63V273.463H1025.05ZM1012.74 217.238L1038.47 256.302L1049.68 248.92L1023.94 209.856L1012.74 217.238ZM1044.07 259.32H1044.6V245.902H1044.07V259.32ZM1050.2 256.302L1076.2 216.842L1065 209.46L1039 248.92L1050.2 256.302ZM1063.89 213.151V273.463H1077.31V213.151H1063.89ZM1070.6 280.172H1090.79V266.754H1070.6V280.172Z" fill="#00E6EF"/>
<path opacity="0.3" d="M62.6327 319.082L66.9339 313.933L62.6327 310.34L58.3315 313.933L62.6327 319.082ZM73.0586 327.792L68.7574 332.94L70.625 334.5H73.0586V327.792ZM88.4995 327.792V334.5H102.278L93.7805 323.654L88.4995 327.792ZM72.2668 307.072L77.5478 302.935L75.5333 300.363H72.2668V307.072ZM53.2626 307.072V300.363H49.9961L47.9816 302.935L53.2626 307.072ZM37.0299 327.792L31.7489 323.654L23.2517 334.5H37.0299V327.792ZM52.2068 327.792V334.5H54.6404L56.508 332.94L52.2068 327.792ZM118.567 381.241V380.977H105.15V381.241H118.567ZM118.567 380.977C118.567 350.949 95.0474 326.758 62.8967 326.758V340.175C87.7584 340.175 105.15 358.48 105.15 380.977H118.567ZM62.8967 326.758C30.7454 326.758 6.96193 351.213 6.96193 381.241H20.3793C20.3793 358.743 38.0354 340.175 62.8967 340.175V326.758ZM6.96193 381.241V381.505H20.3793V381.241H6.96193ZM6.96193 381.505C6.96193 411.533 30.4819 435.724 62.6327 435.724V422.307C37.771 422.307 20.3793 404.002 20.3793 381.505H6.96193ZM62.6327 435.724C94.784 435.724 118.567 411.269 118.567 381.241H105.15C105.15 403.739 87.494 422.307 62.6327 422.307V435.724ZM83.9024 381.505C83.9024 394.057 75.1498 403.566 62.8967 403.566V416.984C83.3729 416.984 97.3197 400.627 97.3197 381.505H83.9024ZM62.8967 403.566C50.6384 403.566 41.627 393.787 41.627 381.241H28.2096C28.2096 400.368 42.4256 416.984 62.8967 416.984V403.566ZM41.627 381.241V380.977H28.2096V381.241H41.627ZM41.627 380.977C41.627 368.425 50.3796 358.916 62.6327 358.916V345.498C42.1565 345.498 28.2096 361.855 28.2096 380.977H41.627ZM62.6327 358.916C74.891 358.916 83.9024 368.695 83.9024 381.241H97.3197C97.3197 362.114 83.1038 345.498 62.6327 345.498V358.916ZM83.9024 381.241V381.505H97.3197V381.241H83.9024ZM58.3315 324.23L68.7574 332.94L77.3598 322.643L66.9339 313.933L58.3315 324.23ZM73.0586 334.5H88.4995V321.083H73.0586V334.5ZM93.7805 323.654L77.5478 302.935L66.9858 311.209L83.2185 331.929L93.7805 323.654ZM72.2668 300.363H53.2626V313.781H72.2668V300.363ZM47.9816 302.935L31.7489 323.654L42.3109 331.929L58.5436 311.209L47.9816 302.935ZM37.0299 334.5H52.2068V321.083H37.0299V334.5ZM56.508 332.94L66.9339 324.23L58.3315 313.933L47.9056 322.643L56.508 332.94ZM222.269 427.432V434.14H228.978V427.432H222.269ZM222.269 335.05H228.978V328.342H222.269V335.05ZM200.361 335.05V328.342H196.632L194.664 331.509L200.361 335.05ZM176.078 374.114L170.381 377.656L176.078 386.822L181.776 377.656L176.078 374.114ZM151.795 335.05L157.493 331.509L155.524 328.342H151.795V335.05ZM129.888 335.05V328.342H123.179V335.05H129.888ZM129.888 427.432H123.179V434.14H129.888V427.432ZM149.816 427.432V434.14H156.524V427.432H149.816ZM149.816 367.516L155.418 363.825L143.107 345.138V367.516H149.816ZM175.55 406.58L169.948 410.271L171.936 413.289H175.55V406.58ZM176.078 406.58V413.289H179.692L181.68 410.271L176.078 406.58ZM202.077 367.12H208.786V344.744L196.475 363.429L202.077 367.12ZM202.077 427.432H195.368V434.14H202.077V427.432ZM228.978 427.432V335.05H215.56V427.432H228.978ZM222.269 328.342H200.361V341.759H222.269V328.342ZM194.664 331.509L170.381 370.573L181.776 377.656L206.059 338.592L194.664 331.509ZM181.776 370.573L157.493 331.509L146.098 338.592L170.381 377.656L181.776 370.573ZM151.795 328.342H129.888V341.759H151.795V328.342ZM123.179 335.05V427.432H136.596V335.05H123.179ZM129.888 434.14H149.816V420.723H129.888V434.14ZM156.524 427.432V367.516H143.107V427.432H156.524ZM144.213 371.206L169.948 410.271L181.153 402.889L155.418 363.825L144.213 371.206ZM175.55 413.289H176.078V399.871H175.55V413.289ZM181.68 410.271L207.679 370.811L196.475 363.429L170.476 402.889L181.68 410.271ZM195.368 367.12V427.432H208.786V367.12H195.368ZM202.077 434.14H222.269V420.723H202.077V434.14ZM314.804 427.432V434.14H321.513V427.432H314.804ZM314.804 409.351H321.513V402.643H314.804V409.351ZM264.654 409.351H257.945V416.06H264.654V409.351ZM264.654 389.951V383.243H257.945V389.951H264.654ZM308.205 389.951V396.66H314.914V389.951H308.205ZM308.205 371.871H314.914V365.162H308.205V371.871ZM264.654 371.871H257.945V378.58H264.654V371.871ZM264.654 353.131V346.422H257.945V353.131H264.654ZM314.144 353.131V359.839H320.853V353.131H314.144ZM314.144 335.05H320.853V328.342H314.144V335.05ZM244.462 335.05V328.342H237.753V335.05H244.462ZM244.462 427.432H237.753V434.14H244.462V427.432ZM321.513 427.432V409.351H308.095V427.432H321.513ZM314.804 402.643H264.654V416.06H314.804V402.643ZM271.363 409.351V389.951H257.945V409.351H271.363ZM264.654 396.66H308.205V383.243H264.654V396.66ZM314.914 389.951V371.871H301.497V389.951H314.914ZM308.205 365.162H264.654V378.58H308.205V365.162ZM271.363 371.871V353.131H257.945V371.871H271.363ZM264.654 359.839H314.144V346.422H264.654V359.839ZM320.853 353.131V335.05H307.435V353.131H320.853ZM314.144 328.342H244.462V341.759H314.144V328.342ZM237.753 335.05V427.432H251.171V335.05H237.753ZM244.462 434.14H314.804V420.723H244.462V434.14ZM412.718 427.432V434.14H425.434L418.255 423.644L412.718 427.432ZM390.15 394.438L387.818 388.148L379.763 391.135L384.613 398.226L390.15 394.438ZM332.874 335.05V328.342H326.165V335.05H332.874ZM332.874 427.432H326.165V434.14H332.874V427.432ZM353.198 427.432V434.14H359.906V427.432H353.198ZM353.198 397.87V391.161H346.489V397.87H353.198ZM369.167 397.87L374.741 394.137L372.748 391.161H369.167V397.87ZM388.963 427.432L383.388 431.164L385.381 434.14H388.963V427.432ZM353.198 379.921H346.489V386.63H353.198V379.921ZM353.198 353.395V346.686H346.489V353.395H353.198ZM418.255 423.644L395.688 390.651L384.613 398.226L407.18 431.219L418.255 423.644ZM392.483 400.729C399.358 398.179 405.474 394.036 409.865 388.043C414.281 382.015 416.655 374.517 416.655 365.8H403.238C403.238 371.996 401.587 376.639 399.041 380.114C396.47 383.623 392.688 386.342 387.818 388.148L392.483 400.729ZM416.655 365.8V365.536H403.238V365.8H416.655ZM416.655 365.536C416.655 354.407 412.77 344.829 405.112 338.12C397.567 331.511 387.113 328.342 375.105 328.342V341.759C384.873 341.759 391.84 344.331 396.271 348.213C400.59 351.996 403.238 357.661 403.238 365.536H416.655ZM375.105 328.342H332.874V341.759H375.105V328.342ZM326.165 335.05V427.432H339.583V335.05H326.165ZM332.874 434.14H353.198V420.723H332.874V434.14ZM359.906 427.432V397.87H346.489V427.432H359.906ZM353.198 404.578H369.167V391.161H353.198V404.578ZM363.592 401.602L383.388 431.164L394.537 423.699L374.741 394.137L363.592 401.602ZM388.963 434.14H412.718V420.723H388.963V434.14ZM382.65 366.856C382.65 369.016 381.923 370.347 380.9 371.23C379.774 372.203 377.591 373.213 373.786 373.213V386.63C379.879 386.63 385.482 385 389.668 381.386C393.957 377.684 396.067 372.482 396.067 366.856H382.65ZM373.786 373.213H353.198V386.63H373.786V373.213ZM359.906 379.921V353.395H346.489V379.921H359.906ZM353.198 360.103H373.39V346.686H353.198V360.103ZM373.39 360.103C377.445 360.103 379.738 361.037 380.887 361.959C381.809 362.699 382.65 363.934 382.65 366.592H396.067C396.067 360.54 393.872 355.176 389.284 351.494C384.924 347.996 379.232 346.686 373.39 346.686V360.103ZM382.65 366.592V366.856H396.067V366.592H382.65ZM467.811 335.05V328.342H461.103V335.05H467.811ZM467.811 427.432H461.103V434.14H467.811V427.432ZM488.135 427.432V434.14H494.844V427.432H488.135ZM488.135 399.717V393.009H481.427V399.717H488.135ZM488.135 381.637H481.427V388.346H488.135V381.637ZM488.135 353.395V346.686H481.427V353.395H488.135ZM547.633 367.252V366.988H534.216V367.252H547.633ZM547.633 366.988C547.633 355.906 543.677 346.055 536.058 339.015C528.484 332.016 517.893 328.342 505.556 328.342V341.759C515.258 341.759 522.352 344.618 526.952 348.869C531.508 353.079 534.216 359.198 534.216 366.988H547.633ZM505.556 328.342H467.811V341.759H505.556V328.342ZM461.103 335.05V427.432H474.52V335.05H461.103ZM467.811 434.14H488.135V420.723H467.811V434.14ZM494.844 427.432V399.717H481.427V427.432H494.844ZM488.135 406.426H503.576V393.009H488.135V406.426ZM503.576 406.426C515.052 406.426 526.004 403.362 534.233 396.723C542.638 389.941 547.633 379.866 547.633 367.252H534.216C534.216 376.018 530.897 382.175 525.808 386.281C520.542 390.529 512.82 393.009 503.576 393.009V406.426ZM513.628 367.648C513.628 369.858 512.839 371.506 511.582 372.65C510.289 373.827 507.982 374.928 504.236 374.928V388.346C510.652 388.346 516.395 386.412 520.613 382.573C524.865 378.703 527.046 373.355 527.046 367.648H513.628ZM504.236 374.928H488.135V388.346H504.236V374.928ZM494.844 381.637V353.395H481.427V381.637H494.844ZM488.135 360.103H503.84V346.686H488.135V360.103ZM503.84 360.103C507.945 360.103 510.358 361.098 511.625 362.145C512.706 363.039 513.628 364.51 513.628 367.384H527.046C527.046 361.151 524.801 355.628 520.173 351.804C515.733 348.133 509.897 346.686 503.84 346.686V360.103ZM513.628 367.384V367.648H527.046V367.384H513.628ZM635.809 427.432V434.14H648.526L641.347 423.644L635.809 427.432ZM613.242 394.438L610.91 388.148L602.854 391.135L607.705 398.226L613.242 394.438ZM555.966 335.05V328.342H549.257V335.05H555.966ZM555.966 427.432H549.257V434.14H555.966V427.432ZM576.289 427.432V434.14H582.998V427.432H576.289ZM576.289 397.87V391.161H569.581V397.87H576.289ZM592.258 397.87L597.832 394.137L595.84 391.161H592.258V397.87ZM612.054 427.432L606.48 431.164L608.473 434.14H612.054V427.432ZM576.289 379.921H569.581V386.63H576.289V379.921ZM576.289 353.395V346.686H569.581V353.395H576.289ZM641.347 423.644L618.779 390.651L607.705 398.226L630.272 431.219L641.347 423.644ZM615.574 400.729C622.45 398.179 628.566 394.036 632.956 388.043C637.372 382.015 639.747 374.517 639.747 365.8H626.329C626.329 371.996 624.678 376.639 622.133 380.114C619.562 383.623 615.78 386.342 610.91 388.148L615.574 400.729ZM639.747 365.8V365.536H626.329V365.8H639.747ZM639.747 365.536C639.747 354.407 635.862 344.829 628.204 338.12C620.659 331.511 610.205 328.342 598.197 328.342V341.759C607.964 341.759 614.931 344.331 619.363 348.213C623.681 351.996 626.329 357.661 626.329 365.536H639.747ZM598.197 328.342H555.966V341.759H598.197V328.342ZM549.257 335.05V427.432H562.674V335.05H549.257ZM555.966 434.14H576.289V420.723H555.966V434.14ZM582.998 427.432V397.87H569.581V427.432H582.998ZM576.289 404.578H592.258V391.161H576.289V404.578ZM586.684 401.602L606.48 431.164L617.628 423.699L597.832 394.137L586.684 401.602ZM612.054 434.14H635.809V420.723H612.054V434.14ZM605.741 366.856C605.741 369.016 605.014 370.347 603.991 371.23C602.865 372.203 600.682 373.213 596.877 373.213V386.63C602.97 386.63 608.574 385 612.76 381.386C617.049 377.684 619.159 372.482 619.159 366.856H605.741ZM596.877 373.213H576.289V386.63H596.877V373.213ZM582.998 379.921V353.395H569.581V379.921H582.998ZM576.289 360.103H596.481V346.686H576.289V360.103ZM596.481 360.103C600.537 360.103 602.829 361.037 603.979 361.959C604.901 362.699 605.741 363.934 605.741 366.592H619.159C619.159 360.54 616.964 355.176 612.376 351.494C608.016 347.996 602.324 346.686 596.481 346.686V360.103ZM605.741 366.592V366.856H619.159V366.592H605.741ZM721.679 427.432V434.14H728.387V427.432H721.679ZM721.679 409.351H728.387V402.643H721.679V409.351ZM671.529 409.351H664.82V416.06H671.529V409.351ZM671.529 389.951V383.243H664.82V389.951H671.529ZM715.08 389.951V396.66H721.789V389.951H715.08ZM715.08 371.871H721.789V365.162H715.08V371.871ZM671.529 371.871H664.82V378.58H671.529V371.871ZM671.529 353.131V346.422H664.82V353.131H671.529ZM721.019 353.131V359.839H727.727V353.131H721.019ZM721.019 335.05H727.727V328.342H721.019V335.05ZM651.337 335.05V328.342H644.628V335.05H651.337ZM651.337 427.432H644.628V434.14H651.337V427.432ZM728.387 427.432V409.351H714.97V427.432H728.387ZM721.679 402.643H671.529V416.06H721.679V402.643ZM678.237 409.351V389.951H664.82V409.351H678.237ZM671.529 396.66H715.08V383.243H671.529V396.66ZM721.789 389.951V371.871H708.371V389.951H721.789ZM715.08 365.162H671.529V378.58H715.08V365.162ZM678.237 371.871V353.131H664.82V371.871H678.237ZM671.529 359.839H721.019V346.422H671.529V359.839ZM727.727 353.131V335.05H714.31V353.131H727.727ZM721.019 328.342H651.337V341.759H721.019V328.342ZM644.628 335.05V427.432H658.046V335.05H644.628ZM651.337 434.14H721.679V420.723H651.337V434.14ZM832.13 427.432V434.14H838.839V427.432H832.13ZM832.13 335.05H838.839V328.342H832.13V335.05ZM810.222 335.05V328.342H806.494L804.525 331.509L810.222 335.05ZM785.939 374.114L780.242 377.656L785.939 386.822L791.637 377.656L785.939 374.114ZM761.656 335.05L767.354 331.509L765.385 328.342H761.656V335.05ZM739.749 335.05V328.342H733.04V335.05H739.749ZM739.749 427.432H733.04V434.14H739.749V427.432ZM759.677 427.432V434.14H766.385V427.432H759.677ZM759.677 367.516L765.279 363.825L752.968 345.138V367.516H759.677ZM785.411 406.58L779.809 410.271L781.797 413.289H785.411V406.58ZM785.939 406.58V413.289H789.553L791.541 410.271L785.939 406.58ZM811.938 367.12H818.647V344.744L806.336 363.429L811.938 367.12ZM811.938 427.432H805.229V434.14H811.938V427.432ZM838.839 427.432V335.05H825.421V427.432H838.839ZM832.13 328.342H810.222V341.759H832.13V328.342ZM804.525 331.509L780.242 370.573L791.637 377.656L815.92 338.592L804.525 331.509ZM791.637 370.573L767.354 331.509L755.959 338.592L780.242 377.656L791.637 370.573ZM761.656 328.342H739.749V341.759H761.656V328.342ZM733.04 335.05V427.432H746.457V335.05H733.04ZM739.749 434.14H759.677V420.723H739.749V434.14ZM766.385 427.432V367.516H752.968V427.432H766.385ZM754.074 371.206L779.809 410.271L791.014 402.889L765.279 363.825L754.074 371.206ZM785.411 413.289H785.939V399.871H785.411V413.289ZM791.541 410.271L817.54 370.811L806.336 363.429L780.337 402.889L791.541 410.271ZM805.229 367.12V427.432H818.647V367.12H805.229ZM811.938 434.14H832.13V420.723H811.938V434.14ZM875.571 427.432V434.14H882.28V427.432H875.571ZM875.571 335.05H882.28V328.342H875.571V335.05ZM855.247 335.05V328.342H848.538V335.05H855.247ZM855.247 427.432H848.538V434.14H855.247V427.432ZM882.28 427.432V335.05H868.862V427.432H882.28ZM875.571 328.342H855.247V341.759H875.571V328.342ZM848.538 335.05V427.432H861.956V335.05H848.538ZM855.247 434.14H875.571V420.723H855.247V434.14ZM977.71 335.05H984.419V328.342H977.71V335.05ZM957.386 335.05V328.342H950.677V335.05H957.386ZM917.53 335.05H924.239V328.342H917.53V335.05ZM897.206 335.05V328.342H890.498V335.05H897.206ZM984.419 387.18V335.05H971.001V387.18H984.419ZM977.71 328.342H957.386V341.759H977.71V328.342ZM950.677 335.05V387.972H964.095V335.05H950.677ZM950.677 387.972C950.677 394.214 949.079 397.908 947.148 399.997C945.287 402.01 942.285 403.434 937.458 403.434V416.852C945.037 416.852 951.999 414.515 957 409.105C961.932 403.77 964.095 396.378 964.095 387.972H950.677ZM937.458 403.434C932.702 403.434 929.719 401.989 927.837 399.891C925.859 397.685 924.239 393.794 924.239 387.312H910.821C910.821 395.874 912.962 403.399 917.847 408.848C922.828 414.404 929.808 416.852 937.458 416.852V403.434ZM924.239 387.312V335.05H910.821V387.312H924.239ZM917.53 328.342H897.206V341.759H917.53V328.342ZM890.498 335.05V387.84H903.915V335.05H890.498ZM890.498 387.84C890.498 402.659 894.656 414.844 903.164 423.312C911.662 431.769 923.571 435.592 937.194 435.592V422.175C926.006 422.175 917.921 419.069 912.628 413.801C907.345 408.543 903.915 400.206 903.915 387.84H890.498ZM937.194 435.592C950.798 435.592 962.832 431.813 971.466 423.301C980.121 414.768 984.419 402.407 984.419 387.18H971.001C971.001 399.931 967.446 408.422 962.046 413.746C956.625 419.091 948.401 422.175 937.194 422.175V435.592ZM1090.79 427.432V434.14H1097.5V427.432H1090.79ZM1090.79 335.05H1097.5V328.342H1090.79V335.05ZM1068.89 335.05V328.342H1065.16L1063.19 331.509L1068.89 335.05ZM1044.6 374.114L1038.9 377.656L1044.6 386.822L1050.3 377.656L1044.6 374.114ZM1020.32 335.05L1026.02 331.509L1024.05 328.342H1020.32V335.05ZM998.411 335.05V328.342H991.703V335.05H998.411ZM998.411 427.432H991.703V434.14H998.411V427.432ZM1018.34 427.432V434.14H1025.05V427.432H1018.34ZM1018.34 367.516L1023.94 363.825L1011.63 345.138V367.516H1018.34ZM1044.07 406.58L1038.47 410.271L1040.46 413.289H1044.07V406.58ZM1044.6 406.58V413.289H1048.22L1050.2 410.271L1044.6 406.58ZM1070.6 367.12H1077.31V344.744L1065 363.429L1070.6 367.12ZM1070.6 427.432H1063.89V434.14H1070.6V427.432ZM1097.5 427.432V335.05H1084.08V427.432H1097.5ZM1090.79 328.342H1068.89V341.759H1090.79V328.342ZM1063.19 331.509L1038.9 370.573L1050.3 377.656L1074.58 338.592L1063.19 331.509ZM1050.3 370.573L1026.02 331.509L1014.62 338.592L1038.9 377.656L1050.3 370.573ZM1020.32 328.342H998.411V341.759H1020.32V328.342ZM991.703 335.05V427.432H1005.12V335.05H991.703ZM998.411 434.14H1018.34V420.723H998.411V434.14ZM1025.05 427.432V367.516H1011.63V427.432H1025.05ZM1012.74 371.206L1038.47 410.271L1049.68 402.889L1023.94 363.825L1012.74 371.206ZM1044.07 413.289H1044.6V399.871H1044.07V413.289ZM1050.2 410.271L1076.2 370.811L1065 363.429L1039 402.889L1050.2 410.271ZM1063.89 367.12V427.432H1077.31V367.12H1063.89ZM1070.6 434.14H1090.79V420.723H1070.6V434.14Z" fill="#00E6EF"/>
</svg>
