<svg width="1440" height="559" viewBox="0 0 1440 559" fill="none" xmlns="http://www.w3.org/2000/svg">
<path d="M289.309 135.068L293.293 138.794L296.877 134.96L293.185 131.231L289.309 135.068ZM273.273 118.869L277.149 115.031L273.472 111.316L269.604 114.833L273.273 118.869ZM272.455 73.2154L268.789 77.2547L272.92 81.0033L276.575 76.789L272.455 73.2154ZM288.491 54.725L292.611 58.2986L295.966 54.4306L292.317 50.8384L288.491 54.725ZM293.185 131.231L277.149 115.031L269.396 122.706L285.432 138.905L293.185 131.231ZM269.604 114.833C261.057 122.603 254.302 126.832 243.165 126.832V137.741C258.208 137.741 267.49 131.497 276.942 122.905L269.604 114.833ZM243.165 126.832C227.101 126.832 215.402 113.503 215.402 96.2875H204.493C204.493 118.343 219.956 137.741 243.165 137.741V126.832ZM215.402 96.2875V95.9602H204.493V96.2875H215.402ZM215.402 95.9602C215.402 78.8494 227.334 65.7429 243.165 65.7429V54.8341C220.378 54.8341 204.493 73.7993 204.493 95.9602H215.402ZM243.165 65.7429C252.784 65.7429 260.534 69.7632 268.789 77.2547L276.12 69.1761C266.704 60.6316 256.454 54.8341 243.165 54.8341V65.7429ZM276.575 76.789L292.611 58.2986L284.37 51.1513L268.334 69.6417L276.575 76.789ZM292.317 50.8384C280.751 39.4496 266.481 31.5984 243.328 31.5984V42.5071C263.374 42.5071 274.958 49.0554 284.664 58.6116L292.317 50.8384ZM243.328 31.5984C205.037 31.5984 178.148 60.8117 178.148 96.2875H189.057C189.057 66.6377 211.258 42.5071 243.328 42.5071V31.5984ZM178.148 96.2875V96.6147H189.057V96.2875H178.148ZM178.148 96.6147C178.148 132.447 205.556 160.977 242.346 160.977V150.068C211.72 150.068 189.057 126.562 189.057 96.6147H178.148ZM242.346 160.977C254.068 160.977 263.678 158.886 272.019 154.954C280.339 151.032 287.098 145.418 293.293 138.794L285.325 131.343C279.738 137.318 274.061 141.931 267.368 145.086C260.696 148.231 252.715 150.068 242.346 150.068V160.977ZM408.479 153.559V159.013H418.818L412.981 150.479L408.479 153.559ZM380.498 112.651L378.601 107.536L372.052 109.965L375.996 115.73L380.498 112.651ZM309.481 39.0163V33.5619H304.027V39.0163H309.481ZM309.481 153.559H304.027V159.013H309.481V153.559ZM334.681 153.559V159.013H340.135V153.559H334.681ZM334.681 116.905V111.451H329.226V116.905H334.681ZM354.48 116.905L359.012 113.87L357.392 111.451H354.48V116.905ZM379.025 153.559L374.493 156.593L376.113 159.013H379.025V153.559ZM334.681 94.6511H329.226V100.106H334.681V94.6511ZM334.681 61.7611V56.3068H329.226V61.7611H334.681ZM412.981 150.479L385 109.571L375.996 115.73L403.977 156.638L412.981 150.479ZM382.394 117.765C390.491 114.763 397.576 109.929 402.631 103.029C407.708 96.1003 410.497 87.4125 410.497 77.1425H399.588C399.588 85.3629 397.387 91.7293 393.831 96.582C390.255 101.463 385.068 105.139 378.601 107.536L382.394 117.765ZM410.497 77.1425V76.8153H399.588V77.1425H410.497ZM410.497 76.8153C410.497 63.7112 405.944 52.6706 397.162 44.9769C388.471 37.3638 376.254 33.5619 361.844 33.5619V44.4707C374.432 44.4707 383.815 47.7869 389.974 53.1824C396.041 58.4975 399.588 66.3564 399.588 76.8153H410.497ZM361.844 33.5619H309.481V44.4707H361.844V33.5619ZM304.027 39.0163V153.559H314.936V39.0163H304.027ZM309.481 159.013H334.681V148.104H309.481V159.013ZM340.135 153.559V116.905H329.226V153.559H340.135ZM334.681 122.359H354.48V111.451H334.681V122.359ZM349.948 119.94L374.493 156.593L383.557 150.524L359.012 113.87L349.948 119.94ZM379.025 159.013H408.479V148.104H379.025V159.013ZM374.061 78.4516C374.061 81.87 372.865 84.3463 370.899 86.0431C368.85 87.8124 365.413 89.1967 360.207 89.1967V100.106C367.274 100.106 373.491 98.2173 378.028 94.3003C382.649 90.3109 384.97 84.6874 384.97 78.4516H374.061ZM360.207 89.1967H334.681V100.106H360.207V89.1967ZM340.135 94.6511V61.7611H329.226V94.6511H340.135ZM334.681 67.2155H359.716V56.3068H334.681V67.2155ZM359.716 67.2155C365.126 67.2155 368.694 68.4535 370.805 70.147C372.73 71.6922 374.061 74.1041 374.061 78.1243H384.97C384.97 71.3449 382.538 65.5752 377.632 61.6387C372.911 57.8505 366.579 56.3068 359.716 56.3068V67.2155ZM374.061 78.1243V78.4516H384.97V78.1243H374.061ZM454.076 153.559V159.013H459.53V153.559H454.076ZM454.076 39.0163H459.53V33.5619H454.076V39.0163ZM428.876 39.0163V33.5619H423.422V39.0163H428.876ZM428.876 153.559H423.422V159.013H428.876V153.559ZM459.53 153.559V39.0163H448.621V153.559H459.53ZM454.076 33.5619H428.876V44.4707H454.076V33.5619ZM423.422 39.0163V153.559H434.331V39.0163H423.422ZM428.876 159.013H454.076V148.104H428.876V159.013ZM604.825 96.2875V95.9602H593.916V96.2875H604.825ZM604.825 95.9602C604.825 60.3361 576.971 31.5984 538.663 31.5984V42.5071C571.045 42.5071 593.916 66.4588 593.916 95.9602H604.825ZM538.663 31.5984C500.355 31.5984 472.174 60.6637 472.174 96.2875H483.083C483.083 66.7857 506.282 42.5071 538.663 42.5071V31.5984ZM472.174 96.2875V96.6147H483.083V96.2875H472.174ZM472.174 96.6147C472.174 132.239 500.028 160.977 538.336 160.977V150.068C505.955 150.068 483.083 126.116 483.083 96.6147H472.174ZM538.336 160.977C576.644 160.977 604.825 131.911 604.825 96.2875H593.916C593.916 125.789 570.717 150.068 538.336 150.068V160.977ZM567.571 96.6147C567.571 113.58 555.611 126.832 538.663 126.832V137.741C562.296 137.741 578.48 118.922 578.48 96.6147H567.571ZM538.663 126.832C521.711 126.832 509.428 113.248 509.428 96.2875H498.519C498.519 118.599 515.034 137.741 538.663 137.741V126.832ZM509.428 96.2875V95.9602H498.519V96.2875H509.428ZM509.428 95.9602C509.428 78.9953 521.388 65.7429 538.336 65.7429V54.8341C514.703 54.8341 498.519 73.6534 498.519 95.9602H509.428ZM538.336 65.7429C555.288 65.7429 567.571 79.3271 567.571 96.2875H578.48C578.48 73.9762 561.965 54.8341 538.336 54.8341V65.7429ZM567.571 96.2875V96.6147H578.48V96.2875H567.571ZM621.724 39.0163V33.5619H616.27V39.0163H621.724ZM621.724 153.559H616.27V159.013H621.724V153.559ZM646.924 130.814H641.469V136.268H646.924V130.814ZM646.924 61.7611V56.3068H641.469V61.7611H646.924ZM732.721 96.2875V95.9602H721.812V96.2875H732.721ZM732.721 95.9602C732.721 60.4642 705.153 33.5619 666.396 33.5619V44.4707C699.637 44.4707 721.812 66.9853 721.812 95.9602H732.721ZM666.396 33.5619H621.724V44.4707H666.396V33.5619ZM616.27 39.0163V153.559H627.179V39.0163H616.27ZM621.724 159.013H666.396V148.104H621.724V159.013ZM666.396 159.013C705.195 159.013 732.721 131.743 732.721 96.2875H721.812C721.812 125.302 699.595 148.104 666.396 148.104V159.013ZM695.468 96.6147C695.468 105.481 692.453 112.58 687.547 117.453C682.639 122.328 675.45 125.359 666.396 125.359V136.268C677.959 136.268 688.034 132.345 695.234 125.193C702.437 118.039 706.376 108.039 706.376 96.6147H695.468ZM666.396 125.359H646.924V136.268H666.396V125.359ZM652.378 130.814V61.7611H641.469V130.814H652.378ZM646.924 67.2155H666.396V56.3068H646.924V67.2155ZM666.396 67.2155C675.413 67.2155 682.598 70.3038 687.521 75.2593C692.448 80.2203 695.468 87.416 695.468 96.2875H706.376C706.376 84.8686 702.441 74.8011 695.26 67.5716C688.074 60.3365 677.996 56.3068 666.396 56.3068V67.2155ZM695.468 96.2875V96.6147H706.376V96.2875H695.468ZM836.937 153.559V159.013H842.392V153.559H836.937ZM836.937 131.141H842.392V125.687H836.937V131.141ZM774.757 131.141H769.303V136.595H774.757V131.141ZM774.757 107.087V101.633H769.303V107.087H774.757ZM828.756 107.087V112.542H834.21V107.087H828.756ZM828.756 84.6696H834.21V79.2152H828.756V84.6696ZM774.757 84.6696H769.303V90.124H774.757V84.6696ZM774.757 61.4339V55.9795H769.303V61.4339H774.757ZM836.119 61.4339V66.8883H841.573V61.4339H836.119ZM836.119 39.0163H841.573V33.5619H836.119V39.0163ZM749.721 39.0163V33.5619H744.267V39.0163H749.721ZM749.721 153.559H744.267V159.013H749.721V153.559ZM842.392 153.559V131.141H831.483V153.559H842.392ZM836.937 125.687H774.757V136.595H836.937V125.687ZM780.211 131.141V107.087H769.303V131.141H780.211ZM774.757 112.542H828.756V101.633H774.757V112.542ZM834.21 107.087V84.6696H823.301V107.087H834.21ZM828.756 79.2152H774.757V90.124H828.756V79.2152ZM780.211 84.6696V61.4339H769.303V84.6696H780.211ZM774.757 66.8883H836.119V55.9795H774.757V66.8883ZM841.573 61.4339V39.0163H830.665V61.4339H841.573ZM836.119 33.5619H749.721V44.4707H836.119V33.5619ZM744.267 39.0163V153.559H755.176V39.0163H744.267ZM749.721 159.013H836.937V148.104H749.721V159.013ZM958.339 153.559V159.013H968.678L962.841 150.479L958.339 153.559ZM930.358 112.651L928.462 107.536L921.913 109.965L925.856 115.73L930.358 112.651ZM859.342 39.0163V33.5619H853.887V39.0163H859.342ZM859.342 153.559H853.887V159.013H859.342V153.559ZM884.541 153.559V159.013H889.996V153.559H884.541ZM884.541 116.905V111.451H879.087V116.905H884.541ZM904.341 116.905L908.873 113.87L907.253 111.451H904.341V116.905ZM928.885 153.559L924.353 156.593L925.974 159.013H928.885V153.559ZM884.541 94.6511H879.087V100.106H884.541V94.6511ZM884.541 61.7611V56.3068H879.087V61.7611H884.541ZM962.841 150.479L934.86 109.571L925.856 115.73L953.837 156.638L962.841 150.479ZM932.254 117.765C940.351 114.763 947.436 109.929 952.492 103.029C957.568 96.1003 960.357 87.4125 960.357 77.1425H949.448C949.448 85.3629 947.247 91.7293 943.692 96.582C940.115 101.463 934.928 105.139 928.462 107.536L932.254 117.765ZM960.357 77.1425V76.8153H949.448V77.1425H960.357ZM960.357 76.8153C960.357 63.7112 955.805 52.6706 947.022 44.9769C938.332 37.3638 926.115 33.5619 911.704 33.5619V44.4707C924.293 44.4707 933.675 47.7869 939.834 53.1824C945.901 58.4975 949.448 66.3564 949.448 76.8153H960.357ZM911.704 33.5619H859.342V44.4707H911.704V33.5619ZM853.887 39.0163V153.559H864.796V39.0163H853.887ZM859.342 159.013H884.541V148.104H859.342V159.013ZM889.996 153.559V116.905H879.087V153.559H889.996ZM884.541 122.359H904.341V111.451H884.541V122.359ZM899.808 119.94L924.353 156.593L933.417 150.524L908.873 113.87L899.808 119.94ZM928.885 159.013H958.339V148.104H928.885V159.013ZM923.922 78.4516C923.922 81.87 922.725 84.3463 920.76 86.0431C918.71 87.8124 915.274 89.1967 910.068 89.1967V100.106C917.134 100.106 923.352 98.2173 927.889 94.3003C932.509 90.3109 934.831 84.6874 934.831 78.4516H923.922ZM910.068 89.1967H884.541V100.106H910.068V89.1967ZM889.996 94.6511V61.7611H879.087V94.6511H889.996ZM884.541 67.2155H909.577V56.3068H884.541V67.2155ZM909.577 67.2155C914.987 67.2155 918.555 68.4535 920.665 70.147C922.591 71.6922 923.922 74.1041 923.922 78.1243H934.831C934.831 71.3449 932.398 65.5752 927.492 61.6387C922.771 57.8505 916.439 56.3068 909.577 56.3068V67.2155ZM923.922 78.1243V78.4516H934.831V78.1243H923.922ZM1092.13 153.559V159.013H1097.59V153.559H1092.13ZM1092.13 39.0163H1097.59V33.5619H1092.13V39.0163ZM1064.97 39.0163V33.5619H1061.94L1060.34 36.1368L1064.97 39.0163ZM1034.86 87.4513L1030.23 90.3309L1034.86 97.7829L1039.49 90.3309L1034.86 87.4513ZM1004.75 39.0163L1009.39 36.1368L1007.79 33.5619H1004.75V39.0163ZM977.592 39.0163V33.5619H972.137V39.0163H977.592ZM977.592 153.559H972.137V159.013H977.592V153.559ZM1002.3 153.559V159.013H1007.75V153.559H1002.3ZM1002.3 79.2698L1006.85 76.2691L996.845 61.0756V79.2698H1002.3ZM1034.21 127.705L1029.65 130.705L1031.27 133.159H1034.21V127.705ZM1034.86 127.705V133.159H1037.8L1039.42 130.706L1034.86 127.705ZM1067.1 78.7789H1072.55V60.5865L1062.54 75.778L1067.1 78.7789ZM1067.1 153.559H1061.64V159.013H1067.1V153.559ZM1097.59 153.559V39.0163H1086.68V153.559H1097.59ZM1092.13 33.5619H1064.97V44.4707H1092.13V33.5619ZM1060.34 36.1368L1030.23 84.5718L1039.49 90.3309L1069.6 41.8959L1060.34 36.1368ZM1039.49 84.5718L1009.39 36.1368L1000.12 41.8959L1030.23 90.3309L1039.49 84.5718ZM1004.75 33.5619H977.592V44.4707H1004.75V33.5619ZM972.137 39.0163V153.559H983.046V39.0163H972.137ZM977.592 159.013H1002.3V148.104H977.592V159.013ZM1007.75 153.559V79.2698H996.845V153.559H1007.75ZM997.745 82.2704L1029.65 130.705L1038.76 124.704L1006.85 76.2691L997.745 82.2704ZM1034.21 133.159H1034.86V122.25H1034.21V133.159ZM1039.42 130.706L1071.65 81.7798L1062.54 75.778L1030.31 124.704L1039.42 130.706ZM1061.64 78.7789V153.559H1072.55V78.7789H1061.64ZM1067.1 159.013H1092.13V148.104H1067.1V159.013ZM1146 153.559V159.013H1151.45V153.559H1146ZM1146 39.0163H1151.45V33.5619H1146V39.0163ZM1120.8 39.0163V33.5619H1115.34V39.0163H1120.8ZM1120.8 153.559H1115.34V159.013H1120.8V153.559ZM1151.45 153.559V39.0163H1140.54V153.559H1151.45ZM1146 33.5619H1120.8V44.4707H1146V33.5619ZM1115.34 39.0163V153.559H1126.25V39.0163H1115.34ZM1120.8 159.013H1146V148.104H1120.8V159.013ZM1221.09 84.9969L1222.47 79.7187L1222.46 79.7159L1222.45 79.7131L1221.09 84.9969ZM1240.89 70.9245L1237.78 75.4065L1242.28 78.5231L1245.38 74.0212L1240.89 70.9245ZM1253.98 51.9432L1258.47 55.0399L1261.35 50.8649L1257.4 47.6899L1253.98 51.9432ZM1209.31 107.251L1210.67 101.967L1210.66 101.966L1209.31 107.251ZM1181.66 119.032L1185.13 114.826L1180.95 111.373L1177.47 115.537L1181.66 119.032ZM1166.77 136.868L1162.58 133.373L1159.2 137.423L1163.13 140.937L1166.77 136.868ZM1262.87 119.687V119.36H1251.96V119.687H1262.87ZM1262.87 119.36C1262.87 107.97 1259.04 99.3203 1251.54 92.8357C1244.37 86.6427 1234.26 82.7922 1222.47 79.7187L1219.72 90.275C1231.16 93.2559 1239.21 96.6052 1244.4 101.089C1249.25 105.282 1251.96 110.786 1251.96 119.36H1262.87ZM1222.45 79.7131C1212.36 77.1286 1206.99 75.4125 1204.09 73.6949C1202.79 72.9278 1202.38 72.3766 1202.21 72.0826C1202.05 71.7882 1201.84 71.2348 1201.84 69.9427H1190.93C1190.93 72.4142 1191.33 74.9902 1192.71 77.4316C1194.08 79.8733 1196.13 81.6641 1198.54 83.0855C1203.04 85.7451 1210.03 87.7925 1219.74 90.2806L1222.45 79.7131ZM1201.84 69.9427V69.6155H1190.93V69.9427H1201.84ZM1201.84 69.6155C1201.84 68.6698 1202.2 67.7778 1203.34 66.9496C1204.61 66.0258 1207.05 65.0883 1211.11 65.0883V54.1795C1205.52 54.1795 1200.6 55.4511 1196.92 58.1272C1193.11 60.8989 1190.93 64.9977 1190.93 69.6155H1201.84ZM1211.11 65.0883C1219.18 65.0883 1228.07 68.6685 1237.78 75.4065L1244 66.4426C1233.43 59.1082 1222.35 54.1795 1211.11 54.1795V65.0883ZM1245.38 74.0212L1258.47 55.0399L1249.49 48.8466L1236.4 67.8279L1245.38 74.0212ZM1257.4 47.6899C1244.79 37.5725 1229.35 31.9256 1211.44 31.9256V42.8344C1226.91 42.8344 1239.93 47.6599 1250.57 56.1965L1257.4 47.6899ZM1211.44 31.9256C1198.7 31.9256 1187.35 35.671 1179.09 42.6946C1170.75 49.7818 1165.89 59.9421 1165.89 71.9063H1176.8C1176.8 63.0893 1180.29 55.9864 1186.15 51.0058C1192.08 45.9615 1200.78 42.8344 1211.44 42.8344V31.9256ZM1165.89 71.9063V72.2336H1176.8V71.9063H1165.89ZM1165.89 72.2336C1165.89 85.0418 1170.21 94.0078 1178.31 100.356C1185.93 106.323 1196.48 109.605 1207.96 112.536L1210.66 101.966C1199.07 99.0056 1190.64 96.1519 1185.04 91.7685C1179.93 87.7675 1176.8 82.1702 1176.8 72.2336H1165.89ZM1207.96 112.534C1217.58 115.001 1222.5 116.869 1225.02 118.531C1226.15 119.275 1226.5 119.796 1226.63 120.057C1226.77 120.321 1226.93 120.781 1226.93 121.814H1237.84C1237.84 119.656 1237.5 117.314 1236.31 115.017C1235.11 112.715 1233.28 110.914 1231.03 109.429C1226.8 106.633 1220.19 104.409 1210.67 101.967L1207.96 112.534ZM1226.93 121.814V122.141H1237.84V121.814H1226.93ZM1226.93 122.141C1226.93 123.53 1226.41 124.569 1225 125.494C1223.35 126.569 1220.4 127.487 1215.86 127.487V138.395C1221.62 138.395 1226.93 137.267 1230.97 134.62C1235.25 131.822 1237.84 127.461 1237.84 122.141H1226.93ZM1215.86 127.487C1204.46 127.487 1194.85 122.849 1185.13 114.826L1178.18 123.239C1189.08 132.233 1201.07 138.395 1215.86 138.395V127.487ZM1177.47 115.537L1162.58 133.373L1170.95 140.364L1185.84 122.528L1177.47 115.537ZM1163.13 140.937C1177.94 154.158 1196.77 160.649 1215.37 160.649V149.741C1199.27 149.741 1183.08 144.123 1170.4 132.8L1163.13 140.937ZM1215.37 160.649C1228.6 160.649 1240.44 157.236 1249.1 150.203C1257.89 143.059 1262.87 132.58 1262.87 119.687H1251.96C1251.96 129.538 1248.28 136.813 1242.22 141.737C1236.02 146.772 1226.84 149.741 1215.37 149.741V160.649Z" fill="#2097D5"/>
<path opacity="0.5" d="M289.309 310.324L293.293 314.049L296.877 310.216L293.185 306.487L289.309 310.324ZM273.273 294.125L277.149 290.287L273.472 286.572L269.604 290.089L273.273 294.125ZM272.455 248.471L268.789 252.511L272.92 256.259L276.575 252.045L272.455 248.471ZM288.491 229.981L292.611 233.554L295.966 229.686L292.317 226.094L288.491 229.981ZM293.185 306.487L277.149 290.287L269.396 297.962L285.432 314.161L293.185 306.487ZM269.604 290.089C261.057 297.859 254.302 302.088 243.165 302.088V312.997C258.208 312.997 267.49 306.753 276.942 298.16L269.604 290.089ZM243.165 302.088C227.101 302.088 215.402 288.759 215.402 271.543H204.493C204.493 293.599 219.956 312.997 243.165 312.997V302.088ZM215.402 271.543V271.216H204.493V271.543H215.402ZM215.402 271.216C215.402 254.105 227.334 240.999 243.165 240.999V230.09C220.378 230.09 204.493 249.055 204.493 271.216H215.402ZM243.165 240.999C252.784 240.999 260.534 245.019 268.789 252.511L276.12 244.432C266.704 235.887 256.454 230.09 243.165 230.09V240.999ZM276.575 252.045L292.611 233.554L284.37 226.407L268.334 244.898L276.575 252.045ZM292.317 226.094C280.751 214.706 266.481 206.854 243.328 206.854V217.763C263.374 217.763 274.958 224.311 284.664 233.867L292.317 226.094ZM243.328 206.854C205.037 206.854 178.148 236.068 178.148 271.543H189.057C189.057 241.894 211.258 217.763 243.328 217.763V206.854ZM178.148 271.543V271.871H189.057V271.543H178.148ZM178.148 271.871C178.148 307.703 205.556 336.232 242.346 336.232V325.324C211.72 325.324 189.057 301.818 189.057 271.871H178.148ZM242.346 336.232C254.068 336.232 263.678 334.142 272.019 330.21C280.339 326.288 287.098 320.674 293.293 314.049L285.325 306.599C279.738 312.574 274.061 317.187 267.368 320.342C260.696 323.487 252.715 325.324 242.346 325.324V336.232ZM408.479 328.814V334.269H418.818L412.981 325.735L408.479 328.814ZM380.498 287.907L378.601 282.792L372.052 285.221L375.996 290.986L380.498 287.907ZM309.481 214.272V208.818H304.027V214.272H309.481ZM309.481 328.814H304.027V334.269H309.481V328.814ZM334.681 328.814V334.269H340.135V328.814H334.681ZM334.681 292.161V286.707H329.226V292.161H334.681ZM354.48 292.161L359.012 289.126L357.392 286.707H354.48V292.161ZM379.025 328.814L374.493 331.849L376.113 334.269H379.025V328.814ZM334.681 269.907H329.226V275.361H334.681V269.907ZM334.681 237.017V231.563H329.226V237.017H334.681ZM412.981 325.735L385 284.827L375.996 290.986L403.977 331.894L412.981 325.735ZM382.394 293.021C390.491 290.019 397.576 285.185 402.631 278.285C407.708 271.356 410.497 262.668 410.497 252.398H399.588C399.588 260.619 397.387 266.985 393.831 271.838C390.255 276.719 385.068 280.395 378.601 282.792L382.394 293.021ZM410.497 252.398V252.071H399.588V252.398H410.497ZM410.497 252.071C410.497 238.967 405.944 227.926 397.162 220.233C388.471 212.62 376.254 208.818 361.844 208.818V219.727C374.432 219.727 383.815 223.043 389.974 228.438C396.041 233.753 399.588 241.612 399.588 252.071H410.497ZM361.844 208.818H309.481V219.727H361.844V208.818ZM304.027 214.272V328.814H314.936V214.272H304.027ZM309.481 334.269H334.681V323.36H309.481V334.269ZM340.135 328.814V292.161H329.226V328.814H340.135ZM334.681 297.615H354.48V286.707H334.681V297.615ZM349.948 295.196L374.493 331.849L383.557 325.78L359.012 289.126L349.948 295.196ZM379.025 334.269H408.479V323.36H379.025V334.269ZM374.061 253.707C374.061 257.126 372.865 259.602 370.899 261.299C368.85 263.068 365.413 264.453 360.207 264.453V275.361C367.274 275.361 373.491 273.473 378.028 269.556C382.649 265.567 384.97 259.943 384.97 253.707H374.061ZM360.207 264.453H334.681V275.361H360.207V264.453ZM340.135 269.907V237.017H329.226V269.907H340.135ZM334.681 242.471H359.716V231.563H334.681V242.471ZM359.716 242.471C365.126 242.471 368.694 243.709 370.805 245.403C372.73 246.948 374.061 249.36 374.061 253.38H384.97C384.97 246.601 382.538 240.831 377.632 236.895C372.911 233.106 366.579 231.563 359.716 231.563V242.471ZM374.061 253.38V253.707H384.97V253.38H374.061ZM454.076 328.814V334.269H459.53V328.814H454.076ZM454.076 214.272H459.53V208.818H454.076V214.272ZM428.876 214.272V208.818H423.422V214.272H428.876ZM428.876 328.814H423.422V334.269H428.876V328.814ZM459.53 328.814V214.272H448.621V328.814H459.53ZM454.076 208.818H428.876V219.727H454.076V208.818ZM423.422 214.272V328.814H434.331V214.272H423.422ZM428.876 334.269H454.076V323.36H428.876V334.269ZM604.825 271.543V271.216H593.916V271.543H604.825ZM604.825 271.216C604.825 235.592 576.971 206.854 538.663 206.854V217.763C571.045 217.763 593.916 241.715 593.916 271.216H604.825ZM538.663 206.854C500.355 206.854 472.174 235.92 472.174 271.543H483.083C483.083 242.042 506.282 217.763 538.663 217.763V206.854ZM472.174 271.543V271.871H483.083V271.543H472.174ZM472.174 271.871C472.174 307.495 500.028 336.232 538.336 336.232V325.324C505.955 325.324 483.083 301.372 483.083 271.871H472.174ZM538.336 336.232C576.644 336.232 604.825 307.167 604.825 271.543H593.916C593.916 301.045 570.717 325.324 538.336 325.324V336.232ZM567.571 271.871C567.571 288.835 555.611 302.088 538.663 302.088V312.997C562.296 312.997 578.48 294.177 578.48 271.871H567.571ZM538.663 302.088C521.711 302.088 509.428 288.504 509.428 271.543H498.519C498.519 293.855 515.034 312.997 538.663 312.997V302.088ZM509.428 271.543V271.216H498.519V271.543H509.428ZM509.428 271.216C509.428 254.251 521.388 240.999 538.336 240.999V230.09C514.703 230.09 498.519 248.909 498.519 271.216H509.428ZM538.336 240.999C555.288 240.999 567.571 254.583 567.571 271.543H578.48C578.48 249.232 561.965 230.09 538.336 230.09V240.999ZM567.571 271.543V271.871H578.48V271.543H567.571ZM621.724 214.272V208.818H616.27V214.272H621.724ZM621.724 328.814H616.27V334.269H621.724V328.814ZM646.924 306.07H641.469V311.524H646.924V306.07ZM646.924 237.017V231.563H641.469V237.017H646.924ZM732.721 271.543V271.216H721.812V271.543H732.721ZM732.721 271.216C732.721 235.72 705.153 208.818 666.396 208.818V219.727C699.637 219.727 721.812 242.241 721.812 271.216H732.721ZM666.396 208.818H621.724V219.727H666.396V208.818ZM616.27 214.272V328.814H627.179V214.272H616.27ZM621.724 334.269H666.396V323.36H621.724V334.269ZM666.396 334.269C705.195 334.269 732.721 306.999 732.721 271.543H721.812C721.812 300.558 699.595 323.36 666.396 323.36V334.269ZM695.468 271.871C695.468 280.737 692.453 287.836 687.547 292.709C682.639 297.584 675.45 300.615 666.396 300.615V311.524C677.959 311.524 688.034 307.601 695.234 300.449C702.437 293.295 706.376 283.295 706.376 271.871H695.468ZM666.396 300.615H646.924V311.524H666.396V300.615ZM652.378 306.07V237.017H641.469V306.07H652.378ZM646.924 242.471H666.396V231.563H646.924V242.471ZM666.396 242.471C675.413 242.471 682.598 245.56 687.521 250.515C692.448 255.476 695.468 262.672 695.468 271.543H706.376C706.376 260.124 702.441 250.057 695.26 242.827C688.074 235.592 677.996 231.563 666.396 231.563V242.471ZM695.468 271.543V271.871H706.376V271.543H695.468ZM836.937 328.814V334.269H842.392V328.814H836.937ZM836.937 306.397H842.392V300.943H836.937V306.397ZM774.757 306.397H769.303V311.851H774.757V306.397ZM774.757 282.343V276.889H769.303V282.343H774.757ZM828.756 282.343V287.797H834.21V282.343H828.756ZM828.756 259.925H834.21V254.471H828.756V259.925ZM774.757 259.925H769.303V265.38H774.757V259.925ZM774.757 236.69V231.235H769.303V236.69H774.757ZM836.119 236.69V242.144H841.573V236.69H836.119ZM836.119 214.272H841.573V208.818H836.119V214.272ZM749.721 214.272V208.818H744.267V214.272H749.721ZM749.721 328.814H744.267V334.269H749.721V328.814ZM842.392 328.814V306.397H831.483V328.814H842.392ZM836.937 300.943H774.757V311.851H836.937V300.943ZM780.211 306.397V282.343H769.303V306.397H780.211ZM774.757 287.797H828.756V276.889H774.757V287.797ZM834.21 282.343V259.925H823.301V282.343H834.21ZM828.756 254.471H774.757V265.38H828.756V254.471ZM780.211 259.925V236.69H769.303V259.925H780.211ZM774.757 242.144H836.119V231.235H774.757V242.144ZM841.573 236.69V214.272H830.665V236.69H841.573ZM836.119 208.818H749.721V219.727H836.119V208.818ZM744.267 214.272V328.814H755.176V214.272H744.267ZM749.721 334.269H836.937V323.36H749.721V334.269ZM958.339 328.814V334.269H968.678L962.841 325.735L958.339 328.814ZM930.358 287.907L928.462 282.792L921.913 285.221L925.856 290.986L930.358 287.907ZM859.342 214.272V208.818H853.887V214.272H859.342ZM859.342 328.814H853.887V334.269H859.342V328.814ZM884.541 328.814V334.269H889.996V328.814H884.541ZM884.541 292.161V286.707H879.087V292.161H884.541ZM904.341 292.161L908.873 289.126L907.253 286.707H904.341V292.161ZM928.885 328.814L924.353 331.849L925.974 334.269H928.885V328.814ZM884.541 269.907H879.087V275.361H884.541V269.907ZM884.541 237.017V231.563H879.087V237.017H884.541ZM962.841 325.735L934.86 284.827L925.856 290.986L953.837 331.894L962.841 325.735ZM932.254 293.021C940.351 290.019 947.436 285.185 952.492 278.285C957.568 271.356 960.357 262.668 960.357 252.398H949.448C949.448 260.619 947.247 266.985 943.692 271.838C940.115 276.719 934.928 280.395 928.462 282.792L932.254 293.021ZM960.357 252.398V252.071H949.448V252.398H960.357ZM960.357 252.071C960.357 238.967 955.805 227.926 947.022 220.233C938.332 212.62 926.115 208.818 911.704 208.818V219.727C924.293 219.727 933.675 223.043 939.834 228.438C945.901 233.753 949.448 241.612 949.448 252.071H960.357ZM911.704 208.818H859.342V219.727H911.704V208.818ZM853.887 214.272V328.814H864.796V214.272H853.887ZM859.342 334.269H884.541V323.36H859.342V334.269ZM889.996 328.814V292.161H879.087V328.814H889.996ZM884.541 297.615H904.341V286.707H884.541V297.615ZM899.808 295.196L924.353 331.849L933.417 325.78L908.873 289.126L899.808 295.196ZM928.885 334.269H958.339V323.36H928.885V334.269ZM923.922 253.707C923.922 257.126 922.725 259.602 920.76 261.299C918.71 263.068 915.274 264.453 910.068 264.453V275.361C917.134 275.361 923.352 273.473 927.889 269.556C932.509 265.567 934.831 259.943 934.831 253.707H923.922ZM910.068 264.453H884.541V275.361H910.068V264.453ZM889.996 269.907V237.017H879.087V269.907H889.996ZM884.541 242.471H909.577V231.563H884.541V242.471ZM909.577 242.471C914.987 242.471 918.555 243.709 920.665 245.403C922.591 246.948 923.922 249.36 923.922 253.38H934.831C934.831 246.601 932.398 240.831 927.492 236.895C922.771 233.106 916.439 231.563 909.577 231.563V242.471ZM923.922 253.38V253.707H934.831V253.38H923.922ZM1092.13 328.814V334.269H1097.59V328.814H1092.13ZM1092.13 214.272H1097.59V208.818H1092.13V214.272ZM1064.97 214.272V208.818H1061.94L1060.34 211.393L1064.97 214.272ZM1034.86 262.707L1030.23 265.587L1034.86 273.039L1039.49 265.587L1034.86 262.707ZM1004.75 214.272L1009.39 211.393L1007.79 208.818H1004.75V214.272ZM977.592 214.272V208.818H972.137V214.272H977.592ZM977.592 328.814H972.137V334.269H977.592V328.814ZM1002.3 328.814V334.269H1007.75V328.814H1002.3ZM1002.3 254.526L1006.85 251.525L996.845 236.331V254.526H1002.3ZM1034.21 302.961L1029.65 305.961L1031.27 308.415H1034.21V302.961ZM1034.86 302.961V308.415H1037.8L1039.42 305.962L1034.86 302.961ZM1067.1 254.035H1072.55V235.842L1062.54 251.034L1067.1 254.035ZM1067.1 328.814H1061.64V334.269H1067.1V328.814ZM1097.59 328.814V214.272H1086.68V328.814H1097.59ZM1092.13 208.818H1064.97V219.727H1092.13V208.818ZM1060.34 211.393L1030.23 259.828L1039.49 265.587L1069.6 217.152L1060.34 211.393ZM1039.49 259.828L1009.39 211.393L1000.12 217.152L1030.23 265.587L1039.49 259.828ZM1004.75 208.818H977.592V219.727H1004.75V208.818ZM972.137 214.272V328.814H983.046V214.272H972.137ZM977.592 334.269H1002.3V323.36H977.592V334.269ZM1007.75 328.814V254.526H996.845V328.814H1007.75ZM997.745 257.526L1029.65 305.961L1038.76 299.96L1006.85 251.525L997.745 257.526ZM1034.21 308.415H1034.86V297.506H1034.21V308.415ZM1039.42 305.962L1071.65 257.036L1062.54 251.034L1030.31 299.96L1039.42 305.962ZM1061.64 254.035V328.814H1072.55V254.035H1061.64ZM1067.1 334.269H1092.13V323.36H1067.1V334.269ZM1146 328.814V334.269H1151.45V328.814H1146ZM1146 214.272H1151.45V208.818H1146V214.272ZM1120.8 214.272V208.818H1115.34V214.272H1120.8ZM1120.8 328.814H1115.34V334.269H1120.8V328.814ZM1151.45 328.814V214.272H1140.54V328.814H1151.45ZM1146 208.818H1120.8V219.727H1146V208.818ZM1115.34 214.272V328.814H1126.25V214.272H1115.34ZM1120.8 334.269H1146V323.36H1120.8V334.269ZM1221.09 260.253L1222.47 254.975L1222.46 254.972L1222.45 254.969L1221.09 260.253ZM1240.89 246.18L1237.78 250.662L1242.28 253.779L1245.38 249.277L1240.89 246.18ZM1253.98 227.199L1258.47 230.296L1261.35 226.121L1257.4 222.946L1253.98 227.199ZM1209.31 282.507L1210.67 277.223L1210.66 277.222L1209.31 282.507ZM1181.66 294.288L1185.13 290.082L1180.95 286.629L1177.47 290.793L1181.66 294.288ZM1166.77 312.124L1162.58 308.628L1159.2 312.679L1163.13 316.193L1166.77 312.124ZM1262.87 294.943V294.615H1251.96V294.943H1262.87ZM1262.87 294.615C1262.87 283.226 1259.04 274.576 1251.54 268.092C1244.37 261.899 1234.26 258.048 1222.47 254.975L1219.72 265.531C1231.16 268.512 1239.21 271.861 1244.4 276.345C1249.25 280.537 1251.96 286.042 1251.96 294.615H1262.87ZM1222.45 254.969C1212.36 252.384 1206.99 250.668 1204.09 248.951C1202.79 248.184 1202.38 247.632 1202.21 247.338C1202.05 247.044 1201.84 246.491 1201.84 245.199H1190.93C1190.93 247.67 1191.33 250.246 1192.71 252.687C1194.08 255.129 1196.13 256.92 1198.54 258.341C1203.04 261.001 1210.03 263.048 1219.74 265.536L1222.45 254.969ZM1201.84 245.199V244.871H1190.93V245.199H1201.84ZM1201.84 244.871C1201.84 243.926 1202.2 243.034 1203.34 242.205C1204.61 241.282 1207.05 240.344 1211.11 240.344V229.435C1205.52 229.435 1200.6 230.707 1196.92 233.383C1193.11 236.155 1190.93 240.254 1190.93 244.871H1201.84ZM1211.11 240.344C1219.18 240.344 1228.07 243.924 1237.78 250.662L1244 241.698C1233.43 234.364 1222.35 229.435 1211.11 229.435V240.344ZM1245.38 249.277L1258.47 230.296L1249.49 224.102L1236.4 243.084L1245.38 249.277ZM1257.4 222.946C1244.79 212.828 1229.35 207.181 1211.44 207.181V218.09C1226.91 218.09 1239.93 222.916 1250.57 231.452L1257.4 222.946ZM1211.44 207.181C1198.7 207.181 1187.35 210.927 1179.09 217.95C1170.75 225.038 1165.89 235.198 1165.89 247.162H1176.8C1176.8 238.345 1180.29 231.242 1186.15 226.262C1192.08 221.217 1200.78 218.09 1211.44 218.09V207.181ZM1165.89 247.162V247.489H1176.8V247.162H1165.89ZM1165.89 247.489C1165.89 260.298 1170.21 269.264 1178.31 275.612C1185.93 281.579 1196.48 284.861 1207.96 287.792L1210.66 277.222C1199.07 274.261 1190.64 271.408 1185.04 267.024C1179.93 263.023 1176.8 257.426 1176.8 247.489H1165.89ZM1207.96 287.79C1217.58 290.257 1222.5 292.124 1225.02 293.787C1226.15 294.531 1226.5 295.052 1226.63 295.312C1226.77 295.577 1226.93 296.037 1226.93 297.07H1237.84C1237.84 294.912 1237.5 292.569 1236.31 290.272C1235.11 287.971 1233.28 286.17 1231.03 284.685C1226.8 281.889 1220.19 279.665 1210.67 277.223L1207.96 287.79ZM1226.93 297.07V297.397H1237.84V297.07H1226.93ZM1226.93 297.397C1226.93 298.786 1226.41 299.825 1225 300.749C1223.35 301.825 1220.4 302.742 1215.86 302.742V313.651C1221.62 313.651 1226.93 312.523 1230.97 309.876C1235.25 307.078 1237.84 302.717 1237.84 297.397H1226.93ZM1215.86 302.742C1204.46 302.742 1194.85 298.105 1185.13 290.082L1178.18 298.495C1189.08 307.489 1201.07 313.651 1215.86 313.651V302.742ZM1177.47 290.793L1162.58 308.628L1170.95 315.62L1185.84 297.784L1177.47 290.793ZM1163.13 316.193C1177.94 329.414 1196.77 335.905 1215.37 335.905V324.996C1199.27 324.996 1183.08 319.379 1170.4 308.055L1163.13 316.193ZM1215.37 335.905C1228.6 335.905 1240.44 332.492 1249.1 325.459C1257.89 318.315 1262.87 307.836 1262.87 294.943H1251.96C1251.96 304.794 1248.28 312.069 1242.22 316.993C1236.02 322.028 1226.84 324.996 1215.37 324.996V335.905Z" fill="#2097D5"/>
<path opacity="0.2" d="M289.309 487.719L293.293 491.444L296.877 487.611L293.185 483.881L289.309 487.719ZM273.273 471.519L277.149 467.682L273.472 463.967L269.604 467.483L273.273 471.519ZM272.455 425.866L268.789 429.905L272.92 433.654L276.575 429.439L272.455 425.866ZM288.491 407.375L292.611 410.949L295.966 407.081L292.317 403.489L288.491 407.375ZM293.185 483.881L277.149 467.682L269.396 475.356L285.432 491.556L293.185 483.881ZM269.604 467.483C261.057 475.253 254.302 479.482 243.165 479.482V490.391C258.208 490.391 267.49 484.148 276.942 475.555L269.604 467.483ZM243.165 479.482C227.101 479.482 215.402 466.154 215.402 448.938H204.493C204.493 470.994 219.956 490.391 243.165 490.391V479.482ZM215.402 448.938V448.611H204.493V448.938H215.402ZM215.402 448.611C215.402 431.5 227.334 418.393 243.165 418.393V407.484C220.378 407.484 204.493 426.45 204.493 448.611H215.402ZM243.165 418.393C252.784 418.393 260.534 422.414 268.789 429.905L276.12 421.826C266.704 413.282 256.454 407.484 243.165 407.484V418.393ZM276.575 429.439L292.611 410.949L284.37 403.802L268.334 422.292L276.575 429.439ZM292.317 403.489C280.751 392.1 266.481 384.249 243.328 384.249V395.158C263.374 395.158 274.958 401.706 284.664 411.262L292.317 403.489ZM243.328 384.249C205.037 384.249 178.148 413.462 178.148 448.938H189.057C189.057 419.288 211.258 395.158 243.328 395.158V384.249ZM178.148 448.938V449.265H189.057V448.938H178.148ZM178.148 449.265C178.148 485.097 205.556 513.627 242.346 513.627V502.718C211.72 502.718 189.057 479.213 189.057 449.265H178.148ZM242.346 513.627C254.068 513.627 263.678 511.536 272.019 507.604C280.339 503.682 287.098 498.069 293.293 491.444L285.325 483.993C279.738 489.968 274.061 494.582 267.368 497.737C260.696 500.882 252.715 502.718 242.346 502.718V513.627ZM408.479 506.209V511.663H418.818L412.981 503.13L408.479 506.209ZM380.498 465.301L378.601 460.187L372.052 462.615L375.996 468.38L380.498 465.301ZM309.481 391.667V386.212H304.027V391.667H309.481ZM309.481 506.209H304.027V511.663H309.481V506.209ZM334.681 506.209V511.663H340.135V506.209H334.681ZM334.681 469.555V464.101H329.226V469.555H334.681ZM354.48 469.555L359.012 466.521L357.392 464.101H354.48V469.555ZM379.025 506.209L374.493 509.244L376.113 511.663H379.025V506.209ZM334.681 447.302H329.226V452.756H334.681V447.302ZM334.681 414.412V408.957H329.226V414.412H334.681ZM412.981 503.13L385 462.222L375.996 468.38L403.977 509.288L412.981 503.13ZM382.394 470.415C390.491 467.413 397.576 462.58 402.631 455.679C407.708 448.751 410.497 440.063 410.497 429.793H399.588C399.588 438.013 397.387 444.38 393.831 449.232C390.255 454.114 385.068 457.789 378.601 460.187L382.394 470.415ZM410.497 429.793V429.466H399.588V429.793H410.497ZM410.497 429.466C410.497 416.362 405.944 405.321 397.162 397.627C388.471 390.014 376.254 386.212 361.844 386.212V397.121C374.432 397.121 383.815 400.437 389.974 405.833C396.041 411.148 399.588 419.007 399.588 429.466H410.497ZM361.844 386.212H309.481V397.121H361.844V386.212ZM304.027 391.667V506.209H314.936V391.667H304.027ZM309.481 511.663H334.681V500.755H309.481V511.663ZM340.135 506.209V469.555H329.226V506.209H340.135ZM334.681 475.01H354.48V464.101H334.681V475.01ZM349.948 472.59L374.493 509.244L383.557 503.174L359.012 466.521L349.948 472.59ZM379.025 511.663H408.479V500.755H379.025V511.663ZM374.061 431.102C374.061 434.52 372.865 436.997 370.899 438.694C368.85 440.463 365.413 441.847 360.207 441.847V452.756C367.274 452.756 373.491 450.868 378.028 446.951C382.649 442.961 384.97 437.338 384.97 431.102H374.061ZM360.207 441.847H334.681V452.756H360.207V441.847ZM340.135 447.302V414.412H329.226V447.302H340.135ZM334.681 419.866H359.716V408.957H334.681V419.866ZM359.716 419.866C365.126 419.866 368.694 421.104 370.805 422.797C372.73 424.343 374.061 426.754 374.061 430.775H384.97C384.97 423.995 382.538 418.226 377.632 414.289C372.911 410.501 366.579 408.957 359.716 408.957V419.866ZM374.061 430.775V431.102H384.97V430.775H374.061ZM454.076 506.209V511.663H459.53V506.209H454.076ZM454.076 391.667H459.53V386.212H454.076V391.667ZM428.876 391.667V386.212H423.422V391.667H428.876ZM428.876 506.209H423.422V511.663H428.876V506.209ZM459.53 506.209V391.667H448.621V506.209H459.53ZM454.076 386.212H428.876V397.121H454.076V386.212ZM423.422 391.667V506.209H434.331V391.667H423.422ZM428.876 511.663H454.076V500.755H428.876V511.663ZM604.825 448.938V448.611H593.916V448.938H604.825ZM604.825 448.611C604.825 412.986 576.971 384.249 538.663 384.249V395.158C571.045 395.158 593.916 419.109 593.916 448.611H604.825ZM538.663 384.249C500.355 384.249 472.174 413.314 472.174 448.938H483.083C483.083 419.436 506.282 395.158 538.663 395.158V384.249ZM472.174 448.938V449.265H483.083V448.938H472.174ZM472.174 449.265C472.174 484.889 500.028 513.627 538.336 513.627V502.718C505.955 502.718 483.083 478.766 483.083 449.265H472.174ZM538.336 513.627C576.644 513.627 604.825 484.562 604.825 448.938H593.916C593.916 478.44 570.717 502.718 538.336 502.718V513.627ZM567.571 449.265C567.571 466.23 555.611 479.482 538.663 479.482V490.391C562.296 490.391 578.48 471.572 578.48 449.265H567.571ZM538.663 479.482C521.711 479.482 509.428 465.898 509.428 448.938H498.519C498.519 471.249 515.034 490.391 538.663 490.391V479.482ZM509.428 448.938V448.611H498.519V448.938H509.428ZM509.428 448.611C509.428 431.646 521.388 418.393 538.336 418.393V407.484C514.703 407.484 498.519 426.304 498.519 448.611H509.428ZM538.336 418.393C555.288 418.393 567.571 431.977 567.571 448.938H578.48C578.48 426.627 561.965 407.484 538.336 407.484V418.393ZM567.571 448.938V449.265H578.48V448.938H567.571ZM621.724 391.667V386.212H616.27V391.667H621.724ZM621.724 506.209H616.27V511.663H621.724V506.209ZM646.924 483.464H641.469V488.919H646.924V483.464ZM646.924 414.412V408.957H641.469V414.412H646.924ZM732.721 448.938V448.611H721.812V448.938H732.721ZM732.721 448.611C732.721 413.115 705.153 386.212 666.396 386.212V397.121C699.637 397.121 721.812 419.636 721.812 448.611H732.721ZM666.396 386.212H621.724V397.121H666.396V386.212ZM616.27 391.667V506.209H627.179V391.667H616.27ZM621.724 511.663H666.396V500.755H621.724V511.663ZM666.396 511.663C705.195 511.663 732.721 484.394 732.721 448.938H721.812C721.812 477.953 699.595 500.755 666.396 500.755V511.663ZM695.468 449.265C695.468 458.131 692.453 465.231 687.547 470.104C682.639 474.979 675.45 478.01 666.396 478.01V488.919C677.959 488.919 688.034 484.995 695.234 477.843C702.437 470.689 706.376 460.689 706.376 449.265H695.468ZM666.396 478.01H646.924V488.919H666.396V478.01ZM652.378 483.464V414.412H641.469V483.464H652.378ZM646.924 419.866H666.396V408.957H646.924V419.866ZM666.396 419.866C675.413 419.866 682.598 422.954 687.521 427.91C692.448 432.871 695.468 440.066 695.468 448.938H706.376C706.376 437.519 702.441 427.451 695.26 420.222C688.074 412.987 677.996 408.957 666.396 408.957V419.866ZM695.468 448.938V449.265H706.376V448.938H695.468ZM836.937 506.209V511.663H842.392V506.209H836.937ZM836.937 483.791H842.392V478.337H836.937V483.791ZM774.757 483.791H769.303V489.246H774.757V483.791ZM774.757 459.738V454.283H769.303V459.738H774.757ZM828.756 459.738V465.192H834.21V459.738H828.756ZM828.756 437.32H834.21V431.866H828.756V437.32ZM774.757 437.32H769.303V442.774H774.757V437.32ZM774.757 414.084V408.63H769.303V414.084H774.757ZM836.119 414.084V419.539H841.573V414.084H836.119ZM836.119 391.667H841.573V386.212H836.119V391.667ZM749.721 391.667V386.212H744.267V391.667H749.721ZM749.721 506.209H744.267V511.663H749.721V506.209ZM842.392 506.209V483.791H831.483V506.209H842.392ZM836.937 478.337H774.757V489.246H836.937V478.337ZM780.211 483.791V459.738H769.303V483.791H780.211ZM774.757 465.192H828.756V454.283H774.757V465.192ZM834.21 459.738V437.32H823.301V459.738H834.21ZM828.756 431.866H774.757V442.774H828.756V431.866ZM780.211 437.32V414.084H769.303V437.32H780.211ZM774.757 419.539H836.119V408.63H774.757V419.539ZM841.573 414.084V391.667H830.665V414.084H841.573ZM836.119 386.212H749.721V397.121H836.119V386.212ZM744.267 391.667V506.209H755.176V391.667H744.267ZM749.721 511.663H836.937V500.755H749.721V511.663ZM958.339 506.209V511.663H968.678L962.841 503.13L958.339 506.209ZM930.358 465.301L928.462 460.187L921.913 462.615L925.856 468.38L930.358 465.301ZM859.342 391.667V386.212H853.887V391.667H859.342ZM859.342 506.209H853.887V511.663H859.342V506.209ZM884.541 506.209V511.663H889.996V506.209H884.541ZM884.541 469.555V464.101H879.087V469.555H884.541ZM904.341 469.555L908.873 466.521L907.253 464.101H904.341V469.555ZM928.885 506.209L924.353 509.244L925.974 511.663H928.885V506.209ZM884.541 447.302H879.087V452.756H884.541V447.302ZM884.541 414.412V408.957H879.087V414.412H884.541ZM962.841 503.13L934.86 462.222L925.856 468.38L953.837 509.288L962.841 503.13ZM932.254 470.415C940.351 467.413 947.436 462.58 952.492 455.679C957.568 448.751 960.357 440.063 960.357 429.793H949.448C949.448 438.013 947.247 444.38 943.692 449.232C940.115 454.114 934.928 457.789 928.462 460.187L932.254 470.415ZM960.357 429.793V429.466H949.448V429.793H960.357ZM960.357 429.466C960.357 416.362 955.805 405.321 947.022 397.627C938.332 390.014 926.115 386.212 911.704 386.212V397.121C924.293 397.121 933.675 400.437 939.834 405.833C945.901 411.148 949.448 419.007 949.448 429.466H960.357ZM911.704 386.212H859.342V397.121H911.704V386.212ZM853.887 391.667V506.209H864.796V391.667H853.887ZM859.342 511.663H884.541V500.755H859.342V511.663ZM889.996 506.209V469.555H879.087V506.209H889.996ZM884.541 475.01H904.341V464.101H884.541V475.01ZM899.808 472.59L924.353 509.244L933.417 503.174L908.873 466.521L899.808 472.59ZM928.885 511.663H958.339V500.755H928.885V511.663ZM923.922 431.102C923.922 434.52 922.725 436.997 920.76 438.694C918.71 440.463 915.274 441.847 910.068 441.847V452.756C917.134 452.756 923.352 450.868 927.889 446.951C932.509 442.961 934.831 437.338 934.831 431.102H923.922ZM910.068 441.847H884.541V452.756H910.068V441.847ZM889.996 447.302V414.412H879.087V447.302H889.996ZM884.541 419.866H909.577V408.957H884.541V419.866ZM909.577 419.866C914.987 419.866 918.555 421.104 920.665 422.797C922.591 424.343 923.922 426.754 923.922 430.775H934.831C934.831 423.995 932.398 418.226 927.492 414.289C922.771 410.501 916.439 408.957 909.577 408.957V419.866ZM923.922 430.775V431.102H934.831V430.775H923.922ZM1092.13 506.209V511.663H1097.59V506.209H1092.13ZM1092.13 391.667H1097.59V386.212H1092.13V391.667ZM1064.97 391.667V386.212H1061.94L1060.34 388.787L1064.97 391.667ZM1034.86 440.102L1030.23 442.981L1034.86 450.433L1039.49 442.981L1034.86 440.102ZM1004.75 391.667L1009.39 388.787L1007.79 386.212H1004.75V391.667ZM977.592 391.667V386.212H972.137V391.667H977.592ZM977.592 506.209H972.137V511.663H977.592V506.209ZM1002.3 506.209V511.663H1007.75V506.209H1002.3ZM1002.3 431.92L1006.85 428.919L996.845 413.726V431.92H1002.3ZM1034.21 480.355L1029.65 483.356L1031.27 485.81H1034.21V480.355ZM1034.86 480.355V485.81H1037.8L1039.42 483.356L1034.86 480.355ZM1067.1 431.429H1072.55V413.237L1062.54 428.428L1067.1 431.429ZM1067.1 506.209H1061.64V511.663H1067.1V506.209ZM1097.59 506.209V391.667H1086.68V506.209H1097.59ZM1092.13 386.212H1064.97V397.121H1092.13V386.212ZM1060.34 388.787L1030.23 437.222L1039.49 442.981L1069.6 394.546L1060.34 388.787ZM1039.49 437.222L1009.39 388.787L1000.12 394.546L1030.23 442.981L1039.49 437.222ZM1004.75 386.212H977.592V397.121H1004.75V386.212ZM972.137 391.667V506.209H983.046V391.667H972.137ZM977.592 511.663H1002.3V500.755H977.592V511.663ZM1007.75 506.209V431.92H996.845V506.209H1007.75ZM997.745 434.921L1029.65 483.356L1038.76 477.355L1006.85 428.919L997.745 434.921ZM1034.21 485.81H1034.86V474.901H1034.21V485.81ZM1039.42 483.356L1071.65 434.43L1062.54 428.428L1030.31 477.354L1039.42 483.356ZM1061.64 431.429V506.209H1072.55V431.429H1061.64ZM1067.1 511.663H1092.13V500.755H1067.1V511.663ZM1146 506.209V511.663H1151.45V506.209H1146ZM1146 391.667H1151.45V386.212H1146V391.667ZM1120.8 391.667V386.212H1115.34V391.667H1120.8ZM1120.8 506.209H1115.34V511.663H1120.8V506.209ZM1151.45 506.209V391.667H1140.54V506.209H1151.45ZM1146 386.212H1120.8V397.121H1146V386.212ZM1115.34 391.667V506.209H1126.25V391.667H1115.34ZM1120.8 511.663H1146V500.755H1120.8V511.663ZM1221.09 437.647L1222.47 432.369L1222.46 432.366L1222.45 432.364L1221.09 437.647ZM1240.89 423.575L1237.78 428.057L1242.28 431.174L1245.38 426.672L1240.89 423.575ZM1253.98 404.594L1258.47 407.69L1261.35 403.515L1257.4 400.34L1253.98 404.594ZM1209.31 459.901L1210.67 454.618L1210.66 454.616L1209.31 459.901ZM1181.66 471.683L1185.13 467.476L1180.95 464.023L1177.47 468.187L1181.66 471.683ZM1166.77 489.519L1162.58 486.023L1159.2 490.073L1163.13 493.587L1166.77 489.519ZM1262.87 472.337V472.01H1251.96V472.337H1262.87ZM1262.87 472.01C1262.87 460.62 1259.04 451.971 1251.54 445.486C1244.37 439.293 1234.26 435.443 1222.47 432.369L1219.72 442.925C1231.16 445.906 1239.21 449.256 1244.4 453.74C1249.25 457.932 1251.96 463.436 1251.96 472.01H1262.87ZM1222.45 432.364C1212.36 429.779 1206.99 428.063 1204.09 426.345C1202.79 425.578 1202.38 425.027 1202.21 424.733C1202.05 424.439 1201.84 423.885 1201.84 422.593H1190.93C1190.93 425.065 1191.33 427.641 1192.71 430.082C1194.08 432.524 1196.13 434.315 1198.54 435.736C1203.04 438.395 1210.03 440.443 1219.74 442.931L1222.45 432.364ZM1201.84 422.593V422.266H1190.93V422.593H1201.84ZM1201.84 422.266C1201.84 421.32 1202.2 420.428 1203.34 419.6C1204.61 418.676 1207.05 417.739 1211.11 417.739V406.83C1205.52 406.83 1200.6 408.101 1196.92 410.778C1193.11 413.549 1190.93 417.648 1190.93 422.266H1201.84ZM1211.11 417.739C1219.18 417.739 1228.07 421.319 1237.78 428.057L1244 419.093C1233.43 411.759 1222.35 406.83 1211.11 406.83V417.739ZM1245.38 426.672L1258.47 407.69L1249.49 401.497L1236.4 420.478L1245.38 426.672ZM1257.4 400.34C1244.79 390.223 1229.35 384.576 1211.44 384.576V395.485C1226.91 395.485 1239.93 400.31 1250.57 408.847L1257.4 400.34ZM1211.44 384.576C1198.7 384.576 1187.35 388.321 1179.09 395.345C1170.75 402.432 1165.89 412.593 1165.89 424.557H1176.8C1176.8 415.74 1180.29 408.637 1186.15 403.656C1192.08 398.612 1200.78 395.485 1211.44 395.485V384.576ZM1165.89 424.557V424.884H1176.8V424.557H1165.89ZM1165.89 424.884C1165.89 437.692 1170.21 446.658 1178.31 453.007C1185.93 458.973 1196.48 462.256 1207.96 465.186L1210.66 454.616C1199.07 451.656 1190.64 448.802 1185.04 444.419C1179.93 440.418 1176.8 434.821 1176.8 424.884H1165.89ZM1207.96 465.185C1217.58 467.652 1222.5 469.519 1225.02 471.182C1226.15 471.926 1226.5 472.447 1226.63 472.707C1226.77 472.972 1226.93 473.432 1226.93 474.464H1237.84C1237.84 472.306 1237.5 469.964 1236.31 467.667C1235.11 465.365 1233.28 463.565 1231.03 462.08C1226.8 459.283 1220.19 457.059 1210.67 454.618L1207.96 465.185ZM1226.93 474.464V474.792H1237.84V474.464H1226.93ZM1226.93 474.792C1226.93 476.18 1226.41 477.219 1225 478.144C1223.35 479.22 1220.4 480.137 1215.86 480.137V491.046C1221.62 491.046 1226.93 489.918 1230.97 487.271C1235.25 484.473 1237.84 480.112 1237.84 474.792H1226.93ZM1215.86 480.137C1204.46 480.137 1194.85 475.5 1185.13 467.476L1178.18 475.889C1189.08 484.883 1201.07 491.046 1215.86 491.046V480.137ZM1177.47 468.187L1162.58 486.023L1170.95 493.014L1185.84 475.178L1177.47 468.187ZM1163.13 493.587C1177.94 506.809 1196.77 513.3 1215.37 513.3V502.391C1199.27 502.391 1183.08 496.773 1170.4 485.45L1163.13 493.587ZM1215.37 513.3C1228.6 513.3 1240.44 509.886 1249.1 502.853C1257.89 495.71 1262.87 485.23 1262.87 472.337H1251.96C1251.96 482.189 1248.28 489.464 1242.22 494.388C1236.02 499.423 1226.84 502.391 1215.37 502.391V513.3Z" fill="#2097D5"/>
</svg>
