<svg width="1476" height="2109" viewBox="0 0 1476 2109" fill="none" xmlns="http://www.w3.org/2000/svg">
<g clip-path="url(#clip0_15_2724)">
<rect width="1476" height="2109" fill="white"/>
<rect x="-37.2207" y="-45.5996" width="1513.18" height="1416.18" fill="#1B0D59"/>
<g opacity="0.2">
<g clip-path="url(#clip1_15_2724)">
<path opacity="0.4" d="M-480.449 1157.52C-324.926 1199.05 -255.584 1242 -188.533 1283.51C-142.254 1312.18 -94.8914 1341.49 -19.5134 1370.58L9.09009 1370.58C-79.0108 1339.07 -130.553 1307.15 -180.794 1276.05C-248.681 1234.01 -318.858 1190.56 -476.393 1148.47C-504.285 1141.03 -529.978 1134.93 -554 1129.93L-554 1139.86C-531.186 1144.67 -506.792 1150.48 -480.449 1157.52Z" fill="#00E6EF"/>
<path opacity="0.4" d="M-435.003 1119.5C-279.511 1161.04 -210.386 1204.46 -143.583 1246.48C-78.3277 1287.49 -10.8745 1329.86 135.238 1370.58L173.221 1370.58C167.463 1369.12 161.643 1367.62 155.7 1366.01C0.207731 1324.48 -68.9171 1281.05 -135.72 1239.03C-203.39 1196.52 -273.351 1152.54 -430.917 1110.43C-477.227 1098.06 -517.687 1089.45 -553.967 1083.47L-553.967 1093.28C-518.77 1099.16 -479.611 1107.56 -434.972 1119.5L-435.003 1119.5Z" fill="#00E6EF"/>
<path opacity="0.4" d="M-389.53 1081.48C-234.068 1123.02 -165.191 1166.94 -98.5738 1209.41C-31.1206 1252.43 38.6233 1296.94 196.221 1339.02C256.585 1355.15 307.043 1364.84 351.31 1370.58L665.266 1370.58C615.334 1366.66 572.986 1367.42 531.32 1368.21C444.983 1369.84 355.737 1371.52 200.245 1329.98C44.7837 1288.44 -24.0936 1244.51 -90.711 1202.02C-158.164 1159 -227.908 1114.52 -385.505 1072.41C-452.061 1054.63 -506.605 1044.68 -553.999 1039.23L-553.999 1048.92C-507.627 1054.35 -454.351 1064.13 -389.53 1081.46L-389.53 1081.48Z" fill="#00E6EF"/>
<path opacity="0.4" d="M-344.088 1043.46C-188.627 1085 -119.997 1129.43 -53.6276 1172.38C13.6089 1215.9 83.1361 1260.9 240.764 1303.01C398.361 1345.12 489.032 1342.9 576.668 1340.77C657.68 1338.78 741.292 1336.75 879.232 1370.58L918.175 1370.58C916.163 1370.03 914.213 1369.48 912.17 1368.96C754.573 1326.84 663.933 1329.07 576.266 1331.2C489.744 1333.3 400.25 1335.51 244.788 1293.97C89.3273 1252.43 20.6979 1208 -45.6719 1165.05C-112.908 1121.53 -182.436 1076.53 -340.064 1034.42C-428.815 1010.71 -496.33 1001.06 -554.032 997.522L-554.032 1007.14C-497.351 1010.68 -431.044 1020.23 -344.119 1043.46L-344.088 1043.46Z" fill="#00E6EF"/>
<path opacity="0.4" d="M-298.613 1005.44C-143.183 1046.95 -74.7699 1091.89 -8.61684 1135.34C58.403 1179.36 127.714 1224.87 285.342 1266.98C442.97 1309.09 533.826 1306.36 621.741 1303.73C708.48 1301.12 798.19 1298.44 953.621 1339.98C991.139 1350.01 1023.58 1360.25 1052.15 1370.58L1080.45 1370.58C1046.18 1357.14 1006.09 1343.88 957.645 1330.94C800.017 1288.83 709.161 1291.55 621.246 1294.19C534.507 1296.77 444.796 1299.47 289.366 1257.94C133.936 1216.42 65.5229 1171.49 -0.630129 1128.04C-67.6499 1084.02 -136.961 1038.51 -294.589 996.398C-407.516 966.227 -486.145 959.073 -554 958.403L-554 967.997C-487.166 968.691 -409.683 975.773 -298.613 1005.44Z" fill="#00E6EF"/>
<path opacity="0.4" d="M-253.168 967.423C-97.769 1008.94 -29.5728 1054.37 36.3635 1098.3C103.167 1142.83 172.26 1188.84 329.919 1230.97C487.579 1273.08 578.682 1269.85 666.814 1266.72C753.739 1263.63 843.666 1260.45 999.096 1301.96C1081.62 1324 1139.54 1347.16 1185.61 1370.58L1207.71 1370.58C1158.58 1344.07 1096.33 1317.8 1003.15 1292.92C845.492 1250.81 754.389 1254.04 666.257 1257.15C579.301 1260.23 489.374 1263.42 333.975 1221.9C178.575 1180.39 110.379 1134.96 44.474 1091.03C-22.3291 1046.5 -91.423 1000.49 -249.082 958.355C-387.796 921.293 -474.968 919.355 -553.968 921.556L-553.968 931.127C-475.99 928.949 -389.963 930.84 -253.137 967.399L-253.168 967.423Z" fill="#00E6EF"/>
<path opacity="0.4" d="M-540.378 895.14C-453.206 891.575 -363.093 887.867 -207.694 929.379C-52.2942 970.891 15.6233 1016.81 81.343 1061.21C147.929 1106.22 216.807 1152.78 374.497 1194.89C532.156 1237 623.507 1233.27 711.887 1229.65C799.059 1226.09 889.172 1222.38 1044.57 1263.89C1170.72 1297.61 1239.22 1334.19 1295.72 1370.53L1314.94 1370.53C1255.32 1331.22 1185.39 1291.36 1048.63 1254.85C890.936 1212.71 799.585 1216.47 711.236 1220.08C624.095 1223.65 533.951 1227.33 378.552 1185.85C223.153 1144.33 155.235 1098.42 89.5154 1054.01C22.929 1009.01 -45.9482 962.445 -203.638 920.335C-361.297 878.224 -452.68 881.957 -541.028 885.57C-545.331 885.737 -549.665 885.929 -553.999 886.096L-553.999 895.667C-549.448 895.475 -544.898 895.308 -540.378 895.116L-540.378 895.14Z" fill="#00E6EF"/>
<path opacity="0.4" d="M-495.337 858.127C-407.979 854.06 -317.619 849.873 -162.281 891.385C-6.91302 932.897 60.7879 979.314 126.291 1024.2C192.692 1069.71 261.321 1116.77 419.011 1158.91C576.701 1201.04 668.3 1196.78 756.865 1192.67C844.223 1188.6 934.584 1184.41 1089.95 1225.92C1245.32 1267.44 1313.05 1313.85 1378.52 1358.74C1384.28 1362.69 1390.04 1366.63 1395.89 1370.58L1414.77 1370.58C1405.24 1364.22 1395.98 1357.88 1386.76 1351.56C1320.36 1306.05 1251.73 1258.99 1094.01 1216.86C936.318 1174.72 844.719 1178.98 756.153 1183.1C668.795 1187.16 578.435 1191.35 423.066 1149.84C267.698 1108.33 199.997 1061.91 134.525 1017.02C68.1244 971.514 -0.505099 924.451 -158.195 882.317C-315.885 840.183 -407.484 844.442 -496.049 848.557C-514.995 849.442 -534.094 850.327 -553.968 850.734L-553.968 860.329C-533.847 859.898 -514.499 859.013 -495.306 858.103L-495.337 858.127Z" fill="#00E6EF"/>
<path opacity="0.4" d="M-450.296 821.09C-362.722 816.544 -272.144 811.854 -116.807 853.343C38.5304 894.855 106.015 941.75 171.27 987.139C237.454 1033.15 305.867 1080.71 463.588 1122.85C621.309 1164.98 713.125 1160.22 801.937 1155.6C889.512 1151.06 980.058 1146.37 1135.43 1187.86C1290.76 1229.37 1358.25 1276.26 1423.53 1321.65C1446.84 1337.85 1470.46 1354.26 1498.14 1370.56L1518.97 1370.56C1485.63 1351.94 1458.55 1333.11 1431.83 1314.55C1365.65 1268.54 1297.23 1220.97 1139.51 1178.84C981.792 1136.7 889.976 1141.46 801.164 1146.08C713.589 1150.63 623.011 1155.32 467.674 1113.83C312.337 1072.32 244.853 1025.42 179.597 980.033C113.413 934.022 45.0005 886.457 -112.721 844.322C-270.442 802.188 -362.257 806.949 -451.07 811.543C-483.853 813.242 -517.068 814.965 -553.968 814.271L-553.968 823.865C-516.821 824.535 -483.326 822.812 -450.265 821.09L-450.296 821.09Z" fill="#00E6EF"/>
<path opacity="0.4" d="M-405.224 784.075C-317.433 779.051 -226.67 773.859 -71.3326 815.347C83.9738 856.835 151.241 904.257 216.28 950.1C282.247 996.613 350.443 1044.71 508.195 1086.84C665.947 1128.97 758.011 1123.71 847.04 1118.61C934.832 1113.59 1025.59 1108.4 1180.93 1149.89C1336.27 1191.37 1403.51 1238.8 1468.54 1284.64C1509.16 1313.28 1550.67 1342.52 1613.36 1370.58L1638.86 1370.58C1566.09 1340.41 1520.95 1308.64 1476.9 1277.56C1410.94 1231.04 1342.74 1182.95 1184.99 1140.82C1027.27 1098.68 935.172 1103.95 846.142 1109.04C758.351 1114.07 667.588 1119.26 512.251 1077.77C356.913 1036.28 289.677 988.861 224.638 943.018C158.671 896.505 90.4746 848.413 -67.2774 806.279C-225.029 764.145 -317.092 769.408 -406.122 774.505C-451.72 777.113 -498.154 779.769 -553.968 775.892L-553.968 785.535C-497.876 789.339 -451.132 786.683 -405.193 784.051L-405.224 784.075Z" fill="#00E6EF"/>
<path opacity="0.4" d="M-360.184 747.036C-272.207 741.533 -181.196 735.815 -25.8897 777.303C129.417 818.791 196.437 866.692 261.228 913.037C326.978 960.053 394.958 1008.65 552.71 1050.78C710.462 1092.92 802.773 1087.15 892.05 1081.55C980.058 1076.02 1071.04 1070.33 1226.34 1111.82C1381.65 1153.31 1448.67 1201.23 1513.49 1247.55C1571.69 1289.16 1631.68 1332.01 1754.11 1370.53L1788.38 1370.53C1647.69 1330.38 1583.76 1284.73 1521.88 1240.52C1456.13 1193.5 1388.15 1144.91 1230.37 1102.75C1072.62 1060.62 980.305 1066.38 891.028 1071.98C803.051 1077.48 712.04 1083.2 556.734 1041.71C401.427 1000.23 334.408 952.301 269.617 905.979C203.866 858.964 135.887 810.369 -21.8653 768.235C-179.617 726.101 -271.928 731.867 -361.205 737.466C-418.536 741.055 -477.167 744.715 -554.031 735.36L-554.031 745.074C-476.919 754.31 -417.917 750.625 -360.215 747.012L-360.184 747.036Z" fill="#00E6EF"/>
<g opacity="0.4">
<path d="M-315.11 710.023C-226.916 704.017 -135.719 697.82 19.587 739.309C174.862 780.797 241.666 829.2 306.24 876.024C371.774 923.518 439.537 972.638 597.32 1014.8C755.102 1056.95 847.661 1050.66 937.124 1044.56C1025.32 1038.56 1116.55 1032.36 1271.82 1073.85C1427.1 1115.34 1493.9 1163.74 1558.47 1210.56C1624.01 1258.06 1691.77 1307.18 1849.55 1349.33C1884.16 1358.59 1915.64 1365.51 1944.65 1370.61L2016.9 1370.61C1970.47 1366.35 1917.47 1357.35 1853.61 1340.29C1698.33 1298.8 1631.53 1250.4 1566.96 1203.58C1501.42 1156.08 1433.66 1106.96 1275.88 1064.8C1118.09 1022.64 1025.57 1028.94 936.071 1035.04C847.878 1041.04 756.65 1047.24 601.375 1005.75C446.099 964.264 379.296 915.861 314.722 869.037C249.188 821.544 181.425 772.423 23.6422 730.264C-134.141 688.106 -226.668 694.399 -316.162 700.5C-384.265 705.118 -454.164 709.855 -553.966 692.7L-553.966 702.51C-453.947 719.45 -383.615 714.688 -315.079 710.023L-315.11 710.023Z" fill="#00E6EF"/>
</g>
<path opacity="0.4" d="M-270.071 672.984C-181.661 666.5 -90.2474 659.801 65.0281 701.265C220.304 742.754 286.859 791.659 351.217 838.938C416.534 886.934 484.08 936.581 641.863 978.739C799.677 1020.9 892.452 1014.08 982.163 1007.5C1070.57 1001.01 1161.99 994.315 1317.26 1035.78C1472.54 1077.27 1539.09 1126.17 1603.45 1173.48C1668.77 1221.47 1736.31 1271.12 1894.13 1313.28C2051.94 1355.44 2144.72 1348.64 2234.46 1342.06C2317.39 1335.98 2403.04 1329.72 2541.6 1363.26L2541.6 1353.26C2402.89 1320.14 2316.74 1326.44 2233.25 1332.56C2144.84 1339.05 2053.4 1345.75 1898.15 1304.28C1742.88 1262.79 1676.32 1213.89 1611.96 1166.59C1546.65 1118.59 1479.1 1068.94 1321.29 1026.78C1163.5 984.625 1070.7 991.42 980.986 998.024C892.576 1004.51 801.163 1011.21 645.887 969.743C490.643 928.255 424.087 879.349 359.699 832.071C294.381 784.074 226.835 734.427 69.0215 692.269C-88.7923 650.111 -181.568 656.906 -271.278 663.51C-349.256 669.228 -429.618 675.09 -554.031 647.933L-554.031 657.887C-429.402 684.708 -348.575 678.775 -270.102 673.032L-270.071 672.984Z" fill="#00E6EF"/>
<path opacity="0.4" d="M-225.028 635.971C-136.401 629.009 -44.7711 621.807 110.473 663.271C265.718 704.736 332.026 754.144 396.167 801.925C461.267 850.423 528.597 900.573 686.41 942.731C844.224 984.889 937.247 977.568 1027.21 970.51C1115.8 963.547 1207.46 956.345 1362.71 997.81C1517.95 1039.27 1584.26 1088.68 1648.4 1136.46C1713.5 1184.96 1780.83 1235.11 1938.64 1277.27C2096.46 1319.43 2189.48 1312.11 2279.44 1305.05C2353.11 1299.26 2428.93 1293.32 2541.57 1315.31L2541.57 1305.43C2428.65 1283.73 2352.34 1289.69 2278.17 1295.53C2189.54 1302.49 2097.88 1309.69 1942.67 1268.23C1787.42 1226.76 1721.09 1177.35 1656.98 1129.57C1591.87 1081.07 1524.55 1030.92 1366.73 988.766C1208.92 946.607 1115.89 953.929 1025.94 960.987C937.309 967.95 845.679 975.151 690.435 933.687C535.19 892.223 468.882 842.815 404.742 795.034C339.641 746.535 272.312 696.386 114.498 654.227C-43.3162 612.069 -136.339 619.39 -226.297 626.449C-313.408 633.292 -403.49 640.35 -554.029 601.182L-554.029 611.279C-403.366 649.968 -312.727 642.862 -225.059 635.971L-225.028 635.971Z" fill="#00E6EF"/>
<path opacity="0.4" d="M-521.249 572.16C-363.404 614.318 -270.165 606.494 -179.959 598.933C-91.1461 591.468 0.731496 583.764 155.945 625.228C311.159 666.693 377.25 716.603 441.174 764.863C506.058 813.864 573.17 864.516 731.015 906.698C888.86 948.856 982.1 941.032 1072.31 933.472C1161.12 926.007 1253 918.302 1408.21 959.767C1563.42 1001.23 1629.51 1051.14 1693.44 1099.4C1758.32 1148.4 1825.44 1199.05 1983.28 1241.24C2141.12 1283.39 2234.4 1275.57 2324.57 1268.01C2388.06 1262.67 2453.07 1257.24 2541.67 1269.68L2541.67 1259.95C2452.7 1247.65 2387.19 1253.13 2323.24 1258.49C2234.43 1265.95 2142.55 1273.66 1987.34 1232.17C1832.12 1190.7 1766.03 1140.79 1702.11 1092.53C1637.22 1043.53 1570.11 992.881 1412.26 950.699C1254.42 908.54 1161.18 916.364 1070.97 923.925C982.131 931.39 890.284 939.094 735.07 897.63C579.857 856.165 513.766 806.255 449.842 757.996C384.958 708.995 317.845 658.342 160 616.16C2.15546 574.002 -91.0841 581.826 -181.29 589.387C-270.134 596.852 -361.98 604.556 -517.194 563.092C-530.072 559.646 -542.299 556.153 -554.001 552.588L-554.001 562.852C-543.507 565.987 -532.641 569.073 -521.249 572.112L-521.249 572.16Z" fill="#00E6EF"/>
<path opacity="0.4" d="M-476.672 536.126C-318.796 578.308 -225.309 569.958 -134.917 561.895C-45.8875 553.951 46.1758 545.745 201.389 587.209C356.572 628.673 422.446 679.062 486.123 727.8C550.79 777.304 617.686 828.482 775.531 870.641C933.376 912.823 1026.89 904.473 1117.29 896.409C1206.32 888.466 1298.38 880.259 1453.59 921.723C1608.81 963.188 1674.65 1013.58 1738.36 1062.34C1803.02 1111.84 1869.92 1163.02 2027.8 1205.18C2185.67 1247.36 2279.16 1239.01 2369.58 1230.95C2421.83 1226.28 2475.14 1221.54 2541.6 1226.81L2541.6 1217.17C2474.65 1212 2420.88 1216.76 2368.16 1221.45C2279.13 1229.39 2187.03 1237.6 2031.85 1196.13C1876.64 1154.67 1810.79 1104.28 1747.09 1055.52C1682.42 1006.02 1615.52 954.838 1457.65 912.679C1299.8 870.521 1206.28 878.847 1115.89 886.911C1026.86 894.854 934.769 903.061 779.586 861.597C624.404 820.132 558.529 769.743 494.853 721.005C430.185 671.502 363.289 620.323 205.445 578.165C47.5998 535.983 -45.8875 544.333 -136.31 552.396C-225.34 560.34 -317.403 568.546 -472.617 527.082C-502.953 518.971 -529.823 510.525 -553.969 501.816L-553.969 512.367C-530.814 520.526 -505.244 528.47 -476.641 536.102L-476.672 536.126Z" fill="#00E6EF"/>
<path opacity="0.4" d="M-432.126 500.117C-274.25 542.299 -180.515 533.446 -89.876 524.881C-0.62979 516.459 91.6502 507.749 246.833 549.19C402.015 590.654 467.642 641.545 531.102 690.762C595.553 740.744 662.232 792.449 820.108 834.631C977.983 876.813 1071.72 867.961 1162.36 859.395C1251.6 850.973 1343.88 842.264 1499.07 883.704C1654.25 925.169 1719.88 976.06 1783.34 1025.28C1847.79 1075.28 1914.47 1126.96 2072.34 1169.15C2230.22 1211.33 2323.95 1202.47 2414.62 1193.93C2454.56 1190.18 2495.11 1186.35 2541.6 1186.99L2541.6 1177.38C2494.55 1176.75 2453.53 1180.61 2413.14 1184.43C2323.89 1192.86 2231.61 1201.57 2076.43 1160.1C1921.24 1118.64 1855.62 1067.75 1792.16 1018.53C1727.71 968.547 1661.03 916.842 1503.15 874.66C1345.28 832.478 1251.54 841.331 1160.9 849.896C1071.66 858.318 979.376 867.027 824.194 825.587C669.011 784.123 603.384 733.231 539.925 684.015C475.474 634.033 408.795 582.328 250.919 540.146C93.0433 497.963 -0.691608 506.816 -91.3309 515.382C-180.577 523.804 -272.857 532.513 -428.04 491.073C-478.498 477.602 -519.453 463.103 -553.969 448.005L-553.969 459.011C-520.165 473.391 -480.417 487.197 -432.095 500.117L-432.126 500.117Z" fill="#00E6EF"/>
<path opacity="0.4" d="M-387.55 464.085C-229.643 506.267 -135.692 496.912 -44.8048 487.868C44.6582 478.967 137.155 469.756 292.307 511.196C447.458 552.636 512.868 604.03 576.111 653.749C640.345 704.234 706.777 756.441 864.684 798.623C1022.59 840.805 1116.54 831.45 1207.43 822.406C1296.89 813.505 1389.39 804.294 1544.54 845.734C1699.69 887.175 1765.1 938.568 1828.35 988.287C1892.58 1038.77 1959.04 1090.98 2116.95 1133.16C2274.85 1175.34 2368.84 1165.99 2459.69 1156.94C2486.22 1154.31 2513 1151.66 2541.63 1150.27L2541.63 1140.65C2512.47 1142.04 2485.14 1144.74 2458.11 1147.42C2368.65 1156.32 2276.16 1165.53 2121 1124.09C1965.85 1082.65 1900.44 1031.24 1837.2 981.54C1772.96 931.056 1706.5 878.848 1548.6 836.642C1390.69 794.46 1296.74 803.815 1205.85 812.859C1116.42 821.76 1023.89 830.972 868.739 789.531C713.587 748.091 648.177 696.697 584.934 646.978C520.7 596.493 454.269 544.286 296.362 502.104C138.455 459.922 44.5034 469.277 -46.3836 478.321C-135.847 487.222 -228.343 496.433 -383.495 454.993C-457.665 435.182 -511.281 413.098 -553.97 390.009L-553.97 401.661C-511.684 423.769 -458.996 444.92 -387.519 464.013L-387.55 464.085Z" fill="#00E6EF"/>
<path opacity="0.4" d="M-343.002 428.051C-185.064 470.234 -90.8649 460.376 0.207806 450.829C89.8565 441.426 182.57 431.712 337.721 473.153C492.873 514.593 558.036 566.489 621.031 616.687C685.048 667.674 751.263 720.408 909.201 762.59C1067.11 804.772 1161.31 794.914 1252.41 785.368C1342.09 775.965 1434.8 766.25 1589.92 807.715C1745.08 849.155 1810.24 901.052 1873.26 951.249C1937.31 1002.24 2003.5 1054.97 2161.43 1097.15C2319.34 1139.33 2413.57 1129.48 2504.67 1119.93C2516.87 1118.66 2529.1 1117.37 2541.54 1116.22L2541.54 1106.58C2528.51 1107.78 2515.73 1109.12 2503 1110.46C2413.35 1119.86 2320.61 1129.57 2165.49 1088.11C2010.34 1046.67 1945.18 994.771 1882.15 944.574C1818.1 893.587 1751.89 840.853 1593.98 798.671C1436.07 756.489 1341.87 766.346 1250.77 775.893C1161.09 785.296 1068.38 795.01 913.256 753.545C758.104 712.105 692.942 660.209 629.946 610.035C565.898 559.048 499.714 506.315 341.777 464.132C183.839 421.95 89.6397 431.808 -1.43295 441.354C-91.0816 450.758 -183.795 460.472 -338.947 419.031C-441.473 391.635 -504.716 359.67 -553.998 326.651L-553.998 339.261C-505.026 370.987 -442.061 401.589 -343.002 428.051Z" fill="#00E6EF"/>
<path opacity="0.4" d="M-298.427 392.017C-140.489 434.2 -46.042 423.816 45.2783 413.79C135.144 403.909 228.074 393.692 383.194 435.133C538.315 476.573 603.261 528.972 666.04 579.624C729.871 631.114 795.838 684.35 953.807 726.532C1111.74 768.738 1206.19 758.354 1297.51 748.305C1387.38 738.423 1480.31 728.207 1635.43 769.647C1790.55 811.088 1855.49 863.486 1918.3 914.138C1982.14 965.628 2048.1 1018.86 2206.07 1061.07C2359.3 1102.03 2452.76 1093.49 2541.6 1083.78L2541.6 1074.11C2453.69 1083.75 2361.53 1092.51 2210.1 1052.05C2054.97 1010.61 1990.03 958.211 1927.22 907.559C1863.39 856.069 1797.42 802.833 1639.45 760.627C1481.51 718.421 1387.07 728.805 1295.75 738.854C1205.88 748.736 1112.95 758.952 957.831 717.512C802.71 676.071 737.765 623.673 674.986 573.02C611.155 521.531 545.187 468.295 387.219 426.113C229.281 383.906 134.834 394.291 43.5138 404.34C-46.3825 414.221 -139.313 424.438 -294.402 382.997C-430.609 346.605 -497.257 301.791 -554.031 257.097L-554.031 270.687C-498.093 313.874 -430.33 356.798 -298.458 392.041L-298.427 392.017Z" fill="#00E6EF"/>
<path opacity="0.4" d="M-541.184 208.048C-477.569 260.04 -411.819 313.779 -253.85 355.985C-95.8814 398.191 -1.21786 387.281 90.3501 376.753C180.432 366.393 273.579 355.674 428.669 397.115C583.758 438.555 648.456 491.432 711.049 542.587C774.633 594.579 840.415 648.317 998.383 690.523C1156.35 732.73 1251.02 721.819 1342.58 711.292C1432.67 700.931 1525.81 690.212 1680.9 731.653C1835.99 773.093 1900.72 825.971 1963.28 877.125C2026.9 929.117 2092.65 982.856 2250.62 1025.06C2378.43 1059.2 2464.8 1058.58 2541.6 1051.55L2541.6 1041.91C2465.79 1048.94 2380.66 1049.68 2254.67 1016.02C2099.58 974.577 2034.85 921.7 1972.29 870.545C1908.68 818.553 1842.93 764.815 1684.96 722.609C1526.99 680.403 1432.33 691.289 1340.76 701.841C1250.68 712.201 1157.53 722.92 1002.44 681.479C847.349 640.039 782.651 587.162 720.058 536.007C656.443 484.015 590.692 430.276 432.724 388.07C274.755 345.864 180.092 356.775 88.5236 367.302C-1.55846 377.662 -94.7051 388.381 -249.795 346.941C-404.885 305.501 -469.583 252.623 -532.176 201.469C-539.389 195.583 -546.601 189.673 -554 183.763L-554 197.593C-549.697 201.086 -545.425 204.555 -541.184 208.048Z" fill="#00E6EF"/>
<path opacity="0.4" d="M-496.203 171.01C-432.805 223.504 -367.271 277.769 -209.303 319.975C-51.3342 362.182 43.5771 350.769 135.362 339.739C225.63 328.876 319.024 317.679 474.083 359.095C629.172 400.512 693.623 453.915 755.999 505.548C819.397 558.043 884.931 612.308 1042.9 654.514C1200.87 696.72 1295.78 685.307 1387.56 674.277C1477.86 663.414 1571.23 652.217 1726.29 693.633C1881.37 735.074 1945.86 788.454 2008.2 840.087C2071.6 892.581 2137.13 946.846 2295.13 989.052C2398.77 1016.73 2475.27 1021.35 2541.54 1018.15L2541.54 1008.53C2476.29 1011.73 2401.06 1007.24 2299.16 980.008C2144.07 938.568 2079.59 885.188 2017.24 833.555C1953.84 781.084 1888.31 726.795 1730.31 684.589C1572.34 642.383 1477.43 653.796 1385.64 664.826C1295.35 675.665 1201.98 686.886 1046.92 645.47C891.834 604.029 827.384 550.65 765.008 499.016C701.61 446.546 636.076 392.257 478.107 350.051C320.107 307.845 225.196 319.258 133.412 330.288C43.1128 341.15 -50.2506 352.348 -205.309 310.931C-360.368 269.515 -424.85 216.111 -487.195 164.502C-508.152 147.155 -529.357 129.617 -554.029 112.367L-554.029 125.406C-533.103 140.528 -514.56 155.865 -496.234 171.034L-496.203 171.01Z" fill="#00E6EF"/>
<path opacity="0.4" d="M-451.224 133.972C-388.043 186.945 -322.725 241.736 -164.726 283.942C-6.72617 326.148 88.4327 314.233 180.434 302.724C270.949 291.383 364.53 279.683 519.557 321.1C674.616 362.516 738.85 416.399 800.979 468.51C864.16 521.483 929.477 576.274 1087.48 618.481C1245.48 660.687 1340.64 648.771 1432.64 637.263C1523.15 625.922 1616.73 614.222 1771.76 655.638C1926.82 697.055 1991.08 750.937 2053.21 803.048C2116.39 856.021 2181.71 910.813 2339.71 953.019C2420.91 974.72 2485.48 982.089 2541.57 982.592L2541.57 972.973C2486.53 972.447 2423.23 965.197 2343.77 943.975C2188.71 902.558 2124.44 848.676 2062.31 796.564C1999.13 743.591 1933.81 688.8 1775.82 646.594C1617.82 604.388 1522.66 616.303 1430.66 627.812C1340.17 639.153 1246.59 650.853 1091.53 609.436C936.473 568.02 872.24 514.138 810.08 462.026C746.899 409.053 681.581 354.262 523.582 312.056C365.582 269.85 270.423 281.765 178.422 293.274C87.9373 304.615 -5.64275 316.315 -160.702 274.898C-315.76 233.482 -379.994 179.599 -442.123 127.488C-474.689 100.164 -507.873 72.3615 -553.998 46.0664L-553.998 58.1015C-512.362 82.7217 -481.53 108.562 -451.224 133.972Z" fill="#00E6EF"/>
<path opacity="0.4" d="M-406.247 96.9104C-343.282 150.386 -278.212 205.68 -120.182 247.91C37.8486 290.116 133.224 277.698 225.473 265.687C316.174 253.867 409.971 241.641 565.03 283.057C720.058 324.474 784.075 378.859 845.987 431.449C908.951 484.924 974.052 540.218 1132.05 582.448C1290.08 624.654 1385.46 612.236 1477.71 600.225C1568.41 588.406 1662.2 576.179 1817.26 617.596C1972.29 659.012 2036.31 713.397 2098.22 765.987C2161.19 819.462 2226.29 874.756 2384.32 916.986C2444.84 933.16 2496.13 941.295 2541.6 944.525L2541.6 934.859C2497.21 931.629 2447.22 923.662 2388.34 907.942C2233.31 866.525 2169.3 812.141 2107.38 759.551C2044.42 706.075 1979.32 650.782 1821.29 608.552C1663.26 566.322 1567.88 578.763 1475.63 590.774C1384.93 602.594 1291.13 614.82 1136.08 573.404C981.048 531.987 917.031 477.603 855.119 425.012C792.154 371.537 727.054 316.243 569.054 274.013C411.024 231.807 315.648 244.225 223.399 256.236C132.698 268.056 38.9011 280.282 -116.127 238.865C-271.155 197.449 -335.172 143.064 -397.084 90.4742C-439.277 54.6086 -482.522 17.9535 -554 -15.041L-554 -3.79556C-487.599 27.8351 -446.459 62.7675 -406.247 96.9343L-406.247 96.9104Z" fill="#00E6EF"/>
<path opacity="0.4" d="M-554 -61.2177C-459.584 -24.6822 -409.745 18.146 -361.268 59.8974C-298.52 113.875 -233.667 169.695 -75.6054 211.902C82.4252 254.132 178.048 241.187 270.514 228.674C361.432 216.376 455.445 203.647 610.473 245.063C765.501 286.48 829.271 341.367 890.966 394.436C953.714 448.413 1018.57 504.234 1176.63 546.44C1334.66 588.67 1430.28 575.726 1522.75 563.212C1613.67 550.914 1707.68 538.185 1862.71 579.602C2017.73 621.018 2081.5 675.905 2143.2 728.974C2205.95 782.952 2270.83 838.772 2428.86 881.002C2470.4 892.104 2507.61 899.353 2541.6 903.852L2541.6 894.114C2508.76 889.687 2472.88 882.653 2432.92 871.958C2277.89 830.541 2214.12 775.654 2152.42 722.586C2089.68 668.608 2024.79 612.788 1866.76 570.582C1708.73 528.352 1613.11 541.296 1520.64 553.809C1429.72 566.107 1335.71 578.836 1180.68 537.42C1025.66 496.003 961.886 441.116 900.191 388.047C837.443 334.069 772.59 278.249 614.529 236.043C456.498 193.813 360.875 206.757 268.409 219.271C177.491 231.569 83.4777 244.298 -71.5501 202.881C-226.578 161.465 -290.347 106.602 -352.043 53.5091C-399.282 12.8583 -447.759 -28.8215 -536.293 -64.9742L-553.969 -64.9742L-553.969 -61.1938L-554 -61.2177Z" fill="#00E6EF"/>
<path opacity="0.4" d="M-316.258 22.835C-253.727 77.3153 -189.091 133.638 -31.0291 175.868C127.032 218.098 222.872 204.651 315.586 191.635C406.72 178.859 500.95 165.627 655.947 207.044C810.944 248.461 874.497 303.826 935.976 357.373C998.507 411.854 1063.14 468.176 1221.2 510.406C1379.27 552.636 1475.14 539.19 1567.82 526.174C1658.95 513.397 1753.18 500.166 1908.18 541.582C2063.18 582.999 2126.73 638.364 2188.21 691.912C2250.74 746.392 2315.38 802.714 2473.47 844.944C2497.58 851.381 2520.21 856.501 2541.63 860.568L2541.63 850.687C2521.42 846.811 2500.12 841.954 2477.52 835.9C2322.53 794.484 2258.97 739.118 2197.5 685.571C2134.96 631.091 2070.33 574.768 1912.24 532.538C1754.17 490.308 1658.3 503.755 1565.62 516.771C1474.49 529.547 1380.26 542.779 1225.26 501.362C1070.26 459.945 1006.71 404.58 945.231 351.033C882.7 296.552 818.064 240.23 660.002 198C501.941 155.77 406.101 169.216 313.388 182.232C222.253 195.009 128.023 208.24 -26.9739 166.824C-181.971 125.407 -245.524 70.0416 -306.971 16.4945C-338.392 -10.8773 -370.338 -38.7036 -414.389 -64.9747L-435.253 -64.9747C-384.888 -36.9091 -350.248 -6.76201 -316.258 22.8588L-316.258 22.835Z" fill="#00E6EF"/>
<path opacity="0.4" d="M-271.279 -14.2279C-208.964 40.7309 -144.545 97.5799 13.517 139.81C171.609 182.04 267.697 168.067 360.596 154.573C451.916 141.293 546.394 127.584 701.36 168.976C856.326 210.369 919.662 266.261 980.893 320.287C1043.21 375.245 1107.63 432.094 1265.72 474.324C1423.81 516.554 1519.9 502.605 1612.83 489.087C1704.18 475.808 1798.63 462.098 1953.59 503.491C2108.59 544.883 2171.9 600.775 2233.16 654.801C2295.47 709.784 2359.89 766.609 2517.98 808.839C2526.03 810.992 2533.86 812.954 2541.6 814.82L2541.6 804.795C2535.16 803.216 2528.7 801.589 2522.04 799.818C2367.07 758.426 2303.74 702.534 2242.48 648.508C2180.16 593.525 2115.74 536.7 1957.65 494.446C1799.59 452.216 1703.47 466.189 1610.54 479.684C1519.19 492.963 1424.74 506.673 1269.77 465.28C1114.81 423.888 1051.47 367.996 990.242 313.97C927.927 259.011 863.508 202.162 705.415 159.932C547.354 117.702 451.235 131.651 358.305 145.17C266.954 158.449 172.507 172.158 17.5412 130.766C-137.425 89.3733 -200.761 33.5053 -261.992 -20.5443C-278.77 -35.3308 -295.703 -50.2609 -314.555 -65.0235L-332.169 -65.0235C-309.85 -48.2511 -290.471 -31.1676 -271.31 -14.2517L-271.279 -14.2279Z" fill="#00E6EF"/>
<path opacity="0.4" d="M58.0957 103.801C216.188 146.031 312.523 131.556 405.67 117.559C497.238 103.801 591.902 89.5887 746.837 130.981C901.802 172.374 964.891 228.744 1025.91 283.273C1088 338.734 1152.21 396.109 1310.3 438.339C1468.39 480.569 1564.73 466.094 1657.87 452.097C1749.41 438.339 1844.1 424.127 1999.04 465.52C2154.01 506.912 2217.09 563.283 2278.14 617.811C2337.42 670.76 2398.65 725.408 2541.57 767.016L2541.57 756.775C2404.63 716.148 2345.13 663.032 2287.49 611.542C2225.39 556.081 2161.19 498.706 2003.09 456.476C1845 414.245 1748.67 428.721 1655.52 442.718C1563.98 456.475 1469.29 470.688 1314.35 429.295C1159.39 387.902 1096.3 331.532 1035.28 277.004C973.187 221.543 908.984 164.167 750.892 121.937C592.799 79.7072 496.464 94.1826 403.317 108.18C311.75 121.937 217.086 136.149 62.1509 94.7569C-92.815 53.3643 -155.903 -3.00628 -216.918 -57.5344C-219.704 -60.0228 -222.49 -62.5111 -225.307 -64.9994L-241.744 -64.9994C-236.544 -60.4056 -231.405 -55.8357 -226.297 -51.2657C-164.2 4.19554 -99.9968 61.5709 58.0957 103.801Z" fill="#00E6EF"/>
<path opacity="0.4" d="M102.642 67.7676C260.765 110.022 357.317 95.0198 450.711 80.5443C542.465 66.3082 637.345 51.5696 792.28 92.9621C947.215 134.355 1010.09 191.228 1070.88 246.21C1132.77 302.174 1196.75 360.052 1354.88 402.306C1513 444.536 1609.55 429.558 1702.94 415.059C1794.7 400.823 1889.58 386.108 2044.51 427.476C2199.45 468.869 2262.32 525.742 2323.12 580.725C2375.65 628.243 2429.73 677.124 2541.57 716.65L2541.57 706.075C2435.55 667.649 2383.3 620.419 2332.53 574.504C2270.65 518.54 2206.66 460.662 2048.54 418.408C1890.41 376.178 1793.86 391.156 1700.47 405.632C1608.71 419.868 1513.83 434.607 1358.9 393.214C1203.96 351.821 1141.09 294.948 1080.3 239.966C1018.41 184.002 954.428 126.124 796.305 83.894C638.181 41.64 541.629 56.6419 448.235 71.1173C356.481 85.3535 261.601 100.092 106.666 58.6995C-20.6253 24.7002 -85.7568 -19.755 -138.661 -65.0237L-155.284 -65.0237C-99.9656 -16.6446 -33.6268 31.3516 102.611 67.7436L102.642 67.7676Z" fill="#00E6EF"/>
<path opacity="0.4" d="M495.75 43.5062C587.72 28.7915 682.817 13.5505 837.752 54.9431C992.656 96.3357 1055.31 153.687 1115.89 209.172C1177.56 265.638 1241.3 324.019 1399.45 366.273C1557.6 408.527 1654.4 393.022 1747.98 378.045C1839.95 363.33 1935.05 348.089 2089.99 389.481C2244.92 430.874 2307.55 488.249 2368.13 543.711C2412.98 584.792 2458.98 626.879 2541.6 663.031L2541.6 651.929C2464.52 617.093 2420.5 576.825 2377.6 537.514C2315.93 481.047 2252.16 422.667 2094.04 380.413C1935.92 338.159 1839.12 353.664 1745.51 368.641C1653.54 383.356 1558.44 398.597 1403.5 357.205C1248.6 315.812 1185.95 258.461 1125.36 202.975C1063.7 146.509 999.962 88.129 841.808 45.8751C683.684 3.62112 586.885 19.1253 493.273 34.1032C401.303 48.8179 306.206 64.059 151.302 22.6664C58.5579 -2.12129 -1.12542 -32.6274 -47.0642 -65.0237L-65.2354 -65.0237C-17.0678 -29.3017 45.5871 4.55408 147.278 31.7105C305.401 73.9644 402.201 58.4603 495.812 43.4824L495.75 43.5062Z" fill="#00E6EF"/>
<path opacity="0.4" d="M540.791 6.46801C632.978 -8.74915 728.292 -24.4688 883.196 16.9238C1038.1 58.3164 1100.51 116.17 1160.87 172.134C1222.32 229.103 1285.84 288.009 1444 330.263C1602.15 372.517 1699.2 356.511 1793.02 341.03C1885.21 325.813 1980.53 310.094 2135.43 351.486C2290.33 392.879 2352.74 450.733 2413.11 506.696C2449.05 540.002 2485.73 573.977 2541.6 604.914L2541.6 592.999C2490.77 563.737 2456.35 531.867 2422.61 500.571C2361.16 443.603 2297.64 384.696 2139.45 342.442C1981.3 300.188 1884.25 316.195 1790.42 331.675C1698.24 346.892 1602.92 362.612 1448.02 321.219C1293.12 279.851 1230.71 221.973 1170.34 166.009C1108.9 109.04 1045.37 50.1337 887.22 7.87976C729.066 -34.3742 632.019 -18.3675 538.191 -2.88713C446.004 12.33 350.69 28.0496 195.786 -13.343C138.58 -28.6319 94.0337 -46.1461 57.5056 -65L35.6816 -65C75.584 -42.7485 125.299 -22.0522 191.762 -4.29888C349.916 37.9551 446.963 21.9483 540.791 6.46801Z" fill="#00E6EF"/>
<path opacity="0.4" d="M585.862 -30.5459C678.266 -46.2416 773.797 -62.4638 928.67 -21.0951C1083.54 20.2736 1145.73 78.63 1205.88 135.072C1267.11 192.543 1330.42 251.953 1488.6 294.206C1646.79 336.46 1744.05 319.951 1838.13 303.968C1930.53 288.273 2026.06 272.051 2180.93 313.419C2335.81 354.788 2398 413.168 2458.15 469.611C2483.44 493.346 2509.1 517.415 2541.67 540.48L2541.67 527.321C2513.46 506.457 2490.43 484.852 2467.71 463.533C2406.48 406.062 2343.17 346.653 2184.99 304.399C2026.8 262.145 1929.54 278.654 1835.46 294.637C1743.09 310.333 1647.53 326.555 1492.66 285.186C1337.78 243.818 1275.59 185.461 1215.45 129.019C1154.22 71.5479 1090.91 12.1387 932.725 -30.1152C774.54 -72.3692 677.276 -55.8601 583.231 -39.8773C490.827 -24.1816 395.297 -7.95956 240.424 -49.3282C221.788 -54.3049 204.546 -59.5208 188.449 -64.976L158.886 -64.976C181.948 -56.2668 207.58 -47.9883 236.4 -40.284C394.585 1.96994 491.849 -14.5393 585.924 -30.5221L585.862 -30.5459Z" fill="#00E6EF"/>
<g opacity="0.4">
<path d="M974.113 -59.1142C1128.99 -17.7455 1190.93 41.1133 1250.83 98.0341C1311.84 155.984 1374.93 215.919 1533.12 258.197C1691.3 300.451 1788.81 283.415 1883.11 266.954C1975.7 250.78 2071.47 234.055 2226.32 275.424C2381.19 316.793 2443.13 375.652 2503.06 432.572C2515.54 444.44 2528.14 456.379 2541.57 468.223L2541.57 453.58C2531.63 444.56 2522.13 435.515 2512.66 426.519C2451.64 368.569 2388.56 308.634 2230.37 266.356C2072.15 224.078 1974.67 241.138 1880.38 257.599C1787.79 273.773 1692.01 290.498 1537.17 249.129C1382.3 207.76 1320.36 148.901 1260.46 91.9806C1200.96 35.4427 1139.42 -22.9615 989.653 -65.0002L950.803 -65.0002C958.449 -63.1818 966.188 -61.2437 974.144 -59.1142L974.113 -59.1142Z" fill="#00E6EF"/>
</g>
<path opacity="0.4" d="M1295.81 60.9969C1356.61 119.449 1419.45 179.911 1577.67 222.165C1735.88 264.443 1833.61 246.881 1928.15 229.917C2020.96 213.264 2116.92 196.037 2271.76 237.382C2421.03 277.267 2483.78 333.853 2541.57 389.314L2541.57 374.097C2485.14 320.598 2420.17 266.907 2275.82 228.338C2117.6 186.06 2019.87 203.622 1925.33 220.586C1832.53 237.238 1736.53 254.465 1581.69 213.121C1426.85 171.752 1365.12 112.391 1305.44 54.9916C1262.41 13.599 1218.27 -28.7746 1140.07 -64.9991L1115 -64.9991C1203.44 -27.7697 1250.24 17.1639 1295.81 60.9969Z" fill="#00E6EF"/>
<path opacity="0.4" d="M1340.82 23.9344C1401.4 82.8889 1464.02 143.853 1622.27 186.131C1780.52 228.409 1878.46 210.345 1973.22 192.878C2066.24 175.723 2162.42 158.018 2317.27 199.363C2429.51 229.342 2492.69 269.06 2541.6 310.668L2541.6 296.551C2492.91 256.81 2429.42 219.197 2321.29 190.318C2163.07 148.04 2065.1 166.105 1970.34 183.571C1877.32 200.702 1781.14 218.432 1626.3 177.087C1471.48 135.718 1409.97 75.8785 1350.51 17.9768C1321.78 -9.96921 1292.59 -38.3698 1253 -64.9998L1233.65 -64.9998C1278.44 -36.7428 1309.92 -6.14102 1340.82 23.9344Z" fill="#00E6EF"/>
<path opacity="0.4" d="M1666.82 150.099C1825.06 192.377 1923.29 173.81 2018.26 155.842C2111.5 138.208 2207.9 119.976 2362.71 161.345C2443.47 182.926 2498.76 209.676 2541.6 238.627L2541.6 225.946C2499.01 198.455 2444.43 173.045 2366.76 152.301C2208.52 110.023 2110.29 128.59 2015.32 146.558C1922.08 164.192 1825.68 182.424 1670.87 141.055C1516.06 99.6865 1454.8 39.3442 1395.55 -19.0122C1380.01 -34.325 1364.31 -49.7814 1346.89 -64.9985L1330.17 -64.9985C1350.48 -47.8912 1368.25 -30.401 1385.83 -13.1023C1446.19 46.3547 1508.6 107.822 1666.85 150.099L1666.82 150.099Z" fill="#00E6EF"/>
<path opacity="0.4" d="M1711.39 114.066C1869.67 156.344 1968.11 137.274 2063.3 118.803C2156.76 100.691 2253.37 81.9568 2408.15 123.302C2463.1 137.968 2506.16 155.124 2541.6 173.738L2541.6 162.158C2506.78 144.548 2464.83 128.302 2412.21 114.257C2253.96 71.9794 2155.49 91.0488 2060.3 109.52C1966.84 127.632 1870.23 146.366 1715.45 105.022C1560.67 63.677 1499.62 2.83227 1440.59 -56.0266C1437.59 -59.0174 1434.58 -62.0081 1431.55 -64.9989L1415.83 -64.9989C1420.87 -60.0462 1425.82 -55.0934 1430.78 -50.1406C1490.92 9.81881 1553.12 71.8119 1711.36 114.09L1711.39 114.066Z" fill="#00E6EF"/>
</g>
</g>
</g>
<defs>
<clipPath id="clip0_15_2724">
<rect width="1476" height="2109" fill="white"/>
</clipPath>
<clipPath id="clip1_15_2724">
<rect width="3095.6" height="1435.58" fill="white" transform="translate(2541.6 1370.58) rotate(-180)"/>
</clipPath>
</defs>
</svg>
