<svg width="1167" height="541" viewBox="0 0 1167 541" fill="none" xmlns="http://www.w3.org/2000/svg">
<path d="M93.5009 17.7849L97.4466 13.062L93.5009 9.76551L89.5551 13.062L93.5009 17.7849ZM105.935 28.1725L101.989 32.8954L103.702 34.3268H105.935V28.1725ZM124.349 28.1725V34.3268H136.988L129.193 24.377L124.349 28.1725ZM104.99 3.46265L109.835 -0.332782L107.987 -2.69163H104.99V3.46265ZM82.3264 3.46265V-2.69163H79.3298L77.4818 -0.332782L82.3264 3.46265ZM62.9677 28.1725L58.1231 24.377L50.3282 34.3268H62.9677V28.1725ZM81.0673 28.1725V34.3268H83.2998L85.013 32.8954L81.0673 28.1725ZM158.361 91.9144V91.5996H146.052V91.9144H158.361ZM158.361 91.5996C158.361 56.8253 131.155 28.7859 93.8157 28.7859V41.0944C124.468 41.0944 146.052 63.7337 146.052 91.5996H158.361ZM93.8157 28.7859C56.4762 28.7859 28.9559 57.1405 28.9559 91.9144H41.2644C41.2644 64.0481 63.1638 41.0944 93.8157 41.0944V28.7859ZM28.9559 91.9144V92.2292H41.2644V91.9144H28.9559ZM28.9559 92.2292C28.9559 127.003 56.1618 155.043 93.5009 155.043V142.734C62.8486 142.734 41.2644 120.095 41.2644 92.2292H28.9559ZM93.5009 155.043C130.84 155.043 158.361 126.688 158.361 91.9144H146.052C146.052 119.781 124.153 142.734 93.5009 142.734V155.043ZM120.713 92.2292C120.713 108.102 109.56 120.385 93.8157 120.385V132.694C117.103 132.694 133.021 114.129 133.021 92.2292H120.713ZM93.8157 120.385C78.0667 120.385 66.6038 107.782 66.6038 91.9144H54.2952C54.2952 113.82 70.5326 132.694 93.8157 132.694V120.385ZM66.6038 91.9144V91.5996H54.2952V91.9144H66.6038ZM66.6038 91.5996C66.6038 75.7268 77.7566 63.4434 93.5009 63.4434V51.1349C70.2131 51.1349 54.2952 69.6994 54.2952 91.5996H66.6038ZM93.5009 63.4434C109.25 63.4434 120.713 76.0466 120.713 91.9144H133.021C133.021 70.0092 116.784 51.1349 93.5009 51.1349V63.4434ZM120.713 91.9144V92.2292H133.021V91.9144H120.713ZM89.5551 22.5079L101.989 32.8954L109.88 23.4495L97.4466 13.062L89.5551 22.5079ZM105.935 34.3268H124.349V22.0182H105.935V34.3268ZM129.193 24.377L109.835 -0.332782L100.146 7.25808L119.504 31.9679L129.193 24.377ZM104.99 -2.69163H82.3264V9.61693H104.99V-2.69163ZM77.4818 -0.332782L58.1231 24.377L67.8123 31.9679L87.171 7.25808L77.4818 -0.332782ZM62.9677 34.3268H81.0673V22.0182H62.9677V34.3268ZM85.013 32.8954L97.4466 22.5079L89.5551 13.062L77.1215 23.4495L85.013 32.8954ZM283.878 147V153.154H290.033V147H283.878ZM283.878 36.8288H290.033V30.6745H283.878V36.8288ZM257.752 36.8288V30.6745H254.331L252.525 33.5797L257.752 36.8288ZM228.793 83.4155L223.566 86.6645L228.793 95.0728L234.019 86.6645L228.793 83.4155ZM199.833 36.8288L205.06 33.5797L203.254 30.6745H199.833V36.8288ZM173.707 36.8288V30.6745H167.553V36.8288H173.707ZM173.707 147H167.553V153.154H173.707V147ZM197.473 147V153.154H203.627V147H197.473ZM197.473 75.5461L202.612 72.1604L191.318 55.0173V75.5461H197.473ZM228.163 122.133L223.024 125.518L224.848 128.287H228.163V122.133ZM228.793 122.133V128.287H232.108L233.932 125.519L228.793 122.133ZM259.798 75.0739H265.952V54.5472L254.659 71.688L259.798 75.0739ZM259.798 147H253.644V153.154H259.798V147ZM290.033 147V36.8288H277.724V147H290.033ZM283.878 30.6745H257.752V42.9831H283.878V30.6745ZM252.525 33.5797L223.566 80.1664L234.019 86.6645L262.979 40.0778L252.525 33.5797ZM234.019 80.1664L205.06 33.5797L194.607 40.0778L223.566 86.6645L234.019 80.1664ZM199.833 30.6745H173.707V42.9831H199.833V30.6745ZM167.553 36.8288V147H179.861V36.8288H167.553ZM173.707 153.154H197.473V140.846H173.707V153.154ZM203.627 147V75.5461H191.318V147H203.627ZM192.333 78.9318L223.024 125.518L233.302 118.747L202.612 72.1604L192.333 78.9318ZM228.163 128.287H228.793V115.979H228.163V128.287ZM233.932 125.519L264.937 78.4599L254.659 71.688L223.653 118.747L233.932 125.519ZM253.644 75.0739V147H265.952V75.0739H253.644ZM259.798 153.154H283.878V140.846H259.798V153.154ZM394.233 147V153.154H400.387V147H394.233ZM394.233 125.438H400.387V119.284H394.233V125.438ZM334.425 125.438H328.271V131.592H334.425V125.438ZM334.425 102.302V96.1477H328.271V102.302H334.425ZM386.363 102.302V108.456H392.518V102.302H386.363ZM386.363 80.7399H392.518V74.5856H386.363V80.7399ZM334.425 80.7399H328.271V86.8942H334.425V80.7399ZM334.425 58.3909V52.2366H328.271V58.3909H334.425ZM393.446 58.3909V64.5452H399.6V58.3909H393.446ZM393.446 36.8288H399.6V30.6745H393.446V36.8288ZM310.345 36.8288V30.6745H304.191V36.8288H310.345ZM310.345 147H304.191V153.154H310.345V147ZM400.387 147V125.438H388.078V147H400.387ZM394.233 119.284H334.425V131.592H394.233V119.284ZM340.58 125.438V102.302H328.271V125.438H340.58ZM334.425 108.456H386.363V96.1477H334.425V108.456ZM392.518 102.302V80.7399H380.209V102.302H392.518ZM386.363 74.5856H334.425V86.8942H386.363V74.5856ZM340.58 80.7399V58.3909H328.271V80.7399H340.58ZM334.425 64.5452H393.446V52.2366H334.425V64.5452ZM399.6 58.3909V36.8288H387.291V58.3909H399.6ZM393.446 30.6745H310.345V42.9831H393.446V30.6745ZM304.191 36.8288V147H316.499V36.8288H304.191ZM310.345 153.154H394.233V140.846H310.345V153.154ZM511.002 147V153.154H522.668L516.081 143.525L511.002 147ZM484.089 107.653L481.949 101.883L474.559 104.623L479.009 111.128L484.089 107.653ZM415.782 36.8288V30.6745H409.628V36.8288H415.782ZM415.782 147H409.628V153.154H415.782V147ZM440.02 147V153.154H446.174V147H440.02ZM440.02 111.745V105.591H433.866V111.745H440.02ZM459.064 111.745L464.178 108.321L462.349 105.591H459.064V111.745ZM482.672 147L477.558 150.424L479.387 153.154H482.672V147ZM440.02 90.3405H433.866V96.4948H440.02V90.3405ZM440.02 58.7056V52.5514H433.866V58.7056H440.02ZM516.081 143.525L489.168 104.179L479.009 111.128L505.922 150.475L516.081 143.525ZM486.228 113.424C494.152 110.486 501.124 105.74 506.11 98.9354C511.119 92.0982 513.851 83.5488 513.851 73.5001H501.542C501.542 81.2362 499.474 87.1664 496.181 91.661C492.864 96.188 488.033 99.6269 481.949 101.883L486.228 113.424ZM513.851 73.5001V73.1853H501.542V73.5001H513.851ZM513.851 73.1853C513.851 60.3611 509.388 49.4769 500.715 41.8789C492.146 34.3717 480.159 30.6745 466.146 30.6745V42.9831C478.103 42.9831 486.891 46.1323 492.605 51.1373C498.214 56.0516 501.542 63.3457 501.542 73.1853H513.851ZM466.146 30.6745H415.782V42.9831H466.146V30.6745ZM409.628 36.8288V147H421.937V36.8288H409.628ZM415.782 153.154H440.02V140.846H415.782V153.154ZM446.174 147V111.745H433.866V147H446.174ZM440.02 117.899H459.064V105.591H440.02V117.899ZM453.95 115.17L477.558 150.424L487.786 143.576L464.178 108.321L453.95 115.17ZM482.672 153.154H511.002V140.846H482.672V153.154ZM476.99 74.7592C476.99 77.8126 475.932 79.9325 474.263 81.3737C472.499 82.8966 469.425 84.1862 464.573 84.1862V96.4948C471.524 96.4948 477.736 94.6366 482.307 90.6904C486.972 86.6624 489.299 80.9915 489.299 74.7592H476.99ZM464.573 84.1862H440.02V96.4948H464.573V84.1862ZM446.174 90.3405V58.7056H433.866V90.3405H446.174ZM440.02 64.8599H464.1V52.5514H440.02V64.8599ZM464.1 64.8599C469.183 64.8599 472.384 66.0252 474.197 67.4798C475.801 68.7669 476.99 70.8072 476.99 74.4444H489.299C489.299 67.694 486.867 61.8649 481.9 57.8796C477.142 54.0617 470.822 52.5514 464.1 52.5514V64.8599ZM476.99 74.4444V74.7592H489.299V74.4444H476.99ZM621.403 81.0547L622.955 75.0992L622.943 75.096L622.93 75.0929L621.403 81.0547ZM640.447 67.5193L636.94 72.5764L642.01 76.093L645.513 71.0133L640.447 67.5193ZM653.038 49.2624L658.104 52.7564L661.353 48.0457L656.891 44.4633L653.038 49.2624ZM610.071 102.459L611.6 96.4979L611.594 96.4964L610.071 102.459ZM583.473 113.791L587.39 109.045L582.67 105.149L578.748 109.847L583.473 113.791ZM569.15 130.946L564.426 127.002L560.611 131.572L565.051 135.537L569.15 130.946ZM662.497 114.421V114.106H650.189V114.421H662.497ZM662.497 114.106C662.497 102.917 658.716 94.3353 651.278 87.9073C644.221 81.8084 634.33 78.0631 622.955 75.0992L619.851 87.0101C630.825 89.8695 638.404 93.0493 643.23 97.2199C647.675 101.061 650.189 106.094 650.189 114.106H662.497ZM622.93 75.0929C613.196 72.599 608.173 70.976 605.511 69.4023C604.355 68.7189 604.095 68.292 604.036 68.188C603.978 68.0835 603.792 67.7196 603.792 66.575H591.483C591.483 69.0504 591.887 71.6964 593.309 74.2233C594.731 76.7506 596.842 78.5763 599.247 79.9979C603.707 82.6344 610.566 84.6313 619.876 87.0164L622.93 75.0929ZM603.792 66.575V66.2602H591.483V66.575H603.792ZM603.792 66.2602C603.792 65.6563 603.984 65.0653 604.857 64.4304C605.879 63.6878 608.02 62.8139 611.802 62.8139V50.5053C606.299 50.5053 601.358 51.7562 597.618 54.476C593.73 57.3037 591.483 61.513 591.483 66.2602H603.792ZM611.802 62.8139C619.304 62.8139 627.667 66.1452 636.94 72.5764L643.954 62.4623C633.711 55.3582 622.872 50.5053 611.802 50.5053V62.8139ZM645.513 71.0133L658.104 52.7564L647.972 45.7684L635.381 64.0254L645.513 71.0133ZM656.891 44.4633C644.605 34.6004 629.548 29.1006 612.117 29.1006V41.4092C626.793 41.4092 639.121 45.9822 649.185 54.0615L656.891 44.4633ZM612.117 29.1006C599.69 29.1006 588.551 32.7546 580.411 39.6749C572.186 46.667 567.403 56.6941 567.403 68.4637H579.711C579.711 60.2451 582.955 53.6678 588.383 49.0526C593.897 44.3655 602.037 41.4092 612.117 41.4092V29.1006ZM567.403 68.4637V68.7784H579.711V68.4637H567.403ZM567.403 68.7784C567.403 81.3369 571.652 90.2411 579.697 96.5429C587.192 102.413 597.519 105.606 608.549 108.422L611.594 96.4964C600.431 93.6465 592.502 90.9374 587.287 86.853C582.624 83.2001 579.711 78.0968 579.711 68.7784H567.403ZM608.542 108.421C617.806 110.796 622.402 112.562 624.68 114.067C625.67 114.721 625.885 115.116 625.927 115.196C625.971 115.282 626.108 115.567 626.108 116.467H638.417C638.417 114.297 638.082 111.888 636.843 109.509C635.601 107.126 633.72 105.287 631.464 103.797C627.25 101.013 620.751 98.8444 611.6 96.4979L608.542 108.421ZM626.108 116.467V116.782H638.417V116.467H626.108ZM626.108 116.782C626.108 117.79 625.782 118.513 624.662 119.246C623.281 120.15 620.631 121.015 616.367 121.015V133.323C622.017 133.323 627.315 132.221 631.404 129.544C635.753 126.697 638.417 122.226 638.417 116.782H626.108ZM616.367 121.015C605.687 121.015 596.642 116.682 587.39 109.045L579.555 118.538C590.134 127.269 601.864 133.323 616.367 133.323V121.015ZM578.748 109.847L564.426 127.002L573.875 134.891L588.197 117.735L578.748 109.847ZM565.051 135.537C579.471 148.412 597.798 154.728 615.894 154.728V142.42C600.624 142.42 585.27 137.089 573.249 126.356L565.051 135.537ZM615.894 154.728C628.766 154.728 640.384 151.408 648.912 144.477C657.595 137.421 662.497 127.075 662.497 114.421H650.189C650.189 123.643 646.75 130.374 641.149 134.925C635.395 139.602 626.788 142.42 615.894 142.42V154.728ZM787.549 147V153.154H793.703V147H787.549ZM787.549 36.8288H793.703V30.6745H787.549V36.8288ZM761.422 36.8288V30.6745H758.002L756.196 33.5797L761.422 36.8288ZM732.463 83.4155L727.236 86.6645L732.463 95.0728L737.69 86.6645L732.463 83.4155ZM703.504 36.8288L708.731 33.5797L706.925 30.6745H703.504V36.8288ZM677.378 36.8288V30.6745H671.223V36.8288H677.378ZM677.378 147H671.223V153.154H677.378V147ZM701.143 147V153.154H707.297V147H701.143ZM701.143 75.5461L706.282 72.1604L694.989 55.0173V75.5461H701.143ZM731.834 122.133L726.694 125.518L728.518 128.287H731.834V122.133ZM732.463 122.133V128.287H735.778L737.602 125.519L732.463 122.133ZM763.468 75.0739H769.623V54.5472L758.329 71.688L763.468 75.0739ZM763.468 147H757.314V153.154H763.468V147ZM793.703 147V36.8288H781.394V147H793.703ZM787.549 30.6745H761.422V42.9831H787.549V30.6745ZM756.196 33.5797L727.236 80.1664L737.69 86.6645L766.649 40.0778L756.196 33.5797ZM737.69 80.1664L708.731 33.5797L698.277 40.0778L727.236 86.6645L737.69 80.1664ZM703.504 30.6745H677.378V42.9831H703.504V30.6745ZM671.223 36.8288V147H683.532V36.8288H671.223ZM677.378 153.154H701.143V140.846H677.378V153.154ZM707.297 147V75.5461H694.989V147H707.297ZM696.004 78.9318L726.694 125.518L736.973 118.747L706.282 72.1604L696.004 78.9318ZM731.834 128.287H732.463V115.979H731.834V128.287ZM737.602 125.519L768.608 78.4599L758.329 71.688L727.324 118.747L737.602 125.519ZM757.314 75.0739V147H769.623V75.0739H757.314ZM763.468 153.154H787.549V140.846H763.468V153.154ZM921.354 147V153.154H930.661L927.017 144.59L921.354 147ZM874.138 36.0419L879.801 33.6321L878.207 29.8876H874.138V36.0419ZM851.789 36.0419V29.8876H847.719L846.126 33.6321L851.789 36.0419ZM804.572 147L798.909 144.59L795.265 153.154H804.572V147ZM829.282 147V153.154H833.419L834.981 149.323L829.282 147ZM839.355 122.29V116.136H835.218L833.656 119.967L839.355 122.29ZM885.942 122.29L891.641 119.967L890.079 116.136H885.942V122.29ZM896.015 147L890.316 149.323L891.877 153.154H896.015V147ZM877.285 100.885V107.04H886.458L882.98 98.5523L877.285 100.885ZM848.011 100.885L842.316 98.5523L838.839 107.04H848.011V100.885ZM862.648 65.1585L868.343 62.8254L862.648 48.925L856.953 62.8254L862.648 65.1585ZM927.017 144.59L879.801 33.6321L868.475 38.4516L915.691 149.41L927.017 144.59ZM874.138 29.8876H851.789V42.1961H874.138V29.8876ZM846.126 33.6321L798.909 144.59L810.235 149.41L857.452 38.4516L846.126 33.6321ZM804.572 153.154H829.282V140.846H804.572V153.154ZM834.981 149.323L845.054 124.613L833.656 119.967L823.583 144.677L834.981 149.323ZM839.355 128.444H885.942V116.136H839.355V128.444ZM880.243 124.613L890.316 149.323L901.714 144.677L891.641 119.967L880.243 124.613ZM896.015 153.154H921.354V140.846H896.015V153.154ZM877.285 94.7312H848.011V107.04H877.285V94.7312ZM853.706 103.219L868.343 67.4917L856.953 62.8254L842.316 98.5523L853.706 103.219ZM856.953 67.4917L871.591 103.219L882.98 98.5523L868.343 62.8254L856.953 67.4917ZM1033.58 147V153.154H1045.24L1038.66 143.525L1033.58 147ZM1006.66 107.653L1004.52 101.883L997.135 104.623L1001.58 111.128L1006.66 107.653ZM938.358 36.8288V30.6745H932.204V36.8288H938.358ZM938.358 147H932.204V153.154H938.358V147ZM962.596 147V153.154H968.75V147H962.596ZM962.596 111.745V105.591H956.441V111.745H962.596ZM981.639 111.745L986.753 108.321L984.925 105.591H981.639V111.745ZM1005.25 147L1000.13 150.424L1001.96 153.154H1005.25V147ZM962.596 90.3405H956.441V96.4948H962.596V90.3405ZM962.596 58.7056V52.5514H956.441V58.7056H962.596ZM1038.66 143.525L1011.74 104.179L1001.58 111.128L1028.5 150.475L1038.66 143.525ZM1008.8 113.424C1016.73 110.486 1023.7 105.74 1028.69 98.9354C1033.69 92.0982 1036.43 83.5488 1036.43 73.5001H1024.12C1024.12 81.2362 1022.05 87.1664 1018.76 91.661C1015.44 96.188 1010.61 99.6269 1004.52 101.883L1008.8 113.424ZM1036.43 73.5001V73.1853H1024.12V73.5001H1036.43ZM1036.43 73.1853C1036.43 60.3611 1031.96 49.4769 1023.29 41.8789C1014.72 34.3717 1002.73 30.6745 988.722 30.6745V42.9831C1000.68 42.9831 1009.47 46.1323 1015.18 51.1373C1020.79 56.0516 1024.12 63.3457 1024.12 73.1853H1036.43ZM988.722 30.6745H938.358V42.9831H988.722V30.6745ZM932.204 36.8288V147H944.512V36.8288H932.204ZM938.358 153.154H962.596V140.846H938.358V153.154ZM968.75 147V111.745H956.441V147H968.75ZM962.596 117.899H981.639V105.591H962.596V117.899ZM976.526 115.17L1000.13 150.424L1010.36 143.576L986.753 108.321L976.526 115.17ZM1005.25 153.154H1033.58V140.846H1005.25V153.154ZM999.565 74.7592C999.565 77.8126 998.508 79.9325 996.839 81.3737C995.075 82.8966 992 84.1862 987.148 84.1862V96.4948C994.099 96.4948 1000.31 94.6366 1004.88 90.6904C1009.55 86.6624 1011.87 80.9915 1011.87 74.7592H999.565ZM987.148 84.1862H962.596V96.4948H987.148V84.1862ZM968.75 90.3405V58.7056H956.441V90.3405H968.75ZM962.596 64.8599H986.676V52.5514H962.596V64.8599ZM986.676 64.8599C991.758 64.8599 994.96 66.0252 996.773 67.4798C998.377 68.7669 999.565 70.8072 999.565 74.4444H1011.87C1011.87 67.694 1009.44 61.8649 1004.48 57.8796C999.718 54.0617 993.397 52.5514 986.676 52.5514V64.8599ZM999.565 74.4444V74.7592H1011.87V74.4444H999.565ZM1135.51 59.1778V65.3321H1141.66V59.1778H1135.51ZM1135.51 36.8288H1141.66V30.6745H1135.51V36.8288ZM1044.23 36.8288V30.6745H1038.07V36.8288H1044.23ZM1044.23 59.1778H1038.07V65.3321H1044.23V59.1778ZM1077.75 59.1778H1083.9V53.0235H1077.75V59.1778ZM1077.75 147H1071.59V153.154H1077.75V147ZM1101.99 147V153.154H1108.14V147H1101.99ZM1101.99 59.1778V53.0235H1095.83V59.1778H1101.99ZM1141.66 59.1778V36.8288H1129.36V59.1778H1141.66ZM1135.51 30.6745H1044.23V42.9831H1135.51V30.6745ZM1038.07 36.8288V59.1778H1050.38V36.8288H1038.07ZM1044.23 65.3321H1077.75V53.0235H1044.23V65.3321ZM1071.59 59.1778V147H1083.9V59.1778H1071.59ZM1077.75 153.154H1101.99V140.846H1077.75V153.154ZM1108.14 147V59.1778H1095.83V147H1108.14ZM1101.99 65.3321H1135.51V53.0235H1101.99V65.3321Z" fill="#1B0D59"/>
<path opacity="0.6" d="M93.5009 199.386L97.4466 194.664L93.5009 191.367L89.5551 194.664L93.5009 199.386ZM105.935 209.774L101.989 214.497L103.702 215.928H105.935V209.774ZM124.349 209.774V215.928H136.988L129.193 205.979L124.349 209.774ZM104.99 185.064L109.835 181.269L107.987 178.91H104.99V185.064ZM82.3264 185.064V178.91H79.3298L77.4818 181.269L82.3264 185.064ZM62.9677 209.774L58.1231 205.979L50.3282 215.928H62.9677V209.774ZM81.0673 209.774V215.928H83.2998L85.013 214.497L81.0673 209.774ZM158.361 273.516V273.201H146.052V273.516H158.361ZM158.361 273.201C158.361 238.427 131.155 210.387 93.8157 210.387V222.696C124.468 222.696 146.052 245.335 146.052 273.201H158.361ZM93.8157 210.387C56.4762 210.387 28.9559 238.742 28.9559 273.516H41.2644C41.2644 245.65 63.1638 222.696 93.8157 222.696V210.387ZM28.9559 273.516V273.831H41.2644V273.516H28.9559ZM28.9559 273.831C28.9559 308.605 56.1618 336.645 93.5009 336.645V324.336C62.8486 324.336 41.2644 301.697 41.2644 273.831H28.9559ZM93.5009 336.645C130.84 336.645 158.361 308.29 158.361 273.516H146.052C146.052 301.382 124.153 324.336 93.5009 324.336V336.645ZM120.713 273.831C120.713 289.704 109.56 301.987 93.8157 301.987V314.295C117.103 314.295 133.021 295.731 133.021 273.831H120.713ZM93.8157 301.987C78.0667 301.987 66.6038 289.384 66.6038 273.516H54.2952C54.2952 295.421 70.5326 314.295 93.8157 314.295V301.987ZM66.6038 273.516V273.201H54.2952V273.516H66.6038ZM66.6038 273.201C66.6038 257.328 77.7566 245.045 93.5009 245.045V232.736C70.2131 232.736 54.2952 251.301 54.2952 273.201H66.6038ZM93.5009 245.045C109.25 245.045 120.713 257.648 120.713 273.516H133.021C133.021 251.611 116.784 232.736 93.5009 232.736V245.045ZM120.713 273.516V273.831H133.021V273.516H120.713ZM89.5551 204.109L101.989 214.497L109.88 205.051L97.4466 194.664L89.5551 204.109ZM105.935 215.928H124.349V203.62H105.935V215.928ZM129.193 205.979L109.835 181.269L100.146 188.86L119.504 213.569L129.193 205.979ZM104.99 178.91H82.3264V191.218H104.99V178.91ZM77.4818 181.269L58.1231 205.979L67.8123 213.569L87.171 188.86L77.4818 181.269ZM62.9677 215.928H81.0673V203.62H62.9677V215.928ZM85.013 214.497L97.4466 204.109L89.5551 194.664L77.1215 205.051L85.013 214.497ZM283.878 328.602V334.756H290.033V328.602H283.878ZM283.878 218.43H290.033V212.276H283.878V218.43ZM257.752 218.43V212.276H254.331L252.525 215.181L257.752 218.43ZM228.793 265.017L223.566 268.266L228.793 276.674L234.019 268.266L228.793 265.017ZM199.833 218.43L205.06 215.181L203.254 212.276H199.833V218.43ZM173.707 218.43V212.276H167.553V218.43H173.707ZM173.707 328.602H167.553V334.756H173.707V328.602ZM197.473 328.602V334.756H203.627V328.602H197.473ZM197.473 257.148L202.612 253.762L191.318 236.619V257.148H197.473ZM228.163 303.734L223.024 307.12L224.848 309.889H228.163V303.734ZM228.793 303.734V309.889H232.108L233.932 307.12L228.793 303.734ZM259.798 256.675H265.952V236.149L254.659 253.29L259.798 256.675ZM259.798 328.602H253.644V334.756H259.798V328.602ZM290.033 328.602V218.43H277.724V328.602H290.033ZM283.878 212.276H257.752V224.585H283.878V212.276ZM252.525 215.181L223.566 261.768L234.019 268.266L262.979 221.679L252.525 215.181ZM234.019 261.768L205.06 215.181L194.607 221.679L223.566 268.266L234.019 261.768ZM199.833 212.276H173.707V224.585H199.833V212.276ZM167.553 218.43V328.602H179.861V218.43H167.553ZM173.707 334.756H197.473V322.447H173.707V334.756ZM203.627 328.602V257.148H191.318V328.602H203.627ZM192.333 260.533L223.024 307.12L233.302 300.349L202.612 253.762L192.333 260.533ZM228.163 309.889H228.793V297.58H228.163V309.889ZM233.932 307.12L264.937 260.061L254.659 253.29L223.653 300.348L233.932 307.12ZM253.644 256.675V328.602H265.952V256.675H253.644ZM259.798 334.756H283.878V322.447H259.798V334.756ZM394.233 328.602V334.756H400.387V328.602H394.233ZM394.233 307.039H400.387V300.885H394.233V307.039ZM334.425 307.039H328.271V313.194H334.425V307.039ZM334.425 283.904V277.749H328.271V283.904H334.425ZM386.363 283.904V290.058H392.518V283.904H386.363ZM386.363 262.341H392.518V256.187H386.363V262.341ZM334.425 262.341H328.271V268.496H334.425V262.341ZM334.425 239.992V233.838H328.271V239.992H334.425ZM393.446 239.992V246.147H399.6V239.992H393.446ZM393.446 218.43H399.6V212.276H393.446V218.43ZM310.345 218.43V212.276H304.191V218.43H310.345ZM310.345 328.602H304.191V334.756H310.345V328.602ZM400.387 328.602V307.039H388.078V328.602H400.387ZM394.233 300.885H334.425V313.194H394.233V300.885ZM340.58 307.039V283.904H328.271V307.039H340.58ZM334.425 290.058H386.363V277.749H334.425V290.058ZM392.518 283.904V262.341H380.209V283.904H392.518ZM386.363 256.187H334.425V268.496H386.363V256.187ZM340.58 262.341V239.992H328.271V262.341H340.58ZM334.425 246.147H393.446V233.838H334.425V246.147ZM399.6 239.992V218.43H387.291V239.992H399.6ZM393.446 212.276H310.345V224.585H393.446V212.276ZM304.191 218.43V328.602H316.499V218.43H304.191ZM310.345 334.756H394.233V322.447H310.345V334.756ZM511.002 328.602V334.756H522.668L516.081 325.127L511.002 328.602ZM484.089 289.255L481.949 283.484L474.559 286.224L479.009 292.729L484.089 289.255ZM415.782 218.43V212.276H409.628V218.43H415.782ZM415.782 328.602H409.628V334.756H415.782V328.602ZM440.02 328.602V334.756H446.174V328.602H440.02ZM440.02 293.347V287.192H433.866V293.347H440.02ZM459.064 293.347L464.178 289.922L462.349 287.192H459.064V293.347ZM482.672 328.602L477.558 332.026L479.387 334.756H482.672V328.602ZM440.02 271.942H433.866V278.096H440.02V271.942ZM440.02 240.307V234.153H433.866V240.307H440.02ZM516.081 325.127L489.168 285.78L479.009 292.729L505.922 332.076L516.081 325.127ZM486.228 295.025C494.152 292.087 501.124 287.342 506.11 280.537C511.119 273.7 513.851 265.15 513.851 255.102H501.542C501.542 262.838 499.474 268.768 496.181 273.263C492.864 277.79 488.033 281.228 481.949 283.484L486.228 295.025ZM513.851 255.102V254.787H501.542V255.102H513.851ZM513.851 254.787C513.851 241.963 509.388 231.078 500.715 223.48C492.146 215.973 480.159 212.276 466.146 212.276V224.585C478.103 224.585 486.891 227.734 492.605 232.739C498.214 237.653 501.542 244.947 501.542 254.787H513.851ZM466.146 212.276H415.782V224.585H466.146V212.276ZM409.628 218.43V328.602H421.937V218.43H409.628ZM415.782 334.756H440.02V322.447H415.782V334.756ZM446.174 328.602V293.347H433.866V328.602H446.174ZM440.02 299.501H459.064V287.192H440.02V299.501ZM453.95 296.771L477.558 332.026L487.786 325.177L464.178 289.922L453.95 296.771ZM482.672 334.756H511.002V322.447H482.672V334.756ZM476.99 256.361C476.99 259.414 475.932 261.534 474.263 262.975C472.499 264.498 469.425 265.788 464.573 265.788V278.096C471.524 278.096 477.736 276.238 482.307 272.292C486.972 268.264 489.299 262.593 489.299 256.361H476.99ZM464.573 265.788H440.02V278.096H464.573V265.788ZM446.174 271.942V240.307H433.866V271.942H446.174ZM440.02 246.461H464.1V234.153H440.02V246.461ZM464.1 246.461C469.183 246.461 472.384 247.627 474.197 249.081C475.801 250.368 476.99 252.409 476.99 256.046H489.299C489.299 249.296 486.867 243.466 481.9 239.481C477.142 235.663 470.822 234.153 464.1 234.153V246.461ZM476.99 256.046V256.361H489.299V256.046H476.99ZM621.403 262.656L622.955 256.701L622.943 256.698L622.93 256.694L621.403 262.656ZM640.447 249.121L636.94 254.178L642.01 257.695L645.513 252.615L640.447 249.121ZM653.038 230.864L658.104 234.358L661.353 229.647L656.891 226.065L653.038 230.864ZM610.071 284.061L611.6 278.099L611.594 278.098L610.071 284.061ZM583.473 295.393L587.39 290.646L582.67 286.751L578.748 291.449L583.473 295.393ZM569.15 312.548L564.426 308.604L560.611 313.174L565.051 317.139L569.15 312.548ZM662.497 296.022V295.708H650.189V296.022H662.497ZM662.497 295.708C662.497 284.518 658.716 275.937 651.278 269.509C644.221 263.41 634.33 259.665 622.955 256.701L619.851 268.612C630.825 271.471 638.404 274.651 643.23 278.821C647.675 282.663 650.189 287.696 650.189 295.708H662.497ZM622.93 256.694C613.196 254.201 608.173 252.578 605.511 251.004C604.355 250.32 604.095 249.894 604.036 249.79C603.978 249.685 603.792 249.321 603.792 248.177H591.483C591.483 250.652 591.887 253.298 593.309 255.825C594.731 258.352 596.842 260.178 599.247 261.6C603.707 264.236 610.566 266.233 619.876 268.618L622.93 256.694ZM603.792 248.177V247.862H591.483V248.177H603.792ZM603.792 247.862C603.792 247.258 603.984 246.667 604.857 246.032C605.879 245.289 608.02 244.415 611.802 244.415V232.107C606.299 232.107 601.358 233.358 597.618 236.078C593.73 238.905 591.483 243.115 591.483 247.862H603.792ZM611.802 244.415C619.304 244.415 627.667 247.747 636.94 254.178L643.954 244.064C633.711 236.96 622.872 232.107 611.802 232.107V244.415ZM645.513 252.615L658.104 234.358L647.972 227.37L635.381 245.627L645.513 252.615ZM656.891 226.065C644.605 216.202 629.548 210.702 612.117 210.702V223.011C626.793 223.011 639.121 227.584 649.185 235.663L656.891 226.065ZM612.117 210.702C599.69 210.702 588.551 214.356 580.411 221.276C572.186 228.269 567.403 238.296 567.403 250.065H579.711C579.711 241.847 582.955 235.269 588.383 230.654C593.897 225.967 602.037 223.011 612.117 223.011V210.702ZM567.403 250.065V250.38H579.711V250.065H567.403ZM567.403 250.38C567.403 262.938 571.652 271.843 579.697 278.144C587.192 284.015 597.519 287.208 608.549 290.024L611.594 278.098C600.431 275.248 592.502 272.539 587.287 268.455C582.624 264.802 579.711 259.698 579.711 250.38H567.403ZM608.542 290.022C617.806 292.397 622.402 294.164 624.68 295.668C625.67 296.323 625.885 296.717 625.927 296.798C625.971 296.883 626.108 297.169 626.108 298.068H638.417C638.417 295.899 638.082 293.489 636.843 291.111C635.601 288.727 633.72 286.889 631.464 285.398C627.25 282.614 620.751 280.446 611.6 278.099L608.542 290.022ZM626.108 298.068V298.383H638.417V298.068H626.108ZM626.108 298.383C626.108 299.392 625.782 300.115 624.662 300.848C623.281 301.752 620.631 302.616 616.367 302.616V314.925C622.017 314.925 627.315 313.822 631.404 311.146C635.753 308.298 638.417 303.828 638.417 298.383H626.108ZM616.367 302.616C605.687 302.616 596.642 298.283 587.39 290.646L579.555 300.139C590.134 308.871 601.864 314.925 616.367 314.925V302.616ZM578.748 291.449L564.426 308.604L573.875 316.492L588.197 299.337L578.748 291.449ZM565.051 317.139C579.471 330.014 597.798 336.33 615.894 336.33V324.021C600.624 324.021 585.27 318.69 573.249 307.957L565.051 317.139ZM615.894 336.33C628.766 336.33 640.384 333.009 648.912 326.079C657.595 319.023 662.497 308.677 662.497 296.022H650.189C650.189 305.245 646.75 311.975 641.149 316.527C635.395 321.203 626.788 324.021 615.894 324.021V336.33ZM787.549 328.602V334.756H793.703V328.602H787.549ZM787.549 218.43H793.703V212.276H787.549V218.43ZM761.422 218.43V212.276H758.002L756.196 215.181L761.422 218.43ZM732.463 265.017L727.236 268.266L732.463 276.674L737.69 268.266L732.463 265.017ZM703.504 218.43L708.731 215.181L706.925 212.276H703.504V218.43ZM677.378 218.43V212.276H671.223V218.43H677.378ZM677.378 328.602H671.223V334.756H677.378V328.602ZM701.143 328.602V334.756H707.297V328.602H701.143ZM701.143 257.148L706.282 253.762L694.989 236.619V257.148H701.143ZM731.834 303.734L726.694 307.12L728.518 309.889H731.834V303.734ZM732.463 303.734V309.889H735.778L737.602 307.12L732.463 303.734ZM763.468 256.675H769.623V236.149L758.329 253.29L763.468 256.675ZM763.468 328.602H757.314V334.756H763.468V328.602ZM793.703 328.602V218.43H781.394V328.602H793.703ZM787.549 212.276H761.422V224.585H787.549V212.276ZM756.196 215.181L727.236 261.768L737.69 268.266L766.649 221.679L756.196 215.181ZM737.69 261.768L708.731 215.181L698.277 221.679L727.236 268.266L737.69 261.768ZM703.504 212.276H677.378V224.585H703.504V212.276ZM671.223 218.43V328.602H683.532V218.43H671.223ZM677.378 334.756H701.143V322.447H677.378V334.756ZM707.297 328.602V257.148H694.989V328.602H707.297ZM696.004 260.533L726.694 307.12L736.973 300.349L706.282 253.762L696.004 260.533ZM731.834 309.889H732.463V297.58H731.834V309.889ZM737.602 307.12L768.608 260.061L758.329 253.29L727.324 300.348L737.602 307.12ZM757.314 256.675V328.602H769.623V256.675H757.314ZM763.468 334.756H787.549V322.447H763.468V334.756ZM921.354 328.602V334.756H930.661L927.017 326.192L921.354 328.602ZM874.138 217.643L879.801 215.234L878.207 211.489H874.138V217.643ZM851.789 217.643V211.489H847.719L846.126 215.234L851.789 217.643ZM804.572 328.602L798.909 326.192L795.265 334.756H804.572V328.602ZM829.282 328.602V334.756H833.419L834.981 330.925L829.282 328.602ZM839.355 303.892V297.737H835.218L833.656 301.569L839.355 303.892ZM885.942 303.892L891.641 301.569L890.079 297.737H885.942V303.892ZM896.015 328.602L890.316 330.925L891.877 334.756H896.015V328.602ZM877.285 282.487V288.641H886.458L882.98 280.154L877.285 282.487ZM848.011 282.487L842.316 280.154L838.839 288.641H848.011V282.487ZM862.648 246.76L868.343 244.427L862.648 230.527L856.953 244.427L862.648 246.76ZM927.017 326.192L879.801 215.234L868.475 220.053L915.691 331.011L927.017 326.192ZM874.138 211.489H851.789V223.798H874.138V211.489ZM846.126 215.234L798.909 326.192L810.235 331.011L857.452 220.053L846.126 215.234ZM804.572 334.756H829.282V322.447H804.572V334.756ZM834.981 330.925L845.054 306.215L833.656 301.569L823.583 326.278L834.981 330.925ZM839.355 310.046H885.942V297.737H839.355V310.046ZM880.243 306.215L890.316 330.925L901.714 326.278L891.641 301.569L880.243 306.215ZM896.015 334.756H921.354V322.447H896.015V334.756ZM877.285 276.333H848.011V288.641H877.285V276.333ZM853.706 284.82L868.343 249.093L856.953 244.427L842.316 280.154L853.706 284.82ZM856.953 249.093L871.591 284.82L882.98 280.154L868.343 244.427L856.953 249.093ZM1033.58 328.602V334.756H1045.24L1038.66 325.127L1033.58 328.602ZM1006.66 289.255L1004.52 283.484L997.135 286.224L1001.58 292.729L1006.66 289.255ZM938.358 218.43V212.276H932.204V218.43H938.358ZM938.358 328.602H932.204V334.756H938.358V328.602ZM962.596 328.602V334.756H968.75V328.602H962.596ZM962.596 293.347V287.192H956.441V293.347H962.596ZM981.639 293.347L986.753 289.922L984.925 287.192H981.639V293.347ZM1005.25 328.602L1000.13 332.026L1001.96 334.756H1005.25V328.602ZM962.596 271.942H956.441V278.096H962.596V271.942ZM962.596 240.307V234.153H956.441V240.307H962.596ZM1038.66 325.127L1011.74 285.78L1001.58 292.729L1028.5 332.076L1038.66 325.127ZM1008.8 295.025C1016.73 292.087 1023.7 287.342 1028.69 280.537C1033.69 273.7 1036.43 265.15 1036.43 255.102H1024.12C1024.12 262.838 1022.05 268.768 1018.76 273.263C1015.44 277.79 1010.61 281.228 1004.52 283.484L1008.8 295.025ZM1036.43 255.102V254.787H1024.12V255.102H1036.43ZM1036.43 254.787C1036.43 241.963 1031.96 231.078 1023.29 223.48C1014.72 215.973 1002.73 212.276 988.722 212.276V224.585C1000.68 224.585 1009.47 227.734 1015.18 232.739C1020.79 237.653 1024.12 244.947 1024.12 254.787H1036.43ZM988.722 212.276H938.358V224.585H988.722V212.276ZM932.204 218.43V328.602H944.512V218.43H932.204ZM938.358 334.756H962.596V322.447H938.358V334.756ZM968.75 328.602V293.347H956.441V328.602H968.75ZM962.596 299.501H981.639V287.192H962.596V299.501ZM976.526 296.771L1000.13 332.026L1010.36 325.177L986.753 289.922L976.526 296.771ZM1005.25 334.756H1033.58V322.447H1005.25V334.756ZM999.565 256.361C999.565 259.414 998.508 261.534 996.839 262.975C995.075 264.498 992 265.788 987.148 265.788V278.096C994.099 278.096 1000.31 276.238 1004.88 272.292C1009.55 268.264 1011.87 262.593 1011.87 256.361H999.565ZM987.148 265.788H962.596V278.096H987.148V265.788ZM968.75 271.942V240.307H956.441V271.942H968.75ZM962.596 246.461H986.676V234.153H962.596V246.461ZM986.676 246.461C991.758 246.461 994.96 247.627 996.773 249.081C998.377 250.368 999.565 252.409 999.565 256.046H1011.87C1011.87 249.296 1009.44 243.466 1004.48 239.481C999.718 235.663 993.397 234.153 986.676 234.153V246.461ZM999.565 256.046V256.361H1011.87V256.046H999.565ZM1135.51 240.779V246.934H1141.66V240.779H1135.51ZM1135.51 218.43H1141.66V212.276H1135.51V218.43ZM1044.23 218.43V212.276H1038.07V218.43H1044.23ZM1044.23 240.779H1038.07V246.934H1044.23V240.779ZM1077.75 240.779H1083.9V234.625H1077.75V240.779ZM1077.75 328.602H1071.59V334.756H1077.75V328.602ZM1101.99 328.602V334.756H1108.14V328.602H1101.99ZM1101.99 240.779V234.625H1095.83V240.779H1101.99ZM1141.66 240.779V218.43H1129.36V240.779H1141.66ZM1135.51 212.276H1044.23V224.585H1135.51V212.276ZM1038.07 218.43V240.779H1050.38V218.43H1038.07ZM1044.23 246.934H1077.75V234.625H1044.23V246.934ZM1071.59 240.779V328.602H1083.9V240.779H1071.59ZM1077.75 334.756H1101.99V322.447H1077.75V334.756ZM1108.14 328.602V240.779H1095.83V328.602H1108.14ZM1101.99 246.934H1135.51V234.625H1101.99V246.934Z" fill="#1B0D59"/>
<path opacity="0.3" d="M93.5009 376.951L97.4466 372.228L93.5009 368.932L89.5551 372.228L93.5009 376.951ZM105.935 387.338L101.989 392.061L103.702 393.493H105.935V387.338ZM124.349 387.338V393.493H136.988L129.193 383.543L124.349 387.338ZM104.99 362.629L109.835 358.833L107.987 356.474H104.99V362.629ZM82.3264 362.629V356.474H79.3298L77.4818 358.833L82.3264 362.629ZM62.9677 387.338L58.1231 383.543L50.3282 393.493H62.9677V387.338ZM81.0673 387.338V393.493H83.2998L85.013 392.061L81.0673 387.338ZM158.361 451.08V450.766H146.052V451.08H158.361ZM158.361 450.766C158.361 415.991 131.155 387.952 93.8157 387.952V400.26C124.468 400.26 146.052 422.9 146.052 450.766H158.361ZM93.8157 387.952C56.4762 387.952 28.9559 416.307 28.9559 451.08H41.2644C41.2644 423.214 63.1638 400.26 93.8157 400.26V387.952ZM28.9559 451.08V451.395H41.2644V451.08H28.9559ZM28.9559 451.395C28.9559 486.169 56.1618 514.209 93.5009 514.209V501.9C62.8486 501.9 41.2644 479.261 41.2644 451.395H28.9559ZM93.5009 514.209C130.84 514.209 158.361 485.854 158.361 451.08H146.052C146.052 478.947 124.153 501.9 93.5009 501.9V514.209ZM120.713 451.395C120.713 467.268 109.56 479.551 93.8157 479.551V491.86C117.103 491.86 133.021 473.295 133.021 451.395H120.713ZM93.8157 479.551C78.0667 479.551 66.6038 466.948 66.6038 451.08H54.2952C54.2952 472.986 70.5326 491.86 93.8157 491.86V479.551ZM66.6038 451.08V450.766H54.2952V451.08H66.6038ZM66.6038 450.766C66.6038 434.893 77.7566 422.609 93.5009 422.609V410.301C70.2131 410.301 54.2952 428.865 54.2952 450.766H66.6038ZM93.5009 422.609C109.25 422.609 120.713 435.213 120.713 451.08H133.021C133.021 429.175 116.784 410.301 93.5009 410.301V422.609ZM120.713 451.08V451.395H133.021V451.08H120.713ZM89.5551 381.674L101.989 392.061L109.88 382.616L97.4466 372.228L89.5551 381.674ZM105.935 393.493H124.349V381.184H105.935V393.493ZM129.193 383.543L109.835 358.833L100.146 366.424L119.504 391.134L129.193 383.543ZM104.99 356.474H82.3264V368.783H104.99V356.474ZM77.4818 358.833L58.1231 383.543L67.8123 391.134L87.171 366.424L77.4818 358.833ZM62.9677 393.493H81.0673V381.184H62.9677V393.493ZM85.013 392.061L97.4466 381.674L89.5551 372.228L77.1215 382.616L85.013 392.061ZM283.878 506.166V512.32H290.033V506.166H283.878ZM283.878 395.995H290.033V389.841H283.878V395.995ZM257.752 395.995V389.841H254.331L252.525 392.746L257.752 395.995ZM228.793 442.581L223.566 445.831L228.793 454.239L234.019 445.831L228.793 442.581ZM199.833 395.995L205.06 392.746L203.254 389.841H199.833V395.995ZM173.707 395.995V389.841H167.553V395.995H173.707ZM173.707 506.166H167.553V512.32H173.707V506.166ZM197.473 506.166V512.32H203.627V506.166H197.473ZM197.473 434.712L202.612 431.326L191.318 414.183V434.712H197.473ZM228.163 481.299L223.024 484.684L224.848 487.453H228.163V481.299ZM228.793 481.299V487.453H232.108L233.932 484.685L228.793 481.299ZM259.798 434.24H265.952V413.713L254.659 430.854L259.798 434.24ZM259.798 506.166H253.644V512.32H259.798V506.166ZM290.033 506.166V395.995H277.724V506.166H290.033ZM283.878 389.841H257.752V402.149H283.878V389.841ZM252.525 392.746L223.566 439.332L234.019 445.831L262.979 399.244L252.525 392.746ZM234.019 439.332L205.06 392.746L194.607 399.244L223.566 445.831L234.019 439.332ZM199.833 389.841H173.707V402.149H199.833V389.841ZM167.553 395.995V506.166H179.861V395.995H167.553ZM173.707 512.32H197.473V500.012H173.707V512.32ZM203.627 506.166V434.712H191.318V506.166H203.627ZM192.333 438.098L223.024 484.684L233.302 477.913L202.612 431.326L192.333 438.098ZM228.163 487.453H228.793V475.145H228.163V487.453ZM233.932 484.685L264.937 437.626L254.659 430.854L223.653 477.913L233.932 484.685ZM253.644 434.24V506.166H265.952V434.24H253.644ZM259.798 512.32H283.878V500.012H259.798V512.32ZM394.233 506.166V512.32H400.387V506.166H394.233ZM394.233 484.604H400.387V478.45H394.233V484.604ZM334.425 484.604H328.271V490.758H334.425V484.604ZM334.425 461.468V455.314H328.271V461.468H334.425ZM386.363 461.468V467.622H392.518V461.468H386.363ZM386.363 439.906H392.518V433.752H386.363V439.906ZM334.425 439.906H328.271V446.06H334.425V439.906ZM334.425 417.557V411.403H328.271V417.557H334.425ZM393.446 417.557V423.711H399.6V417.557H393.446ZM393.446 395.995H399.6V389.841H393.446V395.995ZM310.345 395.995V389.841H304.191V395.995H310.345ZM310.345 506.166H304.191V512.32H310.345V506.166ZM400.387 506.166V484.604H388.078V506.166H400.387ZM394.233 478.45H334.425V490.758H394.233V478.45ZM340.58 484.604V461.468H328.271V484.604H340.58ZM334.425 467.622H386.363V455.314H334.425V467.622ZM392.518 461.468V439.906H380.209V461.468H392.518ZM386.363 433.752H334.425V446.06H386.363V433.752ZM340.58 439.906V417.557H328.271V439.906H340.58ZM334.425 423.711H393.446V411.403H334.425V423.711ZM399.6 417.557V395.995H387.291V417.557H399.6ZM393.446 389.841H310.345V402.149H393.446V389.841ZM304.191 395.995V506.166H316.499V395.995H304.191ZM310.345 512.32H394.233V500.012H310.345V512.32ZM511.002 506.166V512.32H522.668L516.081 502.692L511.002 506.166ZM484.089 466.819L481.949 461.049L474.559 463.789L479.009 470.294L484.089 466.819ZM415.782 395.995V389.841H409.628V395.995H415.782ZM415.782 506.166H409.628V512.32H415.782V506.166ZM440.02 506.166V512.32H446.174V506.166H440.02ZM440.02 470.911V464.757H433.866V470.911H440.02ZM459.064 470.911L464.178 467.487L462.349 464.757H459.064V470.911ZM482.672 506.166L477.558 509.59L479.387 512.32H482.672V506.166ZM440.02 449.507H433.866V455.661H440.02V449.507ZM440.02 417.872V411.717H433.866V417.872H440.02ZM516.081 502.692L489.168 463.345L479.009 470.294L505.922 509.641L516.081 502.692ZM486.228 472.59C494.152 469.652 501.124 464.906 506.11 458.101C511.119 451.264 513.851 442.715 513.851 432.666H501.542C501.542 440.402 499.474 446.332 496.181 450.827C492.864 455.354 488.033 458.793 481.949 461.049L486.228 472.59ZM513.851 432.666V432.351H501.542V432.666H513.851ZM513.851 432.351C513.851 419.527 509.388 408.643 500.715 401.045C492.146 393.538 480.159 389.841 466.146 389.841V402.149C478.103 402.149 486.891 405.298 492.605 410.303C498.214 415.218 501.542 422.512 501.542 432.351H513.851ZM466.146 389.841H415.782V402.149H466.146V389.841ZM409.628 395.995V506.166H421.937V395.995H409.628ZM415.782 512.32H440.02V500.012H415.782V512.32ZM446.174 506.166V470.911H433.866V506.166H446.174ZM440.02 477.066H459.064V464.757H440.02V477.066ZM453.95 474.336L477.558 509.59L487.786 502.742L464.178 467.487L453.95 474.336ZM482.672 512.32H511.002V500.012H482.672V512.32ZM476.99 433.925C476.99 436.979 475.932 439.098 474.263 440.54C472.499 442.063 469.425 443.352 464.573 443.352V455.661C471.524 455.661 477.736 453.803 482.307 449.856C486.972 445.828 489.299 440.158 489.299 433.925H476.99ZM464.573 443.352H440.02V455.661H464.573V443.352ZM446.174 449.507V417.872H433.866V449.507H446.174ZM440.02 424.026H464.1V411.717H440.02V424.026ZM464.1 424.026C469.183 424.026 472.384 425.191 474.197 426.646C475.801 427.933 476.99 429.973 476.99 433.61H489.299C489.299 426.86 486.867 421.031 481.9 417.046C477.142 413.228 470.822 411.717 464.1 411.717V424.026ZM476.99 433.61V433.925H489.299V433.61H476.99ZM621.403 440.221L622.955 434.265L622.943 434.262L622.93 434.259L621.403 440.221ZM640.447 426.685L636.94 431.742L642.01 435.259L645.513 430.179L640.447 426.685ZM653.038 408.428L658.104 411.922L661.353 407.212L656.891 403.629L653.038 408.428ZM610.071 461.625L611.6 455.664L611.594 455.662L610.071 461.625ZM583.473 472.957L587.39 468.211L582.67 464.315L578.748 469.013L583.473 472.957ZM569.15 490.113L564.426 486.168L560.611 490.738L565.051 494.703L569.15 490.113ZM662.497 473.587V473.272H650.189V473.587H662.497ZM662.497 473.272C662.497 462.083 658.716 453.501 651.278 447.073C644.221 440.974 634.33 437.229 622.955 434.265L619.851 446.176C630.825 449.036 638.404 452.215 643.23 456.386C647.675 460.227 650.189 465.26 650.189 473.272H662.497ZM622.93 434.259C613.196 431.765 608.173 430.142 605.511 428.568C604.355 427.885 604.095 427.458 604.036 427.354C603.978 427.25 603.792 426.886 603.792 425.741H591.483C591.483 428.216 591.887 430.862 593.309 433.389C594.731 435.917 596.842 437.742 599.247 439.164C603.707 441.8 610.566 443.797 619.876 446.182L622.93 434.259ZM603.792 425.741V425.426H591.483V425.741H603.792ZM603.792 425.426C603.792 424.822 603.984 424.231 604.857 423.596C605.879 422.854 608.02 421.98 611.802 421.98V409.671C606.299 409.671 601.358 410.922 597.618 413.642C593.73 416.47 591.483 420.679 591.483 425.426H603.792ZM611.802 421.98C619.304 421.98 627.667 425.311 636.94 431.742L643.954 421.628C633.711 414.524 622.872 409.671 611.802 409.671V421.98ZM645.513 430.179L658.104 411.922L647.972 404.934L635.381 423.191L645.513 430.179ZM656.891 403.629C644.605 393.766 629.548 388.267 612.117 388.267V400.575C626.793 400.575 639.121 405.148 649.185 413.227L656.891 403.629ZM612.117 388.267C599.69 388.267 588.551 391.921 580.411 398.841C572.186 405.833 567.403 415.86 567.403 427.63H579.711C579.711 419.411 582.955 412.834 588.383 408.219C593.897 403.532 602.037 400.575 612.117 400.575V388.267ZM567.403 427.63V427.944H579.711V427.63H567.403ZM567.403 427.944C567.403 440.503 571.652 449.407 579.697 455.709C587.192 461.579 597.519 464.772 608.549 467.588L611.594 455.662C600.431 452.812 592.502 450.103 587.287 446.019C582.624 442.366 579.711 437.263 579.711 427.944H567.403ZM608.542 467.587C617.806 469.962 622.402 471.728 624.68 473.233C625.67 473.887 625.885 474.282 625.927 474.362C625.971 474.448 626.108 474.733 626.108 475.633H638.417C638.417 473.463 638.082 471.054 636.843 468.675C635.601 466.292 633.72 464.453 631.464 462.963C627.25 460.179 620.751 458.01 611.6 455.664L608.542 467.587ZM626.108 475.633V475.948H638.417V475.633H626.108ZM626.108 475.948C626.108 476.956 625.782 477.679 624.662 478.412C623.281 479.316 620.631 480.181 616.367 480.181V492.489C622.017 492.489 627.315 491.387 631.404 488.71C635.753 485.863 638.417 481.392 638.417 475.948H626.108ZM616.367 480.181C605.687 480.181 596.642 475.848 587.39 468.211L579.555 477.704C590.134 486.435 601.864 492.489 616.367 492.489V480.181ZM578.748 469.013L564.426 486.168L573.875 494.057L588.197 476.901L578.748 469.013ZM565.051 494.703C579.471 507.578 597.798 513.894 615.894 513.894V501.586C600.624 501.586 585.27 496.255 573.249 485.522L565.051 494.703ZM615.894 513.894C628.766 513.894 640.384 510.574 648.912 503.643C657.595 496.587 662.497 486.241 662.497 473.587H650.189C650.189 482.809 646.75 489.54 641.149 494.091C635.395 498.768 626.788 501.586 615.894 501.586V513.894ZM787.549 506.166V512.32H793.703V506.166H787.549ZM787.549 395.995H793.703V389.841H787.549V395.995ZM761.422 395.995V389.841H758.002L756.196 392.746L761.422 395.995ZM732.463 442.581L727.236 445.831L732.463 454.239L737.69 445.831L732.463 442.581ZM703.504 395.995L708.731 392.746L706.925 389.841H703.504V395.995ZM677.378 395.995V389.841H671.223V395.995H677.378ZM677.378 506.166H671.223V512.32H677.378V506.166ZM701.143 506.166V512.32H707.297V506.166H701.143ZM701.143 434.712L706.282 431.326L694.989 414.183V434.712H701.143ZM731.834 481.299L726.694 484.684L728.518 487.453H731.834V481.299ZM732.463 481.299V487.453H735.778L737.602 484.685L732.463 481.299ZM763.468 434.24H769.623V413.713L758.329 430.854L763.468 434.24ZM763.468 506.166H757.314V512.32H763.468V506.166ZM793.703 506.166V395.995H781.394V506.166H793.703ZM787.549 389.841H761.422V402.149H787.549V389.841ZM756.196 392.746L727.236 439.332L737.69 445.831L766.649 399.244L756.196 392.746ZM737.69 439.332L708.731 392.746L698.277 399.244L727.236 445.831L737.69 439.332ZM703.504 389.841H677.378V402.149H703.504V389.841ZM671.223 395.995V506.166H683.532V395.995H671.223ZM677.378 512.32H701.143V500.012H677.378V512.32ZM707.297 506.166V434.712H694.989V506.166H707.297ZM696.004 438.098L726.694 484.684L736.973 477.913L706.282 431.326L696.004 438.098ZM731.834 487.453H732.463V475.145H731.834V487.453ZM737.602 484.685L768.608 437.626L758.329 430.854L727.324 477.913L737.602 484.685ZM757.314 434.24V506.166H769.623V434.24H757.314ZM763.468 512.32H787.549V500.012H763.468V512.32ZM921.354 506.166V512.32H930.661L927.017 503.756L921.354 506.166ZM874.138 395.208L879.801 392.798L878.207 389.054H874.138V395.208ZM851.789 395.208V389.054H847.719L846.126 392.798L851.789 395.208ZM804.572 506.166L798.909 503.756L795.265 512.32H804.572V506.166ZM829.282 506.166V512.32H833.419L834.981 508.489L829.282 506.166ZM839.355 481.456V475.302H835.218L833.656 479.133L839.355 481.456ZM885.942 481.456L891.641 479.133L890.079 475.302H885.942V481.456ZM896.015 506.166L890.316 508.489L891.877 512.32H896.015V506.166ZM877.285 460.051V466.206H886.458L882.98 457.718L877.285 460.051ZM848.011 460.051L842.316 457.718L838.839 466.206H848.011V460.051ZM862.648 424.325L868.343 421.991L862.648 408.091L856.953 421.991L862.648 424.325ZM927.017 503.756L879.801 392.798L868.475 397.618L915.691 508.576L927.017 503.756ZM874.138 389.054H851.789V401.362H874.138V389.054ZM846.126 392.798L798.909 503.756L810.235 508.576L857.452 397.618L846.126 392.798ZM804.572 512.32H829.282V500.012H804.572V512.32ZM834.981 508.489L845.054 483.779L833.656 479.133L823.583 503.843L834.981 508.489ZM839.355 487.61H885.942V475.302H839.355V487.61ZM880.243 483.779L890.316 508.489L901.714 503.843L891.641 479.133L880.243 483.779ZM896.015 512.32H921.354V500.012H896.015V512.32ZM877.285 453.897H848.011V466.206H877.285V453.897ZM853.706 462.385L868.343 426.658L856.953 421.991L842.316 457.718L853.706 462.385ZM856.953 426.658L871.591 462.385L882.98 457.718L868.343 421.991L856.953 426.658ZM1033.58 506.166V512.32H1045.24L1038.66 502.692L1033.58 506.166ZM1006.66 466.819L1004.52 461.049L997.135 463.789L1001.58 470.294L1006.66 466.819ZM938.358 395.995V389.841H932.204V395.995H938.358ZM938.358 506.166H932.204V512.32H938.358V506.166ZM962.596 506.166V512.32H968.75V506.166H962.596ZM962.596 470.911V464.757H956.441V470.911H962.596ZM981.639 470.911L986.753 467.487L984.925 464.757H981.639V470.911ZM1005.25 506.166L1000.13 509.59L1001.96 512.32H1005.25V506.166ZM962.596 449.507H956.441V455.661H962.596V449.507ZM962.596 417.872V411.717H956.441V417.872H962.596ZM1038.66 502.692L1011.74 463.345L1001.58 470.294L1028.5 509.641L1038.66 502.692ZM1008.8 472.59C1016.73 469.652 1023.7 464.906 1028.69 458.101C1033.69 451.264 1036.43 442.715 1036.43 432.666H1024.12C1024.12 440.402 1022.05 446.332 1018.76 450.827C1015.44 455.354 1010.61 458.793 1004.52 461.049L1008.8 472.59ZM1036.43 432.666V432.351H1024.12V432.666H1036.43ZM1036.43 432.351C1036.43 419.527 1031.96 408.643 1023.29 401.045C1014.72 393.538 1002.73 389.841 988.722 389.841V402.149C1000.68 402.149 1009.47 405.298 1015.18 410.303C1020.79 415.218 1024.12 422.512 1024.12 432.351H1036.43ZM988.722 389.841H938.358V402.149H988.722V389.841ZM932.204 395.995V506.166H944.512V395.995H932.204ZM938.358 512.32H962.596V500.012H938.358V512.32ZM968.75 506.166V470.911H956.441V506.166H968.75ZM962.596 477.066H981.639V464.757H962.596V477.066ZM976.526 474.336L1000.13 509.59L1010.36 502.742L986.753 467.487L976.526 474.336ZM1005.25 512.32H1033.58V500.012H1005.25V512.32ZM999.565 433.925C999.565 436.979 998.508 439.098 996.839 440.54C995.075 442.063 992 443.352 987.148 443.352V455.661C994.099 455.661 1000.31 453.803 1004.88 449.856C1009.55 445.828 1011.87 440.158 1011.87 433.925H999.565ZM987.148 443.352H962.596V455.661H987.148V443.352ZM968.75 449.507V417.872H956.441V449.507H968.75ZM962.596 424.026H986.676V411.717H962.596V424.026ZM986.676 424.026C991.758 424.026 994.96 425.191 996.773 426.646C998.377 427.933 999.565 429.973 999.565 433.61H1011.87C1011.87 426.86 1009.44 421.031 1004.48 417.046C999.718 413.228 993.397 411.717 986.676 411.717V424.026ZM999.565 433.61V433.925H1011.87V433.61H999.565ZM1135.51 418.344V424.498H1141.66V418.344H1135.51ZM1135.51 395.995H1141.66V389.841H1135.51V395.995ZM1044.23 395.995V389.841H1038.07V395.995H1044.23ZM1044.23 418.344H1038.07V424.498H1044.23V418.344ZM1077.75 418.344H1083.9V412.19H1077.75V418.344ZM1077.75 506.166H1071.59V512.32H1077.75V506.166ZM1101.99 506.166V512.32H1108.14V506.166H1101.99ZM1101.99 418.344V412.19H1095.83V418.344H1101.99ZM1141.66 418.344V395.995H1129.36V418.344H1141.66ZM1135.51 389.841H1044.23V402.149H1135.51V389.841ZM1038.07 395.995V418.344H1050.38V395.995H1038.07ZM1044.23 424.498H1077.75V412.19H1044.23V424.498ZM1071.59 418.344V506.166H1083.9V418.344H1071.59ZM1077.75 512.32H1101.99V500.012H1077.75V512.32ZM1108.14 506.166V418.344H1095.83V506.166H1108.14ZM1101.99 424.498H1135.51V412.19H1101.99V424.498Z" fill="#1B0D59"/>
</svg>
