<svg width="1204" height="389" viewBox="0 0 1204 389" fill="none" xmlns="http://www.w3.org/2000/svg">
<path d="M186.644 386.962V390.381H191.815L189.79 385.623L186.644 386.962ZM145.611 290.534L148.758 289.196L147.872 287.115H145.611V290.534ZM126.189 290.534V287.115H123.928L123.042 289.196L126.189 290.534ZM85.1559 386.962L82.0095 385.623L79.9847 390.381H85.1559V386.962ZM106.63 386.962V390.381H108.929L109.796 388.253L106.63 386.962ZM115.383 365.488V362.069H113.085L112.217 364.197L115.383 365.488ZM155.869 365.488L159.036 364.197L158.168 362.069H155.869V365.488ZM164.623 386.962L161.457 388.253L162.324 390.381H164.623V386.962ZM148.347 346.886V350.306H153.443L151.511 345.59L148.347 346.886ZM122.906 346.886L119.742 345.59L117.81 350.306H122.906V346.886ZM135.626 315.838L138.791 314.542L135.626 306.818L132.462 314.542L135.626 315.838ZM189.79 385.623L148.758 289.196L142.465 291.873L183.498 388.301L189.79 385.623ZM145.611 287.115H126.189V293.954H145.611V287.115ZM123.042 289.196L82.0095 385.623L88.3023 388.301L129.335 291.873L123.042 289.196ZM85.1559 390.381H106.63V383.542H85.1559V390.381ZM109.796 388.253L118.55 366.779L112.217 364.197L103.463 385.671L109.796 388.253ZM115.383 368.907H155.869V362.069H115.383V368.907ZM152.703 366.779L161.457 388.253L167.79 385.671L159.036 364.197L152.703 366.779ZM164.623 390.381H186.644V383.542H164.623V390.381ZM148.347 343.467H122.906V350.306H148.347V343.467ZM126.07 348.183L138.791 317.134L132.462 314.542L119.742 345.59L126.07 348.183ZM132.462 317.134L145.182 348.183L151.511 345.59L138.791 314.542L132.462 317.134ZM201.421 291.218V287.799H198.002V291.218H201.421ZM201.421 386.962H198.002V390.381H201.421V386.962ZM222.485 386.962V390.381H225.904V386.962H222.485ZM222.485 358.239V354.819H219.066V358.239H222.485ZM222.485 339.5H219.066V342.92H222.485V339.5ZM222.485 310.23V306.811H219.066V310.23H222.485ZM280.615 324.592V324.318H273.776V324.592H280.615ZM280.615 324.318C280.615 313.7 276.843 304.474 269.754 297.922C262.687 291.392 252.632 287.799 240.539 287.799V294.638C251.289 294.638 259.561 297.815 265.112 302.945C270.641 308.054 273.776 315.378 273.776 324.318H280.615ZM240.539 287.799H201.421V294.638H240.539V287.799ZM198.002 291.218V386.962H204.841V291.218H198.002ZM201.421 390.381H222.485V383.542H201.421V390.381ZM225.904 386.962V358.239H219.066V386.962H225.904ZM222.485 361.658H238.488V354.819H222.485V361.658ZM238.488 361.658C249.793 361.658 260.294 358.637 268.042 352.386C275.879 346.062 280.615 336.651 280.615 324.592H273.776C273.776 334.69 269.895 342.103 263.747 347.063C257.51 352.096 248.656 354.819 238.488 354.819V361.658ZM252.439 325.002C252.439 328.214 251.255 330.896 249.163 332.8C247.053 334.72 243.757 336.081 239.172 336.081V342.92C245.118 342.92 250.165 341.135 253.766 337.858C257.384 334.564 259.278 329.997 259.278 325.002H252.439ZM239.172 336.081H222.485V342.92H239.172V336.081ZM225.904 339.5V310.23H219.066V339.5H225.904ZM222.485 313.65H238.761V306.811H222.485V313.65ZM238.761 313.65C243.53 313.65 246.932 314.8 249.081 316.576C251.135 318.274 252.439 320.866 252.439 324.729H259.278C259.278 319.154 257.299 314.497 253.438 311.305C249.671 308.191 244.525 306.811 238.761 306.811V313.65ZM252.439 324.729V325.002H259.278V324.729H252.439ZM361.582 386.962V390.381H365.002V386.962H361.582ZM361.582 367.813H365.002V364.394H361.582V367.813ZM313.847 367.813H310.428V371.233H313.847V367.813ZM313.847 291.218H317.267V287.799H313.847V291.218ZM292.784 291.218V287.799H289.364V291.218H292.784ZM292.784 386.962H289.364V390.381H292.784V386.962ZM365.002 386.962V367.813H358.163V386.962H365.002ZM361.582 364.394H313.847V371.233H361.582V364.394ZM317.267 367.813V291.218H310.428V367.813H317.267ZM313.847 287.799H292.784V294.638H313.847V287.799ZM289.364 291.218V386.962H296.203V291.218H289.364ZM292.784 390.381H361.582V383.542H292.784V390.381ZM399.489 386.962V390.381H402.908V386.962H399.489ZM399.489 291.218H402.908V287.799H399.489V291.218ZM378.425 291.218V287.799H375.006V291.218H378.425ZM378.425 386.962H375.006V390.381H378.425V386.962ZM402.908 386.962V291.218H396.069V386.962H402.908ZM399.489 287.799H378.425V294.638H399.489V287.799ZM375.006 291.218V386.962H381.845V291.218H375.006ZM378.425 390.381H399.489V383.542H378.425V390.381ZM507.534 371.506L510.031 373.842L512.278 371.439L509.964 369.101L507.534 371.506ZM494.13 357.965L496.56 355.56L494.254 353.231L491.829 355.435L494.13 357.965ZM493.446 319.805L491.148 322.337L493.738 324.687L496.029 322.045L493.446 319.805ZM506.85 304.349L509.433 306.589L511.536 304.164L509.249 301.912L506.85 304.349ZM509.964 369.101L496.56 355.56L491.7 360.371L505.104 373.912L509.964 369.101ZM491.829 355.435C484.59 362.016 478.681 365.762 468.963 365.762V372.6C481.129 372.6 488.623 367.592 496.43 360.495L491.829 355.435ZM468.963 365.762C454.789 365.762 444.617 353.986 444.617 339.09H437.778C437.778 357.02 450.31 372.6 468.963 372.6V365.762ZM444.617 339.09V338.817H437.778V339.09H444.617ZM444.617 338.817C444.617 323.986 455.003 312.419 468.963 312.419V305.58C450.643 305.58 437.778 320.82 437.778 338.817H444.617ZM468.963 312.419C477.387 312.419 484.126 315.965 491.148 322.337L495.744 317.272C487.994 310.24 479.687 305.58 468.963 305.58V312.419ZM496.029 322.045L509.433 306.589L504.267 302.108L490.863 317.564L496.029 322.045ZM509.249 301.912C499.775 292.584 488.128 286.158 469.1 286.158V292.996C486.18 292.996 496.144 298.606 504.451 306.785L509.249 301.912ZM469.1 286.158C437.742 286.158 415.757 310.045 415.757 339.09H422.595C422.595 313.698 441.643 292.996 469.1 292.996V286.158ZM415.757 339.09V339.364H422.595V339.09H415.757ZM415.757 339.364C415.757 368.7 438.171 392.023 468.279 392.023V385.184C442.035 385.184 422.595 365.011 422.595 339.364H415.757ZM468.279 392.023C477.935 392.023 485.798 390.302 492.596 387.097C499.38 383.899 504.917 379.311 510.031 373.842L505.036 369.171C500.303 374.233 495.445 378.194 489.68 380.911C483.928 383.622 477.087 385.184 468.279 385.184V392.023ZM617.677 386.962V390.381H622.849L620.824 385.623L617.677 386.962ZM576.644 290.534L579.791 289.196L578.905 287.115H576.644V290.534ZM557.222 290.534V287.115H554.961L554.076 289.196L557.222 290.534ZM516.189 386.962L513.043 385.623L511.018 390.381H516.189V386.962ZM537.663 386.962V390.381H539.962L540.829 388.253L537.663 386.962ZM546.417 365.488V362.069H544.118L543.25 364.197L546.417 365.488ZM586.903 365.488L590.069 364.197L589.201 362.069H586.903V365.488ZM595.656 386.962L592.49 388.253L593.358 390.381H595.656V386.962ZM579.38 346.886V350.306H584.476L582.544 345.59L579.38 346.886ZM553.939 346.886L550.775 345.59L548.843 350.306H553.939V346.886ZM566.66 315.838L569.824 314.542L566.66 306.818L563.496 314.542L566.66 315.838ZM620.824 385.623L579.791 289.196L573.498 291.873L614.531 388.301L620.824 385.623ZM576.644 287.115H557.222V293.954H576.644V287.115ZM554.076 289.196L513.043 385.623L519.336 388.301L560.369 291.873L554.076 289.196ZM516.189 390.381H537.663V383.542H516.189V390.381ZM540.829 388.253L549.583 366.779L543.25 364.197L534.497 385.671L540.829 388.253ZM546.417 368.907H586.903V362.069H546.417V368.907ZM583.736 366.779L592.49 388.253L598.823 385.671L590.069 364.197L583.736 366.779ZM595.656 390.381H617.677V383.542H595.656V390.381ZM579.38 343.467H553.939V350.306H579.38V343.467ZM557.104 348.183L569.824 317.134L563.496 314.542L550.775 345.59L557.104 348.183ZM563.496 317.134L576.216 348.183L582.544 345.59L569.824 314.542L563.496 317.134ZM632.455 291.218V287.799H629.035V291.218H632.455ZM632.455 386.962H629.035V390.381H632.455V386.962ZM653.518 367.95H650.099V371.369H653.518V367.95ZM653.518 310.23V306.811H650.099V310.23H653.518ZM724.095 339.09V338.817H717.256V339.09H724.095ZM724.095 338.817C724.095 309.827 701.615 287.799 669.795 287.799V294.638C698.156 294.638 717.256 313.916 717.256 338.817H724.095ZM669.795 287.799H632.455V294.638H669.795V287.799ZM629.035 291.218V386.962H635.874V291.218H629.035ZM632.455 390.381H669.795V383.542H632.455V390.381ZM669.795 390.381C701.641 390.381 724.095 368.054 724.095 339.09H717.256C717.256 364.016 698.13 383.542 669.795 383.542V390.381ZM695.235 339.364C695.235 347.042 692.619 353.279 688.278 357.591C683.935 361.904 677.625 364.531 669.795 364.531V371.369C679.198 371.369 687.318 368.183 693.097 362.443C698.878 356.702 702.074 348.646 702.074 339.364H695.235ZM669.795 364.531H653.518V371.369H669.795V364.531ZM656.938 367.95V310.23H650.099V367.95H656.938ZM653.518 313.65H669.795V306.811H653.518V313.65ZM669.795 313.65C677.602 313.65 683.91 316.329 688.261 320.71C692.616 325.094 695.235 331.408 695.235 339.09H702.074C702.074 329.811 698.88 321.696 693.113 315.89C687.343 310.081 679.221 306.811 669.795 306.811V313.65ZM695.235 339.09V339.364H702.074V339.09H695.235ZM840.386 339.09V338.817H833.547V339.09H840.386ZM840.386 338.817C840.386 309.679 817.624 286.158 786.222 286.158V292.996C813.909 292.996 833.547 313.517 833.547 338.817H840.386ZM786.222 286.158C754.821 286.158 731.785 309.953 731.785 339.09H738.624C738.624 313.791 758.537 292.996 786.222 292.996V286.158ZM731.785 339.09V339.364H738.624V339.09H731.785ZM731.785 339.364C731.785 368.501 754.548 392.023 785.949 392.023V385.184C758.263 385.184 738.624 364.663 738.624 339.364H731.785ZM785.949 392.023C817.351 392.023 840.386 368.228 840.386 339.09H833.547C833.547 364.39 813.635 385.184 785.949 385.184V392.023ZM811.526 339.364C811.526 354.102 801.087 365.762 786.222 365.762V372.6C805.278 372.6 818.365 357.451 818.365 339.364H811.526ZM786.222 365.762C771.355 365.762 760.645 353.826 760.645 339.09H753.806C753.806 357.181 767.169 372.6 786.222 372.6V365.762ZM760.645 339.09V338.817H753.806V339.09H760.645ZM760.645 338.817C760.645 324.078 771.084 312.419 785.949 312.419V305.58C766.893 305.58 753.806 320.729 753.806 338.817H760.645ZM785.949 312.419C800.816 312.419 811.526 324.354 811.526 339.09H818.365C818.365 321 805.002 305.58 785.949 305.58V312.419ZM811.526 339.09V339.364H818.365V339.09H811.526ZM938.401 386.962V390.381H944.883L941.224 385.031L938.401 386.962ZM915.013 352.768L913.824 349.562L909.718 351.084L912.19 354.698L915.013 352.768ZM855.652 291.218V287.799H852.232V291.218H855.652ZM855.652 386.962H852.232V390.381H855.652V386.962ZM876.715 386.962V390.381H880.135V386.962H876.715ZM876.715 356.324V352.905H873.296V356.324H876.715ZM893.265 356.324L896.106 354.421L895.091 352.905H893.265V356.324ZM913.782 386.962L910.94 388.865L911.956 390.381H913.782V386.962ZM876.715 337.722H873.296V341.142H876.715V337.722ZM876.715 310.23V306.811H873.296V310.23H876.715ZM941.224 385.031L917.835 350.837L912.19 354.698L935.579 388.892L941.224 385.031ZM916.201 355.974C922.799 353.528 928.523 349.608 932.594 344.052C936.678 338.477 938.949 331.458 938.949 323.087H932.11C932.11 330.173 930.208 335.737 927.077 340.01C923.934 344.301 919.399 347.494 913.824 349.562L916.201 355.974ZM938.949 323.087V322.814H932.11V323.087H938.949ZM938.949 322.814C938.949 312.137 935.248 303.24 928.191 297.058C921.191 290.926 911.275 287.799 899.42 287.799V294.638C910.133 294.638 918.272 297.46 923.684 302.202C929.04 306.893 932.11 313.795 932.11 322.814H938.949ZM899.42 287.799H855.652V294.638H899.42V287.799ZM852.232 291.218V386.962H859.071V291.218H852.232ZM855.652 390.381H876.715V383.542H855.652V390.381ZM880.135 386.962V356.324H873.296V386.962H880.135ZM876.715 359.743H893.265V352.905H876.715V359.743ZM890.424 358.227L910.94 388.865L916.623 385.059L896.106 354.421L890.424 358.227ZM913.782 390.381H938.401V383.542H913.782V390.381ZM910.773 324.181C910.773 327.333 909.655 329.732 907.734 331.39C905.762 333.093 902.598 334.303 898.052 334.303V341.142C903.765 341.142 908.671 339.616 912.204 336.566C915.789 333.471 917.611 329.099 917.611 324.181H910.773ZM898.052 334.303H876.715V341.142H898.052V334.303ZM880.135 337.722V310.23H873.296V337.722H880.135ZM876.715 313.65H897.642V306.811H876.715V313.65ZM897.642 313.65C902.316 313.65 905.587 314.716 907.624 316.351C909.545 317.892 910.773 320.259 910.773 323.908H917.611C917.611 318.529 915.693 314.057 911.904 311.017C908.23 308.069 903.226 306.811 897.642 306.811V313.65ZM910.773 323.908V324.181H917.611V323.908H910.773ZM1027.4 386.962V390.381H1030.82V386.962H1027.4ZM1027.4 368.224H1030.82V364.804H1027.4V368.224ZM975.421 368.224H972.001V371.643H975.421V368.224ZM975.421 348.117V344.698H972.001V348.117H975.421ZM1020.56 348.117V351.537H1023.98V348.117H1020.56ZM1020.56 329.379H1023.98V325.96H1020.56V329.379ZM975.421 329.379H972.001V332.798H975.421V329.379ZM975.421 309.957V306.537H972.001V309.957H975.421ZM1026.71 309.957V313.376H1030.13V309.957H1026.71ZM1026.71 291.218H1030.13V287.799H1026.71V291.218ZM954.494 291.218V287.799H951.075V291.218H954.494ZM954.494 386.962H951.075V390.381H954.494V386.962ZM1030.82 386.962V368.224H1023.98V386.962H1030.82ZM1027.4 364.804H975.421V371.643H1027.4V364.804ZM978.84 368.224V348.117H972.001V368.224H978.84ZM975.421 351.537H1020.56V344.698H975.421V351.537ZM1023.98 348.117V329.379H1017.14V348.117H1023.98ZM1020.56 325.96H975.421V332.798H1020.56V325.96ZM978.84 329.379V309.957H972.001V329.379H978.84ZM975.421 313.376H1026.71V306.537H975.421V313.376ZM1030.13 309.957V291.218H1023.29V309.957H1030.13ZM1026.71 287.799H954.494V294.638H1026.71V287.799ZM951.075 291.218V386.962H957.913V291.218H951.075ZM954.494 390.381H1027.4V383.542H954.494V390.381ZM1084.97 329.653L1085.83 326.344L1085.82 326.34L1084.97 329.653ZM1101.52 317.89L1099.57 320.7L1102.39 322.653L1104.33 319.831L1101.52 317.89ZM1112.46 302.024L1115.28 303.965L1117.08 301.348L1114.6 299.357L1112.46 302.024ZM1075.12 348.254L1075.97 344.942L1075.97 344.941L1075.12 348.254ZM1052.01 358.102L1054.18 355.465L1051.56 353.3L1049.38 355.911L1052.01 358.102ZM1039.56 373.011L1036.93 370.819L1034.81 373.358L1037.28 375.561L1039.56 373.011ZM1118.75 358.649V358.376H1111.91V358.649H1118.75ZM1118.75 358.376C1118.75 349.15 1115.66 342.248 1109.67 337.067C1103.89 332.069 1095.65 328.903 1085.83 326.344L1084.11 332.961C1093.71 335.463 1100.65 338.315 1105.2 342.241C1109.53 345.985 1111.91 350.915 1111.91 358.376H1118.75ZM1085.82 326.34C1077.42 324.19 1072.77 322.721 1070.18 321.187C1068.98 320.477 1068.46 319.887 1068.19 319.417C1067.93 318.946 1067.73 318.272 1067.73 317.069H1060.9C1060.9 319.012 1061.21 320.954 1062.23 322.77C1063.26 324.587 1064.8 325.954 1066.7 327.074C1070.29 329.198 1075.96 330.875 1084.12 332.965L1085.82 326.34ZM1067.73 317.069V316.796H1060.9V317.069H1067.73ZM1067.73 316.796C1067.73 315.621 1068.22 314.541 1069.45 313.645C1070.77 312.69 1073.07 311.872 1076.62 311.872V305.033C1072.11 305.033 1068.26 306.061 1065.43 308.115C1062.53 310.228 1060.9 313.319 1060.9 316.796H1067.73ZM1076.62 311.872C1083.7 311.872 1091.36 315.005 1099.57 320.7L1103.47 315.08C1094.72 309.012 1085.69 305.033 1076.62 305.033V311.872ZM1104.33 319.831L1115.28 303.965L1109.65 300.082L1098.7 315.948L1104.33 319.831ZM1114.6 299.357C1104.27 291.065 1091.61 286.431 1076.9 286.431V293.27C1090.08 293.27 1101.23 297.389 1110.32 304.69L1114.6 299.357ZM1076.9 286.431C1066.47 286.431 1057.26 289.497 1050.59 295.161C1043.88 300.865 1039.97 309.039 1039.97 318.71H1046.81C1046.81 311.012 1049.87 304.755 1055.02 300.372C1060.23 295.948 1067.77 293.27 1076.9 293.27V286.431ZM1039.97 318.71V318.984H1046.81V318.71H1039.97ZM1039.97 318.984C1039.97 329.39 1043.45 336.533 1049.91 341.594C1056.07 346.416 1064.67 349.115 1074.27 351.567L1075.97 344.941C1066.29 342.47 1059.02 340.039 1054.13 336.21C1049.55 332.62 1046.81 327.59 1046.81 318.984H1039.97ZM1074.27 351.566C1082.3 353.626 1086.6 355.224 1088.88 356.732C1089.94 357.432 1090.39 358.001 1090.61 358.432C1090.84 358.865 1090.99 359.447 1090.99 360.427H1097.83C1097.83 358.741 1097.57 356.98 1096.68 355.272C1095.78 353.561 1094.41 352.19 1092.65 351.026C1089.29 348.807 1083.94 346.986 1075.97 344.942L1074.27 351.566ZM1090.99 360.427V360.701H1097.83V360.427H1090.99ZM1090.99 360.701C1090.99 362.272 1090.34 363.488 1088.86 364.457C1087.23 365.52 1084.51 366.309 1080.59 366.309V373.147C1085.28 373.147 1089.47 372.227 1092.6 370.178C1095.88 368.035 1097.83 364.737 1097.83 360.701H1090.99ZM1080.59 366.309C1070.71 366.309 1062.43 362.273 1054.18 355.465L1049.83 360.739C1058.81 368.156 1068.59 373.147 1080.59 373.147V366.309ZM1049.38 355.911L1036.93 370.819L1042.18 375.202L1054.63 360.293L1049.38 355.911ZM1037.28 375.561C1049.44 386.415 1064.9 391.749 1080.18 391.749V384.91C1066.47 384.91 1052.66 380.123 1041.84 370.46L1037.28 375.561ZM1080.18 391.749C1091.06 391.749 1100.68 388.942 1107.66 383.273C1114.72 377.533 1118.75 369.109 1118.75 358.649H1111.91C1111.91 367.202 1108.7 373.617 1103.35 377.965C1097.91 382.383 1089.96 384.91 1080.18 384.91V391.749Z" fill="#0085FF"/>
<path opacity="0.6" d="M186.644 267.283V270.703H191.815L189.79 265.944L186.644 267.283ZM145.611 170.856L148.758 169.517L147.872 167.436H145.611V170.856ZM126.189 170.856V167.436H123.928L123.042 169.517L126.189 170.856ZM85.1559 267.283L82.0095 265.944L79.9847 270.703H85.1559V267.283ZM106.63 267.283V270.703H108.929L109.796 268.574L106.63 267.283ZM115.383 245.809V242.39H113.085L112.217 244.519L115.383 245.809ZM155.869 245.809L159.036 244.519L158.168 242.39H155.869V245.809ZM164.623 267.283L161.457 268.574L162.324 270.703H164.623V267.283ZM148.347 227.208V230.627H153.443L151.511 225.911L148.347 227.208ZM122.906 227.208L119.742 225.911L117.81 230.627H122.906V227.208ZM135.626 196.159L138.791 194.863L135.626 187.14L132.462 194.863L135.626 196.159ZM189.79 265.944L148.758 169.517L142.465 172.195L183.498 268.622L189.79 265.944ZM145.611 167.436H126.189V174.275H145.611V167.436ZM123.042 169.517L82.0095 265.944L88.3023 268.622L129.335 172.195L123.042 169.517ZM85.1559 270.703H106.63V263.864H85.1559V270.703ZM109.796 268.574L118.55 247.1L112.217 244.519L103.463 265.992L109.796 268.574ZM115.383 249.229H155.869V242.39H115.383V249.229ZM152.703 247.1L161.457 268.574L167.79 265.992L159.036 244.519L152.703 247.1ZM164.623 270.703H186.644V263.864H164.623V270.703ZM148.347 223.788H122.906V230.627H148.347V223.788ZM126.07 228.504L138.791 197.456L132.462 194.863L119.742 225.911L126.07 228.504ZM132.462 197.456L145.182 228.504L151.511 225.911L138.791 194.863L132.462 197.456ZM201.421 171.54V168.12H198.002V171.54H201.421ZM201.421 267.283H198.002V270.703H201.421V267.283ZM222.485 267.283V270.703H225.904V267.283H222.485ZM222.485 238.56V235.141H219.066V238.56H222.485ZM222.485 219.822H219.066V223.241H222.485V219.822ZM222.485 190.552V187.132H219.066V190.552H222.485ZM280.615 204.913V204.64H273.776V204.913H280.615ZM280.615 204.64C280.615 194.021 276.843 184.795 269.754 178.244C262.687 171.713 252.632 168.12 240.539 168.12V174.959C251.289 174.959 259.561 178.136 265.112 183.266C270.641 188.375 273.776 195.699 273.776 204.64H280.615ZM240.539 168.12H201.421V174.959H240.539V168.12ZM198.002 171.54V267.283H204.841V171.54H198.002ZM201.421 270.703H222.485V263.864H201.421V270.703ZM225.904 267.283V238.56H219.066V267.283H225.904ZM222.485 241.98H238.488V235.141H222.485V241.98ZM238.488 241.98C249.793 241.98 260.294 238.958 268.042 232.707C275.879 226.383 280.615 216.973 280.615 204.913H273.776C273.776 215.011 269.895 222.424 263.747 227.385C257.51 232.417 248.656 235.141 238.488 235.141V241.98ZM252.439 205.323C252.439 208.535 251.255 211.217 249.163 213.121C247.053 215.042 243.757 216.402 239.172 216.402V223.241C245.118 223.241 250.165 221.456 253.766 218.179C257.384 214.885 259.278 210.318 259.278 205.323H252.439ZM239.172 216.402H222.485V223.241H239.172V216.402ZM225.904 219.822V190.552H219.066V219.822H225.904ZM222.485 193.971H238.761V187.132H222.485V193.971ZM238.761 193.971C243.53 193.971 246.932 195.121 249.081 196.897C251.135 198.595 252.439 201.187 252.439 205.05H259.278C259.278 199.475 257.299 194.818 253.438 191.626C249.671 188.513 244.525 187.132 238.761 187.132V193.971ZM252.439 205.05V205.323H259.278V205.05H252.439ZM361.582 267.283V270.703H365.002V267.283H361.582ZM361.582 248.134H365.002V244.715H361.582V248.134ZM313.847 248.134H310.428V251.554H313.847V248.134ZM313.847 171.54H317.267V168.12H313.847V171.54ZM292.784 171.54V168.12H289.364V171.54H292.784ZM292.784 267.283H289.364V270.703H292.784V267.283ZM365.002 267.283V248.134H358.163V267.283H365.002ZM361.582 244.715H313.847V251.554H361.582V244.715ZM317.267 248.134V171.54H310.428V248.134H317.267ZM313.847 168.12H292.784V174.959H313.847V168.12ZM289.364 171.54V267.283H296.203V171.54H289.364ZM292.784 270.703H361.582V263.864H292.784V270.703ZM399.489 267.283V270.703H402.908V267.283H399.489ZM399.489 171.54H402.908V168.12H399.489V171.54ZM378.425 171.54V168.12H375.006V171.54H378.425ZM378.425 267.283H375.006V270.703H378.425V267.283ZM402.908 267.283V171.54H396.069V267.283H402.908ZM399.489 168.12H378.425V174.959H399.489V168.12ZM375.006 171.54V267.283H381.845V171.54H375.006ZM378.425 270.703H399.489V263.864H378.425V270.703ZM507.534 251.827L510.031 254.163L512.278 251.76L509.964 249.422L507.534 251.827ZM494.13 238.287L496.56 235.881L494.254 233.552L491.829 235.756L494.13 238.287ZM493.446 200.126L491.148 202.658L493.738 205.008L496.029 202.366L493.446 200.126ZM506.85 184.67L509.433 186.91L511.536 184.486L509.249 182.234L506.85 184.67ZM509.964 249.422L496.56 235.881L491.7 240.692L505.104 254.233L509.964 249.422ZM491.829 235.756C484.59 242.337 478.681 246.083 468.963 246.083V252.922C481.129 252.922 488.623 247.913 496.43 240.817L491.829 235.756ZM468.963 246.083C454.789 246.083 444.617 234.307 444.617 219.411H437.778C437.778 237.342 450.31 252.922 468.963 252.922V246.083ZM444.617 219.411V219.138H437.778V219.411H444.617ZM444.617 219.138C444.617 204.308 455.003 192.74 468.963 192.74V185.901C450.643 185.901 437.778 201.142 437.778 219.138H444.617ZM468.963 192.74C477.387 192.74 484.126 196.286 491.148 202.658L495.744 197.594C487.994 190.561 479.687 185.901 468.963 185.901V192.74ZM496.029 202.366L509.433 186.91L504.267 182.43L490.863 197.886L496.029 202.366ZM509.249 182.234C499.775 172.905 488.128 166.479 469.1 166.479V173.318C486.18 173.318 496.144 178.927 504.451 187.107L509.249 182.234ZM469.1 166.479C437.742 166.479 415.757 190.367 415.757 219.411H422.595C422.595 194.019 441.643 173.318 469.1 173.318V166.479ZM415.757 219.411V219.685H422.595V219.411H415.757ZM415.757 219.685C415.757 249.022 438.171 272.344 468.279 272.344V265.505C442.035 265.505 422.595 245.332 422.595 219.685H415.757ZM468.279 272.344C477.935 272.344 485.798 270.623 492.596 267.418C499.38 264.22 504.917 259.633 510.031 254.163L505.036 249.492C500.303 254.554 495.445 258.515 489.68 261.232C483.928 263.944 477.087 265.505 468.279 265.505V272.344ZM617.677 267.283V270.703H622.849L620.824 265.944L617.677 267.283ZM576.644 170.856L579.791 169.517L578.905 167.436H576.644V170.856ZM557.222 170.856V167.436H554.961L554.076 169.517L557.222 170.856ZM516.189 267.283L513.043 265.944L511.018 270.703H516.189V267.283ZM537.663 267.283V270.703H539.962L540.829 268.574L537.663 267.283ZM546.417 245.809V242.39H544.118L543.25 244.519L546.417 245.809ZM586.903 245.809L590.069 244.519L589.201 242.39H586.903V245.809ZM595.656 267.283L592.49 268.574L593.358 270.703H595.656V267.283ZM579.38 227.208V230.627H584.476L582.544 225.911L579.38 227.208ZM553.939 227.208L550.775 225.911L548.843 230.627H553.939V227.208ZM566.66 196.159L569.824 194.863L566.66 187.14L563.496 194.863L566.66 196.159ZM620.824 265.944L579.791 169.517L573.498 172.195L614.531 268.622L620.824 265.944ZM576.644 167.436H557.222V174.275H576.644V167.436ZM554.076 169.517L513.043 265.944L519.336 268.622L560.369 172.195L554.076 169.517ZM516.189 270.703H537.663V263.864H516.189V270.703ZM540.829 268.574L549.583 247.1L543.25 244.519L534.497 265.992L540.829 268.574ZM546.417 249.229H586.903V242.39H546.417V249.229ZM583.736 247.1L592.49 268.574L598.823 265.992L590.069 244.519L583.736 247.1ZM595.656 270.703H617.677V263.864H595.656V270.703ZM579.38 223.788H553.939V230.627H579.38V223.788ZM557.104 228.504L569.824 197.456L563.496 194.863L550.775 225.911L557.104 228.504ZM563.496 197.456L576.216 228.504L582.544 225.911L569.824 194.863L563.496 197.456ZM632.455 171.54V168.12H629.035V171.54H632.455ZM632.455 267.283H629.035V270.703H632.455V267.283ZM653.518 248.271H650.099V251.691H653.518V248.271ZM653.518 190.552V187.132H650.099V190.552H653.518ZM724.095 219.411V219.138H717.256V219.411H724.095ZM724.095 219.138C724.095 190.149 701.615 168.12 669.795 168.12V174.959C698.156 174.959 717.256 194.237 717.256 219.138H724.095ZM669.795 168.12H632.455V174.959H669.795V168.12ZM629.035 171.54V267.283H635.874V171.54H629.035ZM632.455 270.703H669.795V263.864H632.455V270.703ZM669.795 270.703C701.641 270.703 724.095 248.375 724.095 219.411H717.256C717.256 244.337 698.13 263.864 669.795 263.864V270.703ZM695.235 219.685C695.235 227.363 692.619 233.601 688.278 237.912C683.935 242.225 677.625 244.852 669.795 244.852V251.691C679.198 251.691 687.318 248.505 693.097 242.764C698.878 237.023 702.074 228.967 702.074 219.685H695.235ZM669.795 244.852H653.518V251.691H669.795V244.852ZM656.938 248.271V190.552H650.099V248.271H656.938ZM653.518 193.971H669.795V187.132H653.518V193.971ZM669.795 193.971C677.602 193.971 683.91 196.651 688.261 201.031C692.616 205.415 695.235 211.73 695.235 219.411H702.074C702.074 210.133 698.88 202.018 693.113 196.212C687.343 190.402 679.221 187.132 669.795 187.132V193.971ZM695.235 219.411V219.685H702.074V219.411H695.235ZM840.386 219.411V219.138H833.547V219.411H840.386ZM840.386 219.138C840.386 190 817.624 166.479 786.222 166.479V173.318C813.909 173.318 833.547 193.839 833.547 219.138H840.386ZM786.222 166.479C754.821 166.479 731.785 190.274 731.785 219.411H738.624C738.624 194.112 758.537 173.318 786.222 173.318V166.479ZM731.785 219.411V219.685H738.624V219.411H731.785ZM731.785 219.685C731.785 248.823 754.548 272.344 785.949 272.344V265.505C758.263 265.505 738.624 244.984 738.624 219.685H731.785ZM785.949 272.344C817.351 272.344 840.386 248.549 840.386 219.411H833.547C833.547 244.711 813.635 265.505 785.949 265.505V272.344ZM811.526 219.685C811.526 234.424 801.087 246.083 786.222 246.083V252.922C805.278 252.922 818.365 237.773 818.365 219.685H811.526ZM786.222 246.083C771.355 246.083 760.645 234.147 760.645 219.411H753.806C753.806 237.502 767.169 252.922 786.222 252.922V246.083ZM760.645 219.411V219.138H753.806V219.411H760.645ZM760.645 219.138C760.645 204.399 771.084 192.74 785.949 192.74V185.901C766.893 185.901 753.806 201.05 753.806 219.138H760.645ZM785.949 192.74C800.816 192.74 811.526 204.675 811.526 219.411H818.365C818.365 201.321 805.002 185.901 785.949 185.901V192.74ZM811.526 219.411V219.685H818.365V219.411H811.526ZM938.401 267.283V270.703H944.883L941.224 265.353L938.401 267.283ZM915.013 233.089L913.824 229.883L909.718 231.405L912.19 235.02L915.013 233.089ZM855.652 171.54V168.12H852.232V171.54H855.652ZM855.652 267.283H852.232V270.703H855.652V267.283ZM876.715 267.283V270.703H880.135V267.283H876.715ZM876.715 236.645V233.226H873.296V236.645H876.715ZM893.265 236.645L896.106 234.743L895.091 233.226H893.265V236.645ZM913.782 267.283L910.94 269.186L911.956 270.703H913.782V267.283ZM876.715 218.044H873.296V221.463H876.715V218.044ZM876.715 190.552V187.132H873.296V190.552H876.715ZM941.224 265.353L917.835 231.159L912.19 235.02L935.579 269.214L941.224 265.353ZM916.201 236.295C922.799 233.849 928.523 229.93 932.594 224.373C936.678 218.798 938.949 211.779 938.949 203.409H932.11C932.11 210.494 930.208 216.058 927.077 220.331C923.934 224.622 919.399 227.816 913.824 229.883L916.201 236.295ZM938.949 203.409V203.135H932.11V203.409H938.949ZM938.949 203.135C938.949 192.458 935.248 183.562 928.191 177.379C921.191 171.247 911.275 168.12 899.42 168.12V174.959C910.133 174.959 918.272 177.782 923.684 182.523C929.04 187.215 932.11 194.116 932.11 203.135H938.949ZM899.42 168.12H855.652V174.959H899.42V168.12ZM852.232 171.54V267.283H859.071V171.54H852.232ZM855.652 270.703H876.715V263.864H855.652V270.703ZM880.135 267.283V236.645H873.296V267.283H880.135ZM876.715 240.065H893.265V233.226H876.715V240.065ZM890.424 238.548L910.94 269.186L916.623 265.381L896.106 234.743L890.424 238.548ZM913.782 270.703H938.401V263.864H913.782V270.703ZM910.773 204.503C910.773 207.655 909.655 210.053 907.734 211.711C905.762 213.414 902.598 214.624 898.052 214.624V221.463C903.765 221.463 908.671 219.937 912.204 216.888C915.789 213.792 917.611 209.421 917.611 204.503H910.773ZM898.052 214.624H876.715V221.463H898.052V214.624ZM880.135 218.044V190.552H873.296V218.044H880.135ZM876.715 193.971H897.642V187.132H876.715V193.971ZM897.642 193.971C902.316 193.971 905.587 195.038 907.624 196.672C909.545 198.214 910.773 200.58 910.773 204.229H917.611C917.611 198.851 915.693 194.379 911.904 191.338C908.23 188.391 903.226 187.132 897.642 187.132V193.971ZM910.773 204.229V204.503H917.611V204.229H910.773ZM1027.4 267.283V270.703H1030.82V267.283H1027.4ZM1027.4 248.545H1030.82V245.125H1027.4V248.545ZM975.421 248.545H972.001V251.964H975.421V248.545ZM975.421 228.439V225.019H972.001V228.439H975.421ZM1020.56 228.439V231.858H1023.98V228.439H1020.56ZM1020.56 209.7H1023.98V206.281H1020.56V209.7ZM975.421 209.7H972.001V213.12H975.421V209.7ZM975.421 190.278V186.859H972.001V190.278H975.421ZM1026.71 190.278V193.697H1030.13V190.278H1026.71ZM1026.71 171.54H1030.13V168.12H1026.71V171.54ZM954.494 171.54V168.12H951.075V171.54H954.494ZM954.494 267.283H951.075V270.703H954.494V267.283ZM1030.82 267.283V248.545H1023.98V267.283H1030.82ZM1027.4 245.125H975.421V251.964H1027.4V245.125ZM978.84 248.545V228.439H972.001V248.545H978.84ZM975.421 231.858H1020.56V225.019H975.421V231.858ZM1023.98 228.439V209.7H1017.14V228.439H1023.98ZM1020.56 206.281H975.421V213.12H1020.56V206.281ZM978.84 209.7V190.278H972.001V209.7H978.84ZM975.421 193.697H1026.71V186.859H975.421V193.697ZM1030.13 190.278V171.54H1023.29V190.278H1030.13ZM1026.71 168.12H954.494V174.959H1026.71V168.12ZM951.075 171.54V267.283H957.913V171.54H951.075ZM954.494 270.703H1027.4V263.864H954.494V270.703ZM1084.97 209.974L1085.83 206.665L1085.82 206.661L1084.97 209.974ZM1101.52 198.211L1099.57 201.021L1102.39 202.975L1104.33 200.152L1101.52 198.211ZM1112.46 182.345L1115.28 184.286L1117.08 181.669L1114.6 179.678L1112.46 182.345ZM1075.12 228.575L1075.97 225.263L1075.97 225.262L1075.12 228.575ZM1052.01 238.423L1054.18 235.786L1051.56 233.622L1049.38 236.232L1052.01 238.423ZM1039.56 253.332L1036.93 251.141L1034.81 253.68L1037.28 255.883L1039.56 253.332ZM1118.75 238.97V238.697H1111.91V238.97H1118.75ZM1118.75 238.697C1118.75 229.471 1115.66 222.569 1109.67 217.388C1103.89 212.39 1095.65 209.224 1085.83 206.665L1084.11 213.283C1093.71 215.784 1100.65 218.636 1105.2 222.563C1109.53 226.307 1111.91 231.236 1111.91 238.697H1118.75ZM1085.82 206.661C1077.42 204.511 1072.77 203.042 1070.18 201.508C1068.98 200.798 1068.46 200.208 1068.19 199.738C1067.93 199.268 1067.73 198.594 1067.73 197.39H1060.9C1060.9 199.333 1061.21 201.275 1062.23 203.091C1063.26 204.908 1064.8 206.275 1066.7 207.395C1070.29 209.52 1075.96 211.196 1084.12 213.286L1085.82 206.661ZM1067.73 197.39V197.117H1060.9V197.39H1067.73ZM1067.73 197.117C1067.73 195.943 1068.22 194.862 1069.45 193.967C1070.77 193.011 1073.07 192.193 1076.62 192.193V185.354C1072.11 185.354 1068.26 186.382 1065.43 188.436C1062.53 190.55 1060.9 193.641 1060.9 197.117H1067.73ZM1076.62 192.193C1083.7 192.193 1091.36 195.326 1099.57 201.021L1103.47 195.401C1094.72 189.333 1085.69 185.354 1076.62 185.354V192.193ZM1104.33 200.152L1115.28 184.286L1109.65 180.404L1098.7 196.27L1104.33 200.152ZM1114.6 179.678C1104.27 171.387 1091.61 166.752 1076.9 166.752V173.591C1090.08 173.591 1101.23 177.711 1110.32 185.011L1114.6 179.678ZM1076.9 166.752C1066.47 166.752 1057.26 169.819 1050.59 175.483C1043.88 181.187 1039.97 189.36 1039.97 199.032H1046.81C1046.81 191.333 1049.87 185.076 1055.02 180.693C1060.23 176.27 1067.77 173.591 1076.9 173.591V166.752ZM1039.97 199.032V199.305H1046.81V199.032H1039.97ZM1039.97 199.305C1039.97 209.711 1043.45 216.854 1049.91 221.915C1056.07 226.737 1064.67 229.436 1074.27 231.889L1075.97 225.262C1066.29 222.791 1059.02 220.361 1054.13 216.531C1049.55 212.942 1046.81 207.911 1046.81 199.305H1039.97ZM1074.27 231.888C1082.3 233.947 1086.6 235.545 1088.88 237.053C1089.94 237.753 1090.39 238.322 1090.61 238.753C1090.84 239.187 1090.99 239.768 1090.99 240.749H1097.83C1097.83 239.062 1097.57 237.301 1096.68 235.593C1095.78 233.883 1094.41 232.511 1092.65 231.347C1089.29 229.128 1083.94 227.307 1075.97 225.263L1074.27 231.888ZM1090.99 240.749V241.022H1097.83V240.749H1090.99ZM1090.99 241.022C1090.99 242.594 1090.34 243.809 1088.86 244.778C1087.23 245.841 1084.51 246.63 1080.59 246.63V253.469C1085.28 253.469 1089.47 252.548 1092.6 250.5C1095.88 248.356 1097.83 245.058 1097.83 241.022H1090.99ZM1080.59 246.63C1070.71 246.63 1062.43 242.594 1054.18 235.786L1049.83 241.06C1058.81 248.477 1068.59 253.469 1080.59 253.469V246.63ZM1049.38 236.232L1036.93 251.141L1042.18 255.523L1054.63 240.615L1049.38 236.232ZM1037.28 255.883C1049.44 266.736 1064.9 272.07 1080.18 272.07V265.232C1066.47 265.232 1052.66 260.445 1041.84 250.781L1037.28 255.883ZM1080.18 272.07C1091.06 272.07 1100.68 269.264 1107.66 263.594C1114.72 257.854 1118.75 249.43 1118.75 238.97H1111.91C1111.91 247.523 1108.7 253.939 1103.35 258.287C1097.91 262.704 1089.96 265.232 1080.18 265.232V272.07Z" fill="#0085FF"/>
<path opacity="0.3" d="M186.644 147V150.419H191.815L189.79 145.661L186.644 147ZM145.611 50.5725L148.758 49.2336L147.872 47.1531H145.611V50.5725ZM126.189 50.5725V47.1531H123.928L123.042 49.2336L126.189 50.5725ZM85.1559 147L82.0095 145.661L79.9847 150.419H85.1559V147ZM106.63 147V150.419H108.929L109.796 148.291L106.63 147ZM115.383 125.526V122.107H113.085L112.217 124.235L115.383 125.526ZM155.869 125.526L159.036 124.235L158.168 122.107H155.869V125.526ZM164.623 147L161.457 148.291L162.324 150.419H164.623V147ZM148.347 106.924V110.344H153.443L151.511 105.628L148.347 106.924ZM122.906 106.924L119.742 105.628L117.81 110.344H122.906V106.924ZM135.626 75.8762L138.791 74.5798L135.626 66.8566L132.462 74.5798L135.626 75.8762ZM189.79 145.661L148.758 49.2336L142.465 51.9114L183.498 148.339L189.79 145.661ZM145.611 47.1531H126.189V53.9919H145.611V47.1531ZM123.042 49.2336L82.0095 145.661L88.3023 148.339L129.335 51.9114L123.042 49.2336ZM85.1559 150.419H106.63V143.581H85.1559V150.419ZM109.796 148.291L118.55 126.817L112.217 124.235L103.463 145.709L109.796 148.291ZM115.383 128.945H155.869V122.107H115.383V128.945ZM152.703 126.817L161.457 148.291L167.79 145.709L159.036 124.235L152.703 126.817ZM164.623 150.419H186.644V143.581H164.623V150.419ZM148.347 103.505H122.906V110.344H148.347V103.505ZM126.07 108.221L138.791 77.1725L132.462 74.5798L119.742 105.628L126.07 108.221ZM132.462 77.1725L145.182 108.221L151.511 105.628L138.791 74.5798L132.462 77.1725ZM201.421 51.2564V47.837H198.002V51.2564H201.421ZM201.421 147H198.002V150.419H201.421V147ZM222.485 147V150.419H225.904V147H222.485ZM222.485 118.277V114.857H219.066V118.277H222.485ZM222.485 99.5385H219.066V102.958H222.485V99.5385ZM222.485 70.2683V66.8489H219.066V70.2683H222.485ZM280.615 84.6299V84.3563H273.776V84.6299H280.615ZM280.615 84.3563C280.615 73.7379 276.843 64.5118 269.754 57.9604C262.687 51.4299 252.632 47.837 240.539 47.837V54.6758C251.289 54.6758 259.561 57.8533 265.112 62.983C270.641 68.0918 273.776 75.4157 273.776 84.3563H280.615ZM240.539 47.837H201.421V54.6758H240.539V47.837ZM198.002 51.2564V147H204.841V51.2564H198.002ZM201.421 150.419H222.485V143.581H201.421V150.419ZM225.904 147V118.277H219.066V147H225.904ZM222.485 121.696H238.488V114.857H222.485V121.696ZM238.488 121.696C249.793 121.696 260.294 118.675 268.042 112.424C275.879 106.1 280.615 96.6894 280.615 84.6299H273.776C273.776 94.7282 269.895 102.141 263.747 107.101C257.51 112.134 248.656 114.857 238.488 114.857V121.696ZM252.439 85.0402C252.439 88.2523 251.255 90.9339 249.163 92.838C247.053 94.7583 243.757 96.1191 239.172 96.1191V102.958C245.118 102.958 250.165 101.173 253.766 97.8956C257.384 94.6023 259.278 90.0347 259.278 85.0402H252.439ZM239.172 96.1191H222.485V102.958H239.172V96.1191ZM225.904 99.5385V70.2683H219.066V99.5385H225.904ZM222.485 73.6877H238.761V66.8489H222.485V73.6877ZM238.761 73.6877C243.53 73.6877 246.932 74.8377 249.081 76.614C251.135 78.3118 252.439 80.9039 252.439 84.7666H259.278C259.278 79.1918 257.299 74.5348 253.438 71.3428C249.671 68.2293 244.525 66.8489 238.761 66.8489V73.6877ZM252.439 84.7666V85.0402H259.278V84.7666H252.439ZM361.582 147V150.419H365.002V147H361.582ZM361.582 127.851H365.002V124.432H361.582V127.851ZM313.847 127.851H310.428V131.271H313.847V127.851ZM313.847 51.2564H317.267V47.837H313.847V51.2564ZM292.784 51.2564V47.837H289.364V51.2564H292.784ZM292.784 147H289.364V150.419H292.784V147ZM365.002 147V127.851H358.163V147H365.002ZM361.582 124.432H313.847V131.271H361.582V124.432ZM317.267 127.851V51.2564H310.428V127.851H317.267ZM313.847 47.837H292.784V54.6758H313.847V47.837ZM289.364 51.2564V147H296.203V51.2564H289.364ZM292.784 150.419H361.582V143.581H292.784V150.419ZM399.489 147V150.419H402.908V147H399.489ZM399.489 51.2564H402.908V47.837H399.489V51.2564ZM378.425 51.2564V47.837H375.006V51.2564H378.425ZM378.425 147H375.006V150.419H378.425V147ZM402.908 147V51.2564H396.069V147H402.908ZM399.489 47.837H378.425V54.6758H399.489V47.837ZM375.006 51.2564V147H381.845V51.2564H375.006ZM378.425 150.419H399.489V143.581H378.425V150.419ZM507.534 131.544L510.031 133.88L512.278 131.477L509.964 129.139L507.534 131.544ZM494.13 118.003L496.56 115.598L494.254 113.269L491.829 115.473L494.13 118.003ZM493.446 79.8427L491.148 82.375L493.738 84.725L496.029 82.083L493.446 79.8427ZM506.85 64.3869L509.433 66.6273L511.536 64.2024L509.249 61.9504L506.85 64.3869ZM509.964 129.139L496.56 115.598L491.7 120.409L505.104 133.95L509.964 129.139ZM491.829 115.473C484.59 122.054 478.681 125.8 468.963 125.8V132.638C481.129 132.638 488.623 127.63 496.43 120.534L491.829 115.473ZM468.963 125.8C454.789 125.8 444.617 114.024 444.617 99.1282H437.778C437.778 117.059 450.31 132.638 468.963 132.638V125.8ZM444.617 99.1282V98.8546H437.778V99.1282H444.617ZM444.617 98.8546C444.617 84.0244 455.003 72.4567 468.963 72.4567V65.6179C450.643 65.6179 437.778 80.8585 437.778 98.8546H444.617ZM468.963 72.4567C477.387 72.4567 484.126 76.003 491.148 82.375L495.744 77.3104C487.994 70.2783 479.687 65.6179 468.963 65.6179V72.4567ZM496.029 82.083L509.433 66.6273L504.267 62.1466L490.863 77.6023L496.029 82.083ZM509.249 61.9504C499.775 52.6222 488.128 46.1956 469.1 46.1956V53.0345C486.18 53.0345 496.144 58.6442 504.451 66.8235L509.249 61.9504ZM469.1 46.1956C437.742 46.1956 415.757 70.0835 415.757 99.1282H422.595C422.595 73.7358 441.643 53.0345 469.1 53.0345V46.1956ZM415.757 99.1282V99.4017H422.595V99.1282H415.757ZM415.757 99.4017C415.757 128.738 438.171 152.061 468.279 152.061V145.222C442.035 145.222 422.595 125.049 422.595 99.4017H415.757ZM468.279 152.061C477.935 152.061 485.798 150.34 492.596 147.135C499.38 143.937 504.917 139.349 510.031 133.88L505.036 129.209C500.303 134.271 495.445 138.232 489.68 140.949C483.928 143.66 477.087 145.222 468.279 145.222V152.061ZM617.677 147V150.419H622.849L620.824 145.661L617.677 147ZM576.644 50.5725L579.791 49.2336L578.905 47.1531H576.644V50.5725ZM557.222 50.5725V47.1531H554.961L554.076 49.2336L557.222 50.5725ZM516.189 147L513.043 145.661L511.018 150.419H516.189V147ZM537.663 147V150.419H539.962L540.829 148.291L537.663 147ZM546.417 125.526V122.107H544.118L543.25 124.235L546.417 125.526ZM586.903 125.526L590.069 124.235L589.201 122.107H586.903V125.526ZM595.656 147L592.49 148.291L593.358 150.419H595.656V147ZM579.38 106.924V110.344H584.476L582.544 105.628L579.38 106.924ZM553.939 106.924L550.775 105.628L548.843 110.344H553.939V106.924ZM566.66 75.8762L569.824 74.5798L566.66 66.8566L563.496 74.5798L566.66 75.8762ZM620.824 145.661L579.791 49.2336L573.498 51.9114L614.531 148.339L620.824 145.661ZM576.644 47.1531H557.222V53.9919H576.644V47.1531ZM554.076 49.2336L513.043 145.661L519.336 148.339L560.369 51.9114L554.076 49.2336ZM516.189 150.419H537.663V143.581H516.189V150.419ZM540.829 148.291L549.583 126.817L543.25 124.235L534.497 145.709L540.829 148.291ZM546.417 128.945H586.903V122.107H546.417V128.945ZM583.736 126.817L592.49 148.291L598.823 145.709L590.069 124.235L583.736 126.817ZM595.656 150.419H617.677V143.581H595.656V150.419ZM579.38 103.505H553.939V110.344H579.38V103.505ZM557.104 108.221L569.824 77.1725L563.496 74.5798L550.775 105.628L557.104 108.221ZM563.496 77.1725L576.216 108.221L582.544 105.628L569.824 74.5798L563.496 77.1725ZM632.455 51.2564V47.837H629.035V51.2564H632.455ZM632.455 147H629.035V150.419H632.455V147ZM653.518 127.988H650.099V131.407H653.518V127.988ZM653.518 70.2683V66.8489H650.099V70.2683H653.518ZM724.095 99.1282V98.8546H717.256V99.1282H724.095ZM724.095 98.8546C724.095 69.8656 701.615 47.837 669.795 47.837V54.6758C698.156 54.6758 717.256 73.9537 717.256 98.8546H724.095ZM669.795 47.837H632.455V54.6758H669.795V47.837ZM629.035 51.2564V147H635.874V51.2564H629.035ZM632.455 150.419H669.795V143.581H632.455V150.419ZM669.795 150.419C701.641 150.419 724.095 128.092 724.095 99.1282H717.256C717.256 124.054 698.13 143.581 669.795 143.581V150.419ZM695.235 99.4017C695.235 107.08 692.619 113.317 688.278 117.629C683.935 121.942 677.625 124.569 669.795 124.569V131.407C679.198 131.407 687.318 128.221 693.097 122.481C698.878 116.74 702.074 108.684 702.074 99.4017H695.235ZM669.795 124.569H653.518V131.407H669.795V124.569ZM656.938 127.988V70.2683H650.099V127.988H656.938ZM653.518 73.6877H669.795V66.8489H653.518V73.6877ZM669.795 73.6877C677.602 73.6877 683.91 76.3675 688.261 80.7479C692.616 85.1318 695.235 91.4465 695.235 99.1282H702.074C702.074 89.8495 698.88 81.7344 693.113 75.9284C687.343 70.1189 679.221 66.8489 669.795 66.8489V73.6877ZM695.235 99.1282V99.4017H702.074V99.1282H695.235ZM840.386 99.1282V98.8546H833.547V99.1282H840.386ZM840.386 98.8546C840.386 69.7169 817.624 46.1956 786.222 46.1956V53.0345C813.909 53.0345 833.547 73.5553 833.547 98.8546H840.386ZM786.222 46.1956C754.821 46.1956 731.785 69.9907 731.785 99.1282H738.624C738.624 73.8286 758.537 53.0345 786.222 53.0345V46.1956ZM731.785 99.1282V99.4017H738.624V99.1282H731.785ZM731.785 99.4017C731.785 128.539 754.548 152.061 785.949 152.061V145.222C758.263 145.222 738.624 124.701 738.624 99.4017H731.785ZM785.949 152.061C817.351 152.061 840.386 128.266 840.386 99.1282H833.547C833.547 124.428 813.635 145.222 785.949 145.222V152.061ZM811.526 99.4017C811.526 114.14 801.087 125.8 786.222 125.8V132.638C805.278 132.638 818.365 117.489 818.365 99.4017H811.526ZM786.222 125.8C771.355 125.8 760.645 113.864 760.645 99.1282H753.806C753.806 117.219 767.169 132.638 786.222 132.638V125.8ZM760.645 99.1282V98.8546H753.806V99.1282H760.645ZM760.645 98.8546C760.645 84.1159 771.084 72.4567 785.949 72.4567V65.6179C766.893 65.6179 753.806 80.767 753.806 98.8546H760.645ZM785.949 72.4567C800.816 72.4567 811.526 84.3923 811.526 99.1282H818.365C818.365 81.0377 805.002 65.6179 785.949 65.6179V72.4567ZM811.526 99.1282V99.4017H818.365V99.1282H811.526ZM938.401 147V150.419H944.883L941.224 145.07L938.401 147ZM915.013 112.806L913.824 109.6L909.718 111.122L912.19 114.736L915.013 112.806ZM855.652 51.2564V47.837H852.232V51.2564H855.652ZM855.652 147H852.232V150.419H855.652V147ZM876.715 147V150.419H880.135V147H876.715ZM876.715 116.362V112.943H873.296V116.362H876.715ZM893.265 116.362L896.106 114.459L895.091 112.943H893.265V116.362ZM913.782 147L910.94 148.903L911.956 150.419H913.782V147ZM876.715 97.7604H873.296V101.18H876.715V97.7604ZM876.715 70.2683V66.8489H873.296V70.2683H876.715ZM941.224 145.07L917.835 110.875L912.19 114.736L935.579 148.93L941.224 145.07ZM916.201 116.012C922.799 113.566 928.523 109.647 932.594 104.09C936.678 98.515 938.949 91.4957 938.949 83.1253H932.11C932.11 90.2107 930.208 95.7748 927.077 100.048C923.934 104.339 919.399 107.532 913.824 109.6L916.201 116.012ZM938.949 83.1253V82.8518H932.11V83.1253H938.949ZM938.949 82.8518C938.949 72.1747 935.248 63.2785 928.191 57.0961C921.191 50.9641 911.275 47.837 899.42 47.837V54.6758C910.133 54.6758 918.272 57.4984 923.684 62.2402C929.04 66.9315 932.11 73.833 932.11 82.8518H938.949ZM899.42 47.837H855.652V54.6758H899.42V47.837ZM852.232 51.2564V147H859.071V51.2564H852.232ZM855.652 150.419H876.715V143.581H855.652V150.419ZM880.135 147V116.362H873.296V147H880.135ZM876.715 119.781H893.265V112.943H876.715V119.781ZM890.424 118.265L910.94 148.903L916.623 145.097L896.106 114.459L890.424 118.265ZM913.782 150.419H938.401V143.581H913.782V150.419ZM910.773 84.2195C910.773 87.3713 909.655 89.77 907.734 91.4279C905.762 93.1312 902.598 94.341 898.052 94.341V101.18C903.765 101.18 908.671 99.6541 912.204 96.6044C915.789 93.5093 917.611 89.1376 917.611 84.2195H910.773ZM898.052 94.341H876.715V101.18H898.052V94.341ZM880.135 97.7604V70.2683H873.296V97.7604H880.135ZM876.715 73.6877H897.642V66.8489H876.715V73.6877ZM897.642 73.6877C902.316 73.6877 905.587 74.7545 907.624 76.3889C909.545 77.9304 910.773 80.2972 910.773 83.946H917.611C917.611 78.5675 915.693 74.0955 911.904 71.0549C908.23 68.1074 903.226 66.8489 897.642 66.8489V73.6877ZM910.773 83.946V84.2195H917.611V83.946H910.773ZM1027.4 147V150.419H1030.82V147H1027.4ZM1027.4 128.262H1030.82V124.842H1027.4V128.262ZM975.421 128.262H972.001V131.681H975.421V128.262ZM975.421 108.155V104.736H972.001V108.155H975.421ZM1020.56 108.155V111.575H1023.98V108.155H1020.56ZM1020.56 89.417H1023.98V85.9976H1020.56V89.417ZM975.421 89.417H972.001V92.8365H975.421V89.417ZM975.421 69.9948V66.5754H972.001V69.9948H975.421ZM1026.71 69.9948V73.4142H1030.13V69.9948H1026.71ZM1026.71 51.2564H1030.13V47.837H1026.71V51.2564ZM954.494 51.2564V47.837H951.075V51.2564H954.494ZM954.494 147H951.075V150.419H954.494V147ZM1030.82 147V128.262H1023.98V147H1030.82ZM1027.4 124.842H975.421V131.681H1027.4V124.842ZM978.84 128.262V108.155H972.001V128.262H978.84ZM975.421 111.575H1020.56V104.736H975.421V111.575ZM1023.98 108.155V89.417H1017.14V108.155H1023.98ZM1020.56 85.9976H975.421V92.8365H1020.56V85.9976ZM978.84 89.417V69.9948H972.001V89.417H978.84ZM975.421 73.4142H1026.71V66.5754H975.421V73.4142ZM1030.13 69.9948V51.2564H1023.29V69.9948H1030.13ZM1026.71 47.837H954.494V54.6758H1026.71V47.837ZM951.075 51.2564V147H957.913V51.2564H951.075ZM954.494 150.419H1027.4V143.581H954.494V150.419ZM1084.97 89.6906L1085.83 86.3816L1085.82 86.3782L1084.97 89.6906ZM1101.52 77.9278L1099.57 80.7376L1102.39 82.6915L1104.33 79.8691L1101.52 77.9278ZM1112.46 62.0617L1115.28 64.003L1117.08 61.3857L1114.6 59.3953L1112.46 62.0617ZM1075.12 108.292L1075.97 104.98L1075.97 104.979L1075.12 108.292ZM1052.01 118.14L1054.18 115.503L1051.56 113.338L1049.38 115.949L1052.01 118.14ZM1039.56 133.049L1036.93 130.857L1034.81 133.396L1037.28 135.599L1039.56 133.049ZM1118.75 118.687V118.414H1111.91V118.687H1118.75ZM1118.75 118.414C1118.75 109.188 1115.66 102.286 1109.67 97.1053C1103.89 92.1072 1095.65 88.9411 1085.83 86.3817L1084.11 92.9995C1093.71 95.5009 1100.65 98.3529 1105.2 102.28C1109.53 106.023 1111.91 110.953 1111.91 118.414H1118.75ZM1085.82 86.3782C1077.42 84.2279 1072.77 82.7588 1070.18 81.2247C1068.98 80.5151 1068.46 79.9249 1068.19 79.4547C1067.93 78.9843 1067.73 78.3104 1067.73 77.1072H1060.9C1060.9 79.0498 1061.21 80.9917 1062.23 82.8081C1063.26 84.6246 1064.8 85.992 1066.7 87.1118C1070.29 89.2364 1075.96 90.9132 1084.12 93.003L1085.82 86.3782ZM1067.73 77.1072V76.8336H1060.9V77.1072H1067.73ZM1067.73 76.8336C1067.73 75.6594 1068.22 74.5788 1069.45 73.6834C1070.77 72.7282 1073.07 71.9097 1076.62 71.9097V65.0708C1072.11 65.0708 1068.26 66.0988 1065.43 68.1526C1062.53 70.2663 1060.9 73.3574 1060.9 76.8336H1067.73ZM1076.62 71.9097C1083.7 71.9097 1091.36 75.0431 1099.57 80.7376L1103.47 75.118C1094.72 69.0497 1085.69 65.0708 1076.62 65.0708V71.9097ZM1104.33 79.8691L1115.28 64.003L1109.65 60.1204L1098.7 75.9865L1104.33 79.8691ZM1114.6 59.3953C1104.27 51.1035 1091.61 46.4692 1076.9 46.4692V53.308C1090.08 53.308 1101.23 57.4274 1110.32 64.7282L1114.6 59.3953ZM1076.9 46.4692C1066.47 46.4692 1057.26 49.5353 1050.59 55.1994C1043.88 60.9033 1039.97 69.0767 1039.97 78.7485H1046.81C1046.81 71.0497 1049.87 64.7931 1055.02 60.4098C1060.23 55.9865 1067.77 53.308 1076.9 53.308V46.4692ZM1039.97 78.7485V79.022H1046.81V78.7485H1039.97ZM1039.97 79.022C1039.97 89.4281 1043.45 96.5706 1049.91 101.632C1056.07 106.454 1064.67 109.153 1074.27 111.605L1075.97 104.979C1066.29 102.508 1059.02 100.078 1054.13 96.2482C1049.55 92.6585 1046.81 87.6279 1046.81 79.022H1039.97ZM1074.27 111.604C1082.3 113.664 1086.6 115.262 1088.88 116.77C1089.94 117.47 1090.39 118.039 1090.61 118.47C1090.84 118.903 1090.99 119.485 1090.99 120.465H1097.83C1097.83 118.779 1097.57 117.018 1096.68 115.31C1095.78 113.6 1094.41 112.228 1092.65 111.064C1089.29 108.845 1083.94 107.024 1075.97 104.98L1074.27 111.604ZM1090.99 120.465V120.739H1097.83V120.465H1090.99ZM1090.99 120.739C1090.99 122.311 1090.34 123.526 1088.86 124.495C1087.23 125.558 1084.51 126.347 1080.59 126.347V133.186C1085.28 133.186 1089.47 132.265 1092.6 130.216C1095.88 128.073 1097.83 124.775 1097.83 120.739H1090.99ZM1080.59 126.347C1070.71 126.347 1062.43 122.311 1054.18 115.503L1049.83 120.777C1058.81 128.194 1068.59 133.186 1080.59 133.186V126.347ZM1049.38 115.949L1036.93 130.857L1042.18 135.24L1054.63 120.332L1049.38 115.949ZM1037.28 135.599C1049.44 146.453 1064.9 151.787 1080.18 151.787V144.948C1066.47 144.948 1052.66 140.161 1041.84 130.498L1037.28 135.599ZM1080.18 151.787C1091.06 151.787 1100.68 148.98 1107.66 143.311C1114.72 137.571 1118.75 129.147 1118.75 118.687H1111.91C1111.91 127.24 1108.7 133.656 1103.35 138.003C1097.91 142.421 1089.96 144.948 1080.18 144.948V151.787Z" fill="#0085FF"/>
</svg>
