<svg width="1324" height="608" viewBox="0 0 1324 608" fill="none" xmlns="http://www.w3.org/2000/svg">
<path d="M284.173 95.1523V98.546H287.567V95.1523H284.173ZM284.173 81.2046H287.567V77.8109H284.173V81.2046ZM245.486 81.2046H242.092V84.5982H245.486V81.2046ZM245.486 66.2387V62.8451H242.092V66.2387H245.486ZM279.083 66.2387V69.6323H282.477V66.2387H279.083ZM279.083 52.2909H282.477V48.8973H279.083V52.2909ZM245.486 52.2909H242.092V55.6845H245.486V52.2909ZM245.486 37.8341V34.4405H242.092V37.8341H245.486ZM283.664 37.8341V41.2277H287.058V37.8341H283.664ZM283.664 23.8863H287.058V20.4927H283.664V23.8863ZM229.909 23.8863V20.4927H226.516V23.8863H229.909ZM229.909 95.1523H226.516V98.546H229.909V95.1523ZM287.567 95.1523V81.2046H280.78V95.1523H287.567ZM284.173 77.8109H245.486V84.5982H284.173V77.8109ZM248.88 81.2046V66.2387H242.092V81.2046H248.88ZM245.486 69.6323H279.083V62.8451H245.486V69.6323ZM282.477 66.2387V52.2909H275.689V66.2387H282.477ZM279.083 48.8973H245.486V55.6845H279.083V48.8973ZM248.88 52.2909V37.8341H242.092V52.2909H248.88ZM245.486 41.2277H283.664V34.4405H245.486V41.2277ZM287.058 37.8341V23.8863H280.271V37.8341H287.058ZM283.664 20.4927H229.909V27.2799H283.664V20.4927ZM226.516 23.8863V95.1523H233.303V23.8863H226.516ZM229.909 98.546H284.173V91.7587H229.909V98.546ZM352.072 38.3431V41.7367H355.465V38.3431H352.072ZM352.072 23.8863H355.465V20.4927H352.072V23.8863ZM293.023 23.8863V20.4927H289.629V23.8863H293.023ZM293.023 38.3431H289.629V41.7367H293.023V38.3431ZM314.708 38.3431H318.102V34.9495H314.708V38.3431ZM314.708 95.1523H311.314V98.546H314.708V95.1523ZM330.386 95.1523V98.546H333.78V95.1523H330.386ZM330.386 38.3431V34.9495H326.993V38.3431H330.386ZM355.465 38.3431V23.8863H348.678V38.3431H355.465ZM352.072 20.4927H293.023V27.2799H352.072V20.4927ZM289.629 23.8863V38.3431H296.416V23.8863H289.629ZM293.023 41.7367H314.708V34.9495H293.023V41.7367ZM311.314 38.3431V95.1523H318.102V38.3431H311.314ZM314.708 98.546H330.386V91.7587H314.708V98.546ZM333.78 95.1523V38.3431H326.993V95.1523H333.78ZM330.386 41.7367H352.072V34.9495H330.386V41.7367ZM424.4 95.1523V98.546H427.794V95.1523H424.4ZM424.4 23.8863H427.794V20.4927H424.4V23.8863ZM408.722 23.8863V20.4927H405.328V23.8863H408.722ZM408.722 52.0873V55.4809H412.116V52.0873H408.722ZM379.808 52.0873H376.415V55.4809H379.808V52.0873ZM379.808 23.8863H383.202V20.4927H379.808V23.8863ZM364.13 23.8863V20.4927H360.736V23.8863H364.13ZM364.13 95.1523H360.736V98.546H364.13V95.1523ZM379.808 95.1523V98.546H383.202V95.1523H379.808ZM379.808 66.5441V63.1505H376.415V66.5441H379.808ZM408.722 66.5441H412.116V63.1505H408.722V66.5441ZM408.722 95.1523H405.328V98.546H408.722V95.1523ZM427.794 95.1523V23.8863H421.007V95.1523H427.794ZM424.4 20.4927H408.722V27.2799H424.4V20.4927ZM405.328 23.8863V52.0873H412.116V23.8863H405.328ZM408.722 48.6937H379.808V55.4809H408.722V48.6937ZM383.202 52.0873V23.8863H376.415V52.0873H383.202ZM379.808 20.4927H364.13V27.2799H379.808V20.4927ZM360.736 23.8863V95.1523H367.523V23.8863H360.736ZM364.13 98.546H379.808V91.7587H364.13V98.546ZM383.202 95.1523V66.5441H376.415V95.1523H383.202ZM379.808 69.9377H408.722V63.1505H379.808V69.9377ZM405.328 66.5441V95.1523H412.116V66.5441H405.328ZM408.722 98.546H424.4V91.7587H408.722V98.546ZM495.744 95.1523V98.546H499.138V95.1523H495.744ZM495.744 81.2046H499.138V77.8109H495.744V81.2046ZM457.057 81.2046H453.663V84.5982H457.057V81.2046ZM457.057 66.2387V62.8451H453.663V66.2387H457.057ZM490.654 66.2387V69.6323H494.048V66.2387H490.654ZM490.654 52.2909H494.048V48.8973H490.654V52.2909ZM457.057 52.2909H453.663V55.6845H457.057V52.2909ZM457.057 37.8341V34.4405H453.663V37.8341H457.057ZM495.235 37.8341V41.2277H498.629V37.8341H495.235ZM495.235 23.8863H498.629V20.4927H495.235V23.8863ZM441.48 23.8863V20.4927H438.087V23.8863H441.48ZM441.48 95.1523H438.087V98.546H441.48V95.1523ZM499.138 95.1523V81.2046H492.351V95.1523H499.138ZM495.744 77.8109H457.057V84.5982H495.744V77.8109ZM460.451 81.2046V66.2387H453.663V81.2046H460.451ZM457.057 69.6323H490.654V62.8451H457.057V69.6323ZM494.048 66.2387V52.2909H487.26V66.2387H494.048ZM490.654 48.8973H457.057V55.6845H490.654V48.8973ZM460.451 52.2909V37.8341H453.663V52.2909H460.451ZM457.057 41.2277H495.235V34.4405H457.057V41.2277ZM498.629 37.8341V23.8863H491.842V37.8341H498.629ZM495.235 20.4927H441.48V27.2799H495.235V20.4927ZM438.087 23.8863V95.1523H444.874V23.8863H438.087ZM441.48 98.546H495.744V91.7587H441.48V98.546ZM571.278 95.1523V98.546H577.711L574.08 93.2364L571.278 95.1523ZM553.869 69.7002L552.689 66.5182L548.615 68.0291L551.068 71.6161L553.869 69.7002ZM509.684 23.8863V20.4927H506.291V23.8863H509.684ZM509.684 95.1523H506.291V98.546H509.684V95.1523ZM525.363 95.1523V98.546H528.756V95.1523H525.363ZM525.363 72.3472V68.9536H521.969V72.3472H525.363ZM537.682 72.3472L540.501 70.459L539.493 68.9536H537.682V72.3472ZM552.953 95.1523L550.133 97.0406L551.141 98.546H552.953V95.1523ZM525.363 58.5012H521.969V61.8949H525.363V58.5012ZM525.363 38.0377V34.6441H521.969V38.0377H525.363ZM574.08 93.2364L556.67 67.7843L551.068 71.6161L568.477 97.0683L574.08 93.2364ZM555.049 72.8821C560.087 71.0142 564.495 68.007 567.64 63.7138C570.799 59.4028 572.534 53.9975 572.534 47.6077H565.747C565.747 52.7223 564.377 56.6833 562.165 59.7026C559.94 62.7396 556.713 65.0264 552.689 66.5182L555.049 72.8821ZM572.534 47.6077V47.4041H565.747V47.6077H572.534ZM572.534 47.4041C572.534 39.251 569.702 32.3817 564.237 27.5949C558.83 22.8581 551.229 20.4927 542.263 20.4927V27.2799C550.095 27.2799 555.933 29.3432 559.765 32.7002C563.54 36.0071 565.747 40.8968 565.747 47.4041H572.534ZM542.263 20.4927H509.684V27.2799H542.263V20.4927ZM506.291 23.8863V95.1523H513.078V23.8863H506.291ZM509.684 98.546H525.363V91.7587H509.684V98.546ZM528.756 95.1523V72.3472H521.969V95.1523H528.756ZM525.363 75.7408H537.682V68.9536H525.363V75.7408ZM534.862 74.2355L550.133 97.0406L555.773 93.2641L540.501 70.459L534.862 74.2355ZM552.953 98.546H571.278V91.7587H552.953V98.546ZM549.865 48.4222C549.865 50.5491 549.12 52.0898 547.897 53.1455C546.622 54.2463 544.484 55.1076 541.245 55.1076V61.8949C545.641 61.8949 549.51 60.72 552.333 58.2829C555.208 55.8008 556.652 52.302 556.652 48.4222H549.865ZM541.245 55.1076H525.363V61.8949H541.245V55.1076ZM528.756 58.5012V38.0377H521.969V58.5012H528.756ZM525.363 41.4313H540.939V34.6441H525.363V41.4313ZM540.939 41.4313C544.305 41.4313 546.525 42.2015 547.838 43.2552C549.037 44.2166 549.865 45.7172 549.865 48.2186H556.652C556.652 44.0005 555.138 40.4107 552.086 37.9615C549.149 35.6046 545.209 34.6441 540.939 34.6441V41.4313ZM549.865 48.2186V48.4222H556.652V48.2186H549.865ZM646.582 95.1523V98.546H649.975V95.1523H646.582ZM646.582 23.8863H649.975V20.4927H646.582V23.8863ZM631.107 23.8863V20.4927H627.713V23.8863H631.107ZM631.107 67.7658L628.406 69.821L634.501 77.8289V67.7658H631.107ZM597.714 23.8863L600.414 21.8311L599.396 20.4927H597.714V23.8863ZM583.257 23.8863V20.4927H579.863V23.8863H583.257ZM583.257 95.1523H579.863V98.546H583.257V95.1523ZM598.732 95.1523V98.546H602.125V95.1523H598.732ZM598.732 49.8475L601.431 47.791L595.338 39.7926V49.8475H598.732ZM633.245 95.1523L630.545 97.2088L631.564 98.546H633.245V95.1523ZM649.975 95.1523V23.8863H643.188V95.1523H649.975ZM646.582 20.4927H631.107V27.2799H646.582V20.4927ZM627.713 23.8863V67.7658H634.501V23.8863H627.713ZM633.807 65.7106L600.414 21.8311L595.013 25.9415L628.406 69.821L633.807 65.7106ZM597.714 20.4927H583.257V27.2799H597.714V20.4927ZM579.863 23.8863V95.1523H586.651V23.8863H579.863ZM583.257 98.546H598.732V91.7587H583.257V98.546ZM602.125 95.1523V49.8475H595.338V95.1523H602.125ZM596.032 51.904L630.545 97.2088L635.944 93.0958L601.431 47.791L596.032 51.904ZM633.245 98.546H646.582V91.7587H633.245V98.546ZM680.081 95.1523V98.546H683.474V95.1523H680.081ZM680.081 23.8863H683.474V20.4927H680.081V23.8863ZM664.402 23.8863V20.4927H661.009V23.8863H664.402ZM664.402 95.1523H661.009V98.546H664.402V95.1523ZM683.474 95.1523V23.8863H676.687V95.1523H683.474ZM680.081 20.4927H664.402V27.2799H680.081V20.4927ZM661.009 23.8863V95.1523H667.796V23.8863H661.009ZM664.402 98.546H680.081V91.7587H664.402V98.546ZM767.325 95.1523V98.546H772.457L770.447 93.8236L767.325 95.1523ZM736.782 23.3772L739.905 22.0485L739.026 19.9836H736.782V23.3772ZM722.325 23.3772V19.9836H720.081L719.202 22.0485L722.325 23.3772ZM691.783 95.1523L688.66 93.8236L686.65 98.546H691.783V95.1523ZM707.766 95.1523V98.546H710.048L710.909 96.4334L707.766 95.1523ZM714.282 79.1684V75.7748H712.001L711.14 77.8873L714.282 79.1684ZM744.418 79.1684L747.56 77.8873L746.699 75.7748H744.418V79.1684ZM750.933 95.1523L747.791 96.4334L748.652 98.546H750.933V95.1523ZM738.818 65.3224V68.716H743.876L741.958 64.0359L738.818 65.3224ZM719.882 65.3224L716.741 64.0359L714.824 68.716H719.882V65.3224ZM729.35 42.2118L732.49 40.9253L729.35 33.2603L726.21 40.9253L729.35 42.2118ZM770.447 93.8236L739.905 22.0485L733.659 24.706L764.202 96.4811L770.447 93.8236ZM736.782 19.9836H722.325V26.7709H736.782V19.9836ZM719.202 22.0485L688.66 93.8236L694.905 96.4811L725.448 24.706L719.202 22.0485ZM691.783 98.546H707.766V91.7587H691.783V98.546ZM710.909 96.4334L717.425 80.4494L711.14 77.8873L704.624 93.8713L710.909 96.4334ZM714.282 82.562H744.418V75.7748H714.282V82.562ZM741.275 80.4494L747.791 96.4334L754.076 93.8713L747.56 77.8873L741.275 80.4494ZM750.933 98.546H767.325V91.7587H750.933V98.546ZM738.818 61.9288H719.882V68.716H738.818V61.9288ZM723.022 66.609L732.49 43.4984L726.21 40.9253L716.741 64.0359L723.022 66.609ZM726.21 43.4984L735.678 66.609L741.958 64.0359L732.49 40.9253L726.21 43.4984ZM871.459 83.648L873.938 85.9658L876.168 83.5809L873.871 81.2605L871.459 83.648ZM861.482 73.5689L863.893 71.1815L861.605 68.8701L859.199 71.0578L861.482 73.5689ZM860.973 45.1643L858.692 47.6775L861.262 50.0098L863.536 47.3877L860.973 45.1643ZM870.95 33.6599L873.514 35.8834L875.601 33.4768L873.331 31.2417L870.95 33.6599ZM873.871 81.2605L863.893 71.1815L859.07 75.9564L869.047 86.0354L873.871 81.2605ZM859.199 71.0578C853.881 75.8923 849.679 78.5236 842.749 78.5236V85.3108C852.109 85.3108 857.883 81.4263 863.764 76.08L859.199 71.0578ZM842.749 78.5236C832.754 78.5236 825.475 70.2306 825.475 59.5193H818.688C818.688 73.2421 828.309 85.3108 842.749 85.3108V78.5236ZM825.475 59.5193V59.3157H818.688V59.5193H825.475ZM825.475 59.3157C825.475 48.6697 832.899 40.515 842.749 40.515V33.7278C828.572 33.7278 818.688 45.5276 818.688 59.3157H825.475ZM842.749 40.515C848.734 40.515 853.555 43.0164 858.692 47.6775L863.253 42.6511C857.394 37.3349 851.017 33.7278 842.749 33.7278V40.515ZM863.536 47.3877L873.514 35.8834L868.386 31.4365L858.409 42.9408L863.536 47.3877ZM873.331 31.2417C866.134 24.1559 857.256 19.271 842.851 19.271V26.0582C855.323 26.0582 862.53 30.1324 868.569 36.0781L873.331 31.2417ZM842.851 19.271C819.026 19.271 802.297 37.447 802.297 59.5193H809.084C809.084 41.0718 822.897 26.0582 842.851 26.0582V19.271ZM802.297 59.5193V59.7229H809.084V59.5193H802.297ZM802.297 59.7229C802.297 82.0171 819.35 99.7677 842.24 99.7677V92.9804C823.185 92.9804 809.084 78.3558 809.084 59.7229H802.297ZM842.24 99.7677C849.533 99.7677 855.512 98.4669 860.702 96.0204C865.878 93.5803 870.083 90.0876 873.938 85.9658L868.98 81.3301C865.504 85.0476 861.972 87.9179 857.808 89.8811C853.656 91.8378 848.691 92.9804 842.24 92.9804V99.7677ZM958.005 59.5193V59.3157H951.217V59.5193H958.005ZM958.005 59.3157C958.005 37.151 940.674 19.271 916.84 19.271V26.0582C936.987 26.0582 951.217 40.9605 951.217 59.3157H958.005ZM916.84 19.271C893.006 19.271 875.472 37.3549 875.472 59.5193H882.259C882.259 41.1639 896.693 26.0582 916.84 26.0582V19.271ZM875.472 59.5193V59.7229H882.259V59.5193H875.472ZM875.472 59.7229C875.472 81.8876 892.802 99.7677 916.636 99.7677V92.9804C896.489 92.9804 882.259 78.0781 882.259 59.7229H875.472ZM916.636 99.7677C940.471 99.7677 958.005 81.6837 958.005 59.5193H951.217C951.217 77.8747 936.783 92.9804 916.636 92.9804V99.7677ZM934.826 59.7229C934.826 70.2781 927.385 78.5236 916.84 78.5236V85.3108C931.544 85.3108 941.614 73.6018 941.614 59.7229H934.826ZM916.84 78.5236C906.293 78.5236 898.65 70.0717 898.65 59.5193H891.863C891.863 73.401 902.139 85.3108 916.84 85.3108V78.5236ZM898.65 59.5193V59.3157H891.863V59.5193H898.65ZM898.65 59.3157C898.65 48.7605 906.092 40.515 916.636 40.515V33.7278C901.932 33.7278 891.863 45.4368 891.863 59.3157H898.65ZM916.636 40.515C927.184 40.515 934.826 48.9669 934.826 59.5193H941.614C941.614 45.6377 931.338 33.7278 916.636 33.7278V40.515ZM934.826 59.5193V59.7229H941.614V59.5193H934.826ZM1019.73 95.1523V98.546H1023.12V95.1523H1019.73ZM1019.73 80.8991H1023.12V77.5055H1019.73V80.8991ZM984.198 80.8991H980.804V84.2928H984.198V80.8991ZM984.198 23.8863H987.591V20.4927H984.198V23.8863ZM968.519 23.8863V20.4927H965.125V23.8863H968.519ZM968.519 95.1523H965.125V98.546H968.519V95.1523ZM1023.12 95.1523V80.8991H1016.34V95.1523H1023.12ZM1019.73 77.5055H984.198V84.2928H1019.73V77.5055ZM987.591 80.8991V23.8863H980.804V80.8991H987.591ZM984.198 20.4927H968.519V27.2799H984.198V20.4927ZM965.125 23.8863V95.1523H971.913V23.8863H965.125ZM968.519 98.546H1019.73V91.7587H968.519V98.546ZM1031.55 23.8863V20.4927H1028.16V23.8863H1031.55ZM1031.55 95.1523H1028.16V98.546H1031.55V95.1523ZM1047.23 81.0009H1043.84V84.3946H1047.23V81.0009ZM1047.23 38.0377V34.6441H1043.84V38.0377H1047.23ZM1100.61 59.5193V59.3157H1093.83V59.5193H1100.61ZM1100.61 59.3157C1100.61 37.2307 1083.46 20.4927 1059.35 20.4927V27.2799C1080.03 27.2799 1093.83 41.2881 1093.83 59.3157H1100.61ZM1059.35 20.4927H1031.55V27.2799H1059.35V20.4927ZM1028.16 23.8863V95.1523H1034.95V23.8863H1028.16ZM1031.55 98.546H1059.35V91.7587H1031.55V98.546ZM1059.35 98.546C1083.49 98.546 1100.61 81.5793 1100.61 59.5193H1093.83C1093.83 77.5719 1080 91.7587 1059.35 91.7587V98.546ZM1077.43 59.7229C1077.43 65.2394 1075.56 69.6564 1072.51 72.6883C1069.45 75.7214 1064.98 77.6073 1059.35 77.6073V84.3946C1066.54 84.3946 1072.81 81.9536 1077.29 77.5038C1081.77 73.0528 1084.22 66.8308 1084.22 59.7229H1077.43ZM1059.35 77.6073H1047.23V84.3946H1059.35V77.6073ZM1050.63 81.0009V38.0377H1043.84V81.0009H1050.63ZM1047.23 41.4313H1059.35V34.6441H1047.23V41.4313ZM1059.35 41.4313C1064.96 41.4313 1069.43 43.3527 1072.49 46.436C1075.56 49.5227 1077.43 53.9996 1077.43 59.5193H1084.22C1084.22 52.4147 1081.77 46.1509 1077.31 41.6528C1072.83 37.1513 1066.56 34.6441 1059.35 34.6441V41.4313ZM1077.43 59.5193V59.7229H1084.22V59.5193H1077.43Z" fill="black"/>
<path opacity="0.5" d="M284.173 217.322V220.716H287.567V217.322H284.173ZM284.173 203.374H287.567V199.981H284.173V203.374ZM245.486 203.374H242.092V206.768H245.486V203.374ZM245.486 188.409V185.015H242.092V188.409H245.486ZM279.083 188.409V191.802H282.477V188.409H279.083ZM279.083 174.461H282.477V171.067H279.083V174.461ZM245.486 174.461H242.092V177.854H245.486V174.461ZM245.486 160.004V156.61H242.092V160.004H245.486ZM283.664 160.004V163.398H287.058V160.004H283.664ZM283.664 146.056H287.058V142.663H283.664V146.056ZM229.909 146.056V142.663H226.516V146.056H229.909ZM229.909 217.322H226.516V220.716H229.909V217.322ZM287.567 217.322V203.374H280.78V217.322H287.567ZM284.173 199.981H245.486V206.768H284.173V199.981ZM248.88 203.374V188.409H242.092V203.374H248.88ZM245.486 191.802H279.083V185.015H245.486V191.802ZM282.477 188.409V174.461H275.689V188.409H282.477ZM279.083 171.067H245.486V177.854H279.083V171.067ZM248.88 174.461V160.004H242.092V174.461H248.88ZM245.486 163.398H283.664V156.61H245.486V163.398ZM287.058 160.004V146.056H280.271V160.004H287.058ZM283.664 142.663H229.909V149.45H283.664V142.663ZM226.516 146.056V217.322H233.303V146.056H226.516ZM229.909 220.716H284.173V213.929H229.909V220.716ZM352.072 160.513V163.907H355.465V160.513H352.072ZM352.072 146.056H355.465V142.663H352.072V146.056ZM293.023 146.056V142.663H289.629V146.056H293.023ZM293.023 160.513H289.629V163.907H293.023V160.513ZM314.708 160.513H318.102V157.119H314.708V160.513ZM314.708 217.322H311.314V220.716H314.708V217.322ZM330.386 217.322V220.716H333.78V217.322H330.386ZM330.386 160.513V157.119H326.993V160.513H330.386ZM355.465 160.513V146.056H348.678V160.513H355.465ZM352.072 142.663H293.023V149.45H352.072V142.663ZM289.629 146.056V160.513H296.416V146.056H289.629ZM293.023 163.907H314.708V157.119H293.023V163.907ZM311.314 160.513V217.322H318.102V160.513H311.314ZM314.708 220.716H330.386V213.929H314.708V220.716ZM333.78 217.322V160.513H326.993V217.322H333.78ZM330.386 163.907H352.072V157.119H330.386V163.907ZM424.4 217.322V220.716H427.794V217.322H424.4ZM424.4 146.056H427.794V142.663H424.4V146.056ZM408.722 146.056V142.663H405.328V146.056H408.722ZM408.722 174.257V177.651H412.116V174.257H408.722ZM379.808 174.257H376.415V177.651H379.808V174.257ZM379.808 146.056H383.202V142.663H379.808V146.056ZM364.13 146.056V142.663H360.736V146.056H364.13ZM364.13 217.322H360.736V220.716H364.13V217.322ZM379.808 217.322V220.716H383.202V217.322H379.808ZM379.808 188.714V185.32H376.415V188.714H379.808ZM408.722 188.714H412.116V185.32H408.722V188.714ZM408.722 217.322H405.328V220.716H408.722V217.322ZM427.794 217.322V146.056H421.007V217.322H427.794ZM424.4 142.663H408.722V149.45H424.4V142.663ZM405.328 146.056V174.257H412.116V146.056H405.328ZM408.722 170.864H379.808V177.651H408.722V170.864ZM383.202 174.257V146.056H376.415V174.257H383.202ZM379.808 142.663H364.13V149.45H379.808V142.663ZM360.736 146.056V217.322H367.523V146.056H360.736ZM364.13 220.716H379.808V213.929H364.13V220.716ZM383.202 217.322V188.714H376.415V217.322H383.202ZM379.808 192.108H408.722V185.32H379.808V192.108ZM405.328 188.714V217.322H412.116V188.714H405.328ZM408.722 220.716H424.4V213.929H408.722V220.716ZM495.744 217.322V220.716H499.138V217.322H495.744ZM495.744 203.374H499.138V199.981H495.744V203.374ZM457.057 203.374H453.663V206.768H457.057V203.374ZM457.057 188.409V185.015H453.663V188.409H457.057ZM490.654 188.409V191.802H494.048V188.409H490.654ZM490.654 174.461H494.048V171.067H490.654V174.461ZM457.057 174.461H453.663V177.854H457.057V174.461ZM457.057 160.004V156.61H453.663V160.004H457.057ZM495.235 160.004V163.398H498.629V160.004H495.235ZM495.235 146.056H498.629V142.663H495.235V146.056ZM441.48 146.056V142.663H438.087V146.056H441.48ZM441.48 217.322H438.087V220.716H441.48V217.322ZM499.138 217.322V203.374H492.351V217.322H499.138ZM495.744 199.981H457.057V206.768H495.744V199.981ZM460.451 203.374V188.409H453.663V203.374H460.451ZM457.057 191.802H490.654V185.015H457.057V191.802ZM494.048 188.409V174.461H487.26V188.409H494.048ZM490.654 171.067H457.057V177.854H490.654V171.067ZM460.451 174.461V160.004H453.663V174.461H460.451ZM457.057 163.398H495.235V156.61H457.057V163.398ZM498.629 160.004V146.056H491.842V160.004H498.629ZM495.235 142.663H441.48V149.45H495.235V142.663ZM438.087 146.056V217.322H444.874V146.056H438.087ZM441.48 220.716H495.744V213.929H441.48V220.716ZM571.278 217.322V220.716H577.711L574.08 215.406L571.278 217.322ZM553.869 191.87L552.689 188.688L548.615 190.199L551.068 193.786L553.869 191.87ZM509.684 146.056V142.663H506.291V146.056H509.684ZM509.684 217.322H506.291V220.716H509.684V217.322ZM525.363 217.322V220.716H528.756V217.322H525.363ZM525.363 194.517V191.124H521.969V194.517H525.363ZM537.682 194.517L540.501 192.629L539.493 191.124H537.682V194.517ZM552.953 217.322L550.133 219.211L551.141 220.716H552.953V217.322ZM525.363 180.671H521.969V184.065H525.363V180.671ZM525.363 160.208V156.814H521.969V160.208H525.363ZM574.08 215.406L556.67 189.954L551.068 193.786L568.477 219.238L574.08 215.406ZM555.049 195.052C560.087 193.184 564.495 190.177 567.64 185.884C570.799 181.573 572.534 176.167 572.534 169.778H565.747C565.747 174.892 564.377 178.853 562.165 181.872C559.94 184.91 556.713 187.196 552.689 188.688L555.049 195.052ZM572.534 169.778V169.574H565.747V169.778H572.534ZM572.534 169.574C572.534 161.421 569.702 154.552 564.237 149.765C558.83 145.028 551.229 142.663 542.263 142.663V149.45C550.095 149.45 555.933 151.513 559.765 154.87C563.54 158.177 565.747 163.067 565.747 169.574H572.534ZM542.263 142.663H509.684V149.45H542.263V142.663ZM506.291 146.056V217.322H513.078V146.056H506.291ZM509.684 220.716H525.363V213.929H509.684V220.716ZM528.756 217.322V194.517H521.969V217.322H528.756ZM525.363 197.911H537.682V191.124H525.363V197.911ZM534.862 196.405L550.133 219.211L555.773 215.434L540.501 192.629L534.862 196.405ZM552.953 220.716H571.278V213.929H552.953V220.716ZM549.865 170.592C549.865 172.719 549.12 174.26 547.897 175.315C546.622 176.416 544.484 177.278 541.245 177.278V184.065C545.641 184.065 549.51 182.89 552.333 180.453C555.208 177.971 556.652 174.472 556.652 170.592H549.865ZM541.245 177.278H525.363V184.065H541.245V177.278ZM528.756 180.671V160.208H521.969V180.671H528.756ZM525.363 163.601H540.939V156.814H525.363V163.601ZM540.939 163.601C544.305 163.601 546.525 164.371 547.838 165.425C549.037 166.387 549.865 167.887 549.865 170.388H556.652C556.652 166.17 555.138 162.581 552.086 160.131C549.149 157.775 545.209 156.814 540.939 156.814V163.601ZM549.865 170.388V170.592H556.652V170.388H549.865ZM646.582 217.322V220.716H649.975V217.322H646.582ZM646.582 146.056H649.975V142.663H646.582V146.056ZM631.107 146.056V142.663H627.713V146.056H631.107ZM631.107 189.936L628.406 191.991L634.501 199.999V189.936H631.107ZM597.714 146.056L600.414 144.001L599.396 142.663H597.714V146.056ZM583.257 146.056V142.663H579.863V146.056H583.257ZM583.257 217.322H579.863V220.716H583.257V217.322ZM598.732 217.322V220.716H602.125V217.322H598.732ZM598.732 172.017L601.431 169.961L595.338 161.963V172.017H598.732ZM633.245 217.322L630.545 219.379L631.564 220.716H633.245V217.322ZM649.975 217.322V146.056H643.188V217.322H649.975ZM646.582 142.663H631.107V149.45H646.582V142.663ZM627.713 146.056V189.936H634.501V146.056H627.713ZM633.807 187.881L600.414 144.001L595.013 148.111L628.406 191.991L633.807 187.881ZM597.714 142.663H583.257V149.45H597.714V142.663ZM579.863 146.056V217.322H586.651V146.056H579.863ZM583.257 220.716H598.732V213.929H583.257V220.716ZM602.125 217.322V172.017H595.338V217.322H602.125ZM596.032 174.074L630.545 219.379L635.944 215.266L601.431 169.961L596.032 174.074ZM633.245 220.716H646.582V213.929H633.245V220.716ZM680.081 217.322V220.716H683.474V217.322H680.081ZM680.081 146.056H683.474V142.663H680.081V146.056ZM664.402 146.056V142.663H661.009V146.056H664.402ZM664.402 217.322H661.009V220.716H664.402V217.322ZM683.474 217.322V146.056H676.687V217.322H683.474ZM680.081 142.663H664.402V149.45H680.081V142.663ZM661.009 146.056V217.322H667.796V146.056H661.009ZM664.402 220.716H680.081V213.929H664.402V220.716ZM767.325 217.322V220.716H772.457L770.447 215.993L767.325 217.322ZM736.782 145.547L739.905 144.218L739.026 142.154H736.782V145.547ZM722.325 145.547V142.154H720.081L719.202 144.218L722.325 145.547ZM691.783 217.322L688.66 215.993L686.65 220.716H691.783V217.322ZM707.766 217.322V220.716H710.048L710.909 218.603L707.766 217.322ZM714.282 201.338V197.945H712.001L711.14 200.057L714.282 201.338ZM744.418 201.338L747.56 200.057L746.699 197.945H744.418V201.338ZM750.933 217.322L747.791 218.603L748.652 220.716H750.933V217.322ZM738.818 187.492V190.886H743.876L741.958 186.206L738.818 187.492ZM719.882 187.492L716.741 186.206L714.824 190.886H719.882V187.492ZM729.35 164.382L732.49 163.095L729.35 155.43L726.21 163.095L729.35 164.382ZM770.447 215.993L739.905 144.218L733.659 146.876L764.202 218.651L770.447 215.993ZM736.782 142.154H722.325V148.941H736.782V142.154ZM719.202 144.218L688.66 215.993L694.905 218.651L725.448 146.876L719.202 144.218ZM691.783 220.716H707.766V213.929H691.783V220.716ZM710.909 218.603L717.425 202.619L711.14 200.057L704.624 216.041L710.909 218.603ZM714.282 204.732H744.418V197.945H714.282V204.732ZM741.275 202.619L747.791 218.603L754.076 216.041L747.56 200.057L741.275 202.619ZM750.933 220.716H767.325V213.929H750.933V220.716ZM738.818 184.099H719.882V190.886H738.818V184.099ZM723.022 188.779L732.49 165.668L726.21 163.095L716.741 186.206L723.022 188.779ZM726.21 165.668L735.678 188.779L741.958 186.206L732.49 163.095L726.21 165.668ZM871.459 205.818L873.938 208.136L876.168 205.751L873.871 203.43L871.459 205.818ZM861.482 195.739L863.893 193.351L861.605 191.04L859.199 193.228L861.482 195.739ZM860.973 167.334L858.692 169.847L861.262 172.18L863.536 169.558L860.973 167.334ZM870.95 155.83L873.514 158.053L875.601 155.647L873.331 153.412L870.95 155.83ZM873.871 203.43L863.893 193.351L859.07 198.126L869.047 208.205L873.871 203.43ZM859.199 193.228C853.881 198.062 849.679 200.694 842.749 200.694V207.481C852.109 207.481 857.883 203.596 863.764 198.25L859.199 193.228ZM842.749 200.694C832.754 200.694 825.475 192.401 825.475 181.689H818.688C818.688 195.412 828.309 207.481 842.749 207.481V200.694ZM825.475 181.689V181.486H818.688V181.689H825.475ZM825.475 181.486C825.475 170.84 832.899 162.685 842.749 162.685V155.898C828.572 155.898 818.688 167.698 818.688 181.486H825.475ZM842.749 162.685C848.734 162.685 853.555 165.186 858.692 169.847L863.253 164.821C857.394 159.505 851.017 155.898 842.749 155.898V162.685ZM863.536 169.558L873.514 158.053L868.386 153.606L858.409 165.111L863.536 169.558ZM873.331 153.412C866.134 146.326 857.256 141.441 842.851 141.441V148.228C855.323 148.228 862.53 152.302 868.569 158.248L873.331 153.412ZM842.851 141.441C819.026 141.441 802.297 159.617 802.297 181.689H809.084C809.084 163.242 822.897 148.228 842.851 148.228V141.441ZM802.297 181.689V181.893H809.084V181.689H802.297ZM802.297 181.893C802.297 204.187 819.35 221.938 842.24 221.938V215.15C823.185 215.15 809.084 200.526 809.084 181.893H802.297ZM842.24 221.938C849.533 221.938 855.512 220.637 860.702 218.19C865.878 215.75 870.083 212.258 873.938 208.136L868.98 203.5C865.504 207.217 861.972 210.088 857.808 212.051C853.656 214.008 848.691 215.15 842.24 215.15V221.938ZM958.005 181.689V181.486H951.217V181.689H958.005ZM958.005 181.486C958.005 159.321 940.674 141.441 916.84 141.441V148.228C936.987 148.228 951.217 163.13 951.217 181.486H958.005ZM916.84 141.441C893.006 141.441 875.472 159.525 875.472 181.689H882.259C882.259 163.334 896.693 148.228 916.84 148.228V141.441ZM875.472 181.689V181.893H882.259V181.689H875.472ZM875.472 181.893C875.472 204.058 892.802 221.938 916.636 221.938V215.15C896.489 215.15 882.259 200.248 882.259 181.893H875.472ZM916.636 221.938C940.471 221.938 958.005 203.854 958.005 181.689H951.217C951.217 200.045 936.783 215.15 916.636 215.15V221.938ZM934.826 181.893C934.826 192.448 927.385 200.694 916.84 200.694V207.481C931.544 207.481 941.614 195.772 941.614 181.893H934.826ZM916.84 200.694C906.293 200.694 898.65 192.242 898.65 181.689H891.863C891.863 195.571 902.139 207.481 916.84 207.481V200.694ZM898.65 181.689V181.486H891.863V181.689H898.65ZM898.65 181.486C898.65 170.93 906.092 162.685 916.636 162.685V155.898C901.932 155.898 891.863 167.607 891.863 181.486H898.65ZM916.636 162.685C927.184 162.685 934.826 171.137 934.826 181.689H941.614C941.614 167.808 931.338 155.898 916.636 155.898V162.685ZM934.826 181.689V181.893H941.614V181.689H934.826ZM1019.73 217.322V220.716H1023.12V217.322H1019.73ZM1019.73 203.069H1023.12V199.675H1019.73V203.069ZM984.198 203.069H980.804V206.463H984.198V203.069ZM984.198 146.056H987.591V142.663H984.198V146.056ZM968.519 146.056V142.663H965.125V146.056H968.519ZM968.519 217.322H965.125V220.716H968.519V217.322ZM1023.12 217.322V203.069H1016.34V217.322H1023.12ZM1019.73 199.675H984.198V206.463H1019.73V199.675ZM987.591 203.069V146.056H980.804V203.069H987.591ZM984.198 142.663H968.519V149.45H984.198V142.663ZM965.125 146.056V217.322H971.913V146.056H965.125ZM968.519 220.716H1019.73V213.929H968.519V220.716ZM1031.55 146.056V142.663H1028.16V146.056H1031.55ZM1031.55 217.322H1028.16V220.716H1031.55V217.322ZM1047.23 203.171H1043.84V206.564H1047.23V203.171ZM1047.23 160.208V156.814H1043.84V160.208H1047.23ZM1100.61 181.689V181.486H1093.83V181.689H1100.61ZM1100.61 181.486C1100.61 159.401 1083.46 142.663 1059.35 142.663V149.45C1080.03 149.45 1093.83 163.458 1093.83 181.486H1100.61ZM1059.35 142.663H1031.55V149.45H1059.35V142.663ZM1028.16 146.056V217.322H1034.95V146.056H1028.16ZM1031.55 220.716H1059.35V213.929H1031.55V220.716ZM1059.35 220.716C1083.49 220.716 1100.61 203.749 1100.61 181.689H1093.83C1093.83 199.742 1080 213.929 1059.35 213.929V220.716ZM1077.43 181.893C1077.43 187.409 1075.56 191.826 1072.51 194.858C1069.45 197.891 1064.98 199.777 1059.35 199.777V206.564C1066.54 206.564 1072.81 204.124 1077.29 199.674C1081.77 195.223 1084.22 189.001 1084.22 181.893H1077.43ZM1059.35 199.777H1047.23V206.564H1059.35V199.777ZM1050.63 203.171V160.208H1043.84V203.171H1050.63ZM1047.23 163.601H1059.35V156.814H1047.23V163.601ZM1059.35 163.601C1064.96 163.601 1069.43 165.523 1072.49 168.606C1075.56 171.693 1077.43 176.17 1077.43 181.689H1084.22C1084.22 174.585 1081.77 168.321 1077.31 163.823C1072.83 159.321 1066.56 156.814 1059.35 156.814V163.601ZM1077.43 181.689V181.893H1084.22V181.689H1077.43Z" fill="black"/>
<path opacity="0.2" d="M284.173 329.312V332.706H287.567V329.312H284.173ZM284.173 315.365H287.567V311.971H284.173V315.365ZM245.486 315.365H242.092V318.758H245.486V315.365ZM245.486 300.399V297.005H242.092V300.399H245.486ZM279.083 300.399V303.792H282.477V300.399H279.083ZM279.083 286.451H282.477V283.057H279.083V286.451ZM245.486 286.451H242.092V289.845H245.486V286.451ZM245.486 271.994V268.601H242.092V271.994H245.486ZM283.664 271.994V275.388H287.058V271.994H283.664ZM283.664 258.046H287.058V254.653H283.664V258.046ZM229.909 258.046V254.653H226.516V258.046H229.909ZM229.909 329.312H226.516V332.706H229.909V329.312ZM287.567 329.312V315.365H280.78V329.312H287.567ZM284.173 311.971H245.486V318.758H284.173V311.971ZM248.88 315.365V300.399H242.092V315.365H248.88ZM245.486 303.792H279.083V297.005H245.486V303.792ZM282.477 300.399V286.451H275.689V300.399H282.477ZM279.083 283.057H245.486V289.845H279.083V283.057ZM248.88 286.451V271.994H242.092V286.451H248.88ZM245.486 275.388H283.664V268.601H245.486V275.388ZM287.058 271.994V258.046H280.271V271.994H287.058ZM283.664 254.653H229.909V261.44H283.664V254.653ZM226.516 258.046V329.312H233.303V258.046H226.516ZM229.909 332.706H284.173V325.919H229.909V332.706ZM352.072 272.503V275.897H355.465V272.503H352.072ZM352.072 258.046H355.465V254.653H352.072V258.046ZM293.023 258.046V254.653H289.629V258.046H293.023ZM293.023 272.503H289.629V275.897H293.023V272.503ZM314.708 272.503H318.102V269.11H314.708V272.503ZM314.708 329.312H311.314V332.706H314.708V329.312ZM330.386 329.312V332.706H333.78V329.312H330.386ZM330.386 272.503V269.11H326.993V272.503H330.386ZM355.465 272.503V258.046H348.678V272.503H355.465ZM352.072 254.653H293.023V261.44H352.072V254.653ZM289.629 258.046V272.503H296.416V258.046H289.629ZM293.023 275.897H314.708V269.11H293.023V275.897ZM311.314 272.503V329.312H318.102V272.503H311.314ZM314.708 332.706H330.386V325.919H314.708V332.706ZM333.78 329.312V272.503H326.993V329.312H333.78ZM330.386 275.897H352.072V269.11H330.386V275.897ZM424.4 329.312V332.706H427.794V329.312H424.4ZM424.4 258.046H427.794V254.653H424.4V258.046ZM408.722 258.046V254.653H405.328V258.046H408.722ZM408.722 286.247V289.641H412.116V286.247H408.722ZM379.808 286.247H376.415V289.641H379.808V286.247ZM379.808 258.046H383.202V254.653H379.808V258.046ZM364.13 258.046V254.653H360.736V258.046H364.13ZM364.13 329.312H360.736V332.706H364.13V329.312ZM379.808 329.312V332.706H383.202V329.312H379.808ZM379.808 300.704V297.311H376.415V300.704H379.808ZM408.722 300.704H412.116V297.311H408.722V300.704ZM408.722 329.312H405.328V332.706H408.722V329.312ZM427.794 329.312V258.046H421.007V329.312H427.794ZM424.4 254.653H408.722V261.44H424.4V254.653ZM405.328 258.046V286.247H412.116V258.046H405.328ZM408.722 282.854H379.808V289.641H408.722V282.854ZM383.202 286.247V258.046H376.415V286.247H383.202ZM379.808 254.653H364.13V261.44H379.808V254.653ZM360.736 258.046V329.312H367.523V258.046H360.736ZM364.13 332.706H379.808V325.919H364.13V332.706ZM383.202 329.312V300.704H376.415V329.312H383.202ZM379.808 304.098H408.722V297.311H379.808V304.098ZM405.328 300.704V329.312H412.116V300.704H405.328ZM408.722 332.706H424.4V325.919H408.722V332.706ZM495.744 329.312V332.706H499.138V329.312H495.744ZM495.744 315.365H499.138V311.971H495.744V315.365ZM457.057 315.365H453.663V318.758H457.057V315.365ZM457.057 300.399V297.005H453.663V300.399H457.057ZM490.654 300.399V303.792H494.048V300.399H490.654ZM490.654 286.451H494.048V283.057H490.654V286.451ZM457.057 286.451H453.663V289.845H457.057V286.451ZM457.057 271.994V268.601H453.663V271.994H457.057ZM495.235 271.994V275.388H498.629V271.994H495.235ZM495.235 258.046H498.629V254.653H495.235V258.046ZM441.48 258.046V254.653H438.087V258.046H441.48ZM441.48 329.312H438.087V332.706H441.48V329.312ZM499.138 329.312V315.365H492.351V329.312H499.138ZM495.744 311.971H457.057V318.758H495.744V311.971ZM460.451 315.365V300.399H453.663V315.365H460.451ZM457.057 303.792H490.654V297.005H457.057V303.792ZM494.048 300.399V286.451H487.26V300.399H494.048ZM490.654 283.057H457.057V289.845H490.654V283.057ZM460.451 286.451V271.994H453.663V286.451H460.451ZM457.057 275.388H495.235V268.601H457.057V275.388ZM498.629 271.994V258.046H491.842V271.994H498.629ZM495.235 254.653H441.48V261.44H495.235V254.653ZM438.087 258.046V329.312H444.874V258.046H438.087ZM441.48 332.706H495.744V325.919H441.48V332.706ZM571.278 329.312V332.706H577.711L574.08 327.397L571.278 329.312ZM553.869 303.86L552.689 300.678L548.615 302.189L551.068 305.776L553.869 303.86ZM509.684 258.046V254.653H506.291V258.046H509.684ZM509.684 329.312H506.291V332.706H509.684V329.312ZM525.363 329.312V332.706H528.756V329.312H525.363ZM525.363 306.507V303.114H521.969V306.507H525.363ZM537.682 306.507L540.501 304.619L539.493 303.114H537.682V306.507ZM552.953 329.312L550.133 331.201L551.141 332.706H552.953V329.312ZM525.363 292.661H521.969V296.055H525.363V292.661ZM525.363 272.198V268.804H521.969V272.198H525.363ZM574.08 327.397L556.67 301.944L551.068 305.776L568.477 331.228L574.08 327.397ZM555.049 307.042C560.087 305.174 564.495 302.167 567.64 297.874C570.799 293.563 572.534 288.158 572.534 281.768H565.747C565.747 286.882 564.377 290.843 562.165 293.863C559.94 296.9 556.713 299.187 552.689 300.678L555.049 307.042ZM572.534 281.768V281.564H565.747V281.768H572.534ZM572.534 281.564C572.534 273.411 569.702 266.542 564.237 261.755C558.83 257.018 551.229 254.653 542.263 254.653V261.44C550.095 261.44 555.933 263.503 559.765 266.86C563.54 270.167 565.747 275.057 565.747 281.564H572.534ZM542.263 254.653H509.684V261.44H542.263V254.653ZM506.291 258.046V329.312H513.078V258.046H506.291ZM509.684 332.706H525.363V325.919H509.684V332.706ZM528.756 329.312V306.507H521.969V329.312H528.756ZM525.363 309.901H537.682V303.114H525.363V309.901ZM534.862 308.396L550.133 331.201L555.773 327.424L540.501 304.619L534.862 308.396ZM552.953 332.706H571.278V325.919H552.953V332.706ZM549.865 282.582C549.865 284.709 549.12 286.25 547.897 287.306C546.622 288.406 544.484 289.268 541.245 289.268V296.055C545.641 296.055 549.51 294.88 552.333 292.443C555.208 289.961 556.652 286.462 556.652 282.582H549.865ZM541.245 289.268H525.363V296.055H541.245V289.268ZM528.756 292.661V272.198H521.969V292.661H528.756ZM525.363 275.591H540.939V268.804H525.363V275.591ZM540.939 275.591C544.305 275.591 546.525 276.362 547.838 277.415C549.037 278.377 549.865 279.877 549.865 282.379H556.652C556.652 278.161 555.138 274.571 552.086 272.122C549.149 269.765 545.209 268.804 540.939 268.804V275.591ZM549.865 282.379V282.582H556.652V282.379H549.865ZM646.582 329.312V332.706H649.975V329.312H646.582ZM646.582 258.046H649.975V254.653H646.582V258.046ZM631.107 258.046V254.653H627.713V258.046H631.107ZM631.107 301.926L628.406 303.981L634.501 311.989V301.926H631.107ZM597.714 258.046L600.414 255.991L599.396 254.653H597.714V258.046ZM583.257 258.046V254.653H579.863V258.046H583.257ZM583.257 329.312H579.863V332.706H583.257V329.312ZM598.732 329.312V332.706H602.125V329.312H598.732ZM598.732 284.008L601.431 281.951L595.338 273.953V284.008H598.732ZM633.245 329.312L630.545 331.369L631.564 332.706H633.245V329.312ZM649.975 329.312V258.046H643.188V329.312H649.975ZM646.582 254.653H631.107V261.44H646.582V254.653ZM627.713 258.046V301.926H634.501V258.046H627.713ZM633.807 299.871L600.414 255.991L595.013 260.102L628.406 303.981L633.807 299.871ZM597.714 254.653H583.257V261.44H597.714V254.653ZM579.863 258.046V329.312H586.651V258.046H579.863ZM583.257 332.706H598.732V325.919H583.257V332.706ZM602.125 329.312V284.008H595.338V329.312H602.125ZM596.032 286.064L630.545 331.369L635.944 327.256L601.431 281.951L596.032 286.064ZM633.245 332.706H646.582V325.919H633.245V332.706ZM680.081 329.312V332.706H683.474V329.312H680.081ZM680.081 258.046H683.474V254.653H680.081V258.046ZM664.402 258.046V254.653H661.009V258.046H664.402ZM664.402 329.312H661.009V332.706H664.402V329.312ZM683.474 329.312V258.046H676.687V329.312H683.474ZM680.081 254.653H664.402V261.44H680.081V254.653ZM661.009 258.046V329.312H667.796V258.046H661.009ZM664.402 332.706H680.081V325.919H664.402V332.706ZM767.325 329.312V332.706H772.457L770.447 327.984L767.325 329.312ZM736.782 257.537L739.905 256.209L739.026 254.144H736.782V257.537ZM722.325 257.537V254.144H720.081L719.202 256.209L722.325 257.537ZM691.783 329.312L688.66 327.984L686.65 332.706H691.783V329.312ZM707.766 329.312V332.706H710.048L710.909 330.594L707.766 329.312ZM714.282 313.329V309.935H712.001L711.14 312.048L714.282 313.329ZM744.418 313.329L747.56 312.048L746.699 309.935H744.418V313.329ZM750.933 329.312L747.791 330.594L748.652 332.706H750.933V329.312ZM738.818 299.483V302.876H743.876L741.958 298.196L738.818 299.483ZM719.882 299.483L716.741 298.196L714.824 302.876H719.882V299.483ZM729.35 276.372L732.49 275.085L729.35 267.42L726.21 275.085L729.35 276.372ZM770.447 327.984L739.905 256.209L733.659 258.866L764.202 330.641L770.447 327.984ZM736.782 254.144H722.325V260.931H736.782V254.144ZM719.202 256.209L688.66 327.984L694.905 330.641L725.448 258.866L719.202 256.209ZM691.783 332.706H707.766V325.919H691.783V332.706ZM710.909 330.594L717.425 314.61L711.14 312.048L704.624 328.031L710.909 330.594ZM714.282 316.722H744.418V309.935H714.282V316.722ZM741.275 314.61L747.791 330.594L754.076 328.031L747.56 312.048L741.275 314.61ZM750.933 332.706H767.325V325.919H750.933V332.706ZM738.818 296.089H719.882V302.876H738.818V296.089ZM723.022 300.769L732.49 277.659L726.21 275.085L716.741 298.196L723.022 300.769ZM726.21 277.659L735.678 300.769L741.958 298.196L732.49 275.085L726.21 277.659ZM871.459 317.808L873.938 320.126L876.168 317.741L873.871 315.421L871.459 317.808ZM861.482 307.729L863.893 305.342L861.605 303.03L859.199 305.218L861.482 307.729ZM860.973 279.324L858.692 281.838L861.262 284.17L863.536 281.548L860.973 279.324ZM870.95 267.82L873.514 270.044L875.601 267.637L873.331 265.402L870.95 267.82ZM873.871 315.421L863.893 305.342L859.07 310.117L869.047 320.196L873.871 315.421ZM859.199 305.218C853.881 310.053 849.679 312.684 842.749 312.684V319.471C852.109 319.471 857.883 315.586 863.764 310.24L859.199 305.218ZM842.749 312.684C832.754 312.684 825.475 304.391 825.475 293.679H818.688C818.688 307.402 828.309 319.471 842.749 319.471V312.684ZM825.475 293.679V293.476H818.688V293.679H825.475ZM825.475 293.476C825.475 282.83 832.899 274.675 842.749 274.675V267.888C828.572 267.888 818.688 279.688 818.688 293.476H825.475ZM842.749 274.675C848.734 274.675 853.555 277.177 858.692 281.838L863.253 276.811C857.394 271.495 851.017 267.888 842.749 267.888V274.675ZM863.536 281.548L873.514 270.044L868.386 265.597L858.409 277.101L863.536 281.548ZM873.331 265.402C866.134 258.316 857.256 253.431 842.851 253.431V260.218C855.323 260.218 862.53 264.293 868.569 270.238L873.331 265.402ZM842.851 253.431C819.026 253.431 802.297 271.607 802.297 293.679H809.084C809.084 275.232 822.897 260.218 842.851 260.218V253.431ZM802.297 293.679V293.883H809.084V293.679H802.297ZM802.297 293.883C802.297 316.177 819.35 333.928 842.24 333.928V327.141C823.185 327.141 809.084 312.516 809.084 293.883H802.297ZM842.24 333.928C849.533 333.928 855.512 332.627 860.702 330.181C865.878 327.74 870.083 324.248 873.938 320.126L868.98 315.49C865.504 319.208 861.972 322.078 857.808 324.041C853.656 325.998 848.691 327.141 842.24 327.141V333.928ZM958.005 293.679V293.476H951.217V293.679H958.005ZM958.005 293.476C958.005 271.311 940.674 253.431 916.84 253.431V260.218C936.987 260.218 951.217 275.121 951.217 293.476H958.005ZM916.84 253.431C893.006 253.431 875.472 271.515 875.472 293.679H882.259C882.259 275.324 896.693 260.218 916.84 260.218V253.431ZM875.472 293.679V293.883H882.259V293.679H875.472ZM875.472 293.883C875.472 316.048 892.802 333.928 916.636 333.928V327.141C896.489 327.141 882.259 312.238 882.259 293.883H875.472ZM916.636 333.928C940.471 333.928 958.005 315.844 958.005 293.679H951.217C951.217 312.035 936.783 327.141 916.636 327.141V333.928ZM934.826 293.883C934.826 304.438 927.385 312.684 916.84 312.684V319.471C931.544 319.471 941.614 307.762 941.614 293.883H934.826ZM916.84 312.684C906.293 312.684 898.65 304.232 898.65 293.679H891.863C891.863 307.561 902.139 319.471 916.84 319.471V312.684ZM898.65 293.679V293.476H891.863V293.679H898.65ZM898.65 293.476C898.65 282.921 906.092 274.675 916.636 274.675V267.888C901.932 267.888 891.863 279.597 891.863 293.476H898.65ZM916.636 274.675C927.184 274.675 934.826 283.127 934.826 293.679H941.614C941.614 279.798 931.338 267.888 916.636 267.888V274.675ZM934.826 293.679V293.883H941.614V293.679H934.826ZM1019.73 329.312V332.706H1023.12V329.312H1019.73ZM1019.73 315.059H1023.12V311.666H1019.73V315.059ZM984.198 315.059H980.804V318.453H984.198V315.059ZM984.198 258.046H987.591V254.653H984.198V258.046ZM968.519 258.046V254.653H965.125V258.046H968.519ZM968.519 329.312H965.125V332.706H968.519V329.312ZM1023.12 329.312V315.059H1016.34V329.312H1023.12ZM1019.73 311.666H984.198V318.453H1019.73V311.666ZM987.591 315.059V258.046H980.804V315.059H987.591ZM984.198 254.653H968.519V261.44H984.198V254.653ZM965.125 258.046V329.312H971.913V258.046H965.125ZM968.519 332.706H1019.73V325.919H968.519V332.706ZM1031.55 258.046V254.653H1028.16V258.046H1031.55ZM1031.55 329.312H1028.16V332.706H1031.55V329.312ZM1047.23 315.161H1043.84V318.555H1047.23V315.161ZM1047.23 272.198V268.804H1043.84V272.198H1047.23ZM1100.61 293.679V293.476H1093.83V293.679H1100.61ZM1100.61 293.476C1100.61 271.391 1083.46 254.653 1059.35 254.653V261.44C1080.03 261.44 1093.83 275.448 1093.83 293.476H1100.61ZM1059.35 254.653H1031.55V261.44H1059.35V254.653ZM1028.16 258.046V329.312H1034.95V258.046H1028.16ZM1031.55 332.706H1059.35V325.919H1031.55V332.706ZM1059.35 332.706C1083.49 332.706 1100.61 315.74 1100.61 293.679H1093.83C1093.83 311.732 1080 325.919 1059.35 325.919V332.706ZM1077.43 293.883C1077.43 299.4 1075.56 303.817 1072.51 306.848C1069.45 309.882 1064.98 311.767 1059.35 311.767V318.555C1066.54 318.555 1072.81 316.114 1077.29 311.664C1081.77 307.213 1084.22 300.991 1084.22 293.883H1077.43ZM1059.35 311.767H1047.23V318.555H1059.35V311.767ZM1050.63 315.161V272.198H1043.84V315.161H1050.63ZM1047.23 275.591H1059.35V268.804H1047.23V275.591ZM1059.35 275.591C1064.96 275.591 1069.43 277.513 1072.49 280.596C1075.56 283.683 1077.43 288.16 1077.43 293.679H1084.22C1084.22 286.575 1081.77 280.311 1077.31 275.813C1072.83 271.311 1066.56 268.804 1059.35 268.804V275.591ZM1077.43 293.679V293.883H1084.22V293.679H1077.43Z" fill="black"/>
</svg>
