<svg width="1440" height="631" viewBox="0 0 1440 631" fill="none" xmlns="http://www.w3.org/2000/svg">
<path d="M290.123 45.8261H295.597V40.3521H290.123V45.8261ZM259.945 45.8261V40.3521H254.471V45.8261H259.945ZM200.764 45.8261H206.238V40.3521H200.764V45.8261ZM170.586 45.8261V40.3521H165.112V45.8261H170.586ZM295.597 123.231V45.8261H284.649V123.231H295.597ZM290.123 40.3521H259.945V51.3H290.123V40.3521ZM254.471 45.8261V124.407H265.419V45.8261H254.471ZM254.471 124.407C254.471 134.4 251.909 141.122 248.038 145.309C244.224 149.434 238.442 151.855 230.355 151.855V162.803C240.688 162.803 249.701 159.638 256.077 152.741C262.396 145.905 265.419 136.166 265.419 124.407H254.471ZM230.355 151.855C222.325 151.855 216.558 149.374 212.728 145.101C208.819 140.741 206.238 133.749 206.238 123.427H195.29C195.29 135.446 198.295 145.404 204.576 152.41C210.936 159.503 219.964 162.803 230.355 162.803V151.855ZM206.238 123.427V45.8261H195.29V123.427H206.238ZM200.764 40.3521H170.586V51.3H200.764V40.3521ZM165.112 45.8261V124.211H176.06V45.8261H165.112ZM165.112 124.211C165.112 145.396 171.043 162.202 182.598 173.701C194.145 185.193 210.549 190.63 229.963 190.63V179.682C212.536 179.682 199.252 174.83 190.32 165.942C181.397 157.061 176.06 143.395 176.06 124.211H165.112ZM229.963 190.63C249.361 190.63 265.955 185.251 277.702 173.671C289.464 162.073 295.597 145.014 295.597 123.231H284.649C284.649 142.993 279.122 156.896 270.015 165.874C260.891 174.87 247.405 179.682 229.963 179.682V190.63ZM419.431 183V188.474H424.905V183H419.431ZM419.431 155.565H424.905V150.091H419.431V155.565ZM351.04 155.565H345.566V161.039H351.04V155.565ZM351.04 45.8261H356.514V40.3521H351.04V45.8261ZM320.862 45.8261V40.3521H315.388V45.8261H320.862ZM320.862 183H315.388V188.474H320.862V183ZM424.905 183V155.565H413.957V183H424.905ZM419.431 150.091H351.04V161.039H419.431V150.091ZM356.514 155.565V45.8261H345.566V155.565H356.514ZM351.04 40.3521H320.862V51.3H351.04V40.3521ZM315.388 45.8261V183H326.336V45.8261H315.388ZM320.862 188.474H419.431V177.526H320.862V188.474ZM526.531 73.6528V79.1267H532.005V73.6528H526.531ZM526.531 45.8261H532.005V40.3521H526.531V45.8261ZM412.872 45.8261V40.3521H407.399V45.8261H412.872ZM412.872 73.6528H407.399V79.1267H412.872V73.6528ZM454.613 73.6528H460.086V68.1789H454.613V73.6528ZM454.613 183H449.139V188.474H454.613V183ZM484.791 183V188.474H490.265V183H484.791ZM484.791 73.6528V68.1789H479.317V73.6528H484.791ZM532.005 73.6528V45.8261H521.057V73.6528H532.005ZM526.531 40.3521H412.872V51.3H526.531V40.3521ZM407.399 45.8261V73.6528H418.346V45.8261H407.399ZM412.872 79.1267H454.613V68.1789H412.872V79.1267ZM449.139 73.6528V183H460.086V73.6528H449.139ZM454.613 188.474H484.791V177.526H454.613V188.474ZM490.265 183V73.6528H479.317V183H490.265ZM484.791 79.1267H526.531V68.1789H484.791V79.1267ZM668.298 183V188.474H678.674L672.816 179.91L668.298 183ZM634.788 134.009L632.885 128.877L626.312 131.314L630.27 137.1L634.788 134.009ZM549.74 45.8261V40.3521H544.266V45.8261H549.74ZM549.74 183H544.266V188.474H549.74V183ZM579.918 183V188.474H585.392V183H579.918ZM579.918 139.104V133.63H574.445V139.104H579.918ZM603.63 139.104L608.178 136.059L606.552 133.63H603.63V139.104ZM633.024 183L628.476 186.046L630.102 188.474H633.024V183ZM579.918 112.453H574.445V117.927H579.918V112.453ZM579.918 73.0649V67.591H574.445V73.0649H579.918ZM672.816 179.91L639.306 130.919L630.27 137.1L663.78 186.09L672.816 179.91ZM636.691 139.142C646.229 135.605 654.53 129.929 660.441 121.861C666.373 113.765 669.656 103.586 669.656 91.4854H658.708C658.708 101.529 656.015 109.378 651.61 115.391C647.184 121.433 640.787 125.947 632.885 128.877L636.691 139.142ZM669.656 91.4854V91.0935H658.708V91.4854H669.656ZM669.656 91.0935C669.656 75.6568 664.302 62.7434 654.048 53.7603C643.886 44.858 629.529 40.3521 612.448 40.3521V51.3C627.701 51.3 639.212 55.3185 646.834 61.9952C654.363 68.5912 658.708 78.3115 658.708 91.0935H669.656ZM612.448 40.3521H549.74V51.3H612.448V40.3521ZM544.266 45.8261V183H555.214V45.8261H544.266ZM549.74 188.474H579.918V177.526H549.74V188.474ZM585.392 183V139.104H574.445V183H585.392ZM579.918 144.578H603.63V133.63H579.918V144.578ZM599.082 142.15L628.476 186.046L637.573 179.954L608.178 136.059L599.082 142.15ZM633.024 188.474H668.298V177.526H633.024V188.474ZM628.138 93.0531C628.138 97.4203 626.596 100.691 623.985 102.946C621.289 105.273 616.904 106.979 610.489 106.979V117.927C618.771 117.927 625.947 115.715 631.139 111.232C636.415 106.677 639.086 100.248 639.086 93.0531H628.138ZM610.489 106.979H579.918V117.927H610.489V106.979ZM585.392 112.453V73.0649H574.445V112.453H585.392ZM579.918 78.5388H609.901V67.591H579.918V78.5388ZM609.901 78.5388C616.521 78.5388 621.061 80.0511 623.842 82.2824C626.437 84.3648 628.138 87.5789 628.138 92.6612H639.086C639.086 84.8099 636.28 78.2259 630.694 73.7435C625.293 69.4101 617.978 67.591 609.901 67.591V78.5388ZM628.138 92.6612V93.0531H639.086V92.6612H628.138ZM825 183V188.474H833.279L830.037 180.857L825 183ZM766.212 44.8463L771.249 42.7029L769.831 39.3723H766.212V44.8463ZM738.385 44.8463V39.3723H734.765L733.348 42.7029L738.385 44.8463ZM679.596 183L674.559 180.857L671.318 188.474H679.596V183ZM710.362 183V188.474H714.042L715.431 185.066L710.362 183ZM722.904 152.234V146.76H719.224L717.835 150.168L722.904 152.234ZM780.909 152.234L785.978 150.168L784.589 146.76H780.909V152.234ZM793.451 183L788.382 185.066L789.771 188.474H793.451V183ZM770.131 125.583V131.057H778.289L775.196 123.508L770.131 125.583ZM733.682 125.583L728.617 123.508L725.524 131.057H733.682V125.583ZM751.906 81.0994L756.972 79.0242L751.906 66.6604L746.841 79.0242L751.906 81.0994ZM830.037 180.857L771.249 42.7029L761.175 46.9896L819.964 185.143L830.037 180.857ZM766.212 39.3723H738.385V50.3202H766.212V39.3723ZM733.348 42.7029L674.559 180.857L684.633 185.143L743.422 46.9896L733.348 42.7029ZM679.596 188.474H710.362V177.526H679.596V188.474ZM715.431 185.066L727.973 154.3L717.835 150.168L705.293 180.934L715.431 185.066ZM722.904 157.708H780.909V146.76H722.904V157.708ZM775.84 154.3L788.382 185.066L798.52 180.934L785.978 150.168L775.84 154.3ZM793.451 188.474H825V177.526H793.451V188.474ZM770.131 120.109H733.682V131.057H770.131V120.109ZM738.747 127.658L756.972 83.1746L746.841 79.0242L728.617 123.508L738.747 127.658ZM746.841 83.1746L765.066 127.658L775.196 123.508L756.972 79.0242L746.841 83.1746ZM983.346 183V188.474H988.82V183H983.346ZM983.346 45.8261H988.82V40.3521H983.346V45.8261ZM950.816 45.8261V40.3521H947.774L946.167 42.9362L950.816 45.8261ZM914.759 103.831L910.11 106.721L914.759 114.2L919.408 106.721L914.759 103.831ZM878.702 45.8261L883.351 42.9362L881.745 40.3521H878.702V45.8261ZM846.172 45.8261V40.3521H840.698V45.8261H846.172ZM846.172 183H840.698V188.474H846.172V183ZM875.762 183V188.474H881.236V183H875.762ZM875.762 94.0329L880.334 91.0215L870.288 75.7736V94.0329H875.762ZM913.975 152.038L909.404 155.049L911.026 157.512H913.975V152.038ZM914.759 152.038V157.512H917.708L919.33 155.05L914.759 152.038ZM953.364 93.445H958.838V75.1875L948.793 90.4334L953.364 93.445ZM953.364 183H947.89V188.474H953.364V183ZM988.82 183V45.8261H977.872V183H988.82ZM983.346 40.3521H950.816V51.3H983.346V40.3521ZM946.167 42.9362L910.11 100.941L919.408 106.721L955.465 48.716L946.167 42.9362ZM919.408 100.941L883.351 42.9362L874.053 48.716L910.11 106.721L919.408 100.941ZM878.702 40.3521H846.172V51.3H878.702V40.3521ZM840.698 45.8261V183H851.646V45.8261H840.698ZM846.172 188.474H875.762V177.526H846.172V188.474ZM881.236 183V94.0329H870.288V183H881.236ZM871.191 97.0443L909.404 155.049L918.546 149.026L880.334 91.0215L871.191 97.0443ZM913.975 157.512H914.759V146.564H913.975V157.512ZM919.33 155.05L957.935 96.4567L948.793 90.4334L910.188 149.026L919.33 155.05ZM947.89 93.445V183H958.838V93.445H947.89ZM953.364 188.474H983.346V177.526H953.364V188.474ZM1120.75 183V188.474H1126.22V183H1120.75ZM1120.75 156.153H1126.22V150.679H1120.75V156.153ZM1046.28 156.153H1040.81V161.627H1046.28V156.153ZM1046.28 127.347V121.873H1040.81V127.347H1046.28ZM1110.95 127.347V132.821H1116.42V127.347H1110.95ZM1110.95 100.5H1116.42V95.0257H1110.95V100.5ZM1046.28 100.5H1040.81V105.974H1046.28V100.5ZM1046.28 72.673V67.199H1040.81V72.673H1046.28ZM1119.77 72.673V78.1469H1125.24V72.673H1119.77ZM1119.77 45.8261H1125.24V40.3521H1119.77V45.8261ZM1016.3 45.8261V40.3521H1010.83V45.8261H1016.3ZM1016.3 183H1010.83V188.474H1016.3V183ZM1126.22 183V156.153H1115.27V183H1126.22ZM1120.75 150.679H1046.28V161.627H1120.75V150.679ZM1051.76 156.153V127.347H1040.81V156.153H1051.76ZM1046.28 132.821H1110.95V121.873H1046.28V132.821ZM1116.42 127.347V100.5H1105.48V127.347H1116.42ZM1110.95 95.0257H1046.28V105.974H1110.95V95.0257ZM1051.76 100.5V72.673H1040.81V100.5H1051.76ZM1046.28 78.1469H1119.77V67.199H1046.28V78.1469ZM1125.24 72.673V45.8261H1114.29V72.673H1125.24ZM1119.77 40.3521H1016.3V51.3H1119.77V40.3521ZM1010.83 45.8261V183H1021.77V45.8261H1010.83ZM1016.3 188.474H1120.75V177.526H1016.3V188.474ZM1147.58 45.8261V40.3521H1142.11V45.8261H1147.58ZM1147.58 183H1142.11V188.474H1147.58V183ZM1177.76 155.761H1172.28V161.235H1177.76V155.761ZM1177.76 73.0649V67.591H1172.28V73.0649H1177.76ZM1279.45 114.413V114.021H1268.5V114.413H1279.45ZM1279.45 114.021C1279.45 72.1442 1246.96 40.3521 1201.08 40.3521V51.3C1241.42 51.3 1268.5 78.6887 1268.5 114.021H1279.45ZM1201.08 40.3521H1147.58V51.3H1201.08V40.3521ZM1142.11 45.8261V183H1153.05V45.8261H1142.11ZM1147.58 188.474H1201.08V177.526H1147.58V188.474ZM1201.08 188.474C1247 188.474 1279.45 156.25 1279.45 114.413H1268.5C1268.5 149.786 1241.38 177.526 1201.08 177.526V188.474ZM1236.95 114.805C1236.95 125.671 1233.25 134.454 1227.15 140.512C1221.05 146.571 1212.16 150.287 1201.08 150.287V161.235C1214.68 161.235 1226.47 156.623 1234.87 148.279C1243.27 139.933 1247.9 128.238 1247.9 114.805H1236.95ZM1201.08 150.287H1177.76V161.235H1201.08V150.287ZM1183.23 155.761V73.0649H1172.28V155.761H1183.23ZM1177.76 78.5388H1201.08V67.591H1177.76V78.5388ZM1201.08 78.5388C1212.13 78.5388 1221.01 82.3286 1227.13 88.4843C1233.25 94.6457 1236.95 103.542 1236.95 114.413H1247.9C1247.9 100.985 1243.28 89.207 1234.89 80.7691C1226.51 72.3256 1214.72 67.591 1201.08 67.591V78.5388ZM1236.95 114.413V114.805H1247.9V114.413H1236.95Z" fill="#588BA5"/>
<path opacity="0.5" d="M290.123 258.772H295.597V253.298H290.123V258.772ZM259.945 258.772V253.298H254.471V258.772H259.945ZM200.764 258.772H206.238V253.298H200.764V258.772ZM170.586 258.772V253.298H165.112V258.772H170.586ZM295.597 336.178V258.772H284.649V336.178H295.597ZM290.123 253.298H259.945V264.246H290.123V253.298ZM254.471 258.772V337.353H265.419V258.772H254.471ZM254.471 337.353C254.471 347.346 251.909 354.068 248.038 358.255C244.224 362.381 238.442 364.801 230.355 364.801V375.749C240.688 375.749 249.701 372.585 256.077 365.687C262.396 358.852 265.419 349.112 265.419 337.353H254.471ZM230.355 364.801C222.325 364.801 216.558 362.32 212.728 358.048C208.819 353.688 206.238 346.695 206.238 336.374H195.29C195.29 348.392 198.295 358.35 204.576 365.356C210.936 372.449 219.964 375.749 230.355 375.749V364.801ZM206.238 336.374V258.772H195.29V336.374H206.238ZM200.764 253.298H170.586V264.246H200.764V253.298ZM165.112 258.772V337.157H176.06V258.772H165.112ZM165.112 337.157C165.112 358.342 171.043 375.148 182.598 386.648C194.145 398.139 210.549 403.576 229.963 403.576V392.628C212.536 392.628 199.252 387.776 190.32 378.888C181.397 370.007 176.06 356.341 176.06 337.157H165.112ZM229.963 403.576C249.361 403.576 265.955 398.197 277.702 386.617C289.464 375.02 295.597 357.96 295.597 336.178H284.649C284.649 355.939 279.122 369.842 270.015 378.821C260.891 387.816 247.405 392.628 229.963 392.628V403.576ZM419.431 395.946V401.42H424.905V395.946H419.431ZM419.431 368.512H424.905V363.038H419.431V368.512ZM351.04 368.512H345.566V373.985H351.04V368.512ZM351.04 258.772H356.514V253.298H351.04V258.772ZM320.862 258.772V253.298H315.388V258.772H320.862ZM320.862 395.946H315.388V401.42H320.862V395.946ZM424.905 395.946V368.512H413.957V395.946H424.905ZM419.431 363.038H351.04V373.985H419.431V363.038ZM356.514 368.512V258.772H345.566V368.512H356.514ZM351.04 253.298H320.862V264.246H351.04V253.298ZM315.388 258.772V395.946H326.336V258.772H315.388ZM320.862 401.42H419.431V390.472H320.862V401.42ZM526.531 286.599V292.073H532.005V286.599H526.531ZM526.531 258.772H532.005V253.298H526.531V258.772ZM412.872 258.772V253.298H407.399V258.772H412.872ZM412.872 286.599H407.399V292.073H412.872V286.599ZM454.613 286.599H460.086V281.125H454.613V286.599ZM454.613 395.946H449.139V401.42H454.613V395.946ZM484.791 395.946V401.42H490.265V395.946H484.791ZM484.791 286.599V281.125H479.317V286.599H484.791ZM532.005 286.599V258.772H521.057V286.599H532.005ZM526.531 253.298H412.872V264.246H526.531V253.298ZM407.399 258.772V286.599H418.346V258.772H407.399ZM412.872 292.073H454.613V281.125H412.872V292.073ZM449.139 286.599V395.946H460.086V286.599H449.139ZM454.613 401.42H484.791V390.472H454.613V401.42ZM490.265 395.946V286.599H479.317V395.946H490.265ZM484.791 292.073H526.531V281.125H484.791V292.073ZM668.298 395.946V401.42H678.674L672.816 392.856L668.298 395.946ZM634.788 346.956L632.885 341.823L626.312 344.26L630.27 350.046L634.788 346.956ZM549.74 258.772V253.298H544.266V258.772H549.74ZM549.74 395.946H544.266V401.42H549.74V395.946ZM579.918 395.946V401.42H585.392V395.946H579.918ZM579.918 352.051V346.577H574.445V352.051H579.918ZM603.63 352.051L608.178 349.005L606.552 346.577H603.63V352.051ZM633.024 395.946L628.476 398.992L630.102 401.42H633.024V395.946ZM579.918 325.4H574.445V330.874H579.918V325.4ZM579.918 286.011V280.537H574.445V286.011H579.918ZM672.816 392.856L639.306 343.865L630.27 350.046L663.78 399.037L672.816 392.856ZM636.691 352.088C646.229 348.551 654.53 342.875 660.441 334.808C666.373 326.711 669.656 316.532 669.656 304.432H658.708C658.708 314.475 656.015 322.325 651.61 328.337C647.184 334.379 640.787 338.893 632.885 341.823L636.691 352.088ZM669.656 304.432V304.04H658.708V304.432H669.656ZM669.656 304.04C669.656 288.603 664.302 275.69 654.048 266.707C643.886 257.804 629.529 253.298 612.448 253.298V264.246C627.701 264.246 639.212 268.265 646.834 274.942C654.363 281.538 658.708 291.258 658.708 304.04H669.656ZM612.448 253.298H549.74V264.246H612.448V253.298ZM544.266 258.772V395.946H555.214V258.772H544.266ZM549.74 401.42H579.918V390.472H549.74V401.42ZM585.392 395.946V352.051H574.445V395.946H585.392ZM579.918 357.525H603.63V346.577H579.918V357.525ZM599.082 355.096L628.476 398.992L637.573 392.901L608.178 349.005L599.082 355.096ZM633.024 401.42H668.298V390.472H633.024V401.42ZM628.138 305.999C628.138 310.367 626.596 313.637 623.985 315.892C621.289 318.219 616.904 319.926 610.489 319.926V330.874C618.771 330.874 625.947 328.661 631.139 324.179C636.415 319.623 639.086 313.194 639.086 305.999H628.138ZM610.489 319.926H579.918V330.874H610.489V319.926ZM585.392 325.4V286.011H574.445V325.4H585.392ZM579.918 291.485H609.901V280.537H579.918V291.485ZM609.901 291.485C616.521 291.485 621.061 292.997 623.842 295.229C626.437 297.311 628.138 300.525 628.138 305.607H639.086C639.086 297.756 636.28 291.172 630.694 286.69C625.293 282.356 617.978 280.537 609.901 280.537V291.485ZM628.138 305.607V305.999H639.086V305.607H628.138ZM825 395.946V401.42H833.279L830.037 393.803L825 395.946ZM766.212 257.793L771.249 255.649L769.831 252.319H766.212V257.793ZM738.385 257.793V252.319H734.765L733.348 255.649L738.385 257.793ZM679.596 395.946L674.559 393.803L671.318 401.42H679.596V395.946ZM710.362 395.946V401.42H714.042L715.431 398.013L710.362 395.946ZM722.904 365.18V359.706H719.224L717.835 363.114L722.904 365.18ZM780.909 365.18L785.978 363.114L784.589 359.706H780.909V365.18ZM793.451 395.946L788.382 398.013L789.771 401.42H793.451V395.946ZM770.131 338.529V344.003H778.289L775.196 336.454L770.131 338.529ZM733.682 338.529L728.617 336.454L725.524 344.003H733.682V338.529ZM751.906 294.046L756.972 291.97L751.906 279.607L746.841 291.97L751.906 294.046ZM830.037 393.803L771.249 255.649L761.175 259.936L819.964 398.09L830.037 393.803ZM766.212 252.319H738.385V263.267H766.212V252.319ZM733.348 255.649L674.559 393.803L684.633 398.09L743.422 259.936L733.348 255.649ZM679.596 401.42H710.362V390.472H679.596V401.42ZM715.431 398.013L727.973 367.246L717.835 363.114L705.293 393.88L715.431 398.013ZM722.904 370.654H780.909V359.706H722.904V370.654ZM775.84 367.246L788.382 398.013L798.52 393.88L785.978 363.114L775.84 367.246ZM793.451 401.42H825V390.472H793.451V401.42ZM770.131 333.055H733.682V344.003H770.131V333.055ZM738.747 340.604L756.972 296.121L746.841 291.97L728.617 336.454L738.747 340.604ZM746.841 296.121L765.066 340.604L775.196 336.454L756.972 291.97L746.841 296.121ZM983.346 395.946V401.42H988.82V395.946H983.346ZM983.346 258.772H988.82V253.298H983.346V258.772ZM950.816 258.772V253.298H947.774L946.167 255.882L950.816 258.772ZM914.759 316.777L910.11 319.667L914.759 327.146L919.408 319.667L914.759 316.777ZM878.702 258.772L883.351 255.882L881.745 253.298H878.702V258.772ZM846.172 258.772V253.298H840.698V258.772H846.172ZM846.172 395.946H840.698V401.42H846.172V395.946ZM875.762 395.946V401.42H881.236V395.946H875.762ZM875.762 306.979L880.334 303.968L870.288 288.72V306.979H875.762ZM913.975 364.984L909.404 367.996L911.026 370.458H913.975V364.984ZM914.759 364.984V370.458H917.708L919.33 367.996L914.759 364.984ZM953.364 306.391H958.838V288.134L948.793 303.38L953.364 306.391ZM953.364 395.946H947.89V401.42H953.364V395.946ZM988.82 395.946V258.772H977.872V395.946H988.82ZM983.346 253.298H950.816V264.246H983.346V253.298ZM946.167 255.882L910.11 313.887L919.408 319.667L955.465 261.662L946.167 255.882ZM919.408 313.887L883.351 255.882L874.053 261.662L910.11 319.667L919.408 313.887ZM878.702 253.298H846.172V264.246H878.702V253.298ZM840.698 258.772V395.946H851.646V258.772H840.698ZM846.172 401.42H875.762V390.472H846.172V401.42ZM881.236 395.946V306.979H870.288V395.946H881.236ZM871.191 309.991L909.404 367.996L918.546 361.973L880.334 303.968L871.191 309.991ZM913.975 370.458H914.759V359.51H913.975V370.458ZM919.33 367.996L957.935 309.403L948.793 303.38L910.188 361.973L919.33 367.996ZM947.89 306.391V395.946H958.838V306.391H947.89ZM953.364 401.42H983.346V390.472H953.364V401.42ZM1120.75 395.946V401.42H1126.22V395.946H1120.75ZM1120.75 369.099H1126.22V363.625H1120.75V369.099ZM1046.28 369.099H1040.81V374.573H1046.28V369.099ZM1046.28 340.293V334.819H1040.81V340.293H1046.28ZM1110.95 340.293V345.767H1116.42V340.293H1110.95ZM1110.95 313.446H1116.42V307.972H1110.95V313.446ZM1046.28 313.446H1040.81V318.92H1046.28V313.446ZM1046.28 285.619V280.145H1040.81V285.619H1046.28ZM1119.77 285.619V291.093H1125.24V285.619H1119.77ZM1119.77 258.772H1125.24V253.298H1119.77V258.772ZM1016.3 258.772V253.298H1010.83V258.772H1016.3ZM1016.3 395.946H1010.83V401.42H1016.3V395.946ZM1126.22 395.946V369.099H1115.27V395.946H1126.22ZM1120.75 363.625H1046.28V374.573H1120.75V363.625ZM1051.76 369.099V340.293H1040.81V369.099H1051.76ZM1046.28 345.767H1110.95V334.819H1046.28V345.767ZM1116.42 340.293V313.446H1105.48V340.293H1116.42ZM1110.95 307.972H1046.28V318.92H1110.95V307.972ZM1051.76 313.446V285.619H1040.81V313.446H1051.76ZM1046.28 291.093H1119.77V280.145H1046.28V291.093ZM1125.24 285.619V258.772H1114.29V285.619H1125.24ZM1119.77 253.298H1016.3V264.246H1119.77V253.298ZM1010.83 258.772V395.946H1021.77V258.772H1010.83ZM1016.3 401.42H1120.75V390.472H1016.3V401.42ZM1147.58 258.772V253.298H1142.11V258.772H1147.58ZM1147.58 395.946H1142.11V401.42H1147.58V395.946ZM1177.76 368.707H1172.28V374.181H1177.76V368.707ZM1177.76 286.011V280.537H1172.28V286.011H1177.76ZM1279.45 327.359V326.967H1268.5V327.359H1279.45ZM1279.45 326.967C1279.45 285.09 1246.96 253.298 1201.08 253.298V264.246C1241.42 264.246 1268.5 291.635 1268.5 326.967H1279.45ZM1201.08 253.298H1147.58V264.246H1201.08V253.298ZM1142.11 258.772V395.946H1153.05V258.772H1142.11ZM1147.58 401.42H1201.08V390.472H1147.58V401.42ZM1201.08 401.42C1247 401.42 1279.45 369.196 1279.45 327.359H1268.5C1268.5 362.732 1241.38 390.472 1201.08 390.472V401.42ZM1236.95 327.751C1236.95 338.617 1233.25 347.401 1227.15 353.458C1221.05 359.517 1212.16 363.234 1201.08 363.234V374.181C1214.68 374.181 1226.47 369.57 1234.87 361.225C1243.27 352.879 1247.9 341.184 1247.9 327.751H1236.95ZM1201.08 363.234H1177.76V374.181H1201.08V363.234ZM1183.23 368.707V286.011H1172.28V368.707H1183.23ZM1177.76 291.485H1201.08V280.537H1177.76V291.485ZM1201.08 291.485C1212.13 291.485 1221.01 295.275 1227.13 301.431C1233.25 307.592 1236.95 316.488 1236.95 327.359H1247.9C1247.9 313.931 1243.28 302.153 1234.89 293.715C1226.51 285.272 1214.72 280.537 1201.08 280.537V291.485ZM1236.95 327.359V327.751H1247.9V327.359H1236.95Z" fill="#588BA5"/>
<path opacity="0.2" d="M290.123 467.799H295.597V462.325H290.123V467.799ZM259.945 467.799V462.325H254.471V467.799H259.945ZM200.764 467.799H206.238V462.325H200.764V467.799ZM170.586 467.799V462.325H165.112V467.799H170.586ZM295.597 545.204V467.799H284.649V545.204H295.597ZM290.123 462.325H259.945V473.273H290.123V462.325ZM254.471 467.799V546.38H265.419V467.799H254.471ZM254.471 546.38C254.471 556.373 251.909 563.094 248.038 567.282C244.224 571.407 238.442 573.828 230.355 573.828V584.775C240.688 584.775 249.701 581.611 256.077 574.713C262.396 567.878 265.419 558.139 265.419 546.38H254.471ZM230.355 573.828C222.325 573.828 216.558 571.346 212.728 567.074C208.819 562.714 206.238 555.721 206.238 545.4H195.29C195.29 557.418 198.295 567.376 204.576 574.382C210.936 581.476 219.964 584.775 230.355 584.775V573.828ZM206.238 545.4V467.799H195.29V545.4H206.238ZM200.764 462.325H170.586V473.273H200.764V462.325ZM165.112 467.799V546.184H176.06V467.799H165.112ZM165.112 546.184C165.112 567.369 171.043 584.175 182.598 595.674C194.145 607.166 210.549 612.602 229.963 612.602V601.654C212.536 601.654 199.252 596.803 190.32 587.914C181.397 579.034 176.06 565.367 176.06 546.184H165.112ZM229.963 612.602C249.361 612.602 265.955 607.224 277.702 595.643C289.464 584.046 295.597 566.987 295.597 545.204H284.649C284.649 564.966 279.122 578.868 270.015 587.847C260.891 596.843 247.405 601.654 229.963 601.654V612.602ZM419.431 604.973V610.447H424.905V604.973H419.431ZM419.431 577.538H424.905V572.064H419.431V577.538ZM351.04 577.538H345.566V583.012H351.04V577.538ZM351.04 467.799H356.514V462.325H351.04V467.799ZM320.862 467.799V462.325H315.388V467.799H320.862ZM320.862 604.973H315.388V610.447H320.862V604.973ZM424.905 604.973V577.538H413.957V604.973H424.905ZM419.431 572.064H351.04V583.012H419.431V572.064ZM356.514 577.538V467.799H345.566V577.538H356.514ZM351.04 462.325H320.862V473.273H351.04V462.325ZM315.388 467.799V604.973H326.336V467.799H315.388ZM320.862 610.447H419.431V599.499H320.862V610.447ZM526.531 495.625V501.099H532.005V495.625H526.531ZM526.531 467.799H532.005V462.325H526.531V467.799ZM412.872 467.799V462.325H407.399V467.799H412.872ZM412.872 495.625H407.399V501.099H412.872V495.625ZM454.613 495.625H460.086V490.152H454.613V495.625ZM454.613 604.973H449.139V610.447H454.613V604.973ZM484.791 604.973V610.447H490.265V604.973H484.791ZM484.791 495.625V490.152H479.317V495.625H484.791ZM532.005 495.625V467.799H521.057V495.625H532.005ZM526.531 462.325H412.872V473.273H526.531V462.325ZM407.399 467.799V495.625H418.346V467.799H407.399ZM412.872 501.099H454.613V490.152H412.872V501.099ZM449.139 495.625V604.973H460.086V495.625H449.139ZM454.613 610.447H484.791V599.499H454.613V610.447ZM490.265 604.973V495.625H479.317V604.973H490.265ZM484.791 501.099H526.531V490.152H484.791V501.099ZM668.298 604.973V610.447H678.674L672.816 601.882L668.298 604.973ZM634.788 555.982L632.885 550.849L626.312 553.287L630.27 559.072L634.788 555.982ZM549.74 467.799V462.325H544.266V467.799H549.74ZM549.74 604.973H544.266V610.447H549.74V604.973ZM579.918 604.973V610.447H585.392V604.973H579.918ZM579.918 561.077V555.603H574.445V561.077H579.918ZM603.63 561.077L608.178 558.031L606.552 555.603H603.63V561.077ZM633.024 604.973L628.476 608.018L630.102 610.447H633.024V604.973ZM579.918 534.426H574.445V539.9H579.918V534.426ZM579.918 495.038V489.564H574.445V495.038H579.918ZM672.816 601.882L639.306 552.892L630.27 559.072L663.78 608.063L672.816 601.882ZM636.691 561.114C646.229 557.578 654.53 551.902 660.441 543.834C666.373 535.738 669.656 525.558 669.656 513.458H658.708C658.708 523.501 656.015 531.351 651.61 537.364C647.184 543.405 640.787 547.919 632.885 550.849L636.691 561.114ZM669.656 513.458V513.066H658.708V513.458H669.656ZM669.656 513.066C669.656 497.629 664.302 484.716 654.048 475.733C643.886 466.831 629.529 462.325 612.448 462.325V473.273C627.701 473.273 639.212 477.291 646.834 483.968C654.363 490.564 658.708 500.284 658.708 513.066H669.656ZM612.448 462.325H549.74V473.273H612.448V462.325ZM544.266 467.799V604.973H555.214V467.799H544.266ZM549.74 610.447H579.918V599.499H549.74V610.447ZM585.392 604.973V561.077H574.445V604.973H585.392ZM579.918 566.551H603.63V555.603H579.918V566.551ZM599.082 564.123L628.476 608.018L637.573 601.927L608.178 558.031L599.082 564.123ZM633.024 610.447H668.298V599.499H633.024V610.447ZM628.138 515.026C628.138 519.393 626.596 522.664 623.985 524.918C621.289 527.245 616.904 528.952 610.489 528.952V539.9C618.771 539.9 625.947 537.688 631.139 533.205C636.415 528.65 639.086 522.22 639.086 515.026H628.138ZM610.489 528.952H579.918V539.9H610.489V528.952ZM585.392 534.426V495.038H574.445V534.426H585.392ZM579.918 500.512H609.901V489.564H579.918V500.512ZM609.901 500.512C616.521 500.512 621.061 502.024 623.842 504.255C626.437 506.337 628.138 509.552 628.138 514.634H639.086C639.086 506.783 636.28 500.199 630.694 495.716C625.293 491.383 617.978 489.564 609.901 489.564V500.512ZM628.138 514.634V515.026H639.086V514.634H628.138ZM825 604.973V610.447H833.279L830.037 602.829L825 604.973ZM766.212 466.819L771.249 464.676L769.831 461.345H766.212V466.819ZM738.385 466.819V461.345H734.765L733.348 464.676L738.385 466.819ZM679.596 604.973L674.559 602.829L671.318 610.447H679.596V604.973ZM710.362 604.973V610.447H714.042L715.431 607.039L710.362 604.973ZM722.904 574.207V568.733H719.224L717.835 572.14L722.904 574.207ZM780.909 574.207L785.978 572.14L784.589 568.733H780.909V574.207ZM793.451 604.973L788.382 607.039L789.771 610.447H793.451V604.973ZM770.131 547.556V553.03H778.289L775.196 545.48L770.131 547.556ZM733.682 547.556L728.617 545.48L725.524 553.03H733.682V547.556ZM751.906 503.072L756.972 500.997L751.906 488.633L746.841 500.997L751.906 503.072ZM830.037 602.829L771.249 464.676L761.175 468.962L819.964 607.116L830.037 602.829ZM766.212 461.345H738.385V472.293H766.212V461.345ZM733.348 464.676L674.559 602.829L684.633 607.116L743.422 468.962L733.348 464.676ZM679.596 610.447H710.362V599.499H679.596V610.447ZM715.431 607.039L727.973 576.273L717.835 572.14L705.293 602.906L715.431 607.039ZM722.904 579.68H780.909V568.733H722.904V579.68ZM775.84 576.273L788.382 607.039L798.52 602.906L785.978 572.14L775.84 576.273ZM793.451 610.447H825V599.499H793.451V610.447ZM770.131 542.082H733.682V553.03H770.131V542.082ZM738.747 549.631L756.972 505.147L746.841 500.997L728.617 545.48L738.747 549.631ZM746.841 505.147L765.066 549.631L775.196 545.48L756.972 500.997L746.841 505.147ZM983.346 604.973V610.447H988.82V604.973H983.346ZM983.346 467.799H988.82V462.325H983.346V467.799ZM950.816 467.799V462.325H947.774L946.167 464.909L950.816 467.799ZM914.759 525.804L910.11 528.694L914.759 536.172L919.408 528.694L914.759 525.804ZM878.702 467.799L883.351 464.909L881.745 462.325H878.702V467.799ZM846.172 467.799V462.325H840.698V467.799H846.172ZM846.172 604.973H840.698V610.447H846.172V604.973ZM875.762 604.973V610.447H881.236V604.973H875.762ZM875.762 516.006L880.334 512.994L870.288 497.746V516.006H875.762ZM913.975 574.011L909.404 577.022L911.026 579.484H913.975V574.011ZM914.759 574.011V579.484H917.708L919.33 577.022L914.759 574.011ZM953.364 515.418H958.838V497.16L948.793 512.406L953.364 515.418ZM953.364 604.973H947.89V610.447H953.364V604.973ZM988.82 604.973V467.799H977.872V604.973H988.82ZM983.346 462.325H950.816V473.273H983.346V462.325ZM946.167 464.909L910.11 522.914L919.408 528.694L955.465 470.689L946.167 464.909ZM919.408 522.914L883.351 464.909L874.053 470.689L910.11 528.694L919.408 522.914ZM878.702 462.325H846.172V473.273H878.702V462.325ZM840.698 467.799V604.973H851.646V467.799H840.698ZM846.172 610.447H875.762V599.499H846.172V610.447ZM881.236 604.973V516.006H870.288V604.973H881.236ZM871.191 519.017L909.404 577.022L918.546 570.999L880.334 512.994L871.191 519.017ZM913.975 579.484H914.759V568.537H913.975V579.484ZM919.33 577.022L957.935 518.429L948.793 512.406L910.188 570.999L919.33 577.022ZM947.89 515.418V604.973H958.838V515.418H947.89ZM953.364 610.447H983.346V599.499H953.364V610.447ZM1120.75 604.973V610.447H1126.22V604.973H1120.75ZM1120.75 578.126H1126.22V572.652H1120.75V578.126ZM1046.28 578.126H1040.81V583.6H1046.28V578.126ZM1046.28 549.319V543.845H1040.81V549.319H1046.28ZM1110.95 549.319V554.793H1116.42V549.319H1110.95ZM1110.95 522.472H1116.42V516.998H1110.95V522.472ZM1046.28 522.472H1040.81V527.946H1046.28V522.472ZM1046.28 494.646V489.172H1040.81V494.646H1046.28ZM1119.77 494.646V500.12H1125.24V494.646H1119.77ZM1119.77 467.799H1125.24V462.325H1119.77V467.799ZM1016.3 467.799V462.325H1010.83V467.799H1016.3ZM1016.3 604.973H1010.83V610.447H1016.3V604.973ZM1126.22 604.973V578.126H1115.27V604.973H1126.22ZM1120.75 572.652H1046.28V583.6H1120.75V572.652ZM1051.76 578.126V549.319H1040.81V578.126H1051.76ZM1046.28 554.793H1110.95V543.845H1046.28V554.793ZM1116.42 549.319V522.472H1105.48V549.319H1116.42ZM1110.95 516.998H1046.28V527.946H1110.95V516.998ZM1051.76 522.472V494.646H1040.81V522.472H1051.76ZM1046.28 500.12H1119.77V489.172H1046.28V500.12ZM1125.24 494.646V467.799H1114.29V494.646H1125.24ZM1119.77 462.325H1016.3V473.273H1119.77V462.325ZM1010.83 467.799V604.973H1021.77V467.799H1010.83ZM1016.3 610.447H1120.75V599.499H1016.3V610.447ZM1147.58 467.799V462.325H1142.11V467.799H1147.58ZM1147.58 604.973H1142.11V610.447H1147.58V604.973ZM1177.76 577.734H1172.28V583.208H1177.76V577.734ZM1177.76 495.038V489.564H1172.28V495.038H1177.76ZM1279.45 536.386V535.994H1268.5V536.386H1279.45ZM1279.45 535.994C1279.45 494.117 1246.96 462.325 1201.08 462.325V473.273C1241.42 473.273 1268.5 500.661 1268.5 535.994H1279.45ZM1201.08 462.325H1147.58V473.273H1201.08V462.325ZM1142.11 467.799V604.973H1153.05V467.799H1142.11ZM1147.58 610.447H1201.08V599.499H1147.58V610.447ZM1201.08 610.447C1247 610.447 1279.45 578.222 1279.45 536.386H1268.5C1268.5 571.758 1241.38 599.499 1201.08 599.499V610.447ZM1236.95 536.778C1236.95 547.644 1233.25 556.427 1227.15 562.484C1221.05 568.543 1212.16 572.26 1201.08 572.26V583.208C1214.68 583.208 1226.47 578.596 1234.87 570.252C1243.27 561.906 1247.9 550.211 1247.9 536.778H1236.95ZM1201.08 572.26H1177.76V583.208H1201.08V572.26ZM1183.23 577.734V495.038H1172.28V577.734H1183.23ZM1177.76 500.512H1201.08V489.564H1177.76V500.512ZM1201.08 500.512C1212.13 500.512 1221.01 504.301 1227.13 510.457C1233.25 516.618 1236.95 525.514 1236.95 536.386H1247.9C1247.9 522.958 1243.28 511.18 1234.89 502.742C1226.51 494.298 1214.72 489.564 1201.08 489.564V500.512ZM1236.95 536.386V536.778H1247.9V536.386H1236.95Z" fill="#588BA5"/>
</svg>
