<svg width="2100" height="756" viewBox="0 0 2100 756" fill="none" xmlns="http://www.w3.org/2000/svg">
<g clip-path="url(#clip0_37_10)">
<path opacity="0.6" d="M910.759 469V472H913.759V469H910.759ZM910.759 259H913.759V256H910.759V259ZM864.559 259V256H861.559V259H864.559ZM864.559 342.1V345.1H867.559V342.1H864.559ZM779.359 342.1H776.359V345.1H779.359V342.1ZM779.359 259H782.359V256H779.359V259ZM733.159 259V256H730.159V259H733.159ZM733.159 469H730.159V472H733.159V469ZM779.359 469V472H782.359V469H779.359ZM779.359 384.7V381.7H776.359V384.7H779.359ZM864.559 384.7H867.559V381.7H864.559V384.7ZM864.559 469H861.559V472H864.559V469ZM913.759 469V259H907.759V469H913.759ZM910.759 256H864.559V262H910.759V256ZM861.559 259V342.1H867.559V259H861.559ZM864.559 339.1H779.359V345.1H864.559V339.1ZM782.359 342.1V259H776.359V342.1H782.359ZM779.359 256H733.159V262H779.359V256ZM730.159 259V469H736.159V259H730.159ZM733.159 472H779.359V466H733.159V472ZM782.359 469V384.7H776.359V469H782.359ZM779.359 387.7H864.559V381.7H779.359V387.7ZM861.559 384.7V469H867.559V384.7H861.559ZM864.559 472H910.759V466H864.559V472ZM1152.19 469V472H1158.14L1154.6 467.216L1152.19 469ZM1062.79 348.1L1060.62 346.023L1058.87 347.849L1060.38 349.884L1062.79 348.1ZM1148.29 259L1150.45 261.077L1155.33 256H1148.29V259ZM1092.49 259V256H1091.18L1090.29 256.959L1092.49 259ZM1007.29 350.8H1004.29V358.442L1009.49 352.841L1007.29 350.8ZM1007.29 259H1010.29V256H1007.29V259ZM961.089 259V256H958.089V259H961.089ZM961.089 469H958.089V472H961.089V469ZM1007.29 469V472H1010.29V469H1007.29ZM1007.29 404.8L1005.13 402.718L1004.29 403.589V404.8H1007.29ZM1031.59 379.6L1034.01 377.834L1031.91 374.945L1029.43 377.518L1031.59 379.6ZM1096.69 469L1094.26 470.766L1095.16 472H1096.69V469ZM1154.6 467.216L1065.2 346.316L1060.38 349.884L1149.78 470.784L1154.6 467.216ZM1064.95 350.177L1150.45 261.077L1146.12 256.923L1060.62 346.023L1064.95 350.177ZM1148.29 256H1092.49V262H1148.29V256ZM1090.29 256.959L1005.09 348.759L1009.49 352.841L1094.69 261.041L1090.29 256.959ZM1010.29 350.8V259H1004.29V350.8H1010.29ZM1007.29 256H961.089V262H1007.29V256ZM958.089 259V469H964.089V259H958.089ZM961.089 472H1007.29V466H961.089V472ZM1010.29 469V404.8H1004.29V469H1010.29ZM1009.45 406.882L1033.75 381.682L1029.43 377.518L1005.13 402.718L1009.45 406.882ZM1029.16 381.366L1094.26 470.766L1099.11 467.234L1034.01 377.834L1029.16 381.366ZM1096.69 472H1152.19V466H1096.69V472ZM1366.83 469V472H1369.83V469H1366.83ZM1366.83 259H1369.83V256H1366.83V259ZM1321.23 259V256H1318.23V259H1321.23ZM1321.23 388.3L1318.84 390.117L1324.23 397.196V388.3H1321.23ZM1222.83 259L1225.22 257.183L1224.32 256H1222.83V259ZM1180.23 259V256H1177.23V259H1180.23ZM1180.23 469H1177.23V472H1180.23V469ZM1225.83 469V472H1228.83V469H1225.83ZM1225.83 335.5L1228.22 333.682L1222.83 326.611V335.5H1225.83ZM1327.53 469L1325.14 470.818L1326.04 472H1327.53V469ZM1369.83 469V259H1363.83V469H1369.83ZM1366.83 256H1321.23V262H1366.83V256ZM1318.23 259V388.3H1324.23V259H1318.23ZM1323.62 386.483L1225.22 257.183L1220.44 260.817L1318.84 390.117L1323.62 386.483ZM1222.83 256H1180.23V262H1222.83V256ZM1177.23 259V469H1183.23V259H1177.23ZM1180.23 472H1225.83V466H1180.23V472ZM1228.83 469V335.5H1222.83V469H1228.83ZM1223.44 337.318L1325.14 470.818L1329.92 467.182L1228.22 333.682L1223.44 337.318ZM1327.53 472H1366.83V466H1327.53V472Z" fill="#0D2B78"/>
<path opacity="0.2" d="M910.759 721V724H913.759V721H910.759ZM910.759 511H913.759V508H910.759V511ZM864.559 511V508H861.559V511H864.559ZM864.559 594.1V597.1H867.559V594.1H864.559ZM779.359 594.1H776.359V597.1H779.359V594.1ZM779.359 511H782.359V508H779.359V511ZM733.159 511V508H730.159V511H733.159ZM733.159 721H730.159V724H733.159V721ZM779.359 721V724H782.359V721H779.359ZM779.359 636.7V633.7H776.359V636.7H779.359ZM864.559 636.7H867.559V633.7H864.559V636.7ZM864.559 721H861.559V724H864.559V721ZM913.759 721V511H907.759V721H913.759ZM910.759 508H864.559V514H910.759V508ZM861.559 511V594.1H867.559V511H861.559ZM864.559 591.1H779.359V597.1H864.559V591.1ZM782.359 594.1V511H776.359V594.1H782.359ZM779.359 508H733.159V514H779.359V508ZM730.159 511V721H736.159V511H730.159ZM733.159 724H779.359V718H733.159V724ZM782.359 721V636.7H776.359V721H782.359ZM779.359 639.7H864.559V633.7H779.359V639.7ZM861.559 636.7V721H867.559V636.7H861.559ZM864.559 724H910.759V718H864.559V724ZM1152.19 721V724H1158.14L1154.6 719.216L1152.19 721ZM1062.79 600.1L1060.62 598.023L1058.87 599.849L1060.38 601.884L1062.79 600.1ZM1148.29 511L1150.45 513.077L1155.33 508H1148.29V511ZM1092.49 511V508H1091.18L1090.29 508.959L1092.49 511ZM1007.29 602.8H1004.29V610.442L1009.49 604.841L1007.29 602.8ZM1007.29 511H1010.29V508H1007.29V511ZM961.089 511V508H958.089V511H961.089ZM961.089 721H958.089V724H961.089V721ZM1007.29 721V724H1010.29V721H1007.29ZM1007.29 656.8L1005.13 654.718L1004.29 655.589V656.8H1007.29ZM1031.59 631.6L1034.01 629.834L1031.91 626.945L1029.43 629.518L1031.59 631.6ZM1096.69 721L1094.26 722.766L1095.16 724H1096.69V721ZM1154.6 719.216L1065.2 598.316L1060.38 601.884L1149.78 722.784L1154.6 719.216ZM1064.95 602.177L1150.45 513.077L1146.12 508.923L1060.62 598.023L1064.95 602.177ZM1148.29 508H1092.49V514H1148.29V508ZM1090.29 508.959L1005.09 600.759L1009.49 604.841L1094.69 513.041L1090.29 508.959ZM1010.29 602.8V511H1004.29V602.8H1010.29ZM1007.29 508H961.089V514H1007.29V508ZM958.089 511V721H964.089V511H958.089ZM961.089 724H1007.29V718H961.089V724ZM1010.29 721V656.8H1004.29V721H1010.29ZM1009.45 658.882L1033.75 633.682L1029.43 629.518L1005.13 654.718L1009.45 658.882ZM1029.16 633.366L1094.26 722.766L1099.11 719.234L1034.01 629.834L1029.16 633.366ZM1096.69 724H1152.19V718H1096.69V724ZM1366.83 721V724H1369.83V721H1366.83ZM1366.83 511H1369.83V508H1366.83V511ZM1321.23 511V508H1318.23V511H1321.23ZM1321.23 640.3L1318.84 642.117L1324.23 649.196V640.3H1321.23ZM1222.83 511L1225.22 509.183L1224.32 508H1222.83V511ZM1180.23 511V508H1177.23V511H1180.23ZM1180.23 721H1177.23V724H1180.23V721ZM1225.83 721V724H1228.83V721H1225.83ZM1225.83 587.5L1228.22 585.682L1222.83 578.611V587.5H1225.83ZM1327.53 721L1325.14 722.818L1326.04 724H1327.53V721ZM1369.83 721V511H1363.83V721H1369.83ZM1366.83 508H1321.23V514H1366.83V508ZM1318.23 511V640.3H1324.23V511H1318.23ZM1323.62 638.483L1225.22 509.183L1220.44 512.817L1318.84 642.117L1323.62 638.483ZM1222.83 508H1180.23V514H1222.83V508ZM1177.23 511V721H1183.23V511H1177.23ZM1180.23 724H1225.83V718H1180.23V724ZM1228.83 721V587.5H1222.83V721H1228.83ZM1223.44 589.318L1325.14 722.818L1329.92 719.182L1228.22 585.682L1223.44 589.318ZM1327.53 724H1366.83V718H1327.53V724Z" fill="#0D2B78"/>
<path d="M910.759 222V225H913.759V222H910.759ZM910.759 12H913.759V8.99999H910.759V12ZM864.559 12V8.99999H861.559V12H864.559ZM864.559 95.1V98.1H867.559V95.1H864.559ZM779.359 95.1H776.359V98.1H779.359V95.1ZM779.359 12H782.359V8.99999H779.359V12ZM733.159 12V8.99999H730.159V12H733.159ZM733.159 222H730.159V225H733.159V222ZM779.359 222V225H782.359V222H779.359ZM779.359 137.7V134.7H776.359V137.7H779.359ZM864.559 137.7H867.559V134.7H864.559V137.7ZM864.559 222H861.559V225H864.559V222ZM913.759 222V12H907.759V222H913.759ZM910.759 8.99999H864.559V15H910.759V8.99999ZM861.559 12V95.1H867.559V12H861.559ZM864.559 92.1H779.359V98.1H864.559V92.1ZM782.359 95.1V12H776.359V95.1H782.359ZM779.359 8.99999H733.159V15H779.359V8.99999ZM730.159 12V222H736.159V12H730.159ZM733.159 225H779.359V219H733.159V225ZM782.359 222V137.7H776.359V222H782.359ZM779.359 140.7H864.559V134.7H779.359V140.7ZM861.559 137.7V222H867.559V137.7H861.559ZM864.559 225H910.759V219H864.559V225ZM1152.19 222V225H1158.14L1154.6 220.216L1152.19 222ZM1062.79 101.1L1060.62 99.0229L1058.87 100.849L1060.38 102.884L1062.79 101.1ZM1148.29 12L1150.45 14.0771L1155.33 8.99999H1148.29V12ZM1092.49 12V8.99999H1091.18L1090.29 9.95918L1092.49 12ZM1007.29 103.8H1004.29V111.442L1009.49 105.841L1007.29 103.8ZM1007.29 12H1010.29V8.99999H1007.29V12ZM961.089 12V8.99999H958.089V12H961.089ZM961.089 222H958.089V225H961.089V222ZM1007.29 222V225H1010.29V222H1007.29ZM1007.29 157.8L1005.13 155.718L1004.29 156.589V157.8H1007.29ZM1031.59 132.6L1034.01 130.834L1031.91 127.945L1029.43 130.518L1031.59 132.6ZM1096.69 222L1094.26 223.766L1095.16 225H1096.69V222ZM1154.6 220.216L1065.2 99.3163L1060.38 102.884L1149.78 223.784L1154.6 220.216ZM1064.95 103.177L1150.45 14.0771L1146.12 9.92285L1060.62 99.0229L1064.95 103.177ZM1148.29 8.99999H1092.49V15H1148.29V8.99999ZM1090.29 9.95918L1005.09 101.759L1009.49 105.841L1094.69 14.0408L1090.29 9.95918ZM1010.29 103.8V12H1004.29V103.8H1010.29ZM1007.29 8.99999H961.089V15H1007.29V8.99999ZM958.089 12V222H964.089V12H958.089ZM961.089 225H1007.29V219H961.089V225ZM1010.29 222V157.8H1004.29V222H1010.29ZM1009.45 159.882L1033.75 134.682L1029.43 130.518L1005.13 155.718L1009.45 159.882ZM1029.16 134.366L1094.26 223.766L1099.11 220.234L1034.01 130.834L1029.16 134.366ZM1096.69 225H1152.19V219H1096.69V225ZM1366.83 222V225H1369.83V222H1366.83ZM1366.83 12H1369.83V8.99999H1366.83V12ZM1321.23 12V8.99999H1318.23V12H1321.23ZM1321.23 141.3L1318.84 143.117L1324.23 150.196V141.3H1321.23ZM1222.83 12L1225.22 10.1832L1224.32 8.99999H1222.83V12ZM1180.23 12V8.99999H1177.23V12H1180.23ZM1180.23 222H1177.23V225H1180.23V222ZM1225.83 222V225H1228.83V222H1225.83ZM1225.83 88.5L1228.22 86.682L1222.83 79.6114V88.5H1225.83ZM1327.53 222L1325.14 223.818L1326.04 225H1327.53V222ZM1369.83 222V12H1363.83V222H1369.83ZM1366.83 8.99999H1321.23V15H1366.83V8.99999ZM1318.23 12V141.3H1324.23V12H1318.23ZM1323.62 139.483L1225.22 10.1832L1220.44 13.8168L1318.84 143.117L1323.62 139.483ZM1222.83 8.99999H1180.23V15H1222.83V8.99999ZM1177.23 12V222H1183.23V12H1177.23ZM1180.23 225H1225.83V219H1180.23V225ZM1228.83 222V88.5H1222.83V222H1228.83ZM1223.44 90.318L1325.14 223.818L1329.92 220.182L1228.22 86.682L1223.44 90.318ZM1327.53 225H1366.83V219H1327.53V225Z" fill="#0D2B78"/>
</g>
<defs>
<clipPath id="clip0_37_10">
<rect width="2100" height="756" fill="white"/>
</clipPath>
</defs>
</svg>
