<svg width="1440" height="638" viewBox="0 0 1440 638" fill="none" xmlns="http://www.w3.org/2000/svg">
<g opacity="0.25">
<g clip-path="url(#clip0_55_57)">
<path d="M1418.09 0H1406.6C1419.26 5.62503 1433.66 11.2926 1451 17.0027V12.3134C1438.68 8.18767 1427.84 4.0832 1418.09 0Z" fill="#525154" fill-opacity="0.7"/>
<path d="M1361.66 0H1351.82C1376.23 13.2917 1404.11 26.8598 1451 40.513V35.93C1410.02 23.8399 1383.92 11.8243 1361.66 0.0106333V0Z" fill="#525154" fill-opacity="0.7"/>
<path d="M1320.88 5.76327C1317.49 3.84927 1314.1 1.92463 1310.63 0H1300.96C1306.55 3.05177 1311.93 6.0929 1317.29 9.1234C1348.62 26.8385 1381 45.1385 1451 63.3109V58.7917C1383.24 41.0128 1351.54 23.1062 1320.88 5.7739V5.76327Z" fill="#525154" fill-opacity="0.7"/>
<path d="M1437.72 77.7935C1364.26 59.3234 1331.41 40.4705 1299.64 22.2343C1286.86 14.8973 1273.91 7.47523 1258.28 0H1247.39C1266.42 8.59173 1281.33 17.1409 1296.01 25.5625C1328.18 44.022 1361.42 63.1088 1435.82 81.8022C1441.04 83.1101 1446.09 84.3223 1451 85.4601V81.0047C1446.69 80.0052 1442.27 78.9312 1437.72 77.7828V77.7935Z" fill="#525154" fill-opacity="0.7"/>
<path d="M1416.26 94.6898C1342.81 76.2304 1310.06 57.1435 1278.4 38.6947C1256.54 25.956 1234.17 12.9301 1198.57 0H1185.06C1226.67 14.0041 1251.01 28.189 1274.74 42.0123C1306.8 60.6951 1339.95 80.0052 1414.35 98.7092C1427.52 102.016 1439.65 104.728 1451 106.95V102.537C1440.22 100.4 1428.7 97.816 1416.26 94.6898Z" fill="#525154" fill-opacity="0.7"/>
<path d="M1394.8 111.586C1321.36 93.1267 1288.72 73.8272 1257.17 55.1551C1226.35 36.9296 1194.49 18.0979 1125.49 0H1107.55C1110.27 0.648633 1113.01 1.31853 1115.82 2.03097C1189.26 20.4904 1221.9 39.7899 1253.45 58.4621C1285.41 77.3575 1318.45 96.9016 1392.87 115.616C1414.74 121.114 1433.85 124.942 1450.99 127.6V123.24C1434.36 120.625 1415.87 116.892 1394.79 111.586H1394.8Z" fill="#525154" fill-opacity="0.7"/>
<path d="M1373.32 128.483C1299.9 110.023 1267.37 90.5003 1235.91 71.6261C1204.05 52.5074 1171.11 32.7294 1096.68 14.0254C1068.18 6.8585 1044.34 2.552 1023.44 0H875.162C898.744 1.74387 918.744 1.4036 938.423 1.0527C979.198 0.329633 1021.35 -0.414701 1094.78 18.0448C1168.21 36.5042 1200.73 56.027 1232.2 74.9118C1264.05 94.0306 1296.99 113.798 1371.42 132.513C1402.86 140.413 1428.62 144.837 1451 147.261V142.955C1429.1 140.541 1403.94 136.192 1373.32 128.493V128.483Z" fill="#525154" fill-opacity="0.7"/>
<path d="M1351.86 145.379C1278.44 126.919 1246.03 107.173 1214.68 88.0865C1182.93 68.7445 1150.09 48.7432 1075.65 30.0285C1001.22 11.3139 958.394 12.3028 917.005 13.2491C878.744 14.1317 839.256 15.0355 774.109 0H755.717C756.667 0.244567 757.588 0.489133 758.553 0.723067C832.984 19.4377 875.791 18.4488 917.195 17.5025C958.058 16.5667 1000.32 15.5885 1073.75 34.0479C1147.17 52.5074 1179.58 72.2535 1210.93 91.3403C1242.68 110.682 1275.52 130.684 1349.96 149.398C1391.88 159.936 1423.76 164.221 1451.01 165.795V161.52C1424.25 159.947 1392.93 155.704 1351.88 145.379H1351.86Z" fill="#525154" fill-opacity="0.7"/>
<path d="M1330.38 162.275C1256.98 143.826 1224.67 123.857 1193.42 104.547C1161.77 84.9816 1129.04 64.757 1054.59 46.0423C980.148 27.3277 937.239 28.5399 895.718 29.7095C854.753 30.8686 812.384 32.0595 738.977 13.6C721.257 9.14467 705.936 4.5936 692.441 0H679.079C695.263 5.97593 714.196 11.8668 737.076 17.6194C811.521 36.3341 854.431 35.1219 895.952 33.9522C936.917 32.8038 979.286 31.6023 1052.69 50.0617C1126.1 68.5106 1158.41 88.48 1189.65 107.79C1221.31 127.355 1254.04 147.58 1328.48 166.295C1381.82 179.703 1418.95 182.883 1451 183.18V178.916C1419.44 178.608 1382.84 175.461 1330.38 162.275Z" fill="#525154" fill-opacity="0.7"/>
<path d="M1308.92 179.172C1235.53 160.723 1203.32 140.53 1172.18 121.007C1140.63 101.219 1108 80.7708 1033.54 62.0455C959.081 43.3308 916.054 44.7663 874.431 46.1593C833.378 47.531 790.907 48.9452 717.5 30.4964C678.523 20.7031 651.169 10.41 629.414 0H618.976C642.178 11.7817 671.578 23.4571 715.585 34.5158C790.044 53.2305 833.071 51.795 874.694 50.4126C915.762 49.0409 958.233 47.6267 1031.63 66.0755C1105.02 84.5244 1137.23 104.717 1168.35 124.24C1199.9 144.028 1232.53 164.476 1306.99 183.202C1372.51 199.673 1413.67 200.534 1450.99 199.556V195.302C1414.16 196.27 1373.53 195.43 1308.91 179.182L1308.92 179.172Z" fill="#525154" fill-opacity="0.7"/>
<path d="M1444.57 211.295C1403.4 212.879 1360.84 214.527 1287.45 196.079C1214.05 177.63 1181.98 157.224 1150.94 137.489C1119.49 117.488 1086.96 96.7951 1012.49 78.0805C938.028 59.3658 894.884 61.0246 853.144 62.6302C811.974 64.2146 769.416 65.8628 696.023 47.4139C636.447 32.4316 604.093 16.1732 577.411 0.0211639H568.332C596.49 17.4917 629.517 35.2069 694.108 51.4333C768.582 70.1586 811.726 68.4892 853.451 66.8836C894.607 65.2992 937.18 63.6617 1010.57 82.0999C1083.96 100.549 1116.04 120.954 1147.08 140.69C1178.53 160.691 1211.06 181.383 1285.53 200.098C1359.99 218.813 1403.15 217.154 1444.87 215.548C1446.91 215.474 1448.95 215.389 1451 215.314V211.061C1448.85 211.146 1446.7 211.22 1444.57 211.305V211.295Z" fill="#525154" fill-opacity="0.7"/>
<path d="M1423.3 227.745C1382.04 229.552 1339.36 231.413 1266 212.964C1192.62 194.516 1160.65 173.887 1129.71 153.939C1098.35 133.714 1065.94 112.798 991.464 94.0731C916.99 75.3478 873.729 77.2405 831.901 79.0695C790.644 80.8771 747.968 82.738 674.59 64.2891C601.212 45.8403 569.224 25.2116 538.303 5.2635C535.583 3.509 532.864 1.7545 530.101 0H521.183C525.686 2.82847 530.057 5.6463 534.414 8.4535C565.774 28.6781 598.186 49.5939 672.675 68.3192C747.149 87.0445 790.41 85.1517 832.238 83.3228C873.495 81.5151 916.171 79.6543 989.549 98.1031C1062.93 116.552 1094.9 137.181 1125.82 157.129C1157.18 177.353 1189.59 198.269 1264.07 216.994C1338.54 235.72 1381.8 233.827 1423.63 231.998C1432.58 231.605 1441.6 231.211 1450.99 231.03V226.766C1441.48 226.958 1432.34 227.351 1423.28 227.755L1423.3 227.745Z" fill="#525154" fill-opacity="0.7"/>
<path d="M1402.02 244.205C1360.66 246.225 1317.88 248.309 1244.52 229.871C1171.16 211.422 1139.29 190.581 1108.47 170.409C1077.21 149.961 1044.9 128.822 970.411 110.097C895.922 91.3718 852.559 93.4879 810.615 95.5401C769.255 97.5604 726.491 99.6446 653.113 81.2064C579.75 62.7575 547.879 41.9162 517.045 21.7448C506.036 14.546 494.881 7.25154 481.811 0.0102386H471.972C487.717 8.28297 500.51 16.6514 513.127 24.9029C544.385 45.3508 576.695 66.4898 651.184 85.2151C725.673 103.94 769.035 101.824 810.98 99.7722C852.34 97.7518 895.118 95.6677 968.482 114.106C1041.84 132.555 1073.72 153.396 1104.54 173.567C1135.79 194.015 1168.1 215.154 1242.59 233.88C1317.08 252.605 1360.44 250.489 1402.39 248.447C1417.87 247.692 1433.56 246.927 1450.99 247.235V242.971C1433.44 242.674 1417.62 243.439 1402.01 244.205H1402.02Z" fill="#525154" fill-opacity="0.7"/>
<path d="M1380.74 260.655C1339.27 262.888 1296.41 265.195 1223.05 246.757C1149.7 228.319 1117.93 207.244 1087.21 186.87C1056.06 166.199 1023.85 144.826 949.344 126.101C874.841 107.375 831.361 109.715 789.314 111.98C747.851 114.213 704.985 116.52 631.622 98.0819C558.259 79.6437 526.505 58.5684 495.788 38.1949C476.606 25.4668 457.001 12.4729 427.395 0H415.349C449.72 13.4086 471.036 27.5297 491.84 41.3424C522.996 62.0136 555.204 83.3866 629.707 102.112C704.196 120.837 747.691 118.498 789.738 116.233C831.2 114 874.066 111.693 947.429 130.131C1020.79 148.569 1052.55 169.644 1083.26 190.018C1114.42 210.689 1146.63 232.062 1221.13 250.787C1295.63 269.512 1339.11 267.173 1381.16 264.908C1402.7 263.749 1424.63 262.569 1450.99 264.291V260.006C1424.49 258.316 1402.42 259.496 1380.72 260.666L1380.74 260.655Z" fill="#525154" fill-opacity="0.7"/>
<path d="M1359.46 277.115C1317.91 279.561 1274.93 282.102 1201.58 263.664C1128.23 245.226 1096.58 223.938 1065.98 203.341C1034.93 182.447 1002.82 160.85 928.32 142.125C853.817 123.4 810.22 125.962 768.056 128.451C726.491 130.907 683.523 133.438 610.175 114.999C536.826 96.5612 505.174 75.2626 474.559 54.6765C447.074 36.1851 418.74 17.1408 360.918 0.0211639H344.734C411.182 17.8639 441.372 38.1523 470.597 57.8027C501.65 78.6972 533.756 100.294 608.274 119.029C682.777 137.755 726.374 135.192 768.538 132.704C810.088 130.258 853.071 127.717 926.42 146.155C999.768 164.593 1031.42 185.892 1062.02 206.478C1093.07 227.372 1125.18 248.969 1199.68 267.694C1274.19 286.419 1317.78 283.857 1359.95 281.369C1387.02 279.774 1414.71 278.147 1451.01 282.304V277.987C1414.6 273.883 1386.73 275.52 1359.48 277.126L1359.46 277.115Z" fill="#525154" fill-opacity="0.7"/>
<path d="M1338.18 293.565C1296.52 296.234 1253.45 298.988 1180.11 280.55C1106.77 262.112 1075.22 240.601 1044.72 219.791C1013.77 198.684 981.771 176.854 907.253 158.118C832.734 139.382 789.021 142.179 746.769 144.89C705.116 147.559 662.031 150.313 588.697 131.875C515.363 113.437 483.813 91.9256 453.316 71.1161C422.366 50.009 390.362 28.1787 315.844 9.44281C299.499 5.32771 284.631 2.25468 270.932 -0.0102234H236.809C258.739 1.88251 283.768 5.88064 313.929 13.4622C387.263 31.9004 418.813 53.4117 449.31 74.2211C480.261 95.3283 512.264 117.158 586.782 135.894C661.3 154.63 705 151.834 747.266 149.122C788.918 146.453 832.003 143.699 905.337 162.137C978.671 180.576 1010.22 202.087 1040.72 222.896C1071.67 244.004 1103.67 265.834 1178.19 284.57C1252.71 303.306 1296.41 300.509 1338.67 297.798C1370.84 295.745 1403.85 293.64 1450.98 301.264V296.904C1403.75 289.376 1370.53 291.492 1338.16 293.565H1338.18Z" fill="#525154" fill-opacity="0.7"/>
<path d="M155.873 0.457249C158.256 0.308382 160.653 0.148882 163.051 1.52588e-05H64.4683C100.77 3.96625 128.621 2.20112 155.873 0.457249Z" fill="#525154" fill-opacity="0.7"/>
<path d="M1316.91 310.025C1275.15 312.907 1231.98 315.884 1158.64 297.457C1085.31 279.019 1053.88 257.284 1023.48 236.273C992.634 214.942 960.733 192.878 886.215 174.142C811.682 155.406 767.866 158.437 725.497 161.361C683.742 164.242 640.57 167.22 567.236 148.792C493.902 130.354 462.469 108.62 432.074 87.5974C401.226 66.2669 369.325 44.2028 294.792 25.4668C220.259 6.7309 176.443 9.75077 134.06 12.6749C94.8927 15.3758 54.4391 18.1617 -11 3.2538V7.69853C54.5122 22.4151 95.1997 19.6185 134.63 16.8964C176.385 14.0147 219.572 11.0374 292.891 29.465C366.225 47.9032 397.658 69.6377 428.053 90.6598C458.901 111.99 490.802 134.054 565.335 152.79C639.853 171.526 683.684 168.506 726.053 165.572C767.807 162.69 810.98 159.713 884.314 178.14C957.634 196.578 989.067 218.313 1019.48 239.324C1050.32 260.655 1082.23 282.719 1156.76 301.455C1231.29 320.191 1275.11 317.171 1317.48 314.236C1354.3 311.695 1392.26 309.09 1451.01 321.159V316.735C1392.15 304.815 1353.98 307.452 1316.92 310.004L1316.91 310.025Z" fill="#525154" fill-opacity="0.7"/>
<path d="M1295.63 326.475C1253.78 329.57 1210.5 332.77 1137.18 314.343C1063.86 295.915 1032.55 273.957 1002.25 252.722C971.508 231.169 939.709 208.881 865.177 190.145C790.644 171.409 746.711 174.663 704.225 177.8C662.383 180.894 619.093 184.095 545.773 165.667C472.454 147.24 441.138 125.282 410.846 104.047C380.1 82.4934 348.301 60.2059 273.768 41.47C199.236 22.7341 155.303 25.9879 112.817 29.1247C78.0212 31.698 42.2168 34.335 -10.9854 24.563V28.9546C42.3484 38.599 78.3867 35.9513 113.416 33.3568C155.273 30.2625 198.563 27.0618 271.868 45.4894C345.187 63.917 376.518 85.8748 406.796 107.11C437.542 128.663 469.34 150.951 543.873 169.687C618.406 188.423 662.339 185.169 704.824 182.032C746.682 178.938 789.957 175.737 863.276 194.165C936.595 212.592 967.911 234.55 998.204 255.785C1028.95 277.339 1060.75 299.626 1135.28 318.362C1209.81 337.098 1253.75 333.844 1296.23 330.707C1337.37 327.666 1379.92 324.529 1451.01 341.936V337.449C1379.86 320.255 1337.05 323.413 1295.65 326.475H1295.63Z" fill="#525154" fill-opacity="0.7"/>
<path d="M1435.53 354.834C1360.98 336.098 1316.95 339.575 1274.35 342.936C1232.4 346.253 1189.01 349.677 1115.7 331.25C1042.4 312.822 1011.19 290.641 980.996 269.193C950.353 247.416 918.657 224.906 844.109 206.159C769.562 187.423 725.526 190.9 682.924 194.26C640.979 197.578 597.587 201.002 524.282 182.574C450.977 164.147 419.764 141.966 389.573 120.518C358.93 98.7411 327.234 76.2304 252.686 57.4838C178.139 38.7479 134.089 42.225 91.5008 45.5851C61.5151 47.9563 30.8131 50.3701 -11.0293 44.8408V49.1685C30.9886 54.6341 61.9245 52.199 92.1294 49.8172C134.074 46.4996 177.466 43.0756 250.771 61.5138C324.076 79.9414 355.289 102.123 385.48 123.57C416.123 145.347 447.819 167.858 522.367 186.604C596.914 205.34 640.95 201.863 683.552 198.503C725.512 195.185 768.889 191.762 842.194 210.189C915.499 228.617 946.712 250.798 976.903 272.245C1007.55 294.022 1039.24 316.533 1113.79 335.28C1188.34 354.016 1232.37 350.538 1274.98 347.178C1316.93 343.861 1360.31 340.437 1433.62 358.864C1439.7 360.396 1445.47 361.948 1451 363.532V358.971C1446.04 357.578 1440.91 356.206 1435.53 354.856V354.834Z" fill="#525154" fill-opacity="0.7"/>
<path d="M1414.48 370.848C1339.92 352.102 1295.76 355.813 1253.07 359.396C1211.03 362.926 1167.55 366.574 1094.24 348.146C1020.95 329.718 989.841 307.325 959.768 285.664C929.227 263.664 897.633 240.919 823.086 222.183C748.538 203.437 704.371 207.148 661.681 210.731C619.634 214.262 576.154 217.909 502.849 199.481C429.544 181.054 398.448 158.66 368.36 136.989C337.819 114.989 306.225 92.2441 231.663 73.5082C157.101 54.7617 112.948 58.4727 70.2433 62.0561C45.5648 64.1296 20.3891 66.235 -11 63.8957V68.1809C20.6231 70.4777 46.018 68.3617 70.9159 66.2776C112.963 62.7473 156.457 59.1001 229.748 77.5276C303.052 95.9552 334.149 118.349 364.237 140.02C394.778 162.02 426.372 184.765 500.934 203.501C575.481 222.237 619.648 218.536 662.339 214.953C704.386 211.423 747.88 207.775 821.17 226.203C894.46 244.63 925.572 267.024 955.645 288.684C986.186 310.685 1017.78 333.429 1092.33 352.165C1166.87 370.912 1211.03 367.201 1253.73 363.617C1295.78 360.087 1339.26 356.44 1412.56 374.868C1426.89 378.472 1439.58 382.226 1450.99 386.096V381.407C1440.05 377.781 1427.97 374.251 1414.46 370.859L1414.48 370.848Z" fill="#525154" fill-opacity="0.7"/>
<path d="M1393.44 386.851C1318.88 368.105 1274.61 372.039 1231.8 375.846C1189.65 379.589 1146.07 383.459 1072.78 365.042C999.491 346.615 968.496 323.998 938.525 302.125C908.086 279.912 876.595 256.933 802.033 238.187C727.471 219.44 683.201 223.374 640.394 227.181C598.245 230.924 554.662 234.795 481.372 216.378C408.082 197.95 377.088 175.333 347.117 153.46C316.678 131.237 285.187 108.269 210.625 89.522C136.063 70.7755 91.7932 74.7098 48.9712 78.5059C30.1114 80.1753 10.9592 81.8767 -11 81.5896V85.8642C11.2224 86.1406 30.5939 84.4287 49.673 82.7273C91.8225 78.9844 135.405 75.1139 208.695 93.5414C281.985 111.969 312.979 134.586 342.95 156.459C373.389 178.672 404.881 201.651 479.443 220.397C554.005 239.144 598.274 235.209 641.081 231.403C683.231 227.66 726.813 223.789 800.103 242.206C873.393 260.634 904.387 283.251 934.358 305.124C964.797 327.337 996.289 350.315 1070.85 369.062C1145.41 387.808 1189.68 383.874 1232.49 380.067C1274.64 376.324 1318.22 372.454 1391.51 390.871C1415.34 396.857 1434.68 403.301 1450.99 410.011V405.119C1435.02 398.729 1416.25 392.593 1393.43 386.851H1393.44Z" fill="#525154" fill-opacity="0.7"/>
<path d="M1372.39 402.865C1297.81 384.119 1253.44 388.276 1210.52 392.296C1168.26 396.251 1124.58 400.345 1051.3 381.928C978.028 363.511 947.136 340.671 917.268 318.575C886.931 296.138 855.557 272.936 780.98 254.19C706.403 235.443 662.032 239.601 619.107 243.62C576.856 247.576 533.171 251.67 459.896 233.253C386.62 214.836 355.728 191.995 325.859 169.899C295.523 147.463 264.134 124.261 189.557 105.515C114.98 86.768 70.5942 90.9256 27.6845 94.945C15.1552 96.1147 2.50885 97.295 -11.0146 97.9117V102.186C2.75739 101.57 15.6669 100.368 28.4301 99.1771C70.6819 95.2215 114.366 91.1277 187.642 109.545C260.917 127.962 291.809 150.813 321.678 172.898C352.015 195.334 383.404 218.536 457.98 237.293C532.557 256.04 576.929 251.882 619.853 247.863C662.09 243.907 705.789 239.814 779.065 258.231C852.34 276.647 883.232 299.488 913.101 321.584C943.437 344.02 974.812 367.222 1049.39 385.969C1123.97 404.715 1168.34 400.558 1211.26 396.538C1253.51 392.583 1297.2 388.489 1370.47 406.906C1405.5 415.71 1430.82 425.525 1450.99 435.786V430.607C1431.01 420.782 1406.13 411.382 1372.37 402.897L1372.39 402.865Z" fill="#525154" fill-opacity="0.7"/>
<path d="M1351.35 418.879C1276.76 400.132 1232.27 404.513 1189.26 408.756C1146.92 412.935 1103.13 417.252 1029.86 398.835C956.581 380.418 925.806 357.354 896.054 335.046C865.82 312.386 834.548 288.95 759.957 270.204C685.38 251.457 640.891 255.838 597.865 260.081C555.51 264.26 511.724 268.577 438.463 250.149C365.187 231.732 334.412 208.669 304.646 186.36C274.397 163.7 243.14 140.264 168.548 121.518C93.9717 102.771 49.4684 107.152 6.44172 111.395C0.681437 111.958 -5.09346 112.533 -10.9707 113.043V117.328C-4.81568 116.797 1.22238 116.201 7.2312 115.606C49.5707 111.427 93.3722 107.11 166.633 125.537C239.909 143.954 270.684 167.018 300.45 189.327C330.699 211.986 361.971 235.422 436.548 254.169C511.124 272.915 555.613 268.534 598.639 264.292C640.994 260.113 684.78 255.795 758.041 274.223C831.317 292.64 862.092 315.704 891.843 338.002C922.092 360.661 953.35 384.097 1027.94 402.844C1102.53 421.59 1147.02 417.209 1190.03 412.967C1232.37 408.788 1276.16 404.471 1349.43 422.888C1397.86 435.063 1427.73 449.269 1451 463.943V458.339C1427.87 444.239 1398.13 430.639 1351.35 418.879Z" fill="#525154" fill-opacity="0.7"/>
<path d="M1330.3 434.893C1255.71 416.146 1211.1 420.761 1167.97 425.216C1125.53 429.608 1081.64 434.148 1008.38 415.731C935.119 397.315 904.446 374.028 874.797 351.517C844.65 328.634 813.495 304.975 738.889 286.228C664.298 267.471 619.692 272.086 576.563 276.552C534.121 280.943 490.232 285.484 416.971 267.067C343.71 248.65 313.038 225.363 283.374 202.852C253.227 179.969 222.072 156.31 147.466 137.553C75.0972 119.349 30.9594 123.145 -11 127.462V131.758C30.5208 127.472 74.0445 123.581 145.566 141.562C218.826 159.979 249.499 183.266 279.163 205.776C309.31 228.659 340.465 252.318 415.071 271.076C489.662 289.833 534.268 285.218 577.397 280.752C619.838 276.36 663.728 271.82 736.988 290.237C810.249 308.654 840.922 331.941 870.571 354.452C900.718 377.334 931.873 400.994 1006.48 419.74C1081.07 438.497 1125.68 433.883 1168.8 429.417C1211.26 425.025 1255.15 420.485 1328.4 438.902C1392.72 455.075 1424.2 474.991 1451.01 494.854V488.814C1424.6 469.621 1392.59 450.545 1330.31 434.882L1330.3 434.893Z" fill="#525154" fill-opacity="0.7"/>
<path d="M1444.95 516.652C1414.9 493.546 1383.85 469.664 1309.24 450.906C1234.64 432.149 1189.93 436.998 1146.68 441.677C1104.14 446.281 1060.15 451.045 986.903 432.628C913.657 414.211 883.101 390.711 853.539 367.977C823.51 344.871 792.442 320.988 717.836 302.231C643.23 283.474 598.522 288.323 555.276 293.001C512.732 297.606 468.741 302.369 395.494 283.953C322.248 265.536 291.678 242.036 262.131 219.302C232.087 196.196 201.034 172.313 126.428 153.556C66.062 138.382 25.2722 138.659 -11 141.785V146.07C24.8044 142.944 65.0094 142.614 124.513 157.575C197.759 175.992 228.329 199.492 257.876 222.226C287.921 245.332 318.973 269.215 393.579 287.972C468.185 306.729 512.893 301.891 556.139 297.202C598.683 292.597 642.675 287.834 715.921 306.251C789.167 324.668 819.723 348.167 849.285 370.901C879.329 394.008 910.382 417.89 984.988 436.647C1059.59 455.404 1104.3 450.556 1147.55 445.877C1190.09 441.273 1234.08 436.509 1307.33 454.926C1380.58 473.343 1411.13 496.843 1440.69 519.577C1444.1 522.192 1447.51 524.819 1451 527.445V521.299C1448.97 519.747 1446.95 518.205 1444.95 516.652Z" fill="#525154" fill-opacity="0.7"/>
<path d="M1423.7 533.113C1393.76 509.783 1362.81 485.667 1288.21 466.91C1213.6 448.153 1168.78 453.225 1125.43 458.127C1082.8 462.954 1038.69 467.93 965.455 449.524C892.209 431.118 861.77 407.384 832.311 384.438C802.369 361.108 771.419 336.992 696.813 318.234C622.207 299.477 577.382 304.549 534.034 309.451C491.387 314.279 447.293 319.255 374.062 300.849C300.815 282.432 270.362 258.709 240.917 235.762C210.976 212.433 180.025 188.316 105.405 169.559C56.4567 157.256 20.3307 155.204 -10.9707 156.629V160.904C19.8483 159.479 55.3749 161.478 103.504 173.579C176.75 191.995 207.204 215.718 236.648 238.665C266.59 261.984 297.541 286.111 372.161 304.868C446.767 323.625 491.592 318.553 534.94 313.651C577.587 308.835 621.681 303.848 694.912 322.254C768.158 340.671 798.597 364.394 828.056 387.34C857.998 410.659 888.949 434.786 963.555 453.544C1038.18 472.301 1083 467.229 1126.35 462.327C1168.99 457.499 1213.09 452.523 1286.32 470.929C1359.55 489.335 1390.01 513.069 1419.45 536.005C1429.35 543.714 1439.36 551.508 1451.01 559.175V553.38C1441.13 546.66 1432.37 539.844 1423.72 533.102L1423.7 533.113Z" fill="#525154" fill-opacity="0.7"/>
<path d="M1402.46 549.573C1372.62 526.031 1341.77 501.681 1267.15 482.923C1192.53 464.166 1147.59 469.462 1104.14 474.576C1061.39 479.617 1017.2 484.816 943.978 466.41C870.747 448.004 840.41 424.057 811.068 400.898C781.229 377.356 750.38 353.005 675.76 334.248C601.139 315.491 556.198 320.786 512.747 325.901C469.998 330.941 425.802 336.141 352.585 317.735C279.353 299.328 249.002 275.382 219.66 252.223C189.82 228.68 158.972 204.33 84.3517 185.573C46.0034 175.928 15.5061 172.653 -10.9854 172.43V176.705C15.009 176.939 44.9069 180.161 82.4365 189.592C155.668 207.999 186.019 231.945 215.362 255.104C245.201 278.647 276.049 302.997 350.67 321.754C425.29 340.511 470.232 335.216 513.683 330.101C556.417 325.061 600.613 319.861 673.845 338.268C747.076 356.674 777.413 380.62 806.77 403.78C836.609 427.322 867.457 451.672 942.078 470.429C1016.7 489.187 1061.64 483.891 1105.09 478.776C1147.83 473.736 1192.02 468.537 1265.25 486.943C1338.48 505.349 1368.82 529.295 1398.16 552.455C1413.54 564.598 1429.22 576.954 1451 588.64V583.292C1431.34 572.35 1416.77 560.866 1402.46 549.573Z" fill="#525154" fill-opacity="0.7"/>
<path d="M1381.22 566.044C1351.48 542.279 1320.75 517.705 1246.12 498.937C1171.48 480.18 1126.44 485.699 1082.87 491.037C1040.03 496.29 995.733 501.723 922.502 483.317C849.285 464.911 819.051 440.741 789.811 417.369C760.073 393.603 729.328 369.03 654.707 350.262C580.072 331.505 535.028 337.024 491.46 342.361C448.624 347.614 404.325 353.048 331.093 334.642C257.876 316.235 227.642 292.066 198.402 268.694C168.665 244.928 137.919 220.355 63.2842 201.587C34.7021 194.399 10.4768 190.783 -11 189.348V193.644C9.96508 195.079 33.5764 198.62 61.3836 205.606C134.601 224.012 164.835 248.182 194.075 271.554C223.812 295.32 254.558 319.893 329.193 338.661C403.828 357.429 448.872 351.9 492.44 346.562C535.276 341.309 579.575 335.875 652.806 354.281C726.023 372.688 756.258 396.857 785.498 420.229C815.235 443.995 845.981 468.568 920.601 487.336C995.236 506.094 1040.28 500.575 1083.85 495.237C1126.68 489.984 1170.98 484.55 1244.2 502.957C1317.42 521.363 1347.65 545.533 1376.89 568.905C1396.82 584.844 1417.24 601.134 1451 615.798V610.8C1419.64 596.743 1400.21 581.218 1381.22 566.034V566.044Z" fill="#525154" fill-opacity="0.7"/>
<path d="M1451 636.32C1406.41 620.083 1382.87 601.049 1359.98 582.494C1330.34 558.505 1299.71 533.698 1225.06 514.94C1150.43 496.173 1105.27 501.925 1061.6 507.486C1018.66 512.952 974.256 518.609 901.039 500.203C827.823 481.796 797.705 457.403 768.568 433.819C738.933 409.83 708.304 385.022 633.654 366.265C559.019 347.497 513.858 353.25 470.188 358.811C427.249 364.277 382.848 369.934 309.631 351.527C236.414 333.121 206.297 308.728 177.159 285.143C147.525 261.155 116.881 236.347 42.246 217.579C22.626 212.645 5.05276 209.424 -11 207.424V211.752C4.51182 213.719 21.4564 216.846 40.3308 221.599C113.548 240.005 143.665 264.398 172.803 287.983C202.437 311.971 233.081 336.779 307.716 355.536C382.351 374.304 427.512 368.551 471.182 362.99C514.121 357.525 558.522 351.868 631.739 370.274C704.956 388.68 735.073 413.073 764.211 436.658C793.846 460.647 824.475 485.454 899.124 504.211C973.759 522.979 1018.92 517.227 1062.59 511.665C1105.53 506.2 1149.93 500.543 1223.15 518.949C1296.36 537.356 1326.48 561.738 1355.62 585.333C1377.93 603.399 1400.82 621.922 1442.64 637.989H1450.99V636.309L1451 636.32Z" fill="#525154" fill-opacity="0.7"/>
<path d="M1338.72 598.965C1309.19 574.753 1278.66 549.722 1204.01 530.954C1129.36 512.186 1084.1 518.162 1040.31 523.947C997.268 529.625 952.765 535.505 879.563 517.099C806.36 498.693 776.345 474.087 747.31 450.29C717.778 426.078 687.251 401.047 612.601 382.279C537.952 363.511 492.674 369.487 448.901 375.272C405.86 380.95 361.357 386.83 288.154 368.424C214.952 350.017 184.937 325.412 155.902 301.615C126.37 277.402 95.8429 252.372 21.1786 233.604C9.78961 230.743 -0.897608 228.468 -11.0146 226.66V231.052C-1.46779 232.774 8.59077 234.933 19.2634 237.623C92.4657 256.029 122.481 280.635 151.516 304.432C181.048 328.644 211.575 353.675 286.239 372.443C360.889 391.211 406.167 385.235 449.939 379.451C492.981 373.772 537.484 367.892 610.686 386.298C683.889 404.705 713.903 429.31 742.939 453.108C772.471 477.32 802.998 502.351 877.647 521.118C952.297 539.886 997.561 533.91 1041.35 528.126C1084.39 522.448 1128.89 516.567 1202.09 534.974C1275.3 553.38 1305.31 577.985 1334.33 601.783C1349.17 613.947 1364.26 626.314 1385.06 637.989H1394.92C1371.13 625.516 1354.77 612.119 1338.72 598.954V598.965Z" fill="#525154" fill-opacity="0.7"/>
<path d="M1317.48 615.436C1288.05 591.011 1257.62 565.747 1182.97 546.979C1108.31 528.211 1062.93 534.421 1019.05 540.418C975.923 546.319 931.303 552.412 858.115 534.017C784.927 515.621 755.015 490.782 726.097 466.771C696.667 442.347 666.242 417.082 591.578 398.314C516.914 379.546 471.533 385.745 427.644 391.753C384.5 397.655 339.895 403.748 266.707 385.352C193.505 366.956 163.607 342.117 134.674 318.107C105.244 293.671 74.8194 268.417 0.15506 249.649C-3.64614 248.692 -7.345 247.82 -11 246.991V251.446C-7.95904 252.148 -4.90346 252.871 -1.76016 253.658C71.4276 272.054 101.34 296.893 130.273 320.903C159.703 345.339 190.127 370.593 264.792 389.371C339.441 408.139 384.836 401.929 428.726 395.932C471.869 390.031 516.475 383.938 589.663 402.333C662.85 420.729 692.763 445.569 721.681 469.579C751.111 494.003 781.536 519.268 856.2 538.036C930.85 556.804 976.245 550.605 1020.13 544.597C1063.28 538.695 1107.88 532.602 1181.07 550.998C1254.26 569.394 1284.17 594.223 1313.09 618.243C1321.01 624.815 1329.01 631.45 1337.91 638.011H1346.23C1335.69 630.557 1326.54 622.964 1317.49 615.447L1317.48 615.436Z" fill="#525154" fill-opacity="0.7"/>
<path d="M1161.92 562.982C1087.25 544.214 1041.76 550.647 997.765 556.868C954.519 562.982 909.812 569.298 836.638 550.902C763.451 532.507 733.655 507.455 704.839 483.221C675.511 458.573 645.189 433.074 570.525 414.307C495.861 395.539 450.363 401.972 406.372 408.192C363.14 414.307 318.418 420.623 245.245 402.227C172.057 383.831 142.261 358.779 113.431 334.546C85.4335 311.014 56.5152 286.728 -10.9854 268.236V272.788C53.6935 290.843 81.7932 314.449 109.016 337.332C138.343 361.98 168.665 387.479 243.33 406.246C317.994 425.014 363.491 418.581 407.483 412.361C450.714 406.246 495.437 399.93 568.61 418.326C641.798 436.722 671.593 461.774 700.409 486.007C729.737 510.655 760.059 536.154 834.723 554.922C909.387 573.69 954.885 567.256 998.877 561.036C1042.12 554.922 1086.83 548.606 1160 567.001C1233.19 585.397 1262.99 610.449 1291.8 634.682C1293.12 635.788 1294.43 636.894 1295.76 638H1303.53C1301.07 635.958 1298.65 633.927 1296.23 631.896C1266.91 607.248 1236.58 581.75 1161.92 562.982Z" fill="#525154" fill-opacity="0.7"/>
<path d="M1140.88 578.996C1066.2 560.217 1020.6 566.884 976.493 573.317C933.16 579.644 888.349 586.194 815.176 567.799C742.003 549.403 712.31 524.128 683.596 499.692C654.371 474.821 624.151 449.099 549.472 430.32C474.793 411.553 429.194 418.209 385.085 424.653C341.751 430.98 296.941 437.519 223.768 419.134C150.595 400.738 120.902 375.463 92.188 351.028C67.3778 329.91 41.8367 308.186 -10.9854 290.62V295.32C39.0881 312.397 63.7667 333.387 87.7435 353.792C116.969 378.664 147.188 404.386 221.867 423.164C296.546 441.932 342.146 435.276 386.255 428.842C429.588 422.516 474.399 415.965 547.572 434.361C620.745 452.757 650.438 478.032 679.152 502.468C708.377 527.339 738.597 553.061 813.276 571.829C887.955 590.607 933.554 583.94 977.663 577.507C1021 571.18 1065.81 564.63 1138.98 583.026C1199.1 598.136 1229.86 617.892 1254.84 638.011H1262.69C1236.57 616.51 1205.24 595.18 1140.9 579.006L1140.88 578.996Z" fill="#525154" fill-opacity="0.7"/>
<path d="M955.221 589.778C911.785 596.317 866.872 603.091 793.699 584.695C720.541 566.299 690.95 540.811 662.339 516.153C633.216 491.058 603.113 465.113 528.42 446.334C453.726 427.556 408.009 434.446 363.813 441.103C320.377 447.642 275.464 454.415 202.291 436.02C129.118 417.624 99.5418 392.125 70.9305 367.477C49.7461 349.22 28.0208 330.516 -11 314.449V319.383C25.4038 334.865 46.1934 352.761 66.4568 370.231C95.5798 395.326 125.697 421.271 200.376 440.05C275.055 458.828 320.772 451.938 364.983 445.281C408.419 438.742 453.331 431.969 526.504 450.364C599.663 468.76 629.254 494.248 657.865 518.907C686.988 544.001 717.091 569.947 791.784 588.725C866.463 607.504 912.18 600.613 956.391 593.957C999.827 587.417 1044.74 580.644 1117.9 599.039C1161.7 610.056 1189.89 623.613 1211.58 638.011H1220.16C1197.42 622.135 1167.83 607.089 1119.8 595.02C1045.12 576.242 999.403 583.132 955.192 589.788L955.221 589.778Z" fill="#525154" fill-opacity="0.7"/>
<path d="M933.949 606.238C890.411 613.001 845.396 619.987 772.237 601.591C699.079 583.196 669.605 557.484 641.096 532.613C612.075 507.295 582.075 481.116 507.381 462.337C432.688 443.559 386.854 450.673 342.541 457.552C299.002 464.315 253.988 471.301 180.829 452.906C107.671 434.51 78.1966 408.798 49.6876 383.927C32.7138 369.126 15.3891 354.026 -11 340.277V345.573C13.006 358.577 29.2635 372.741 45.1993 386.649C74.22 411.967 104.22 438.146 178.928 456.925C253.622 475.703 299.456 468.59 343.769 461.71C387.307 454.947 432.322 447.961 505.481 466.357C578.639 484.742 608.113 510.464 636.622 535.335C665.643 560.653 695.643 586.832 770.337 605.611C845.03 624.389 890.864 617.276 935.177 610.396C978.716 603.633 1023.73 596.647 1096.89 615.043C1123.91 621.837 1144.94 629.621 1162.2 638H1172.5C1153.66 628.111 1130.18 618.913 1098.79 611.023C1024.1 592.245 978.262 599.358 933.949 606.238Z" fill="#525154" fill-opacity="0.7"/>
<path d="M912.662 622.688C869.022 629.663 823.904 636.873 750.76 618.488C677.617 600.103 648.245 574.168 619.838 549.084C590.92 523.543 561.022 497.14 486.314 478.362C411.606 459.583 365.67 466.92 321.239 474.023C277.599 480.999 232.481 488.208 159.338 469.823C86.1937 451.438 56.8221 425.493 28.4155 400.409C16.4709 389.861 4.35094 379.163 -11.0293 368.913V374.761C2.28952 384.033 13.1668 393.635 23.8979 403.11C52.8162 428.651 82.7141 455.053 157.422 473.832C232.131 492.61 278.067 485.273 322.497 478.17C366.123 471.195 411.255 463.986 484.399 482.371C557.542 500.756 586.914 526.69 615.321 551.774C644.239 577.316 674.137 603.718 748.845 622.497C823.553 641.275 869.489 633.938 913.905 626.835C957.546 619.86 1002.66 612.65 1075.81 631.035C1084.61 633.247 1092.75 635.565 1100.35 637.989H1114.32C1103.42 634.119 1091.32 630.44 1077.71 627.016C1003 608.237 957.063 615.574 912.633 622.677L912.662 622.688Z" fill="#525154" fill-opacity="0.7"/>
<path d="M729.298 635.384C656.154 616.999 626.9 590.841 598.61 565.544C569.794 539.791 539.999 513.154 465.29 494.365C390.582 475.586 344.529 483.157 299.997 490.473C256.268 497.661 211.034 505.094 137.905 486.709C64.7609 468.324 35.5062 442.166 7.20193 416.869C1.31007 411.595 -4.64027 406.289 -10.9854 401.026V407.533C-6.29233 411.542 -1.80399 415.561 2.66973 419.559C31.4857 445.313 61.2813 471.95 135.989 490.739C210.712 509.528 256.751 501.947 301.283 494.631C345.012 487.443 390.246 480.01 463.375 498.395C536.519 516.78 565.774 542.938 594.063 568.235C622.163 593.361 651.227 619.317 721.959 638H740.307C736.696 637.192 733.041 636.331 729.284 635.384H729.298Z" fill="#525154" fill-opacity="0.7"/>
<path d="M898.422 638H928.452C951.478 635.289 976.625 634.225 1007.09 638H1034.18C976.011 626.569 936.171 631.865 898.422 638Z" fill="#525154" fill-opacity="0.7"/>
<path d="M577.367 582.005C548.654 556.028 518.975 529.157 444.252 510.379C369.529 491.59 323.374 499.394 278.725 506.933C234.894 514.334 189.572 521.99 116.443 503.616C45.9449 485.89 16.3102 460.742 -10.9854 436.094V442.857C15.6669 466.633 46.3543 490.494 114.527 507.635C189.25 526.424 235.405 518.62 280.055 511.08C323.886 503.68 369.222 496.024 442.352 514.398C515.481 532.783 544.633 559.164 572.82 584.674C593.142 603.069 613.99 621.901 650.92 638H662.763C620.993 621.454 598.888 601.485 577.367 582.005Z" fill="#525154" fill-opacity="0.7"/>
<path d="M556.11 598.476C527.498 572.275 497.922 545.182 423.185 526.393C348.447 507.603 302.19 515.632 257.438 523.394C213.505 531.018 168.08 538.887 94.9511 520.512C41.939 507.189 12.0996 489.537 -11 471.046V477.32C11.9973 494.982 41.9829 511.697 93.0505 524.532C167.773 543.321 214.046 535.293 258.797 527.53C302.731 519.917 348.155 512.038 421.284 530.412C494.399 548.797 523.449 575.391 551.534 601.124C565.101 613.543 578.888 626.165 597.587 638H606.724C585.569 625.442 570.701 611.842 556.11 598.476Z" fill="#525154" fill-opacity="0.7"/>
<path d="M402.147 542.406C327.409 523.617 281.02 531.869 236.166 539.854C192.13 547.691 146.604 555.794 73.489 537.409C35.3454 527.817 9.23408 515.929 -11 503.063V508.699C9.11712 520.916 34.8922 532.209 71.5738 541.428C146.311 560.217 192.7 551.966 237.555 543.98C281.59 536.143 327.117 528.041 400.231 546.426C473.346 564.811 502.279 591.628 530.262 617.563C537.601 624.368 545.013 631.237 553.244 638H561.139C551.548 630.397 543.156 622.624 534.852 614.936C506.343 588.513 476.869 561.195 402.132 542.406H402.147Z" fill="#525154" fill-opacity="0.7"/>
<path d="M381.094 558.42C306.342 539.631 259.85 548.106 214.894 556.315C170.756 564.364 125.127 572.69 52.0268 554.316C26.0763 547.797 5.7399 540.173 -11 531.901V537.047C5.4475 544.873 25.2576 552.093 50.1116 558.335C124.849 577.124 171.355 568.649 216.312 560.44C260.45 552.391 306.079 544.065 379.179 562.44C452.279 580.814 481.109 607.855 508.99 634.013C510.408 635.342 511.826 636.671 513.259 638H520.686C518.303 635.799 515.963 633.598 513.624 631.397C485.217 604.75 455.846 577.199 381.108 558.41L381.094 558.42Z" fill="#525154" fill-opacity="0.7"/>
<path d="M360.056 574.423C285.304 555.634 238.695 564.332 193.622 572.754C149.396 581.016 103.65 589.565 30.55 571.191C14.7751 567.224 1.07612 562.844 -11 558.144V562.961C0.65214 567.352 13.7224 571.457 28.6494 575.21C103.402 593.999 150.01 585.291 195.084 576.869C239.324 568.607 285.055 560.058 358.155 578.432C419.764 593.925 449.852 615.723 474.413 637.979H481.884C456.255 614.33 425.685 590.905 360.056 574.402V574.423Z" fill="#525154" fill-opacity="0.7"/>
<path d="M339.003 590.437C264.236 571.637 217.525 580.58 172.349 589.214C128.022 597.689 82.1733 606.462 9.08788 588.087C1.98256 586.301 -4.69878 584.419 -11 582.473V587.088C-5.23972 588.821 0.783719 590.501 7.18728 592.107C81.954 610.906 128.665 601.964 173.841 593.329C218.169 584.855 264.017 576.082 337.102 594.456C383.579 606.143 412.074 621.518 433.77 638H441.811C419.164 620.03 389.486 603.133 339.003 590.437Z" fill="#525154" fill-opacity="0.7"/>
<path d="M151.077 605.675C104.893 614.713 61.252 623.241 -11 605.324V609.8C61.8515 627.505 107.978 618.509 152.598 609.779C199.075 600.688 242.979 592.096 316.049 610.47C347.322 618.328 370.187 627.686 388.389 638H397.512C377.951 626.123 352.965 615.255 317.95 606.451C243.183 587.651 196.355 596.817 151.063 605.675H151.077Z" fill="#525154" fill-opacity="0.7"/>
<path d="M129.805 622.135C88.299 630.44 48.8104 638.319 -11 626.941V631.312C49.8046 642.54 91.1938 634.278 131.355 626.24C177.934 616.925 221.926 608.12 294.997 626.484C309.09 630.025 321.473 633.885 332.497 638H344.588C331.035 632.343 315.377 627.101 296.912 622.465C222.131 603.665 175.2 613.054 129.805 622.135Z" fill="#525154" fill-opacity="0.7"/>
<path d="M111.428 638H133.855C168.212 631.684 204.075 628.122 253.987 638H273.9C201.838 620.253 155.639 628.983 111.428 638Z" fill="#525154" fill-opacity="0.7"/>
</g>
</g>
<defs>
<clipPath id="clip0_55_57">
<rect width="1462" height="638" fill="white" transform="translate(-11)"/>
</clipPath>
</defs>
</svg>
