<svg width="1440" height="678" viewBox="0 0 1440 678" fill="none" xmlns="http://www.w3.org/2000/svg">
<g opacity="0.25">
<g clip-path="url(#clip0_1_95)">
<path d="M1407.09 0H1395.6C1408.26 5.9777 1422.66 12.0006 1440 18.0687V13.0854C1427.68 8.701 1416.84 4.3392 1407.09 0Z" fill="#525154"/>
<path d="M1350.66 0H1340.82C1365.23 14.125 1393.11 28.5438 1440 43.053V38.1827C1399.02 25.3346 1372.92 12.5656 1350.66 0.0113V0Z" fill="#525154"/>
<path d="M1309.88 6.1246C1306.49 4.0906 1303.1 2.0453 1299.63 0H1289.95C1295.55 3.2431 1300.93 6.4749 1306.29 9.6954C1337.62 28.5212 1370 47.9685 1440 67.2802V62.4777C1372.24 43.5841 1340.54 24.5549 1309.88 6.1359V6.1246Z" fill="#525154"/>
<path d="M1426.72 82.6708C1353.26 63.0427 1320.41 43.0078 1288.64 23.6283C1275.86 15.8313 1262.91 7.9439 1247.28 0H1236.39C1255.42 9.1304 1270.33 18.2156 1285.01 27.1652C1317.18 46.782 1350.42 67.0655 1424.82 86.9309C1430.04 88.3208 1435.09 89.609 1440 90.8181V86.0834C1435.69 85.0212 1431.27 83.8799 1426.72 82.6595V82.6708Z" fill="#525154"/>
<path d="M1405.26 100.627C1331.81 81.0097 1299.06 60.7262 1267.4 41.1207C1245.54 27.5833 1223.17 13.7408 1187.57 0H1174.06C1215.67 14.8821 1240.01 29.9563 1263.74 44.6463C1295.8 64.5004 1328.95 85.0212 1403.35 104.898C1416.52 108.412 1428.65 111.294 1440 113.655V108.966C1429.23 106.695 1417.7 103.949 1405.26 100.627Z" fill="#525154"/>
<path d="M1383.8 118.582C1310.36 98.9654 1277.72 78.4559 1246.17 58.6131C1215.35 39.2449 1183.49 19.2326 1114.49 0H1096.55C1099.27 0.6893 1102.01 1.4012 1104.82 2.1583C1178.26 21.7751 1210.9 42.2846 1242.45 62.1274C1274.41 82.2075 1307.46 102.977 1381.87 122.865C1403.74 128.707 1422.85 132.775 1439.99 135.6V130.967C1423.36 128.187 1404.87 124.221 1383.79 118.582H1383.8Z" fill="#525154"/>
<path d="M1362.32 136.538C1288.9 116.921 1256.37 96.1743 1224.91 76.1168C1193.05 55.7994 1160.11 34.7814 1085.68 14.9047C1057.18 7.2885 1033.34 2.712 1012.44 0H864.162C887.744 1.8532 907.744 1.4916 927.423 1.1187C968.198 0.3503 1010.35 -0.440701 1083.78 19.1761C1157.21 38.7929 1189.73 59.5397 1221.2 79.6085C1253.05 99.9259 1285.99 120.933 1360.42 140.821C1391.86 149.217 1417.62 153.917 1440 156.494V151.917C1418.1 149.352 1392.94 144.73 1362.32 136.549V136.538Z" fill="#525154"/>
<path d="M1340.86 154.494C1267.44 134.877 1235.03 113.893 1203.68 93.6092C1171.93 73.0545 1139.09 51.7992 1064.65 31.9112C990.216 12.0232 947.394 13.0741 906.005 14.0798C867.744 15.0177 828.255 15.9782 763.109 0H744.717C745.667 0.2599 746.588 0.5198 747.553 0.7684C821.983 20.6564 864.791 19.6055 906.195 18.5998C947.057 17.6054 989.324 16.5658 1062.75 36.1826C1136.17 55.7994 1168.58 76.7835 1199.92 97.067C1231.68 117.622 1264.52 138.877 1338.96 158.765C1380.88 169.963 1412.76 174.517 1440.01 176.19V171.647C1413.25 169.975 1381.93 165.466 1340.88 154.494H1340.86Z" fill="#525154"/>
<path d="M1319.39 172.449C1245.98 152.844 1213.67 131.622 1182.42 111.102C1150.77 90.3096 1118.04 68.817 1043.59 48.929C969.148 29.041 926.239 30.3292 884.718 31.5722C843.753 32.8039 801.384 34.0695 727.977 14.4527C710.257 9.718 694.936 4.8816 681.441 0H668.079C684.263 6.3506 703.196 12.6108 726.076 18.7241C800.521 38.6121 843.431 37.3239 884.952 36.0809C925.917 34.8605 968.286 33.5836 1041.69 53.2004C1115.1 72.8059 1147.41 94.0273 1178.65 114.548C1210.31 135.34 1243.04 156.833 1317.48 176.721C1370.82 190.97 1407.95 194.349 1440 194.665V190.134C1408.44 189.806 1371.84 186.461 1319.39 172.449Z" fill="#525154"/>
<path d="M1297.92 190.405C1224.53 170.799 1192.32 149.341 1161.18 128.594C1129.63 107.565 1097 85.8348 1022.54 65.9355C948.081 46.0475 905.054 47.573 863.431 49.0533C822.378 50.511 779.907 52.0139 706.5 32.4084C667.523 22.0011 640.169 11.0627 618.415 0H607.976C631.178 12.5204 660.579 24.9278 704.585 36.6798C779.044 56.5678 822.071 55.0423 863.694 53.5733C904.762 52.1156 947.233 50.6127 1020.63 70.2182C1094.02 89.8237 1126.23 111.282 1157.35 132.029C1188.9 153.058 1221.53 174.788 1295.99 194.688C1361.51 212.191 1402.68 213.107 1439.99 212.067V207.547C1403.16 208.575 1362.53 207.683 1297.91 190.416L1297.92 190.405Z" fill="#525154"/>
<path d="M1433.57 224.542C1392.4 226.226 1349.84 227.978 1276.45 208.372C1203.05 188.767 1170.98 167.082 1139.94 146.109C1108.49 124.854 1075.96 102.864 1001.49 82.976C927.028 63.088 883.884 64.8508 842.144 66.5571C800.974 68.2408 758.416 69.9923 685.023 50.3868C625.447 34.4651 593.093 17.1874 566.411 0.0227051H557.332C585.49 18.5886 618.517 37.4144 683.108 54.6582C757.582 74.5575 800.726 72.7834 842.451 71.0771C883.607 69.3934 926.18 67.6532 999.573 87.2474C1072.96 106.853 1105.04 128.538 1136.08 149.51C1167.53 170.766 1200.06 192.755 1274.53 212.643C1348.99 232.531 1392.15 230.769 1433.87 229.062C1435.91 228.983 1437.95 228.893 1440 228.814V224.294C1437.85 224.384 1435.7 224.463 1433.57 224.554V224.542Z" fill="#525154"/>
<path d="M1412.3 242.023C1371.04 243.944 1328.36 245.922 1255 226.316C1181.62 206.711 1149.65 184.789 1118.71 163.59C1087.35 142.098 1054.94 119.87 980.464 99.9711C905.99 80.0718 862.729 82.0832 820.901 84.0268C779.644 85.9478 736.968 87.9253 663.59 68.3198C590.212 48.7143 558.224 26.7923 527.303 5.5935C524.583 3.729 521.864 1.8645 519.101 0H510.183C514.686 3.0058 519.057 6.0003 523.414 8.9835C554.774 30.4761 587.186 52.7032 661.675 72.6025C736.149 92.5018 779.41 90.4904 821.238 88.5468C862.495 86.6258 905.171 84.6483 978.549 104.254C1051.93 123.859 1083.9 145.781 1114.82 166.98C1146.18 188.473 1178.59 210.7 1253.07 230.599C1327.54 250.498 1370.8 248.487 1412.63 246.543C1421.58 246.125 1430.6 245.707 1439.99 245.515V240.984C1430.48 241.187 1421.34 241.605 1412.28 242.035L1412.3 242.023Z" fill="#525154"/>
<path d="M1391.02 259.516C1349.66 261.663 1306.88 263.878 1233.52 244.283C1160.16 224.678 1128.29 202.53 1097.47 181.094C1066.21 159.364 1033.9 136.899 959.411 117C884.922 97.1008 841.559 99.3495 799.615 101.53C758.255 103.677 715.491 105.892 642.113 86.298C568.75 66.6925 536.879 44.5445 506.045 23.1084C495.036 15.4583 483.881 7.70653 470.811 0.0112305H460.972C476.717 8.80263 489.51 17.6957 502.127 26.4645C533.385 48.1944 565.695 70.6588 640.184 90.5581C714.673 110.457 758.035 108.209 799.98 106.028C841.34 103.881 884.118 101.666 957.482 121.26C1030.84 140.866 1062.72 163.014 1093.54 184.45C1124.79 206.18 1157.1 228.644 1231.59 248.543C1306.08 268.443 1349.44 266.194 1391.39 264.024C1406.87 263.222 1422.56 262.409 1439.99 262.736V258.205C1422.44 257.889 1406.62 258.702 1391.01 259.516H1391.02Z" fill="#525154"/>
<path d="M1369.74 276.997C1328.27 279.37 1285.41 281.822 1212.04 262.228C1138.7 242.634 1106.93 220.237 1076.21 198.586C1045.06 176.619 1012.85 153.906 938.344 134.007C863.84 114.107 820.36 116.593 778.313 119C736.851 121.373 693.985 123.825 620.622 104.231C547.259 84.637 515.504 62.2404 484.788 40.5896C465.606 27.0635 446.001 13.2549 416.395 0H404.348C438.72 14.2493 460.036 29.2557 480.84 43.9344C511.995 65.9016 544.203 88.6146 618.707 108.514C693.196 128.413 736.69 125.927 778.737 123.52C820.2 121.147 863.066 118.695 936.429 138.289C1009.79 157.884 1041.55 180.28 1072.26 201.931C1103.42 223.898 1135.63 246.611 1210.13 266.51C1284.63 286.41 1328.11 283.924 1370.16 281.517C1391.7 280.285 1413.63 279.031 1439.99 280.862V276.308C1413.49 274.511 1391.42 275.765 1369.72 277.008L1369.74 276.997Z" fill="#525154"/>
<path d="M1348.46 294.489C1306.91 297.088 1263.93 299.789 1190.58 280.195C1117.23 260.601 1085.58 237.978 1054.98 216.09C1023.93 193.886 991.824 170.935 917.32 151.036C842.817 131.137 799.22 133.86 757.056 136.504C715.491 139.114 672.523 141.804 599.175 122.21C525.826 102.615 494.174 79.9815 463.559 58.1047C436.074 38.454 407.74 18.2157 349.918 0.0227051H333.734C400.182 18.9841 430.372 40.5445 459.597 61.4269C490.65 83.6314 522.756 106.582 597.274 126.492C671.777 146.392 715.374 143.668 757.538 141.024C799.089 138.425 842.071 135.724 915.42 155.319C988.768 174.913 1020.42 197.547 1051.02 219.424C1082.07 241.628 1114.18 264.578 1188.68 284.478C1263.19 304.377 1306.78 301.654 1348.95 299.009C1376.02 297.314 1403.71 295.586 1440.01 300.004V295.416C1403.6 291.054 1375.73 292.794 1348.48 294.501L1348.46 294.489Z" fill="#525154"/>
<path d="M1327.18 311.97C1285.53 314.807 1242.45 317.733 1169.11 298.139C1095.77 278.545 1064.22 255.685 1033.72 233.571C1002.77 211.141 970.771 187.942 896.253 168.031C821.735 148.12 778.021 151.092 735.769 153.974C694.117 156.81 651.032 159.737 577.698 140.143C504.364 120.548 472.814 97.6886 442.317 75.5745C411.366 53.144 379.363 29.9451 304.845 10.0345C288.5 5.66137 273.631 2.39567 259.932 -0.0112305H225.809C247.739 2.00017 272.768 6.24897 302.929 14.3059C376.263 33.9001 407.813 56.76 438.311 78.8741C469.261 101.305 501.264 124.503 575.783 144.414C650.301 164.325 694 161.353 736.266 158.471C777.919 155.635 821.004 152.708 894.338 172.302C967.672 191.897 999.222 214.757 1029.72 236.871C1060.67 259.301 1092.67 282.5 1167.19 302.411C1241.71 322.321 1285.41 319.349 1327.67 316.468C1359.84 314.287 1392.85 312.05 1439.99 320.152V315.519C1392.75 307.518 1359.53 309.767 1327.16 311.97H1327.18Z" fill="#525154"/>
<path d="M144.873 0.4859C147.256 0.3277 149.653 0.1582 152.051 0H53.4684C89.7698 4.2149 117.621 2.3391 144.873 0.4859Z" fill="#525154"/>
<path d="M1305.91 329.463C1264.15 332.525 1220.98 335.689 1147.64 316.106C1074.31 296.512 1042.88 273.415 1012.48 251.086C981.634 228.418 949.733 204.971 875.215 185.06C800.682 165.149 756.866 168.37 714.497 171.477C672.742 174.54 629.57 177.704 556.236 158.121C482.902 138.527 451.469 115.429 421.074 93.0894C390.226 70.4216 358.325 46.9741 283.792 27.0635C209.259 7.15286 165.443 10.3621 123.06 13.4696C83.8927 16.3398 43.4391 19.3004 -22 3.45776V8.18116C43.5122 23.8204 84.1997 20.8485 123.63 17.9557C165.385 14.8934 208.572 11.7294 281.891 31.3123C355.225 50.9065 386.658 74.0037 417.053 96.3438C447.901 119.012 479.802 142.459 554.335 162.37C628.853 182.28 672.684 179.071 715.053 175.952C756.807 172.89 799.98 169.726 873.314 189.309C946.633 208.903 978.067 232 1008.48 254.329C1039.32 276.997 1071.23 300.444 1145.76 320.355C1220.29 340.266 1264.11 337.056 1306.48 333.938C1343.3 331.237 1381.26 328.468 1440.01 341.294V336.593C1381.15 323.926 1342.98 326.728 1305.92 329.44L1305.91 329.463Z" fill="#525154"/>
<path d="M1284.63 346.944C1242.78 350.232 1199.5 353.634 1126.18 334.051C1052.86 314.468 1021.55 291.133 991.254 268.567C960.508 245.662 928.709 221.977 854.177 202.067C779.644 182.156 735.711 185.614 693.225 188.947C651.383 192.236 608.093 195.637 534.773 176.054C461.454 156.471 430.138 133.137 399.846 110.571C369.1 87.6654 337.301 63.9806 262.768 44.07C188.236 24.1594 144.303 27.6172 101.817 30.9507C67.0212 33.6853 31.2168 36.4877 -21.9854 26.103V30.7699C31.3484 41.019 67.3867 38.2053 102.416 35.4481C144.273 32.1598 187.563 28.7585 260.868 48.3414C334.187 67.9243 365.518 91.2588 395.796 113.825C426.542 136.73 458.34 160.415 532.873 180.325C607.406 200.236 651.339 196.778 693.824 193.445C735.682 190.156 778.957 186.755 852.276 206.338C925.595 225.921 956.911 249.255 987.204 271.822C1017.95 294.727 1049.75 318.411 1124.28 338.322C1198.81 358.233 1242.75 354.775 1285.23 351.441C1326.37 348.21 1368.92 344.876 1440.01 363.374V358.606C1368.86 340.333 1326.05 343.69 1284.65 346.944H1284.63Z" fill="#525154"/>
<path d="M1424.53 377.081C1349.98 357.17 1305.95 360.866 1263.35 364.436C1221.4 367.962 1178.01 371.601 1104.7 352.018C1031.4 332.435 1000.19 308.863 969.996 286.071C939.353 262.928 907.657 239.006 833.109 219.084C758.562 199.174 714.526 202.869 671.924 206.44C629.979 209.965 586.587 213.604 513.282 194.021C439.977 174.438 408.764 150.866 378.573 128.074C347.93 104.932 316.234 81.0098 241.686 61.0879C167.139 41.1773 123.089 44.8724 80.5008 48.4432C50.5151 50.9631 19.8131 53.5282 -22.0293 47.6522V52.2513C19.9886 58.0595 50.9245 55.4718 81.1294 52.9406C123.074 49.415 166.466 45.7764 239.771 65.3706C313.076 84.9535 344.289 108.525 374.48 131.317C405.123 154.46 436.819 178.382 511.367 198.304C585.914 218.214 629.95 214.519 672.552 210.948C714.512 207.423 757.889 203.784 831.194 223.367C904.499 242.95 935.712 266.522 965.903 289.314C996.546 312.456 1028.24 336.378 1102.79 356.3C1177.34 376.211 1221.37 372.516 1263.98 368.945C1305.93 365.419 1349.31 361.781 1422.62 381.364C1428.7 382.991 1434.47 384.641 1440 386.324V381.477C1435.04 379.996 1429.91 378.539 1424.53 377.104V377.081Z" fill="#525154"/>
<path d="M1403.48 394.099C1328.92 374.177 1284.76 378.121 1242.07 381.929C1200.03 385.68 1156.55 389.556 1083.24 369.973C1009.95 350.39 978.841 326.593 948.768 303.575C918.227 280.195 886.633 256.024 812.086 236.114C737.538 216.192 693.371 220.135 650.681 223.943C608.634 227.695 565.154 231.571 491.849 211.988C418.544 192.405 387.448 168.607 357.36 145.578C326.819 122.198 295.225 98.0275 220.663 78.1169C146.101 58.195 101.948 62.1387 59.2433 65.9468C34.5648 68.1503 9.38914 70.3877 -22 67.9017V72.4557C9.62306 74.8965 35.018 72.6477 59.9159 70.4329C101.963 66.6814 145.457 62.8055 218.748 82.3884C292.052 101.971 323.149 125.769 353.237 148.798C383.778 172.178 415.372 196.349 489.934 216.259C564.481 236.17 608.648 232.238 651.339 228.43C693.386 224.678 736.88 220.802 810.17 240.385C883.461 259.968 914.572 283.766 944.645 306.784C975.186 330.163 1006.78 354.334 1081.33 374.245C1155.87 394.167 1200.03 390.223 1242.73 386.415C1284.78 382.663 1328.26 378.787 1401.56 398.37C1415.89 402.201 1428.58 406.19 1439.99 410.303V405.32C1429.05 401.466 1416.97 397.715 1403.46 394.11L1403.48 394.099Z" fill="#525154"/>
<path d="M1382.44 411.105C1307.88 391.183 1263.61 395.364 1220.8 399.41C1178.65 403.387 1135.07 407.501 1061.78 387.929C988.491 368.346 957.496 344.311 927.525 321.067C897.086 297.461 865.595 273.042 791.033 253.12C716.471 233.198 672.201 237.379 629.394 241.424C587.245 245.402 543.662 249.515 470.372 229.944C397.082 210.361 366.088 186.326 336.117 163.082C305.678 139.465 274.187 115.057 199.625 95.1347C125.063 75.2128 80.7932 79.3938 37.9712 83.4279C19.1114 85.202 -0.04076 87.01 -22 86.7049V91.2475C0.222401 91.5413 19.5939 89.722 38.673 87.914C80.8225 83.9364 124.405 79.8232 197.695 99.4061C270.985 118.989 301.979 143.024 331.95 166.268C362.389 189.874 393.881 214.293 468.443 234.215C543.005 254.137 587.274 249.956 630.081 245.911C672.231 241.933 715.813 237.82 789.103 257.391C862.393 276.974 893.387 301.009 923.358 324.254C953.797 347.859 985.289 372.278 1059.85 392.2C1134.41 412.122 1178.68 407.941 1221.49 403.896C1263.64 399.918 1307.22 395.805 1380.51 415.377C1404.34 421.739 1423.68 428.586 1439.99 435.717V430.519C1424.02 423.727 1405.25 417.207 1382.43 411.105H1382.44Z" fill="#525154"/>
<path d="M1361.39 428.123C1286.81 408.201 1242.44 412.619 1199.52 416.891C1157.26 421.094 1113.58 425.445 1040.3 405.873C967.028 386.302 936.136 362.029 906.268 338.548C875.931 314.705 844.557 290.048 769.98 270.126C695.403 250.205 651.032 254.623 608.107 258.894C565.856 263.098 522.171 267.448 448.896 247.877C375.62 228.305 344.728 204.033 314.859 180.551C284.523 156.708 253.134 132.052 178.557 112.13C103.98 92.2079 59.5942 96.6262 16.6845 100.898C4.15515 102.141 -8.49115 103.395 -22.0146 104.05V108.593C-8.24261 107.938 4.66685 106.661 17.4301 105.395C59.6819 101.191 103.366 96.8409 176.642 116.413C249.917 135.984 280.809 160.268 310.678 183.738C341.015 207.581 372.404 232.238 446.98 252.171C521.557 272.093 565.929 267.674 608.853 263.403C651.09 259.199 694.789 254.849 768.065 274.42C841.34 293.992 872.232 318.264 902.101 341.746C932.438 365.589 963.812 390.245 1038.39 410.167C1112.97 430.089 1157.34 425.671 1200.26 421.4C1242.51 417.196 1286.2 412.845 1359.47 432.417C1394.5 441.773 1419.82 452.203 1439.99 463.108V457.605C1420.01 447.164 1395.13 437.174 1361.37 428.157L1361.39 428.123Z" fill="#525154"/>
<path d="M1340.35 445.141C1265.76 425.219 1221.27 429.875 1178.26 434.383C1135.92 438.824 1092.13 443.412 1018.86 423.84C945.581 404.269 914.806 379.759 885.054 356.052C854.82 331.971 823.548 307.066 748.957 287.144C674.38 267.222 629.891 271.878 586.865 276.387C544.51 280.828 500.724 285.415 427.463 265.832C354.187 246.261 323.412 221.751 293.646 198.044C263.397 173.963 232.14 149.058 157.548 129.136C82.9717 109.214 38.4684 113.87 -4.55828 118.379C-10.3186 118.978 -16.0935 119.588 -21.9707 120.13V124.684C-15.8157 124.119 -9.77762 123.486 -3.7688 122.854C38.5707 118.413 82.3722 113.825 155.633 133.408C228.909 152.979 259.684 177.489 289.45 201.196C319.699 225.277 350.971 250.182 425.548 270.104C500.124 290.026 544.613 285.37 587.639 280.861C629.994 276.421 673.78 271.833 747.041 291.416C820.317 310.987 851.092 335.497 880.844 359.193C911.092 383.273 942.35 408.179 1016.94 428.1C1091.53 448.022 1136.02 443.367 1179.03 438.858C1221.37 434.417 1265.16 429.829 1338.43 449.401C1386.86 462.339 1416.72 477.436 1440 493.03V487.075C1416.87 472.091 1387.13 457.639 1340.35 445.141Z" fill="#525154"/>
<path d="M1319.3 462.159C1244.71 442.237 1200.1 447.141 1156.97 451.876C1114.53 456.543 1070.64 461.368 997.38 441.796C924.119 422.225 893.446 397.478 863.797 373.555C833.65 349.238 802.495 324.095 727.889 304.173C653.298 284.24 608.692 289.144 565.563 293.89C523.121 298.557 479.232 303.382 405.971 283.811C332.71 264.239 302.038 239.492 272.374 215.57C242.227 191.253 211.072 166.11 136.466 146.177C64.0972 126.831 19.9594 130.865 -22 135.453V140.018C19.5208 135.464 63.0445 131.329 134.566 150.437C207.826 170.009 238.499 194.756 268.163 218.678C298.31 242.995 329.465 268.138 404.071 288.071C478.662 308.004 523.268 303.1 566.396 298.354C608.838 293.687 652.728 288.862 725.988 308.434C799.249 328.005 829.922 352.752 859.571 376.674C889.718 400.992 920.873 426.134 995.479 446.056C1070.07 465.989 1114.68 461.085 1157.8 456.339C1200.26 451.672 1244.15 446.847 1317.4 466.419C1381.72 483.606 1413.2 504.771 1440.01 525.879V519.461C1413.6 499.065 1381.59 478.792 1319.31 462.147L1319.3 462.159Z" fill="#525154"/>
<path d="M1433.95 549.044C1403.9 524.49 1372.85 499.11 1298.24 479.177C1223.64 459.243 1178.93 464.396 1135.68 469.368C1093.14 474.261 1049.15 479.323 975.903 459.752C902.657 440.18 872.101 415.207 842.539 391.048C812.51 366.493 781.442 341.113 706.836 321.18C632.23 301.247 587.522 306.4 544.276 311.372C501.732 316.264 457.741 321.327 384.495 301.755C311.248 282.184 280.678 257.211 251.131 233.051C221.087 208.496 190.034 183.117 115.428 163.183C55.062 147.058 14.2722 147.352 -22 150.674V155.228C13.8044 151.906 54.0094 151.556 113.513 167.455C186.759 187.026 217.329 211.999 246.876 236.159C276.921 260.714 307.973 286.093 382.579 306.027C457.185 325.96 501.893 320.818 545.139 315.835C587.683 310.942 631.675 305.88 704.921 325.451C778.167 345.023 808.723 369.996 838.285 394.155C868.329 418.71 899.382 444.09 973.987 464.023C1048.59 483.956 1093.3 478.804 1136.55 473.832C1179.09 468.939 1223.08 463.876 1296.33 483.448C1369.58 503.02 1400.13 527.993 1429.69 552.152C1433.1 554.932 1436.51 557.723 1440 560.514V553.983C1437.97 552.333 1435.95 550.694 1433.95 549.044Z" fill="#525154"/>
<path d="M1412.7 566.537C1382.76 541.745 1351.81 516.116 1277.21 496.183C1202.6 476.25 1157.78 481.64 1114.43 486.849C1071.8 491.979 1027.69 497.268 954.455 477.708C881.209 458.147 850.77 432.926 821.311 408.54C791.369 383.748 760.419 358.12 685.813 338.186C611.207 318.253 566.382 323.643 523.034 328.853C480.387 333.983 436.293 339.271 363.062 319.711C289.815 300.139 259.362 274.929 229.917 250.544C199.976 225.751 169.025 200.123 94.4045 180.19C45.4567 167.116 9.33072 164.935 -21.9707 166.449V170.992C8.84826 169.477 44.3749 171.602 92.5039 184.461C165.75 204.033 196.204 229.243 225.648 253.628C255.59 278.409 286.541 304.049 361.161 323.982C435.767 343.915 480.592 338.525 523.94 333.316C566.587 328.197 610.681 322.897 683.912 342.458C757.158 362.029 787.597 387.24 817.056 411.625C846.998 436.406 877.949 462.046 952.555 481.979C1027.18 501.912 1072 496.522 1115.35 491.313C1157.99 486.183 1202.09 480.894 1275.32 500.454C1348.55 520.015 1379.01 545.236 1408.45 569.61C1418.35 577.803 1428.36 586.086 1440.01 594.233V588.075C1430.13 580.933 1421.37 573.69 1412.72 566.526L1412.7 566.537Z" fill="#525154"/>
<path d="M1391.46 584.029C1361.62 559.011 1330.77 533.134 1256.15 513.201C1181.53 493.268 1136.59 498.895 1093.14 504.33C1050.39 509.687 1006.2 515.212 932.978 495.652C859.747 476.092 829.41 450.644 800.068 426.033C770.229 401.014 739.38 375.137 664.76 355.204C590.139 335.271 545.198 340.898 501.747 346.334C458.998 351.69 414.802 357.216 341.585 337.655C268.353 318.095 238.002 292.647 208.66 268.036C178.82 243.018 147.972 217.141 73.3517 197.208C35.0034 186.959 4.50609 183.478 -21.9854 183.241V187.783C4.00901 188.032 33.9069 191.456 71.4365 201.479C144.668 221.039 175.019 246.487 204.361 271.098C234.201 296.117 265.049 321.994 339.67 341.927C414.29 361.86 459.232 356.233 502.683 350.797C545.417 345.441 589.613 339.915 662.845 359.476C736.076 379.036 766.413 404.484 795.77 429.095C825.609 454.113 856.457 479.99 931.078 499.923C1005.7 519.857 1050.64 514.229 1094.09 508.794C1136.83 503.438 1181.02 497.912 1254.25 517.472C1327.48 537.033 1357.82 562.48 1387.16 587.092C1402.54 599.996 1418.22 613.127 1440 625.545V619.862C1420.34 608.234 1405.77 596.03 1391.46 584.029Z" fill="#525154"/>
<path d="M1370.22 601.533C1340.48 576.277 1309.75 550.163 1235.12 530.219C1160.48 510.285 1115.44 516.15 1071.87 521.823C1029.03 527.405 984.733 533.179 911.502 513.619C838.285 494.059 808.051 468.374 778.81 443.536C749.073 418.281 718.328 392.167 643.707 372.222C569.072 352.289 524.028 358.154 480.46 363.826C437.624 369.408 393.325 375.183 320.093 355.622C246.876 336.062 216.642 310.377 187.402 285.54C157.665 260.284 126.919 234.17 52.2842 214.225C23.7021 206.587 -0.52322 202.745 -22 201.219V205.784C-1.03492 207.31 22.5764 211.073 50.3836 218.497C123.601 238.057 153.835 263.742 183.075 288.579C212.812 313.835 243.558 339.949 318.193 359.894C392.828 379.838 437.872 373.962 481.44 368.29C524.276 362.707 568.575 356.933 641.807 376.493C715.023 396.054 745.258 421.739 774.498 446.576C804.235 471.832 834.981 497.946 909.601 517.89C984.236 537.824 1029.28 531.959 1072.85 526.286C1115.68 520.704 1159.98 514.93 1233.2 534.49C1306.42 554.05 1336.65 579.735 1365.89 604.573C1385.82 621.511 1406.24 638.823 1440 654.406V649.095C1408.64 634.156 1389.21 617.658 1370.22 601.522V601.533Z" fill="#525154"/>
<path d="M1440 676.215C1395.41 658.959 1371.87 638.732 1348.98 619.014C1319.34 593.521 1288.71 567.158 1214.06 547.225C1139.43 527.281 1094.27 533.394 1050.6 539.304C1007.66 545.112 963.256 551.124 890.039 531.563C816.823 512.003 786.705 486.081 757.568 461.017C727.933 435.525 697.304 409.162 622.654 389.228C548.019 369.284 502.858 375.397 459.188 381.307C416.249 387.115 371.848 393.127 298.631 373.567C225.414 354.006 195.297 328.084 166.159 303.021C136.525 277.528 105.881 251.165 31.246 231.221C11.626 225.977 -5.94724 222.553 -22 220.429V225.028C-6.48818 227.119 10.4564 230.441 29.3308 235.492C102.548 255.052 132.665 280.974 161.803 306.038C191.437 331.531 222.081 357.894 296.716 377.827C371.351 397.771 416.512 391.658 460.182 385.748C503.121 379.94 547.522 373.928 620.739 393.489C693.956 413.049 724.073 438.971 753.211 464.034C782.846 489.527 813.475 515.89 888.124 535.823C962.759 555.768 1007.92 549.655 1051.59 543.745C1094.53 537.936 1138.93 531.925 1212.15 551.485C1285.36 571.045 1315.48 596.956 1344.62 622.031C1366.93 641.23 1389.82 660.914 1431.64 677.989H1439.99V676.203L1440 676.215Z" fill="#525154"/>
<path d="M1327.72 636.518C1298.19 610.788 1267.66 584.187 1193.01 564.243C1118.36 544.298 1073.1 550.649 1029.31 556.796C986.268 562.83 941.765 569.079 868.563 549.519C795.36 529.959 765.345 503.811 736.31 478.521C706.778 452.791 676.251 426.191 601.602 406.246C526.952 386.302 481.674 392.652 437.901 398.8C394.86 404.834 350.357 411.083 277.154 391.522C203.952 371.962 173.937 345.814 144.902 320.525C115.37 294.794 84.8429 268.194 10.1786 248.25C-1.21039 245.21 -11.8976 242.792 -22.0146 240.871V245.538C-12.4678 247.368 -2.40923 249.662 8.26337 252.521C81.4657 272.081 111.481 298.23 140.516 323.519C170.048 349.249 200.575 375.849 275.239 395.794C349.889 415.738 395.167 409.388 438.939 403.241C481.981 397.206 526.484 390.957 599.686 410.518C672.889 430.078 702.903 456.226 731.939 481.516C761.471 507.246 791.998 533.846 866.647 553.79C941.297 573.735 986.561 567.384 1030.35 561.237C1073.39 555.203 1117.89 548.954 1191.09 568.514C1264.3 588.075 1294.31 614.223 1323.33 639.512C1338.17 652.439 1353.26 665.581 1374.06 677.989H1383.92C1360.13 664.734 1343.77 650.496 1327.72 636.506V636.518Z" fill="#525154"/>
<path d="M1306.48 654.021C1277.05 628.065 1246.62 601.217 1171.97 581.272C1097.31 561.328 1051.93 567.927 1008.05 574.3C964.923 580.571 920.303 587.046 847.115 567.497C773.927 547.948 744.015 521.552 715.097 496.036C685.667 470.08 655.242 443.231 580.578 423.287C505.914 403.342 460.533 409.93 416.644 416.315C373.5 422.586 328.895 429.061 255.707 409.512C182.505 389.963 152.607 363.566 123.674 338.051C94.2436 312.083 63.8194 285.246 -10.8449 265.301C-14.6461 264.284 -18.345 263.358 -22 262.476V267.211C-18.959 267.957 -15.9035 268.725 -12.7602 269.562C60.4276 289.111 90.3401 315.507 119.273 341.023C148.703 366.99 179.127 393.828 253.792 413.783C328.441 433.728 373.836 427.129 417.726 420.756C460.869 414.484 505.475 408.009 578.663 427.558C651.85 447.107 681.763 473.504 710.681 499.019C740.111 524.975 770.536 551.824 845.2 571.769C919.85 591.713 965.245 585.125 1009.13 578.741C1052.28 572.469 1096.88 565.994 1170.07 585.543C1243.26 605.092 1273.17 631.478 1302.09 657.005C1310.01 663.988 1318.01 671.039 1326.91 678.011H1335.23C1324.69 670.09 1315.54 662.022 1306.49 654.033L1306.48 654.021Z" fill="#525154"/>
<path d="M1150.92 598.279C1076.25 578.334 1030.76 585.171 986.765 591.781C943.519 598.279 898.812 604.991 825.638 585.442C752.451 565.893 722.655 539.27 693.839 513.517C664.511 487.324 634.19 460.226 559.525 440.282C484.861 420.337 439.363 427.174 395.372 433.784C352.14 440.282 307.418 446.994 234.245 427.445C161.057 407.896 131.261 381.273 102.431 355.521C74.4335 330.514 45.5152 304.705 -21.9854 285.054V289.89C42.6935 309.078 70.7932 334.164 98.0156 358.481C127.343 384.675 157.665 411.772 232.33 431.717C306.994 451.661 352.491 444.825 396.483 438.214C439.714 431.717 484.437 425.004 557.61 444.553C630.798 464.102 660.593 490.725 689.409 516.478C718.737 542.671 749.059 569.769 823.723 589.713C898.387 609.658 943.885 602.821 987.877 596.211C1031.12 589.713 1075.83 583.001 1149 602.55C1222.19 622.099 1251.99 648.722 1280.8 674.474C1282.12 675.65 1283.43 676.825 1284.76 678H1292.53C1290.07 675.83 1287.65 673.672 1285.23 671.514C1255.91 645.32 1225.58 618.223 1150.92 598.279Z" fill="#525154"/>
<path d="M1129.88 615.296C1055.2 595.341 1009.6 602.426 965.493 609.262C922.16 615.986 877.349 622.946 804.176 603.397C731.003 583.848 701.31 556.988 672.596 531.021C643.371 504.59 613.151 477.256 538.472 457.3C463.793 437.355 418.194 444.429 374.085 451.277C330.751 458 285.941 464.95 212.768 445.412C139.595 425.863 109.902 399.003 81.188 373.036C56.3779 350.594 30.8367 327.508 -21.9854 308.84V313.835C28.0882 331.983 52.7667 354.289 76.7435 375.974C105.969 402.404 136.188 429.739 210.867 449.695C285.546 469.639 331.146 462.566 375.255 455.729C418.588 449.006 463.399 442.045 536.572 461.594C609.745 481.143 639.438 508.003 668.152 533.97C697.377 560.401 727.597 587.736 802.276 607.68C876.955 627.636 922.554 620.551 966.663 613.714C1010 606.991 1054.81 600.03 1127.98 619.579C1188.1 635.636 1218.86 656.632 1243.84 678.011H1251.69C1225.57 655.163 1194.24 632.495 1129.9 615.308L1129.88 615.296Z" fill="#525154"/>
<path d="M944.221 626.754C900.785 633.704 855.872 640.902 782.699 621.353C709.541 601.804 679.95 574.718 651.339 548.513C622.216 521.845 592.113 494.273 517.419 474.317C442.726 454.362 397.009 461.684 352.813 468.758C309.377 475.707 264.464 482.905 191.291 463.356C118.118 443.807 88.5418 416.71 59.9305 390.517C38.7461 371.115 17.0208 351.238 -22 334.164V339.407C14.4038 355.86 35.1934 374.877 55.4568 393.443C84.5798 420.111 114.697 447.683 189.376 467.639C264.055 487.595 309.772 480.273 353.983 473.199C397.419 466.249 442.331 459.051 515.504 478.6C588.663 498.149 618.254 525.235 646.865 551.44C675.988 578.108 706.091 605.68 780.784 625.636C855.463 645.592 901.18 638.269 945.391 631.195C988.827 624.246 1033.74 617.048 1106.9 636.597C1150.7 648.304 1178.89 662.711 1200.58 678.011H1209.16C1186.42 661.14 1156.83 645.151 1108.8 632.325C1034.12 612.37 988.403 619.692 944.192 626.766L944.221 626.754Z" fill="#525154"/>
<path d="M922.949 644.247C879.411 651.434 834.396 658.858 761.237 639.309C688.079 619.76 658.605 592.436 630.096 566.006C601.075 539.1 571.075 511.28 496.381 491.324C421.688 471.368 375.854 478.928 331.541 486.239C288.003 493.426 242.988 500.85 169.829 481.301C96.6705 461.752 67.1966 434.429 38.6876 407.998C21.7138 392.268 4.3891 376.222 -22 361.611V367.239C2.00604 381.059 18.2635 396.11 34.1993 410.891C63.22 437.796 93.2202 465.617 167.928 485.572C242.622 505.528 288.456 497.968 332.769 490.657C376.307 483.471 421.322 476.046 494.481 495.595C567.639 515.133 597.113 542.468 625.622 568.899C654.643 595.804 684.643 623.624 759.337 643.58C834.03 663.536 879.864 655.976 924.177 648.665C967.716 641.478 1012.73 634.054 1085.89 653.603C1112.91 660.824 1133.94 669.096 1151.2 678H1161.5C1142.66 667.491 1119.18 657.717 1087.79 649.332C1013.1 629.376 967.262 636.936 922.949 644.247Z" fill="#525154"/>
<path d="M901.662 661.728C858.022 669.141 812.904 676.802 739.76 657.265C666.617 637.727 637.245 610.166 608.838 583.509C579.92 556.367 550.022 528.309 475.314 508.353C400.606 488.397 354.67 496.194 310.239 503.743C266.599 511.156 221.481 518.817 148.338 499.279C75.1937 479.742 45.8221 452.17 17.4155 425.513C5.47092 414.303 -6.64906 402.935 -22.0293 392.042V398.257C-8.71048 408.111 2.16681 418.315 12.8979 428.383C41.8162 455.526 71.7141 483.584 146.422 503.539C221.131 523.495 267.067 515.698 311.497 508.15C355.123 500.737 400.255 493.076 473.399 512.613C546.542 532.151 575.914 559.712 604.321 586.368C633.239 613.511 663.137 641.569 737.845 661.525C812.553 681.48 858.49 673.683 902.905 666.135C946.546 658.722 991.663 651.061 1064.81 670.599C1073.61 672.949 1081.75 675.412 1089.35 677.989H1103.32C1092.42 673.876 1080.32 669.966 1066.71 666.327C991.999 646.371 946.063 654.168 901.633 661.717L901.662 661.728Z" fill="#525154"/>
<path d="M718.298 675.22C645.154 655.682 615.9 627.884 587.61 601.002C558.794 573.633 528.999 545.327 454.29 525.36C379.582 505.404 333.529 513.449 288.997 521.224C245.268 528.863 200.034 536.761 126.905 517.224C53.7609 497.686 24.5062 469.888 -3.79807 443.005C-9.68993 437.4 -15.6403 431.762 -21.9854 426.168V433.084C-17.2923 437.344 -12.804 441.615 -8.33027 445.864C20.4857 473.233 50.2813 501.539 124.99 521.506C199.712 541.473 245.751 533.417 290.283 525.642C334.012 518.003 379.246 510.105 452.375 529.642C525.519 549.18 554.774 576.978 583.063 603.861C611.163 630.563 640.227 658.146 710.959 678H729.307C725.696 677.141 722.041 676.226 718.284 675.22H718.298Z" fill="#525154"/>
<path d="M887.422 678H917.452C940.479 675.118 965.625 673.988 996.093 678H1023.18C965.011 665.852 925.171 671.48 887.422 678Z" fill="#525154"/>
<path d="M566.367 618.494C537.654 590.888 507.975 562.333 433.252 542.377C358.529 522.41 312.374 530.704 267.725 538.716C223.894 546.581 178.572 554.717 105.443 535.191C34.9449 516.353 5.31019 489.629 -21.9854 463.436V470.622C4.66691 495.889 35.3543 521.246 103.527 539.462C178.25 559.429 224.406 551.135 269.055 543.123C312.886 535.258 358.222 527.122 431.352 546.649C504.481 566.186 533.633 594.222 561.82 621.33C582.142 640.879 602.99 660.892 639.92 678H651.763C609.993 660.417 587.888 639.196 566.367 618.494Z" fill="#525154"/>
<path d="M545.11 635.998C516.498 608.155 486.922 579.362 412.185 559.395C337.447 539.428 291.19 547.96 246.438 556.209C202.505 564.311 157.08 572.673 83.9511 553.146C30.939 538.987 1.0996 520.229 -22 500.579V507.246C0.997259 526.015 30.9829 543.779 82.0505 557.418C156.773 577.385 203.046 568.853 247.797 560.604C291.731 552.514 337.155 544.14 410.284 563.667C483.399 583.204 512.449 611.466 540.534 638.812C554.101 652.01 567.888 665.423 586.587 678H595.724C574.569 664.655 559.701 650.202 545.11 635.998Z" fill="#525154"/>
<path d="M391.147 576.413C316.409 556.446 270.02 565.215 225.166 573.701C181.13 582.029 135.604 590.64 62.489 571.102C24.3454 560.909 -1.76592 548.276 -22 534.603V540.592C-1.88288 553.576 23.8922 565.576 60.5738 575.373C135.311 595.341 181.7 586.572 226.555 578.085C270.59 569.757 316.117 561.147 389.231 580.684C462.346 600.222 491.279 628.721 519.262 656.281C526.601 663.513 534.013 670.813 542.244 678H550.139C540.548 669.921 532.156 661.66 523.852 653.49C495.343 625.41 465.869 596.38 391.132 576.413H391.147Z" fill="#525154"/>
<path d="M370.094 593.431C295.342 573.464 248.85 582.47 203.894 591.193C159.756 599.747 114.127 608.595 41.0268 589.069C15.0763 582.142 -5.2601 574.04 -22 565.249V570.718C-5.5525 579.035 14.2576 586.707 39.1116 593.34C113.849 613.307 160.355 604.301 205.312 595.578C249.45 587.024 295.079 578.176 368.179 597.702C441.279 617.229 470.109 645.964 497.99 673.762C499.408 675.175 500.826 676.587 502.259 678H509.686C507.302 675.661 504.963 673.322 502.624 670.983C474.217 642.665 444.846 613.387 370.108 593.419L370.094 593.431Z" fill="#525154"/>
<path d="M349.056 610.437C274.304 590.47 227.695 599.714 182.622 608.663C138.396 617.443 92.65 626.528 19.55 607.002C3.77506 602.787 -9.92388 598.132 -22 593.137V598.256C-10.3479 602.923 2.72242 607.285 17.6494 611.273C92.4015 631.241 139.01 621.986 184.084 613.036C228.324 604.256 274.055 595.171 347.155 614.697C408.764 631.161 438.852 654.326 463.413 677.977H470.884C445.255 652.846 414.685 627.952 349.056 610.415V610.437Z" fill="#525154"/>
<path d="M328.003 627.455C253.236 607.477 206.525 616.98 161.349 626.156C117.022 635.162 71.1733 644.484 -1.91212 624.958C-9.01744 623.059 -15.6988 621.059 -22 618.991V623.896C-16.2397 625.737 -10.2163 627.523 -3.81272 629.229C70.954 649.208 117.665 639.704 162.841 630.529C207.169 621.523 253.017 612.2 326.102 631.726C372.579 644.145 401.074 660.485 422.77 678H430.811C408.164 658.903 378.486 640.947 328.003 627.455Z" fill="#525154"/>
<path d="M140.077 643.648C93.8927 653.253 50.252 662.316 -22 643.275V648.032C50.8515 666.847 96.9776 657.287 141.598 648.01C188.075 638.348 231.979 629.218 305.049 648.744C336.322 657.095 359.187 667.039 377.389 678H386.512C366.951 665.378 341.965 653.829 306.95 644.473C232.183 624.495 185.355 634.235 140.063 643.648H140.077Z" fill="#525154"/>
<path d="M118.805 661.14C77.299 669.966 37.8104 678.339 -22 666.248V670.892C38.8046 682.825 80.1938 674.045 120.355 665.502C166.934 655.603 210.926 646.247 283.997 665.762C298.09 669.525 310.473 673.627 321.497 678H333.588C320.035 671.988 304.377 666.417 285.912 661.491C211.131 641.512 164.2 651.49 118.805 661.14Z" fill="#525154"/>
<path d="M100.428 678H122.855C157.212 671.288 193.075 667.502 242.987 678H262.9C190.838 659.14 144.639 668.418 100.428 678Z" fill="#525154"/>
</g>
</g>
<defs>
<clipPath id="clip0_1_95">
<rect width="1462" height="678" fill="white" transform="translate(-22)"/>
</clipPath>
</defs>
</svg>
