<svg width="120" height="37" viewBox="0 0 120 37" fill="none" xmlns="http://www.w3.org/2000/svg">
<path d="M23.3 18.05H22.3V18.8676L23.1013 19.0301L23.3 18.05ZM23.3 17.5L23.0082 16.5435L22.3 16.7596V17.5H23.3ZM0.75 0.999998V-2.38419e-06H-0.25V0.999998H0.75ZM0.75 36H-0.25V37H0.75V36ZM10.1 8.5V7.5H9.1V8.5H10.1ZM10.1 15.05H9.1V16.05H10.1V15.05ZM10.1 21.7V20.7H9.1V21.7H10.1ZM10.1 28.5H9.1V29.5H10.1V28.5ZM16.65 37C20.7997 37 24.0547 36.3073 26.2841 34.6229C28.5764 32.8909 29.6 30.2584 29.6 26.85H27.6C27.6 29.8416 26.7236 31.7841 25.0784 33.0271C23.3703 34.3177 20.6503 35 16.65 35V37ZM29.6 26.85V24.8H27.6V26.85H29.6ZM29.6 24.8C29.6 22.8139 29.1709 21.074 28.1327 19.7124C27.0866 18.3403 25.5194 17.4795 23.4987 17.0699L23.1013 19.0301C24.7806 19.3705 25.8634 20.0347 26.5423 20.9251C27.2291 21.826 27.6 23.0861 27.6 24.8H29.6ZM24.3 18.05V17.5H22.3V18.05H24.3ZM23.5918 18.4565C25.212 17.9622 26.5583 17.1482 27.4881 15.8782C28.4164 14.6104 28.85 12.9966 28.85 11.05H26.85C26.85 12.7034 26.4836 13.8646 25.8744 14.6968C25.2667 15.5268 24.338 16.1378 23.0082 16.5435L23.5918 18.4565ZM28.85 11.05V9.8H26.85V11.05H28.85ZM28.85 9.8C28.85 6.72935 27.8027 4.20462 25.5357 2.4846C23.3188 0.802607 20.0769 -2.38419e-06 15.9 -2.38419e-06V2C19.8731 2 22.6062 2.77239 24.3268 4.0779C25.9973 5.34538 26.85 7.22065 26.85 9.8H28.85ZM15.9 -2.38419e-06H0.75V2H15.9V-2.38419e-06ZM-0.25 0.999998V36H1.75V0.999998H-0.25ZM0.75 37H16.65V35H0.75V37ZM10.1 9.5H15.4V7.5H10.1V9.5ZM15.4 9.5C16.442 9.5 16.9188 9.72001 17.1394 9.92076C17.3372 10.1009 17.5 10.4234 17.5 11.1H19.5C19.5 10.1266 19.2628 9.14911 18.4856 8.44174C17.7312 7.75499 16.658 7.5 15.4 7.5V9.5ZM17.5 11.1V12.45H19.5V11.1H17.5ZM17.5 12.45C17.5 13.1266 17.3372 13.4491 17.1394 13.6292C16.9188 13.83 16.442 14.05 15.4 14.05V16.05C16.658 16.05 17.7312 15.795 18.4856 15.1083C19.2628 14.4009 19.5 13.4234 19.5 12.45H17.5ZM15.4 14.05H10.1V16.05H15.4V14.05ZM11.1 15.05V8.5H9.1V15.05H11.1ZM10.1 22.7H16.15V20.7H10.1V22.7ZM16.15 22.7C17.192 22.7 17.6688 22.92 17.8894 23.1208C18.0872 23.3009 18.25 23.6234 18.25 24.3H20.25C20.25 23.3266 20.0128 22.3491 19.2356 21.6417C18.4812 20.955 17.408 20.7 16.15 20.7V22.7ZM18.25 24.3V25.9H20.25V24.3H18.25ZM18.25 25.9C18.25 26.5766 18.0872 26.8991 17.8894 27.0792C17.6688 27.28 17.192 27.5 16.15 27.5V29.5C17.408 29.5 18.4812 29.245 19.2356 28.5583C20.0128 27.8509 20.25 26.8734 20.25 25.9H18.25ZM16.15 27.5H10.1V29.5H16.15V27.5ZM11.1 28.5V21.7H9.1V28.5H11.1ZM56.0313 36V37H57.0313V36H56.0313ZM56.0313 28H57.0313V27H56.0313V28ZM42.2813 28H41.2813V29H42.2813V28ZM42.2813 0.999998H43.2813V-2.38419e-06H42.2813V0.999998ZM32.7813 0.999998V-2.38419e-06H31.7813V0.999998H32.7813ZM32.7813 36H31.7813V37H32.7813V36ZM57.0313 36V28H55.0313V36H57.0313ZM56.0313 27H42.2813V29H56.0313V27ZM43.2813 28V0.999998H41.2813V28H43.2813ZM42.2813 -2.38419e-06H32.7813V2H42.2813V-2.38419e-06ZM31.7813 0.999998V36H33.7813V0.999998H31.7813ZM32.7813 37H56.0313V35H32.7813V37ZM75.1773 37.5C79.3801 37.5 82.8811 36.6722 85.3331 34.5425C87.8146 32.3871 89.0273 29.0722 89.0273 24.55H87.0273C87.0273 28.7278 85.9151 31.3879 84.0216 33.0325C82.0986 34.7028 79.1746 35.5 75.1773 35.5V37.5ZM89.0273 24.55V12.45H87.0273V24.55H89.0273ZM89.0273 12.45C89.0273 7.92784 87.8146 4.61289 85.3331 2.45752C82.8811 0.327784 79.3801 -0.500002 75.1773 -0.500002V1.5C79.1746 1.5 82.0986 2.29721 84.0216 3.96748C85.9151 5.61211 87.0273 8.27215 87.0273 12.45H89.0273ZM75.1773 -0.500002H72.0773V1.5H75.1773V-0.500002ZM72.0773 -0.500002C67.8746 -0.500002 64.3736 0.327784 61.9216 2.45752C59.4401 4.61289 58.2273 7.92784 58.2273 12.45H60.2273C60.2273 8.27215 61.3396 5.61211 63.2331 3.96748C65.1561 2.29721 68.0801 1.5 72.0773 1.5V-0.500002ZM58.2273 12.45V24.55H60.2273V12.45H58.2273ZM58.2273 24.55C58.2273 29.0722 59.4401 32.3871 61.9216 34.5425C64.3736 36.6722 67.8746 37.5 72.0773 37.5V35.5C68.0801 35.5 65.1561 34.7028 63.2331 33.0325C61.3396 31.3879 60.2273 28.7278 60.2273 24.55H58.2273ZM72.0773 37.5H75.1773V35.5H72.0773V37.5ZM69.7273 24.9V12.1H67.7273V24.9H69.7273ZM69.7273 12.1C69.7273 10.8114 69.9382 10.285 70.208 10.021C70.4875 9.74746 71.0899 9.5 72.5773 9.5V7.5C71.0148 7.5 69.6922 7.72754 68.8092 8.5915C67.9165 9.46499 67.7273 10.7386 67.7273 12.1H69.7273ZM72.5773 9.5H74.6773V7.5H72.5773V9.5ZM74.6773 9.5C76.1648 9.5 76.7672 9.74746 77.0467 10.021C77.3165 10.285 77.5273 10.8114 77.5273 12.1H79.5273C79.5273 10.7386 79.3382 9.46499 78.4455 8.5915C77.5625 7.72754 76.2399 7.5 74.6773 7.5V9.5ZM77.5273 12.1V24.9H79.5273V12.1H77.5273ZM77.5273 24.9C77.5273 26.1886 77.3165 26.715 77.0467 26.979C76.7672 27.2525 76.1648 27.5 74.6773 27.5V29.5C76.2399 29.5 77.5625 29.2725 78.4455 28.4085C79.3382 27.535 79.5273 26.2614 79.5273 24.9H77.5273ZM74.6773 27.5H72.5773V29.5H74.6773V27.5ZM72.5773 27.5C71.0899 27.5 70.4875 27.2525 70.208 26.979C69.9382 26.715 69.7273 26.1886 69.7273 24.9H67.7273C67.7273 26.2614 67.9165 27.535 68.8092 28.4085C69.6922 29.2725 71.0148 29.5 72.5773 29.5V27.5ZM118.492 9V10H119.492V9H118.492ZM118.492 0.999998H119.492V-2.38419e-06H118.492V0.999998ZM119.492 36V37H120.492V36H119.492ZM119.492 17.6H120.492V16.6H119.492V17.6ZM110.742 17.6V16.6H109.742V17.6H110.742ZM110.742 28V29H111.742V28H110.742ZM119.492 9V0.999998H117.492V9H119.492ZM118.492 -2.38419e-06H104.292V2H118.492V-2.38419e-06ZM104.292 -2.38419e-06C100.326 -2.38419e-06 96.9581 0.833411 94.5756 2.89358C92.1646 4.97839 90.9422 8.16059 90.9422 12.45H92.9422C92.9422 8.53941 94.0448 5.9966 95.8838 4.40642C97.7513 2.79158 100.558 2 104.292 2V-2.38419e-06ZM90.9422 12.45V24.55H92.9422V12.45H90.9422ZM90.9422 24.55C90.9422 28.8394 92.1646 32.0216 94.5756 34.1064C96.9581 36.1666 100.326 37 104.292 37V35C100.558 35 97.7513 34.2084 95.8838 32.5936C94.0448 31.0034 92.9422 28.4606 92.9422 24.55H90.9422ZM104.292 37H119.492V35H104.292V37ZM120.492 36V17.6H118.492V36H120.492ZM119.492 16.6H110.742V18.6H119.492V16.6ZM109.742 17.6V28H111.742V17.6H109.742ZM110.742 27H104.792V29H110.742V27ZM104.792 27C103.597 27 103.093 26.7684 102.859 26.5406C102.635 26.3215 102.442 25.8913 102.442 24.9H100.442C100.442 26.0587 100.65 27.1785 101.463 27.9719C102.267 28.7566 103.437 29 104.792 29V27ZM102.442 24.9V12.1H100.442V24.9H102.442ZM102.442 12.1C102.442 11.1087 102.635 10.6785 102.859 10.4594C103.093 10.2316 103.597 10 104.792 10V8C103.437 8 102.267 8.24342 101.463 9.02807C100.65 9.82145 100.442 10.9413 100.442 12.1H102.442ZM104.792 10H118.492V8H104.792V10Z" fill="#230077"/>
</svg>
