<svg width="656" height="208" viewBox="0 0 656 208" fill="none" xmlns="http://www.w3.org/2000/svg">
<g clip-path="url(#clip0_22_1172)">
<path d="M144.95 103.66H141.065V106.837L144.179 107.468L144.95 103.66ZM144.95 100.8L143.817 97.0838L141.065 97.9233V100.8H144.95ZM27.6905 15V11.1147H23.8052V15H27.6905ZM27.6905 197H23.8052V200.885H27.6905V197ZM76.3105 54V50.1148H72.4252V54H76.3105ZM76.3105 88.06H72.4252V91.9452H76.3105V88.06ZM76.3105 122.64V118.755H72.4252V122.64H76.3105ZM76.3105 158H72.4252V161.885H76.3105V158ZM110.37 200.885C131.851 200.885 148.425 197.29 159.675 188.79C171.17 180.105 176.396 166.87 176.396 149.42H168.625C168.625 165.25 163.971 175.805 154.991 182.59C145.766 189.56 131.27 193.115 110.37 193.115V200.885ZM176.396 149.42V138.76H168.625V149.42H176.396ZM176.396 138.76C176.396 128.611 174.202 119.879 169.035 113.102C163.837 106.283 156.006 101.937 145.722 99.8522L144.179 107.468C153.135 109.283 159.084 112.867 162.856 117.813C166.658 122.801 168.625 129.669 168.625 138.76H176.396ZM148.836 103.66V100.8H141.065V103.66H148.836ZM146.084 104.516C154.318 102.004 161.045 97.9047 165.668 91.5902C170.285 85.2838 172.496 77.1894 172.496 67.26H164.725C164.725 76.0506 162.776 82.3862 159.398 86.9998C156.026 91.6053 150.923 94.916 143.817 97.0838L146.084 104.516ZM172.496 67.26V60.76H164.725V67.26H172.496ZM172.496 60.76C172.496 45.1156 167.178 32.4139 155.781 23.7673C144.58 15.2684 128.056 11.1147 106.47 11.1147V18.8852C127.265 18.8852 141.811 22.9215 151.085 29.9577C160.163 36.8461 164.725 47.0244 164.725 60.76H172.496ZM106.47 11.1147H27.6905V18.8852H106.47V11.1147ZM23.8052 15V197H31.5757V15H23.8052ZM27.6905 200.885H110.37V193.115H27.6905V200.885ZM76.3105 57.8852H103.87V50.1148H76.3105V57.8852ZM103.87 57.8852C109.431 57.8852 112.302 59.0523 113.8 60.4157C115.21 61.6989 116.105 63.8067 116.105 67.52H123.876C123.876 62.6533 122.691 58.0011 119.031 54.6693C115.459 51.4177 110.27 50.1148 103.87 50.1148V57.8852ZM116.105 67.52V74.54H123.876V67.52H116.105ZM116.105 74.54C116.105 78.2533 115.21 80.361 113.8 81.6443C112.302 83.0077 109.431 84.1747 103.87 84.1747V91.9452C110.27 91.9452 115.459 90.6423 119.031 87.3907C122.691 84.0589 123.876 79.4067 123.876 74.54H116.105ZM103.87 84.1747H76.3105V91.9452H103.87V84.1747ZM80.1957 88.06V54H72.4252V88.06H80.1957ZM76.3105 126.525H107.77V118.755H76.3105V126.525ZM107.77 126.525C113.331 126.525 116.202 127.692 117.7 129.056C119.11 130.339 120.005 132.447 120.005 136.16H127.776C127.776 131.293 126.591 126.641 122.931 123.309C119.359 120.058 114.17 118.755 107.77 118.755V126.525ZM120.005 136.16V144.48H127.776V136.16H120.005ZM120.005 144.48C120.005 148.193 119.11 150.301 117.7 151.584C116.202 152.948 113.331 154.115 107.77 154.115V161.885C114.17 161.885 119.359 160.582 122.931 157.331C126.591 153.999 127.776 149.347 127.776 144.48H120.005ZM107.77 154.115H76.3105V161.885H107.77V154.115ZM80.1957 158V122.64H72.4252V158H80.1957ZM315.153 197V200.885H319.038V197H315.153ZM315.153 155.4H319.038V151.515H315.153V155.4ZM243.653 155.4H239.768V159.285H243.653V155.4ZM243.653 15H247.538V11.1147H243.653V15ZM194.253 15V11.1147H190.368V15H194.253ZM194.253 197H190.368V200.885H194.253V197ZM319.038 197V155.4H311.268V197H319.038ZM315.153 151.515H243.653V159.285H315.153V151.515ZM247.538 155.4V15H239.768V155.4H247.538ZM243.653 11.1147H194.253V18.8852H243.653V11.1147ZM190.368 15V197H198.138V15H190.368ZM194.253 200.885H315.153V193.115H194.253V200.885ZM414.713 203.485C436.432 203.485 454.258 199.201 466.66 188.428C479.178 177.556 485.418 160.749 485.418 137.46H477.647C477.647 159.411 471.798 173.674 461.565 182.562C451.218 191.549 435.634 195.715 414.713 195.715V203.485ZM485.418 137.46V74.54H477.647V137.46H485.418ZM485.418 74.54C485.418 51.2511 479.178 34.4439 466.66 23.5717C454.258 12.7991 436.432 8.51474 414.713 8.51474V16.2852C435.634 16.2852 451.218 20.4508 461.565 29.4383C471.798 38.3261 477.647 52.5889 477.647 74.54H485.418ZM414.713 8.51474H398.593V16.2852H414.713V8.51474ZM398.593 8.51474C376.874 8.51474 359.048 12.7991 346.645 23.5717C334.128 34.4439 327.887 51.2511 327.887 74.54H335.658C335.658 52.5889 341.508 38.3261 351.74 29.4383C362.088 20.4508 377.672 16.2852 398.593 16.2852V8.51474ZM327.887 74.54V137.46H335.658V74.54H327.887ZM327.887 137.46C327.887 160.749 334.128 177.556 346.645 188.428C359.048 199.201 376.874 203.485 398.593 203.485V195.715C377.672 195.715 362.088 191.549 351.74 182.562C341.508 173.674 335.658 159.411 335.658 137.46H327.887ZM398.593 203.485H414.713V195.715H398.593V203.485ZM385.058 139.28V72.72H377.287V139.28H385.058ZM385.058 72.72C385.058 65.9714 386.14 62.743 387.952 60.9695C389.803 59.1589 393.409 57.8852 401.193 57.8852V50.1148C393.117 50.1148 386.713 51.3111 382.518 55.4155C378.285 59.557 377.287 65.6886 377.287 72.72H385.058ZM401.193 57.8852H412.113V50.1148H401.193V57.8852ZM412.113 57.8852C419.897 57.8852 423.503 59.1589 425.353 60.9695C427.165 62.743 428.247 65.9714 428.247 72.72H436.018C436.018 65.6886 435.02 59.557 430.787 55.4155C426.593 51.3111 420.189 50.1148 412.113 50.1148V57.8852ZM428.247 72.72V139.28H436.018V72.72H428.247ZM428.247 139.28C428.247 146.029 427.165 149.257 425.353 151.031C423.503 152.841 419.897 154.115 412.113 154.115V161.885C420.189 161.885 426.593 160.689 430.787 156.584C435.02 152.443 436.018 146.311 436.018 139.28H428.247ZM412.113 154.115H401.193V161.885H412.113V154.115ZM401.193 154.115C393.409 154.115 389.803 152.841 387.952 151.031C386.14 149.257 385.058 146.029 385.058 139.28H377.287C377.287 146.311 378.285 152.443 382.518 156.584C386.713 160.689 393.117 161.885 401.193 161.885V154.115ZM639.95 56.6V60.4852H643.835V56.6H639.95ZM639.95 15H643.835V11.1147H639.95V15ZM645.15 197V200.885H649.035V197H645.15ZM645.15 101.32H649.035V97.4347H645.15V101.32ZM599.65 101.32V97.4347H595.765V101.32H599.65ZM599.65 155.4V159.285H603.535V155.4H599.65ZM643.835 56.6V15H636.065V56.6H643.835ZM639.95 11.1147H566.11V18.8852H639.95V11.1147ZM566.11 11.1147C545.638 11.1147 528.494 15.421 516.444 25.8411C504.282 36.357 498.005 52.4841 498.005 74.54H505.775C505.775 53.9559 511.587 40.313 521.526 31.7189C531.576 23.029 546.541 18.8852 566.11 18.8852V11.1147ZM498.005 74.54V137.46H505.775V74.54H498.005ZM498.005 137.46C498.005 159.516 504.282 175.643 516.444 186.159C528.494 196.579 545.638 200.885 566.11 200.885V193.115C546.541 193.115 531.576 188.971 521.526 180.281C511.587 171.687 505.775 158.044 505.775 137.46H498.005ZM566.11 200.885H645.15V193.115H566.11V200.885ZM649.035 197V101.32H641.265V197H649.035ZM645.15 97.4347H599.65V105.205H645.15V97.4347ZM595.765 101.32V155.4H603.535V101.32H595.765ZM599.65 151.515H568.71V159.285H599.65V151.515ZM568.71 151.515C562.39 151.515 559.33 150.303 557.741 148.752C556.187 147.235 555.175 144.545 555.175 139.28H547.405C547.405 145.195 548.473 150.565 552.314 154.313C556.12 158.027 561.769 159.285 568.71 159.285V151.515ZM555.175 139.28V72.72H547.405V139.28H555.175ZM555.175 72.72C555.175 67.4551 556.187 64.765 557.741 63.2481C559.33 61.6972 562.39 60.4852 568.71 60.4852V52.7147C561.769 52.7147 556.12 53.9727 552.314 57.6869C548.473 61.435 547.405 66.8049 547.405 72.72H555.175ZM568.71 60.4852H639.95V52.7147H568.71V60.4852Z" fill="#230077"/>
</g>
<defs>
<clipPath id="clip0_22_1172">
<rect width="656" height="208" fill="white"/>
</clipPath>
</defs>
</svg>
