<svg width="213" height="37" viewBox="0 0 213 37" fill="none" xmlns="http://www.w3.org/2000/svg">
<g clip-path="url(#clip0_7_1078)">
<path d="M42.063 9.30664H46.4343L51.2743 17.0851L56.1142 9.30664H60.4856V27.6984H56.4849V15.6886L51.3023 23.5439H51.1974L46.0636 15.7654V27.6914H42.063V9.30664Z" fill="white"/>
<path d="M61.7446 9.30664H75.614V12.9096H65.7453V16.6382H74.432V20.2412H65.7453V24.1025H75.7469V27.7054H61.7446V9.30664Z" fill="white"/>
<path d="M76.873 9.30664H84.056C85.4968 9.30664 86.8117 9.53706 88.0147 10.0049C89.2177 10.4657 90.2529 11.1151 91.1201 11.939C91.9874 12.763 92.6589 13.7335 93.1345 14.8437C93.6101 15.9539 93.8479 17.1619 93.8479 18.4536V18.5095C93.8479 19.8082 93.6101 21.0162 93.1345 22.1334C92.6589 23.2576 91.9874 24.2281 91.1201 25.0521C90.2529 25.876 89.2177 26.5254 88.0147 26.9932C86.8117 27.468 85.4898 27.7054 84.056 27.7054H76.873V9.30664ZM84.056 24.0466C84.8814 24.0466 85.6367 23.9139 86.3221 23.6556C87.0076 23.3902 87.5881 23.0132 88.0707 22.5244C88.5533 22.0356 88.931 21.4561 89.2037 20.7928C89.4765 20.1294 89.6094 19.3823 89.6094 18.5584V18.5025C89.6094 17.6995 89.4765 16.9524 89.2037 16.2681C88.931 15.5839 88.5533 14.9973 88.0707 14.5086C87.5881 14.0198 87.0076 13.6358 86.3221 13.3634C85.6367 13.0911 84.8814 12.9585 84.056 12.9585H80.9227V24.0466H84.056Z" fill="white"/>
<path d="M95.1138 9.30664H99.1634V27.6984H95.1138V9.30664Z" fill="white"/>
<path d="M109.871 28.0127C108.522 28.0127 107.263 27.7683 106.109 27.2795C104.948 26.7907 103.947 26.1204 103.108 25.2686C102.269 24.4167 101.611 23.4182 101.136 22.2591C100.66 21.1 100.422 19.8711 100.422 18.5515V18.4956C100.422 17.1829 100.66 15.954 101.136 14.8019C101.611 13.6568 102.269 12.6443 103.108 11.7785C103.947 10.9127 104.962 10.2284 106.137 9.72564C107.312 9.22988 108.613 8.97852 110.032 8.97852C110.893 8.97852 111.676 9.04834 112.389 9.18799C113.103 9.32764 113.746 9.52315 114.327 9.76753C114.907 10.0119 115.439 10.3122 115.935 10.6613C116.425 11.0104 116.88 11.3944 117.306 11.8204L114.725 14.7879C114.005 14.1385 113.271 13.6288 112.529 13.2657C111.781 12.8957 110.949 12.7141 110.018 12.7141C109.249 12.7141 108.529 12.8608 107.871 13.161C107.214 13.4612 106.647 13.8732 106.172 14.3969C105.696 14.9206 105.332 15.5281 105.066 16.2263C104.801 16.9176 104.675 17.6577 104.675 18.4467V18.5026C104.675 19.2916 104.808 20.0387 105.066 20.737C105.332 21.4352 105.696 22.0497 106.158 22.5733C106.619 23.097 107.186 23.516 107.843 23.8232C108.501 24.1304 109.228 24.284 110.011 24.284C111.067 24.284 111.956 24.0885 112.683 23.7045C113.411 23.3205 114.138 22.7968 114.851 22.1265L117.432 24.7309C116.957 25.2406 116.467 25.6945 115.956 26.0995C115.446 26.5045 114.893 26.8466 114.285 27.1399C113.676 27.4261 113.019 27.6496 112.298 27.7962C111.578 27.9428 110.774 28.0197 109.878 28.0197L109.871 28.0127Z" fill="white"/>
<path d="M125.636 9.17383H129.371L137.268 27.6983H133.029L131.344 23.5716H123.552L121.866 27.6983H117.733L125.629 9.17383H125.636ZM129.903 19.9966L127.455 14.0336L125.007 19.9966H129.903Z" fill="white"/>
<path d="M138.527 9.30664H142.576V24.0466H151.759V27.6984H138.52V9.30664H138.527Z" fill="white"/>
<path d="M164.629 27.9565C163.223 27.9565 161.845 27.7121 160.495 27.2373C159.145 26.7555 157.914 26.0154 156.809 25.0169L159.201 22.1541C160.04 22.8383 160.908 23.383 161.796 23.781C162.684 24.1859 163.649 24.3884 164.705 24.3884C165.545 24.3884 166.202 24.2348 166.664 23.9276C167.125 23.6204 167.363 23.1944 167.363 22.6498V22.5939C167.363 22.3286 167.314 22.0982 167.216 21.8957C167.118 21.6932 166.937 21.5047 166.664 21.3301C166.391 21.1556 166.013 20.981 165.531 20.8064C165.048 20.6319 164.419 20.4503 163.642 20.2548C162.712 20.0244 161.866 19.773 161.11 19.4937C160.355 19.2144 159.712 18.8653 159.187 18.4534C158.663 18.0414 158.25 17.5317 157.963 16.9172C157.669 16.3028 157.529 15.5417 157.529 14.634V14.5781C157.529 13.7402 157.683 12.9791 157.998 12.3088C158.313 11.6315 158.753 11.052 159.32 10.5632C159.887 10.0744 160.565 9.69737 161.348 9.43203C162.132 9.1667 162.999 9.04102 163.95 9.04102C165.3 9.04102 166.545 9.24351 167.671 9.64849C168.804 10.0535 169.839 10.633 170.79 11.3801L168.685 14.4245C167.86 13.8659 167.056 13.419 166.265 13.0978C165.475 12.7766 164.685 12.609 163.894 12.609C163.104 12.609 162.509 12.7627 162.118 13.0699C161.726 13.3771 161.523 13.7542 161.523 14.215V14.2709C161.523 14.5711 161.579 14.8295 161.698 15.0459C161.81 15.2624 162.02 15.4649 162.32 15.6394C162.621 15.814 163.027 15.9816 163.544 16.1352C164.062 16.2958 164.719 16.4773 165.51 16.6868C166.44 16.9312 167.272 17.2105 168.007 17.5177C168.734 17.8249 169.35 18.195 169.853 18.6209C170.357 19.0469 170.734 19.5566 170.986 20.1291C171.238 20.7087 171.371 21.3999 171.371 22.2029V22.2588C171.371 23.1665 171.203 23.9765 170.874 24.6887C170.546 25.4009 170.084 25.9944 169.489 26.4762C168.895 26.958 168.189 27.328 167.37 27.5794C166.545 27.8308 165.636 27.9635 164.636 27.9635L164.629 27.9565Z" fill="white"/>
<path d="M178.526 9.17383H182.261L190.157 27.6983H185.919L184.233 23.5716H176.442L174.756 27.6983H170.623L178.519 9.17383H178.526ZM182.792 19.9966L180.344 14.0336L177.896 19.9966H182.792Z" fill="white"/>
<path d="M191.423 9.30664H195.158L203.789 20.6322V9.30664H207.789V27.6984H204.341L195.417 16.0098V27.6984H191.416V9.30664H191.423Z" fill="white"/>
<path d="M211.028 13.2447C209.944 13.2447 209.056 12.358 209.056 11.2757C209.056 10.1934 209.944 9.30664 211.028 9.30664C212.112 9.30664 213 10.1934 213 11.2757C213 12.358 212.112 13.2447 211.028 13.2447ZM211.028 9.68369C210.147 9.68369 209.433 10.3959 209.433 11.2757C209.433 12.1555 210.147 12.8677 211.028 12.8677C211.909 12.8677 212.623 12.1555 212.623 11.2757C212.623 10.3959 211.909 9.68369 211.028 9.68369Z" fill="white"/>
<path d="M210.308 10.25H211.196C211.322 10.25 211.434 10.2709 211.532 10.3059C211.63 10.3408 211.706 10.3896 211.776 10.4525C211.832 10.5084 211.867 10.5712 211.902 10.641C211.93 10.7108 211.944 10.7946 211.944 10.8784C211.944 10.9692 211.93 11.039 211.909 11.1019C211.888 11.1647 211.853 11.2275 211.811 11.2764C211.769 11.3253 211.72 11.3672 211.664 11.4021C211.609 11.437 211.546 11.4649 211.469 11.4859L212.007 12.24H211.595L211.105 11.5487H210.664V12.24H210.315V10.25H210.308ZM211.168 11.2345C211.294 11.2345 211.392 11.2066 211.469 11.1438C211.546 11.0809 211.581 11.0041 211.581 10.8994C211.581 10.7876 211.546 10.7039 211.469 10.648C211.392 10.5921 211.294 10.5642 211.161 10.5642H210.65V11.2345H211.168Z" fill="white"/>
<path d="M18.5065 36.9785C28.7274 36.9785 37.0131 28.7067 37.0131 18.5029C37.0131 8.29913 28.7274 0.0273438 18.5065 0.0273438C8.28566 0.0273438 0 8.29913 0 18.5029C0 28.7067 8.28566 36.9785 18.5065 36.9785Z" fill="#00367E"/>
<path d="M18.5065 0C8.28807 0 0 8.2742 0 18.4756H37.0131C37.0131 8.2742 28.725 0 18.5065 0Z" fill="url(#paint0_linear_7_1078)"/>
<g opacity="0.4">
<path d="M18.5065 37.001C28.725 37.001 37.0131 28.7267 37.0131 18.5254H0C0 28.7267 8.28807 37.001 18.5065 37.001Z" fill="url(#paint1_linear_7_1078)"/>
</g>
<path d="M18.5068 35.3935C9.17655 35.3935 1.58789 27.8176 1.58789 18.503C1.58789 9.18841 9.17655 1.60547 18.5068 1.60547C27.837 1.60547 35.4256 9.18143 35.4256 18.496C35.4256 27.8106 27.837 35.3866 18.5068 35.3866V35.3935ZM18.5068 3.33712C10.1347 3.33712 3.32244 10.138 3.32244 18.503C3.32244 26.868 10.1347 33.6619 18.5068 33.6619C26.8788 33.6619 33.6911 26.861 33.6911 18.503C33.6911 10.145 26.8788 3.33712 18.5068 3.33712Z" fill="white"/>
<path d="M27.9905 18.5027C28.1234 18.3701 28.2423 18.2374 28.3542 18.1047C29.2215 17.0643 29.6621 15.8494 29.6621 14.4878C29.6621 13.1262 29.2215 11.9113 28.3542 10.8709C27.9835 10.424 27.5429 10.04 27.0603 9.7188L27.0043 9.6769H21.9056L22.4092 10.0889C22.7868 10.3961 23.1226 10.7592 23.4093 11.1502L23.4793 11.248H26.4937C27.5639 12.0649 28.0814 13.1193 28.0814 14.4808C28.0814 15.8424 27.5708 16.8758 26.5217 17.6997H18.9401L15.6318 14.5856V12.5188C16.3592 11.5761 17.2964 11.1153 18.4994 11.1153C19.7024 11.1153 20.6326 11.5761 21.367 12.5188V13.4893H22.8148V12.0649L22.7798 12.009C22.5001 11.5622 22.1504 11.1711 21.7517 10.843C20.8145 10.0609 19.7234 9.66992 18.4994 9.66992C17.2755 9.66992 16.1844 10.0679 15.2541 10.843C14.8485 11.1711 14.4988 11.5622 14.219 12.009L14.184 12.0649V15.207L16.8068 17.6928H10.4911C9.435 16.8758 8.91743 15.8215 8.91743 14.4738C8.91743 13.1262 9.435 12.0649 10.4911 11.241H13.5196L13.5895 11.1432C13.8763 10.7452 14.219 10.3891 14.5897 10.0819L15.0933 9.66992H10.0015L9.94558 9.70483C9.46298 10.0121 9.02934 10.3961 8.65166 10.85C7.78438 11.8973 7.34375 13.1193 7.34375 14.4808C7.34375 15.8424 7.78438 17.0504 8.65166 18.0977C8.76356 18.2374 8.88946 18.3701 9.01535 18.4957C8.88246 18.6284 8.76356 18.7611 8.65166 18.8937C7.78438 19.9341 7.34375 21.1491 7.34375 22.5106C7.34375 23.8722 7.78438 25.0872 8.65166 26.1276C9.02235 26.5744 9.46298 26.9585 9.94558 27.2797L10.0015 27.3216H15.0723L14.5827 26.9096C14.205 26.5884 13.8693 26.2323 13.5825 25.8413L13.5126 25.7435H10.5051C9.435 24.9266 8.91743 23.8722 8.91743 22.5106C8.91743 21.1491 9.42801 20.1157 10.4771 19.2917H18.4784L21.36 22.0219V24.4797C20.6257 25.4153 19.6884 25.8762 18.4924 25.8762C17.2964 25.8762 16.3522 25.4223 15.6248 24.4797V23.5929H14.177V24.9336L14.212 24.9894C14.4918 25.4223 14.8345 25.8133 15.2402 26.1555C16.1774 26.9305 17.2685 27.3216 18.4924 27.3216C19.7164 27.3216 20.8005 26.9305 21.7447 26.1555C22.1504 25.8203 22.4931 25.4293 22.7729 24.9894L22.8078 24.9336V21.3516L20.6187 19.2917H26.5007C27.5569 20.1087 28.0744 21.163 28.0744 22.5106C28.0744 23.8583 27.5569 24.9196 26.5007 25.7435H23.4723L23.4023 25.8413C23.1156 26.2323 22.7798 26.5954 22.4022 26.9096L21.9126 27.3216H26.9833L27.0393 27.2866C27.5219 26.9794 27.9555 26.5954 28.3332 26.1415C29.2005 25.0942 29.6411 23.8722 29.6411 22.5106C29.6411 21.1491 29.2005 19.9411 28.3332 18.8937C28.2213 18.7541 28.0954 18.6214 27.9695 18.4957L27.9905 18.5027Z" fill="white"/>
</g>
<defs>
<linearGradient id="paint0_linear_7_1078" x1="18.5065" y1="0" x2="18.5065" y2="18.4756" gradientUnits="userSpaceOnUse">
<stop stop-color="white" stop-opacity="0.5"/>
<stop offset="1" stop-color="white" stop-opacity="0"/>
</linearGradient>
<linearGradient id="paint1_linear_7_1078" x1="18.5065" y1="37.001" x2="18.5065" y2="18.5254" gradientUnits="userSpaceOnUse">
<stop stop-color="white" stop-opacity="0.5"/>
<stop offset="1" stop-color="white" stop-opacity="0"/>
</linearGradient>
<clipPath id="clip0_7_1078">
<rect width="213" height="37" fill="white"/>
</clipPath>
</defs>
</svg>
