<svg width="300" height="300" viewBox="0 0 300 300" fill="none" xmlns="http://www.w3.org/2000/svg">
<path d="M92.8117 138.46V161H88.6956L78.8895 146.814H78.7245V161H73.959V138.46H78.1412L87.8702 152.636H88.0683V138.46H92.8117ZM117.462 149.73C117.462 152.188 116.996 154.279 116.064 156.003C115.139 157.728 113.877 159.045 112.278 159.954C110.686 160.857 108.896 161.308 106.907 161.308C104.904 161.308 103.107 160.853 101.514 159.943C99.9223 159.034 98.664 157.717 97.7395 155.992C96.815 154.268 96.3528 152.181 96.3528 149.73C96.3528 147.272 96.815 145.181 97.7395 143.457C98.664 141.733 99.9223 140.419 101.514 139.517C103.107 138.607 104.904 138.152 106.907 138.152C108.896 138.152 110.686 138.607 112.278 139.517C113.877 140.419 115.139 141.733 116.064 143.457C116.996 145.181 117.462 147.272 117.462 149.73ZM112.63 149.73C112.63 148.138 112.392 146.795 111.915 145.702C111.445 144.609 110.781 143.78 109.923 143.215C109.064 142.65 108.059 142.367 106.907 142.367C105.755 142.367 104.75 142.65 103.892 143.215C103.033 143.78 102.366 144.609 101.889 145.702C101.419 146.795 101.184 148.138 101.184 149.73C101.184 151.322 101.419 152.665 101.889 153.758C102.366 154.852 103.033 155.681 103.892 156.246C104.75 156.811 105.755 157.093 106.907 157.093C108.059 157.093 109.064 156.811 109.923 156.246C110.781 155.681 111.445 154.852 111.915 153.758C112.392 152.665 112.63 151.322 112.63 149.73ZM132.93 138.46V161H128.165V138.46H132.93ZM136.851 138.46H142.728L148.935 153.604H149.199L155.406 138.46H161.283V161H156.661V146.329H156.474L150.641 160.89H147.493L141.66 146.274H141.473V161H136.851V138.46ZM169.095 161H163.988L171.769 138.46H177.91L185.68 161H180.574L174.928 143.611H174.752L169.095 161ZM168.776 152.14H180.838V155.86H168.776V152.14ZM202.28 145.746C202.125 145.211 201.909 144.737 201.63 144.326C201.351 143.908 201.01 143.556 200.607 143.27C200.21 142.976 199.756 142.753 199.242 142.599C198.736 142.444 198.174 142.367 197.558 142.367C196.406 142.367 195.394 142.654 194.521 143.226C193.655 143.798 192.98 144.631 192.496 145.724C192.011 146.81 191.769 148.138 191.769 149.708C191.769 151.278 192.008 152.614 192.485 153.714C192.961 154.815 193.636 155.655 194.51 156.235C195.383 156.807 196.414 157.093 197.602 157.093C198.681 157.093 199.602 156.902 200.365 156.521C201.135 156.132 201.722 155.585 202.125 154.881C202.536 154.176 202.742 153.344 202.742 152.383L203.71 152.526H197.899V148.938H207.331V151.777C207.331 153.758 206.913 155.46 206.077 156.884C205.24 158.3 204.088 159.393 202.621 160.164C201.153 160.927 199.473 161.308 197.58 161.308C195.467 161.308 193.611 160.842 192.011 159.91C190.412 158.971 189.164 157.64 188.269 155.915C187.382 154.184 186.938 152.129 186.938 149.752C186.938 147.925 187.202 146.296 187.73 144.866C188.266 143.428 189.014 142.21 189.975 141.212C190.936 140.214 192.055 139.455 193.332 138.934C194.609 138.413 195.992 138.152 197.481 138.152C198.758 138.152 199.946 138.339 201.047 138.714C202.147 139.08 203.123 139.601 203.974 140.276C204.833 140.951 205.534 141.755 206.077 142.687C206.619 143.611 206.968 144.631 207.122 145.746H202.28ZM210.911 161V138.46H226.099V142.389H215.676V147.76H225.317V151.689H215.676V157.071H226.143V161H210.911Z" fill="black"/>
<path d="M92.8117 138.46H93.5865V137.686H92.8117V138.46ZM92.8117 161V161.775H93.5865V161H92.8117ZM88.6956 161L88.0582 161.441L88.2893 161.775H88.6956V161ZM78.8895 146.814L79.5269 146.373L79.2959 146.039H78.8895V146.814ZM78.7245 146.814V146.039H77.9497V146.814H78.7245ZM78.7245 161V161.775H79.4993V161H78.7245ZM73.959 161H73.1842V161.775H73.959V161ZM73.959 138.46V137.686H73.1842V138.46H73.959ZM78.1412 138.46L78.78 138.022L78.5491 137.686H78.1412V138.46ZM87.8702 152.636L87.2314 153.074L87.4622 153.41H87.8702V152.636ZM88.0683 152.636V153.41H88.8431V152.636H88.0683ZM88.0683 138.46V137.686H87.2935V138.46H88.0683ZM92.0369 138.46V161H93.5865V138.46H92.0369ZM92.8117 160.225H88.6956V161.775H92.8117V160.225ZM89.3329 160.559L79.5269 146.373L78.2522 147.254L88.0582 161.441L89.3329 160.559ZM78.8895 146.039H78.7245V147.588H78.8895V146.039ZM77.9497 146.814V161H79.4993V146.814H77.9497ZM78.7245 160.225H73.959V161.775H78.7245V160.225ZM74.7338 161V138.46H73.1842V161H74.7338ZM73.959 139.235H78.1412V137.686H73.959V139.235ZM77.5023 138.899L87.2314 153.074L88.509 152.197L78.78 138.022L77.5023 138.899ZM87.8702 153.41H88.0683V151.861H87.8702V153.41ZM88.8431 152.636V138.46H87.2935V152.636H88.8431ZM88.0683 139.235H92.8117V137.686H88.0683V139.235ZM116.064 156.003L115.382 155.635L115.381 155.637L116.064 156.003ZM112.278 159.954L112.66 160.629L112.661 160.628L112.278 159.954ZM101.514 159.943L101.899 159.271L101.514 159.943ZM97.7395 155.992L97.0567 156.359L97.0567 156.359L97.7395 155.992ZM97.7395 143.457L98.4223 143.823L98.4223 143.823L97.7395 143.457ZM101.514 139.517L101.897 140.191L101.899 140.19L101.514 139.517ZM112.278 139.517L111.894 140.19L111.897 140.192L112.278 139.517ZM116.064 143.457L115.381 143.823L115.382 143.825L116.064 143.457ZM111.915 145.702L111.203 146.008L111.205 146.012L111.915 145.702ZM109.923 143.215L109.497 143.862L109.497 143.862L109.923 143.215ZM103.892 143.215L104.318 143.862L104.318 143.862L103.892 143.215ZM101.889 145.702L101.178 145.392L101.177 145.396L101.889 145.702ZM101.889 153.758L101.177 154.064L101.178 154.068L101.889 153.758ZM103.892 156.246L104.318 155.598L104.318 155.598L103.892 156.246ZM109.923 156.246L109.497 155.598L109.497 155.598L109.923 156.246ZM111.915 153.758L111.205 153.448L111.203 153.452L111.915 153.758ZM116.687 149.73C116.687 152.092 116.239 154.049 115.382 155.635L116.746 156.372C117.752 154.509 118.236 152.285 118.236 149.73H116.687ZM115.381 155.637C114.521 157.241 113.359 158.448 111.895 159.281L112.661 160.628C114.396 159.641 115.758 158.214 116.747 156.37L115.381 155.637ZM111.896 159.28C110.43 160.111 108.774 160.533 106.907 160.533V162.083C109.018 162.083 110.941 161.603 112.66 160.629L111.896 159.28ZM106.907 160.533C105.026 160.533 103.363 160.108 101.899 159.271L101.13 160.616C102.85 161.599 104.782 162.083 106.907 162.083V160.533ZM101.899 159.271C100.442 158.438 99.2829 157.231 98.4223 155.626L97.0567 156.359C98.0451 158.202 99.4031 159.629 101.13 160.616L101.899 159.271ZM98.4223 155.626C97.5716 154.04 97.1276 152.085 97.1276 149.73H95.578C95.578 152.277 96.0584 154.497 97.0567 156.359L98.4223 155.626ZM97.1276 149.73C97.1276 147.368 97.5718 145.409 98.4223 143.823L97.0567 143.091C96.0583 144.953 95.578 147.177 95.578 149.73H97.1276ZM98.4223 143.823C99.2826 142.219 100.441 141.016 101.897 140.191L101.132 138.843C99.404 139.823 98.0453 141.247 97.0567 143.091L98.4223 143.823ZM101.899 140.19C103.363 139.353 105.026 138.927 106.907 138.927V137.377C104.782 137.377 102.85 137.861 101.13 138.844L101.899 140.19ZM106.907 138.927C108.772 138.927 110.428 139.352 111.894 140.19L112.662 138.844C110.943 137.862 109.019 137.377 106.907 137.377V138.927ZM111.897 140.192C113.36 141.017 114.521 142.219 115.381 143.823L116.747 143.091C115.758 141.246 114.395 139.822 112.659 138.842L111.897 140.192ZM115.382 143.825C116.239 145.411 116.687 147.369 116.687 149.73H118.236C118.236 147.176 117.752 144.951 116.746 143.089L115.382 143.825ZM113.405 149.73C113.405 148.065 113.156 146.61 112.625 145.392L111.205 146.012C111.627 146.981 111.855 148.211 111.855 149.73H113.405ZM112.627 145.396C112.107 144.186 111.353 143.228 110.349 142.568L109.497 143.862C110.21 144.331 110.783 145.031 111.203 146.008L112.627 145.396ZM110.349 142.568C109.349 141.91 108.192 141.593 106.907 141.593V143.142C107.927 143.142 108.78 143.39 109.497 143.862L110.349 142.568ZM106.907 141.593C105.623 141.593 104.466 141.91 103.466 142.568L104.318 143.862C105.035 143.39 105.888 143.142 106.907 143.142V141.593ZM103.466 142.568C102.463 143.228 101.706 144.184 101.178 145.392L102.599 146.012C103.026 145.034 103.604 144.332 104.318 143.862L103.466 142.568ZM101.177 145.396C100.654 146.613 100.409 148.067 100.409 149.73H101.959C101.959 148.21 102.184 146.978 102.601 146.008L101.177 145.396ZM100.409 149.73C100.409 151.394 100.654 152.847 101.177 154.064L102.601 153.452C102.184 152.483 101.959 151.251 101.959 149.73H100.409ZM101.178 154.068C101.706 155.276 102.463 156.233 103.466 156.893L104.318 155.598C103.604 155.129 103.026 154.427 102.599 153.448L101.178 154.068ZM103.466 156.893C104.466 157.551 105.623 157.868 106.907 157.868V156.318C105.888 156.318 105.035 156.07 104.318 155.598L103.466 156.893ZM106.907 157.868C108.192 157.868 109.349 157.551 110.349 156.893L109.497 155.598C108.78 156.07 107.927 156.318 106.907 156.318V157.868ZM110.349 156.893C111.353 156.232 112.107 155.274 112.627 154.064L111.203 153.452C110.783 154.429 110.21 155.129 109.497 155.598L110.349 156.893ZM112.625 154.068C113.156 152.85 113.405 151.395 113.405 149.73H111.855C111.855 151.25 111.627 152.48 111.205 153.448L112.625 154.068ZM132.93 138.46H133.705V137.686H132.93V138.46ZM132.93 161V161.775H133.705V161H132.93ZM128.165 161H127.39V161.775H128.165V161ZM128.165 138.46V137.686H127.39V138.46H128.165ZM132.155 138.46V161H133.705V138.46H132.155ZM132.93 160.225H128.165V161.775H132.93V160.225ZM128.939 161V138.46H127.39V161H128.939ZM128.165 139.235H132.93V137.686H128.165V139.235ZM136.851 138.46V137.686H136.076V138.46H136.851ZM142.728 138.46L143.445 138.167L143.248 137.686H142.728V138.46ZM148.935 153.604L148.218 153.898L148.415 154.379H148.935V153.604ZM149.199 153.604V154.379H149.719L149.916 153.898L149.199 153.604ZM155.406 138.46V137.686H154.887L154.69 138.167L155.406 138.46ZM161.283 138.46H162.058V137.686H161.283V138.46ZM161.283 161V161.775H162.058V161H161.283ZM156.661 161H155.886V161.775H156.661V161ZM156.661 146.329H157.436V145.555H156.661V146.329ZM156.474 146.329V145.555H155.95L155.755 146.041L156.474 146.329ZM150.641 160.89V161.665H151.165L151.36 161.178L150.641 160.89ZM147.493 160.89L146.774 161.177L146.968 161.665H147.493V160.89ZM141.66 146.274L142.38 145.987L142.185 145.5H141.66V146.274ZM141.473 146.274V145.5H140.698V146.274H141.473ZM141.473 161V161.775H142.248V161H141.473ZM136.851 161H136.076V161.775H136.851V161ZM136.851 139.235H142.728V137.686H136.851V139.235ZM142.011 138.754L148.218 153.898L149.652 153.31L143.445 138.167L142.011 138.754ZM148.935 154.379H149.199V152.829H148.935V154.379ZM149.916 153.898L156.123 138.754L154.69 138.167L148.482 153.31L149.916 153.898ZM155.406 139.235H161.283V137.686H155.406V139.235ZM160.509 138.46V161H162.058V138.46H160.509ZM161.283 160.225H156.661V161.775H161.283V160.225ZM157.436 161V146.329H155.886V161H157.436ZM156.661 145.555H156.474V147.104H156.661V145.555ZM155.755 146.041L149.922 160.602L151.36 161.178L157.193 146.618L155.755 146.041ZM150.641 160.115H147.493V161.665H150.641V160.115ZM148.213 160.603L142.38 145.987L140.941 146.562L146.774 161.177L148.213 160.603ZM141.66 145.5H141.473V147.049H141.66V145.5ZM140.698 146.274V161H142.248V146.274H140.698ZM141.473 160.225H136.851V161.775H141.473V160.225ZM137.626 161V138.46H136.076V161H137.626ZM169.095 161V161.775H169.657L169.832 161.24L169.095 161ZM163.988 161L163.256 160.747L162.901 161.775H163.988V161ZM171.769 138.46V137.686H171.217L171.037 138.208L171.769 138.46ZM177.91 138.46L178.643 138.208L178.463 137.686H177.91V138.46ZM185.68 161V161.775H186.767L186.413 160.747L185.68 161ZM180.574 161L179.837 161.239L180.011 161.775H180.574V161ZM174.928 143.611L175.665 143.372L175.491 142.836H174.928V143.611ZM174.752 143.611V142.836H174.189L174.015 143.371L174.752 143.611ZM168.776 152.14V151.366H168.001V152.14H168.776ZM180.838 152.14H181.613V151.366H180.838V152.14ZM180.838 155.86V156.635H181.613V155.86H180.838ZM168.776 155.86H168.001V156.635H168.776V155.86ZM169.095 160.225H163.988V161.775H169.095V160.225ZM164.72 161.253L172.501 138.713L171.037 138.208L163.256 160.747L164.72 161.253ZM171.769 139.235H177.91V137.686H171.769V139.235ZM177.178 138.713L184.948 161.253L186.413 160.747L178.643 138.208L177.178 138.713ZM185.68 160.225H180.574V161.775H185.68V160.225ZM181.311 160.761L175.665 143.372L174.191 143.85L179.837 161.239L181.311 160.761ZM174.928 142.836H174.752V144.386H174.928V142.836ZM174.015 143.371L168.358 160.76L169.832 161.24L175.488 143.851L174.015 143.371ZM168.776 152.915H180.838V151.366H168.776V152.915ZM180.063 152.14V155.86H181.613V152.14H180.063ZM180.838 155.086H168.776V156.635H180.838V155.086ZM169.55 155.86V152.14H168.001V155.86H169.55ZM202.28 145.746L201.535 145.96L201.696 146.521H202.28V145.746ZM201.63 144.326L200.986 144.756L200.989 144.761L201.63 144.326ZM200.607 143.27L200.146 143.892L200.152 143.897L200.159 143.902L200.607 143.27ZM199.242 142.599L199.016 143.34L199.019 143.341L199.242 142.599ZM194.521 143.226L194.096 142.578L194.093 142.579L194.521 143.226ZM192.496 145.724L193.203 146.04L193.204 146.038L192.496 145.724ZM194.51 156.235L194.081 156.88L194.085 156.883L194.51 156.235ZM200.365 156.521L200.711 157.214L200.714 157.212L200.365 156.521ZM202.125 154.881L201.456 154.49L201.453 154.496L202.125 154.881ZM202.742 152.383L202.855 151.616L201.967 151.485V152.383H202.742ZM203.71 152.526V153.3L203.824 151.759L203.71 152.526ZM197.899 152.526H197.125V153.3H197.899V152.526ZM197.899 148.938V148.163H197.125V148.938H197.899ZM207.331 148.938H208.106V148.163H207.331V148.938ZM206.077 156.884L206.744 157.278L206.745 157.276L206.077 156.884ZM202.621 160.164L202.978 160.851L202.981 160.85L202.621 160.164ZM192.011 159.91L191.619 160.579L191.621 160.58L192.011 159.91ZM188.269 155.915L187.58 156.269L187.582 156.272L188.269 155.915ZM187.73 144.866L187.004 144.595L187.003 144.597L187.73 144.866ZM189.975 141.212L190.533 141.749L190.533 141.749L189.975 141.212ZM193.332 138.934L193.039 138.216L193.039 138.216L193.332 138.934ZM201.047 138.714L200.798 139.447L200.802 139.449L201.047 138.714ZM203.974 140.276L203.493 140.883L203.496 140.885L203.974 140.276ZM206.077 142.687L205.407 143.077L205.408 143.079L206.077 142.687ZM207.122 145.746V146.521H208.011L207.89 145.64L207.122 145.746ZM203.024 145.532C202.85 144.927 202.601 144.378 202.271 143.891L200.989 144.761C201.217 145.097 201.401 145.494 201.535 145.96L203.024 145.532ZM202.275 143.897C201.944 143.401 201.537 142.98 201.055 142.638L200.159 143.902C200.484 144.132 200.758 144.416 200.986 144.756L202.275 143.897ZM201.068 142.647C200.594 142.296 200.057 142.034 199.465 141.856L199.019 143.341C199.455 143.471 199.827 143.657 200.146 143.892L201.068 142.647ZM199.468 141.857C198.877 141.678 198.239 141.593 197.558 141.593V143.142C198.11 143.142 198.594 143.211 199.016 143.34L199.468 141.857ZM197.558 141.593C196.272 141.593 195.108 141.914 194.096 142.578L194.945 143.874C195.679 143.393 196.541 143.142 197.558 143.142V141.593ZM194.093 142.579C193.086 143.245 192.322 144.203 191.787 145.41L193.204 146.038C193.638 145.059 194.224 144.351 194.948 143.872L194.093 142.579ZM191.788 145.409C191.248 146.62 190.994 148.063 190.994 149.708H192.544C192.544 148.214 192.775 147 193.203 146.04L191.788 145.409ZM190.994 149.708C190.994 151.353 191.244 152.799 191.774 154.022L193.195 153.406C192.772 152.428 192.544 151.204 192.544 149.708H190.994ZM191.774 154.022C192.301 155.24 193.066 156.206 194.081 156.88L194.938 155.589C194.207 155.104 193.622 154.39 193.195 153.406L191.774 154.022ZM194.085 156.883C195.101 157.549 196.284 157.868 197.602 157.868V156.318C196.543 156.318 195.664 156.065 194.934 155.587L194.085 156.883ZM197.602 157.868C198.77 157.868 199.816 157.661 200.711 157.214L200.018 155.828C199.387 156.143 198.591 156.318 197.602 156.318V157.868ZM200.714 157.212C201.611 156.76 202.314 156.11 202.798 155.266L201.453 154.496C201.13 155.06 200.659 155.504 200.015 155.829L200.714 157.212ZM202.795 155.271C203.286 154.429 203.517 153.456 203.517 152.383H201.967C201.967 153.231 201.787 153.924 201.456 154.49L202.795 155.271ZM202.629 153.149L203.597 153.292L203.824 151.759L202.855 151.616L202.629 153.149ZM203.71 151.751H197.899V153.3H203.71V151.751ZM198.674 152.526V148.938H197.125V152.526H198.674ZM197.899 149.713H207.331V148.163H197.899V149.713ZM206.556 148.938V151.777H208.106V148.938H206.556ZM206.556 151.777C206.556 153.648 206.162 155.209 205.409 156.491L206.745 157.276C207.664 155.712 208.106 153.869 208.106 151.777H206.556ZM205.409 156.49C204.647 157.781 203.602 158.774 202.261 159.478L202.981 160.85C204.575 160.013 205.833 158.819 206.744 157.278L205.409 156.49ZM202.263 159.476C200.921 160.174 199.367 160.533 197.58 160.533V162.083C199.579 162.083 201.385 161.679 202.978 160.851L202.263 159.476ZM197.58 160.533C195.584 160.533 193.866 160.095 192.401 159.241L191.621 160.58C193.355 161.59 195.35 162.083 197.58 162.083V160.533ZM192.404 159.242C190.936 158.381 189.788 157.16 188.957 155.558L187.582 156.272C188.541 158.12 189.888 159.562 191.619 160.579L192.404 159.242ZM188.959 155.562C188.138 153.961 187.712 152.033 187.712 149.752H186.163C186.163 152.225 186.625 154.406 187.58 156.269L188.959 155.562ZM187.712 149.752C187.712 147.999 187.966 146.464 188.457 145.134L187.003 144.597C186.438 146.129 186.163 147.851 186.163 149.752H187.712ZM188.456 145.136C188.959 143.787 189.653 142.663 190.533 141.749L189.417 140.674C188.375 141.757 187.573 143.068 187.004 144.595L188.456 145.136ZM190.533 141.749C191.42 140.829 192.449 140.131 193.625 139.651L193.039 138.216C191.662 138.778 190.453 139.599 189.417 140.674L190.533 141.749ZM193.625 139.651C194.801 139.171 196.084 138.927 197.481 138.927V137.377C195.899 137.377 194.416 137.654 193.039 138.216L193.625 139.651ZM197.481 138.927C198.681 138.927 199.785 139.103 200.798 139.447L201.296 137.98C200.108 137.576 198.834 137.377 197.481 137.377V138.927ZM200.802 139.449C201.823 139.789 202.717 140.268 203.493 140.883L204.456 139.669C203.529 138.934 202.472 138.372 201.292 137.978L200.802 139.449ZM203.496 140.885C204.278 141.501 204.914 142.23 205.407 143.077L206.746 142.297C206.153 141.279 205.388 140.402 204.453 139.667L203.496 140.885ZM205.408 143.079C205.897 143.911 206.214 144.833 206.355 145.852L207.89 145.64C207.722 144.429 207.342 143.311 206.745 142.294L205.408 143.079ZM207.122 144.971H202.28V146.521H207.122V144.971ZM210.911 161H210.136V161.775H210.911V161ZM210.911 138.46V137.686H210.136V138.46H210.911ZM226.099 138.46H226.873V137.686H226.099V138.46ZM226.099 142.389V143.164H226.873V142.389H226.099ZM215.676 142.389V141.615H214.901V142.389H215.676ZM215.676 147.76H214.901V148.535H215.676V147.76ZM225.317 147.76H226.092V146.985H225.317V147.76ZM225.317 151.689V152.464H226.092V151.689H225.317ZM215.676 151.689V150.914H214.901V151.689H215.676ZM215.676 157.071H214.901V157.846H215.676V157.071ZM226.143 157.071H226.917V156.296H226.143V157.071ZM226.143 161V161.775H226.917V161H226.143ZM211.686 161V138.46H210.136V161H211.686ZM210.911 139.235H226.099V137.686H210.911V139.235ZM225.324 138.46V142.389H226.873V138.46H225.324ZM226.099 141.615H215.676V143.164H226.099V141.615ZM214.901 142.389V147.76H216.451V142.389H214.901ZM215.676 148.535H225.317V146.985H215.676V148.535ZM224.542 147.76V151.689H226.092V147.76H224.542ZM225.317 150.914H215.676V152.464H225.317V150.914ZM214.901 151.689V157.071H216.451V151.689H214.901ZM215.676 157.846H226.143V156.296H215.676V157.846ZM225.368 157.071V161H226.917V157.071H225.368ZM226.143 160.225H210.911V161.775H226.143V160.225Z" fill="black"/>
</svg>
